<svg width="48" height="48" viewBox="0 0 48 48" fill="none" xmlns="http://www.w3.org/2000/svg">
<path d="M0 16C0 7.16344 7.16344 0 16 0H32C40.8366 0 48 7.16344 48 16V32C48 40.8366 40.8366 48 32 48H16C7.16344 48 0 40.8366 0 32V16Z" fill="#2A8FD2" fill-opacity="0.24"/>
<path d="M21.7317 23.7838C24.7096 23.7838 27.1236 21.3698 27.1236 18.3919C27.1236 15.414 24.7096 13 21.7317 13C18.7539 13 16.3398 15.414 16.3398 18.3919C16.3398 21.3698 18.7539 23.7838 21.7317 23.7838Z" fill="#2A8FD2"/>
<path d="M29.677 23.2162C26.703 23.2162 24.2852 25.6341 24.2852 28.6081C24.2852 31.5822 26.703 34 29.677 34C32.6511 34 35.0689 31.5822 35.0689 28.6081C35.0689 25.6341 32.6511 23.2162 29.677 23.2162ZM31.9473 29.4595H30.5284V30.8784C30.5284 31.3438 30.1425 31.7298 29.677 31.7298C29.2116 31.7298 28.8257 31.3438 28.8257 30.8784V29.4595H27.4068C26.9414 29.4595 26.5554 29.0735 26.5554 28.6081C26.5554 28.1427 26.9414 27.7568 27.4068 27.7568H28.8257V26.3379C28.8257 25.8725 29.2116 25.4865 29.677 25.4865C30.1425 25.4865 30.5284 25.8725 30.5284 26.3379V27.7568H31.9473C32.4127 27.7568 32.7987 28.1427 32.7987 28.6081C32.7987 29.0735 32.4127 29.4595 31.9473 29.4595Z" fill="#BFFB4F"/>
<path d="M23.3198 25.4864H19.5739C16.475 25.4864 13.7847 27.6886 13.1717 30.7308L12.9447 31.8432C12.8993 32.0929 12.9561 32.354 13.1263 32.547C13.2966 32.74 13.535 32.8535 13.7847 32.8535H24.0123C23.1155 31.6616 22.582 30.1973 22.582 28.5967C22.582 27.4729 22.8544 26.4173 23.3198 25.4751V25.4864Z" fill="#2A8FD2"/>
</svg>
