<svg width="48" height="48" viewBox="0 0 48 48" fill="none" xmlns="http://www.w3.org/2000/svg">
<path d="M0 16C0 7.16344 7.16344 0 16 0H32C40.8366 0 48 7.16344 48 16V32C48 40.8366 40.8366 48 32 48H16C7.16344 48 0 40.8366 0 32V16Z" fill="#2A8FD2" fill-opacity="0.24"/>
<g clip-path="url(#clip0_5870_8369)">
<path d="M32.5358 24.8119H30.6797C30.8689 25.3299 30.9722 25.8888 30.9722 26.4715V33.4863C30.9722 33.7292 30.93 33.9624 30.853 34.1792H33.9215C35.0678 34.1792 36.0002 33.2467 36.0002 32.1005V28.2764C36.0003 26.3661 34.4461 24.8119 32.5358 24.8119Z" fill="#BFFB4F"/>
<path d="M17.0281 26.4715C17.0281 25.8889 17.1314 25.3299 17.3206 24.812H15.4645C13.5542 24.812 12 26.3661 12 28.2765V32.1006C12 33.2468 12.9325 34.1793 14.0787 34.1793H17.1473C17.0703 33.9624 17.0281 33.7293 17.0281 33.4864V26.4715Z" fill="#2A8FD2"/>
<path d="M26.1218 23.007H21.8786C19.9683 23.007 18.4141 24.5611 18.4141 26.4715V33.4864C18.4141 33.869 18.7243 34.1793 19.107 34.1793H28.8935C29.2761 34.1793 29.5864 33.869 29.5864 33.4864V26.4715C29.5864 24.5611 28.0322 23.007 26.1218 23.007Z" fill="#2A8FD2"/>
<path d="M23.9986 13.8206C21.7011 13.8206 19.832 15.6897 19.832 17.9872C19.832 19.5456 20.6921 20.9066 21.9624 21.6211C22.5648 21.9601 23.2594 22.1537 23.9986 22.1537C24.7377 22.1537 25.4323 21.9601 26.0348 21.6211C27.305 20.9066 28.1651 19.5455 28.1651 17.9872C28.1651 15.6898 26.296 13.8206 23.9986 13.8206Z" fill="#2A8FD2"/>
<path d="M16.6824 17.7042C14.9642 17.7042 13.5664 19.102 13.5664 20.8202C13.5664 22.5384 14.9642 23.9362 16.6824 23.9362C17.1183 23.9362 17.5333 23.8459 17.9103 23.6836C18.5622 23.403 19.0996 22.9062 19.4322 22.284C19.6657 21.8472 19.7984 21.349 19.7984 20.8202C19.7984 19.102 18.4006 17.7042 16.6824 17.7042Z" fill="#2A8FD2"/>
<path d="M31.3152 17.7042C29.597 17.7042 28.1992 19.102 28.1992 20.8202C28.1992 21.349 28.332 21.8473 28.5655 22.284C28.898 22.9063 29.4355 23.403 30.0873 23.6836C30.4644 23.8459 30.8794 23.9362 31.3152 23.9362C33.0334 23.9362 34.4313 22.5384 34.4313 20.8202C34.4313 19.102 33.0334 17.7042 31.3152 17.7042Z" fill="#BFFB4F"/>
</g>
<defs>
<clipPath id="clip0_5870_8369">
<rect width="24" height="24" fill="white" transform="translate(12 12)"/>
</clipPath>
</defs>
</svg>
