<svg width="48" height="48" viewBox="0 0 48 48" fill="none" xmlns="http://www.w3.org/2000/svg">
<path d="M0 16C0 7.16344 7.16344 0 16 0H32C40.8366 0 48 7.16344 48 16V32C48 40.8366 40.8366 48 32 48H16C7.16344 48 0 40.8366 0 32V16Z" fill="#2A8FD2" fill-opacity="0.24"/>
<g clip-path="url(#clip0_5747_10708)">
<path d="M21 24C17.691 24 15 21.309 15 18C15 14.691 17.691 12 21 12C24.309 12 27 14.691 27 18C27 21.309 24.309 24 21 24ZM22 34.545C22 32.853 22.659 31.262 23.855 30.066L26.231 27.69C24.755 26.63 22.952 25.999 21 25.999C16.038 26 12 30.038 12 35C12 35.552 12.448 36 13 36H22V34.545Z" fill="#2A8FD2"/>
<path d="M25.27 31.48C24.457 32.293 24 33.395 24 34.545V36H25.455C26.605 36 27.707 35.543 28.52 34.73L35.327 27.923C36.224 27.026 36.224 25.57 35.327 24.673C34.43 23.776 32.974 23.776 32.077 24.673L25.27 31.48Z" fill="#BFFB4F"/>
</g>
<defs>
<clipPath id="clip0_5747_10708">
<rect width="24" height="24" fill="white" transform="translate(12 12)"/>
</clipPath>
</defs>
</svg>
