<svg width="48" height="48" viewBox="0 0 48 48" fill="none" xmlns="http://www.w3.org/2000/svg">
<path d="M0 16C0 7.16344 7.16344 0 16 0H32C40.8366 0 48 7.16344 48 16V32C48 40.8366 40.8366 48 32 48H16C7.16344 48 0 40.8366 0 32V16Z" fill="#2A8FD2" fill-opacity="0.24"/>
<g clip-path="url(#clip0_5747_10700)">
<path d="M24.057 15.0607L24.0441 14.0642H23.0476C22.978 14.0636 22.9084 14.0636 22.8388 14.0642C16.8018 14.1219 11.9546 19.0626 12.0122 25.0996C12.0699 31.1366 17.0106 35.9838 23.0476 35.9262C29.0818 35.9195 33.9719 31.0298 33.9791 24.9957V23.9992H24.0441L24.057 15.0607Z" fill="#2A8FD2"/>
<path d="M26.0547 12.0742V22.0082H35.9877C35.962 16.5329 31.53 12.1004 26.0547 12.0742Z" fill="#BFFB4F"/>
</g>
<defs>
<clipPath id="clip0_5747_10700">
<rect width="24" height="24" fill="white" transform="translate(12 12)"/>
</clipPath>
</defs>
</svg>
