<svg width="48" height="48" viewBox="0 0 48 48" fill="none" xmlns="http://www.w3.org/2000/svg">
<path d="M0 16C0 7.16344 7.16344 0 16 0H32C40.8366 0 48 7.16344 48 16V32C48 40.8366 40.8366 48 32 48H16C7.16344 48 0 40.8366 0 32V16Z" fill="#2A8FD2" fill-opacity="0.24"/>
<g clip-path="url(#clip0_5747_10714)">
<path d="M36 22V31C36 33.757 33.757 36 31 36H17C14.243 36 12 33.757 12 31V22H36ZM29.832 25.152C29.448 24.755 28.816 24.743 28.418 25.126L23.664 29.708C23.288 30.084 22.657 30.112 22.225 29.682L19.947 27.565C19.544 27.19 18.912 27.211 18.534 27.617C18.158 28.021 18.181 28.654 18.586 29.03L20.838 31.122C21.404 31.689 22.158 32.001 22.959 32.001C23.76 32.001 24.515 31.689 25.067 31.135L29.807 26.567C30.204 26.184 30.216 25.549 29.832 25.152Z" fill="#2A8FD2"/>
<path d="M12 20V19C12 16.243 14.243 14 17 14H18V13C18 12.448 18.447 12 19 12C19.553 12 20 12.448 20 13V14H28V13C28 12.448 28.447 12 29 12C29.553 12 30 12.448 30 13V14H31C33.757 14 36 16.243 36 19V20H12Z" fill="#BFFB4F"/>
</g>
<defs>
<clipPath id="clip0_5747_10714">
<rect width="24" height="24" fill="white" transform="translate(12 12)"/>
</clipPath>
</defs>
</svg>
