<svg width="48" height="48" viewBox="0 0 48 48" fill="none" xmlns="http://www.w3.org/2000/svg">
<path d="M0 16C0 7.16344 7.16344 0 16 0H32C40.8366 0 48 7.16344 48 16V32C48 40.8366 40.8366 48 32 48H16C7.16344 48 0 40.8366 0 32V16Z" fill="#2A8FD2" fill-opacity="0.24"/>
<g clip-path="url(#clip0_5747_10694)">
<path d="M34 26.537V25C34 22.794 32.206 21 30 21C27.794 21 26 22.794 26 25V26.537C24.805 27.23 24 28.523 24 30V32C24 34.206 25.794 36 28 36H32C34.206 36 36 34.206 36 32V30C36 28.523 35.195 27.23 34 26.537ZM30 32.5C29.172 32.5 28.5 31.828 28.5 31C28.5 30.172 29.172 29.5 30 29.5C30.828 29.5 31.5 30.172 31.5 31C31.5 31.828 30.828 32.5 30 32.5ZM32 26H28V25C28 23.897 28.897 23 30 23C31.103 23 32 23.897 32 25V26Z" fill="#BFFB4F"/>
<path d="M20 24C23.309 24 26 21.309 26 18C26 14.691 23.309 12 20 12C16.691 12 14 14.691 14 18C14 21.309 16.691 24 20 24ZM22 32C22 33.535 22.58 34.938 23.532 36H13C12.448 36 12 35.552 12 35V34.271C12 30.156 14.993 26.511 19.083 26.052C20.043 25.944 20.974 26.008 21.849 26.216C22.465 26.362 22.736 27.055 22.486 27.636C22.174 28.362 22 29.161 22 30V32Z" fill="#2A8FD2"/>
</g>
<defs>
<clipPath id="clip0_5747_10694">
<rect width="24" height="24" fill="white" transform="translate(12 12)"/>
</clipPath>
</defs>
</svg>
