<svg width="64" height="64" viewBox="0 0 64 64" fill="none" xmlns="http://www.w3.org/2000/svg">
<rect width="64" height="64" rx="24" fill="#2A8FD2" fill-opacity="0.24"/>
<path d="M43.3346 24H42.668C42.668 21.0587 40.276 18.6667 37.3346 18.6667H33.3346V17.3333C33.3346 16.596 32.7373 16 32.0013 16C31.2653 16 30.668 16.596 30.668 17.3333V18.6667H26.668C23.7266 18.6667 21.3346 21.0587 21.3346 24H20.668C19.5653 24 18.668 24.8973 18.668 26V28.6667C18.668 29.7693 19.5653 30.6667 20.668 30.6667H21.3346C21.3346 33.608 23.7266 36 26.668 36H37.3346C40.276 36 42.668 33.608 42.668 30.6667H43.3346C44.4373 30.6667 45.3346 29.7693 45.3346 28.6667V26C45.3346 24.8973 44.4373 24 43.3346 24ZM28.668 29.3333C27.564 29.3333 26.668 28.4373 26.668 27.3333C26.668 26.2293 27.564 25.3333 28.668 25.3333C29.772 25.3333 30.668 26.2293 30.668 27.3333C30.668 28.4373 29.772 29.3333 28.668 29.3333ZM35.3346 29.3333C34.2306 29.3333 33.3346 28.4373 33.3346 27.3333C33.3346 26.2293 34.2306 25.3333 35.3346 25.3333C36.4386 25.3333 37.3346 26.2293 37.3346 27.3333C37.3346 28.4373 36.4386 29.3333 35.3346 29.3333Z" fill="#BFFB4F"/>
<path d="M42.6667 47.9998H21.3333C20.5973 47.9998 20 47.4038 20 46.6665C20 42.2545 23.588 38.6665 28 38.6665H36C40.412 38.6665 44 42.2545 44 46.6665C44 47.4038 43.4027 47.9998 42.6667 47.9998Z" fill="#2A8FD2"/>
</svg>
