<svg width="48" height="48" viewBox="0 0 48 48" fill="none" xmlns="http://www.w3.org/2000/svg">
<path d="M0 16C0 7.16344 7.16344 0 16 0H32C40.8366 0 48 7.16344 48 16V32C48 40.8366 40.8366 48 32 48H16C7.16344 48 0 40.8366 0 32V16Z" fill="#2A8FD2" fill-opacity="0.24"/>
<g clip-path="url(#clip0_5351_5078)">
<path d="M24.057 15.0603L24.0441 14.0638H23.0476C22.978 14.0631 22.9084 14.0631 22.8388 14.0638C16.8018 14.1214 11.9546 19.0622 12.0122 25.0991C12.0699 31.1362 17.0106 35.9834 23.0476 35.9257C29.0818 35.9191 33.9719 31.0294 33.9791 24.9953V23.9988H24.0441L24.057 15.0603Z" fill="#2A8FD2"/>
<path d="M26.0566 12.0738V22.0078H35.9896C35.964 16.5324 31.532 12.1 26.0566 12.0738Z" fill="#BFFB4F"/>
</g>
<defs>
<clipPath id="clip0_5351_5078">
<rect width="24" height="24" fill="white" transform="translate(12 12)"/>
</clipPath>
</defs>
</svg>
