<svg width="13" height="14" viewBox="0 0 13 14" fill="none" xmlns="http://www.w3.org/2000/svg">
<path d="M12.4138 2.47137C12.0336 1.35643 11.2571 0.536091 10.2836 0.220709C8.43481 -0.378062 6.91448 0.391388 6.33338 0.760282C5.75227 0.391361 4.23189 -0.37809 2.38317 0.220709C1.40913 0.536228 0.632496 1.35706 0.252394 2.47268C-0.247388 3.93969 0.00426266 5.6318 0.925674 6.99909C1.54102 7.91224 1.94281 8.94276 2.08766 9.97922C2.09603 10.039 2.10418 10.1001 2.11216 10.1626C2.25166 11.2556 2.4571 12.1329 2.72283 12.7701C3.04123 13.5337 3.45206 13.9461 3.94397 13.9958C4.46535 14.0484 4.89813 13.6104 5.23067 12.694C5.46321 12.0532 5.64656 11.1945 5.74689 10.2761C5.80298 9.76266 5.93411 9.34701 6.12615 9.07404C6.19464 8.9767 6.29388 8.9662 6.33338 8.9662C6.37287 8.9662 6.47212 8.9767 6.54061 9.07404C6.73262 9.34701 6.86375 9.76269 6.91984 10.2761C7.02016 11.1945 7.20354 12.0532 7.43605 12.694C7.75075 13.5613 8.15527 14 8.63957 14C8.66702 14 8.6948 13.9986 8.72276 13.9958C9.21466 13.9461 9.62549 13.5337 9.9439 12.7701C10.2096 12.1329 10.4151 11.2557 10.5546 10.1626C10.5623 10.1024 10.5701 10.0435 10.5781 9.98582C10.7228 8.94755 11.1256 7.91374 11.743 6.99614C12.6631 5.62893 12.9138 3.93742 12.4138 2.47137Z" fill="#076AAB"/>
</svg>
