<svg width="96" height="96" viewBox="0 0 96 96" fill="none" xmlns="http://www.w3.org/2000/svg">
<g filter="url(#filter0_d_7218_6380)">
<rect x="8" width="80" height="80" rx="40" fill="white"/>
<path d="M33.6344 44.1451C33.6344 45.577 33.9487 46.6763 34.3594 47.3414C34.898 48.2125 35.7013 48.5815 36.5203 48.5815C37.5765 48.5815 38.5429 48.3194 40.405 45.7439C41.8969 43.6796 43.6548 40.782 44.8375 38.9654L46.8406 35.8879C48.232 33.7505 49.8425 31.3745 51.6891 29.764C53.1965 28.4495 54.8227 27.7192 56.4593 27.7192C59.2069 27.7192 61.8242 29.3115 63.8272 32.2978C66.0193 35.5684 67.0834 39.6879 67.0834 43.9391C67.0834 46.4664 66.5853 48.3233 65.7377 49.7904C64.9187 51.2092 63.3225 52.6267 60.6375 52.6267V48.5815C62.9365 48.5815 63.5103 46.469 63.5103 44.0512C63.5103 40.6059 62.707 36.7824 60.9374 34.0504C59.6816 32.1126 58.0542 30.9285 56.2637 30.9285C54.3272 30.9285 52.7688 32.3891 51.0175 34.9933C50.0864 36.3769 49.1305 38.063 48.0573 39.9656L46.8758 42.0586C44.5024 46.2668 43.9012 47.2253 42.7145 48.8071C40.6346 51.577 38.8584 52.6267 36.5203 52.6267C33.7465 52.6267 31.9926 51.4257 30.9063 49.6157C30.0195 48.1408 29.584 46.2056 29.584 44.0004L33.6344 44.1451Z" fill="#0081FB"/>
<path d="M32.7793 32.5834C34.6363 29.721 37.3161 27.7192 40.3898 27.7192C42.1698 27.7192 43.9394 28.2461 45.7873 29.7549C47.8086 31.4045 49.9629 34.1209 52.6505 38.5977L53.6142 40.2043C55.9407 44.0799 57.2643 46.0738 58.0389 47.0141C59.0352 48.2216 59.7328 48.5815 60.6392 48.5815C62.9382 48.5815 63.512 46.469 63.512 44.0512L67.0851 43.9391C67.0851 46.4664 66.587 48.3233 65.7393 49.7904C64.9204 51.2092 63.3242 52.6267 60.6392 52.6267C58.97 52.6267 57.4912 52.2642 55.8559 50.7215C54.5988 49.5374 53.1291 47.434 51.9985 45.5431L48.6353 39.9252C46.9479 37.1058 45.4 35.0037 44.5041 34.0517C43.5404 33.0281 42.3015 31.7918 40.3246 31.7918C38.7245 31.7918 37.3657 32.9146 36.2285 34.632L32.7793 32.5834Z" fill="url(#paint0_linear_7218_6380)"/>
<path d="M40.3229 31.7918C38.7228 31.7918 37.364 32.9146 36.2269 34.632C34.6189 37.0589 33.6344 40.6737 33.6344 44.1451C33.6344 45.577 33.9487 46.6763 34.3594 47.3414L30.9063 49.6157C30.0195 48.1408 29.584 46.2056 29.584 44.0004C29.584 39.9904 30.6846 35.8109 32.7776 32.5834C34.6346 29.721 37.3144 27.7192 40.3881 27.7192L40.3229 31.7918Z" fill="url(#paint1_linear_7218_6380)"/>
</g>
<defs>
<filter id="filter0_d_7218_6380" x="0" y="0" width="96" height="96" filterUnits="userSpaceOnUse" color-interpolation-filters="sRGB">
<feFlood flood-opacity="0" result="BackgroundImageFix"/>
<feColorMatrix in="SourceAlpha" type="matrix" values="0 0 0 0 0 0 0 0 0 0 0 0 0 0 0 0 0 0 127 0" result="hardAlpha"/>
<feOffset dy="8"/>
<feGaussianBlur stdDeviation="4"/>
<feComposite in2="hardAlpha" operator="out"/>
<feColorMatrix type="matrix" values="0 0 0 0 0 0 0 0 0 0.184314 0 0 0 0 0.301961 0 0 0 0.04 0"/>
<feBlend mode="normal" in2="BackgroundImageFix" result="effect1_dropShadow_7218_6380"/>
<feBlend mode="normal" in="SourceGraphic" in2="effect1_dropShadow_7218_6380" result="shape"/>
</filter>
<linearGradient id="paint0_linear_7218_6380" x1="37.5404" y1="42.9767" x2="63.3607" y2="44.2808" gradientUnits="userSpaceOnUse">
<stop stop-color="#0064E1"/>
<stop offset="0.4" stop-color="#0064E1"/>
<stop offset="0.83" stop-color="#0073EE"/>
<stop offset="1" stop-color="#0082FB"/>
</linearGradient>
<linearGradient id="paint1_linear_7218_6380" x1="35.4522" y1="45.8456" x2="35.4522" y2="36.326" gradientUnits="userSpaceOnUse">
<stop stop-color="#0082FB"/>
<stop offset="1" stop-color="#0064E0"/>
</linearGradient>
</defs>
</svg>
