<svg width="96" height="96" viewBox="0 0 96 96" fill="none" xmlns="http://www.w3.org/2000/svg">
<g filter="url(#filter0_d_7218_6401)">
<path d="M8 40C8 17.9086 25.9086 0 48 0V0C70.0914 0 88 17.9086 88 40V40C88 62.0914 70.0914 80 48 80V80C25.9086 80 8 62.0914 8 40V40Z" fill="white"/>
<g clip-path="url(#clip0_7218_6401)">
<path d="M29.4043 21.7391H46.7956V39.1304H29.4043V21.7391Z" fill="#F35325"/>
<path d="M48.5352 21.7391H65.9265V39.1304H48.5352V21.7391Z" fill="#81BC06"/>
<path d="M29.4043 40.8695H46.7956V58.2608H29.4043V40.8695Z" fill="#05A6F0"/>
<path d="M48.5352 40.8695H65.9265V58.2608H48.5352V40.8695Z" fill="#FFBA08"/>
</g>
</g>
<defs>
<filter id="filter0_d_7218_6401" x="0" y="0" width="96" height="96" filterUnits="userSpaceOnUse" color-interpolation-filters="sRGB">
<feFlood flood-opacity="0" result="BackgroundImageFix"/>
<feColorMatrix in="SourceAlpha" type="matrix" values="0 0 0 0 0 0 0 0 0 0 0 0 0 0 0 0 0 0 127 0" result="hardAlpha"/>
<feOffset dy="8"/>
<feGaussianBlur stdDeviation="4"/>
<feComposite in2="hardAlpha" operator="out"/>
<feColorMatrix type="matrix" values="0 0 0 0 0 0 0 0 0 0.184314 0 0 0 0 0.301961 0 0 0 0.04 0"/>
<feBlend mode="normal" in2="BackgroundImageFix" result="effect1_dropShadow_7218_6401"/>
<feBlend mode="normal" in="SourceGraphic" in2="effect1_dropShadow_7218_6401" result="shape"/>
</filter>
<clipPath id="clip0_7218_6401">
<rect width="40" height="40" fill="white" transform="translate(27.666 20)"/>
</clipPath>
</defs>
</svg>
