<svg width="48" height="48" viewBox="0 0 48 48" fill="none" xmlns="http://www.w3.org/2000/svg">
<g clip-path="url(#clip0_5923_7071)">
<path d="M22 0H6C4.4087 0 2.88258 0.632141 1.75736 1.75736C0.632141 2.88258 0 4.4087 0 6L0 48H28V6C28 4.4087 27.3679 2.88258 26.2426 1.75736C25.1174 0.632141 23.5913 0 22 0ZM12 38H6V34H12V38ZM12 30H6V26H12V30ZM12 22H6V18H12V22ZM12 14H6V10H12V14ZM22 38H16V34H22V38ZM22 30H16V26H22V30ZM22 22H16V18H22V22ZM22 14H16V10H22V14Z" fill="#076AAB"/>
<path d="M42 10.0005H32V48.0005H48V16.0005C48 14.4092 47.3679 12.8831 46.2426 11.7578C45.1174 10.6326 43.5913 10.0005 42 10.0005ZM42 38.0005H38V34.0005H42V38.0005ZM42 30.0005H38V26.0005H42V30.0005ZM42 22.0005H38V18.0005H42V22.0005Z" fill="#8BD500"/>
</g>
<defs>
<clipPath id="clip0_5923_7071">
<rect width="48" height="48" fill="white"/>
</clipPath>
</defs>
</svg>
