<svg width="96" height="96" viewBox="0 0 96 96" fill="none" xmlns="http://www.w3.org/2000/svg">
<rect width="96" height="96" rx="24" fill="url(#paint0_radial_5579_3298)"/>
<g clip-path="url(#clip0_5579_3298)">
<path d="M40.7813 31.418C40.7813 33.948 38.7293 36 36.1993 36C33.6693 36 31.6173 33.948 31.6173 31.418C31.6173 29.956 33.1493 27.122 34.4413 24.99C35.2413 23.67 37.1573 23.67 37.9573 24.99C39.2493 27.12 40.7813 29.954 40.7813 31.418ZM32.2213 56.63C32.0533 54.8 32.7133 53.01 34.0293 51.722C35.3353 50.442 37.1213 49.822 38.9353 50.028C40.6213 50.218 42.2253 50.57 43.7333 51.07C44.3633 48.536 45.4313 46.13 46.9333 43.714C45.5133 41.484 43.0353 39.996 40.1953 39.996H32.1953C27.7773 39.996 24.1953 43.578 24.1953 47.996V63.996C24.1953 68.414 27.7773 71.996 32.1953 71.996H40.1953C40.3253 71.996 40.4473 71.964 40.5773 71.958C35.8553 68.59 32.8313 63.278 32.2213 56.63Z" fill="#076AAB"/>
<path d="M54.1762 72.0001C63.4402 72.0001 71.2083 66.9901 72.1883 56.2961C72.3083 54.9981 71.2023 53.8881 69.9062 54.0341C61.1063 55.0301 54.1742 61.6801 54.1742 72.0001M54.1742 72.0001C44.9102 72.0001 37.1862 66.9621 36.2042 56.2681C36.0842 54.9701 37.1902 53.8601 38.4862 54.0061C47.2862 55.0021 54.1742 61.6801 54.1742 72.0001ZM47.4562 52.7241C48.2362 49.0621 49.9082 46.0001 52.4002 42.8521C53.3022 41.7121 55.0382 41.7121 55.9402 42.8521C58.4522 46.0241 60.1322 49.1081 60.9282 52.7421C58.2242 54.2401 55.9382 56.2741 54.1842 58.7501C52.4362 56.2661 50.1542 54.2281 47.4562 52.7241Z" fill="#8BD500"/>
</g>
<defs>
<radialGradient id="paint0_radial_5579_3298" cx="0" cy="0" r="1" gradientUnits="userSpaceOnUse" gradientTransform="translate(48 48) rotate(90) scale(48)">
<stop stop-color="white"/>
<stop offset="0.33" stop-color="#F4FBFF"/>
<stop offset="0.66" stop-color="#EDF8FF"/>
<stop offset="1" stop-color="#DEF2FF"/>
</radialGradient>
<clipPath id="clip0_5579_3298">
<rect width="48" height="48" fill="white" transform="translate(24.1992 24)"/>
</clipPath>
</defs>
</svg>
