<svg width="96" height="96" viewBox="0 0 96 96" fill="none" xmlns="http://www.w3.org/2000/svg">
<rect width="96" height="96" rx="24" fill="url(#paint0_radial_5447_9990)"/>
<g clip-path="url(#clip0_5447_9990)">
<path d="M23.793 54.5391C33.1061 55.2267 40.5662 62.687 41.2539 72H25.1992C24.4227 72 23.7931 71.3703 23.793 70.5938V54.5391Z" fill="#076AAB"/>
<path d="M61.6328 70.5938C61.6327 71.3702 61.003 71.9999 60.2266 72H44.1719C44.8595 62.687 52.3198 55.2267 61.6328 54.5391V70.5938Z" fill="#076AAB"/>
<path d="M42.7129 40.4663C44.9129 46.272 49.5267 50.8822 55.3296 53.0815C49.524 55.2816 44.9136 59.8953 42.7144 65.6982C40.5143 59.8927 35.9004 55.2824 30.0977 53.083C35.9033 50.8829 40.5136 46.2691 42.7129 40.4663Z" fill="#076AAB"/>
<path d="M41.2539 34.1631C40.5662 43.4762 33.1061 50.9363 23.793 51.624V35.5693C23.793 34.7927 24.4226 34.1631 25.1992 34.1631H41.2539Z" fill="#076AAB"/>
<path d="M60.2266 34.1631C61.0031 34.1632 61.6328 34.7928 61.6328 35.5693V51.624C52.3198 50.9363 44.8595 43.4762 44.1719 34.1631H60.2266Z" fill="#076AAB"/>
<path d="M71.7959 60.4321C71.7956 61.2082 71.1657 61.838 70.3896 61.8384H64.4453V53.6646L71.7959 46.314V60.4321Z" fill="#8BD500"/>
<path d="M70.2183 41.9238C70.7674 42.473 70.7674 43.364 70.2183 43.9131L64.4453 49.686V36.1509L70.2183 41.9238Z" fill="#8BD500"/>
<path d="M70.3896 24C71.166 24.0003 71.7959 24.6298 71.7959 25.4062V39.5244L56.2715 24H70.3896Z" fill="#8BD500"/>
<path d="M42.127 31.3506H33.9531V25.4062C33.9531 24.6296 34.5827 24 35.3594 24H49.4775L42.127 31.3506Z" fill="#8BD500"/>
<path d="M51.8784 25.5762C52.4276 25.027 53.3185 25.027 53.8677 25.5762L59.6406 31.3491H46.1055L51.8784 25.5762Z" fill="#8BD500"/>
</g>
<defs>
<radialGradient id="paint0_radial_5447_9990" cx="0" cy="0" r="1" gradientUnits="userSpaceOnUse" gradientTransform="translate(48 48) rotate(90) scale(48)">
<stop stop-color="white"/>
<stop offset="0.33" stop-color="#F4FBFF"/>
<stop offset="0.66" stop-color="#EDF8FF"/>
<stop offset="1" stop-color="#DEF2FF"/>
</radialGradient>
<clipPath id="clip0_5447_9990">
<rect width="48" height="48" fill="white" transform="translate(23.8008 24)"/>
</clipPath>
</defs>
</svg>
