<svg width="96" height="96" viewBox="0 0 96 96" fill="none" xmlns="http://www.w3.org/2000/svg">
<path d="M0 24C0 10.7452 10.7452 0 24 0H72C85.2548 0 96 10.7452 96 24V72C96 85.2548 85.2548 96 72 96H24C10.7452 96 0 85.2548 0 72V24Z" fill="url(#paint0_radial_5629_5708)"/>
<g clip-path="url(#clip0_5629_5708)">
<path d="M59.5048 58.934L66.0368 72H61.5648L55.8548 60.58C53.9032 61.2824 51.8678 61.7255 49.8008 61.898V72H45.8008V61.898C43.7338 61.7255 41.6984 61.2824 39.7468 60.58L34.0368 72H29.5648L36.0968 58.934C32.372 56.8519 29.2694 53.8149 27.1082 50.1355C24.947 46.4561 23.8054 42.2672 23.8008 38L23.8008 36H71.8008V38C71.7962 42.2672 70.6546 46.4561 68.4934 50.1355C66.3322 53.8149 63.2295 56.8519 59.5048 58.934Z" fill="#076AAB"/>
<path d="M49.8008 24H45.8008V32H49.8008V24ZM57.8008 24H53.8008V32H57.8008V24ZM41.8008 24H37.8008V32H41.8008V24Z" fill="#8BD500"/>
</g>
<defs>
<radialGradient id="paint0_radial_5629_5708" cx="0" cy="0" r="1" gradientUnits="userSpaceOnUse" gradientTransform="translate(48 48) rotate(90) scale(48)">
<stop stop-color="white"/>
<stop offset="0.33" stop-color="#F4FBFF"/>
<stop offset="0.66" stop-color="#EDF8FF"/>
<stop offset="1" stop-color="#DEF2FF"/>
</radialGradient>
<clipPath id="clip0_5629_5708">
<rect width="48" height="48" fill="white" transform="translate(23.8008 24)"/>
</clipPath>
</defs>
</svg>
