<svg width="96" height="96" viewBox="0 0 96 96" fill="none" xmlns="http://www.w3.org/2000/svg">
<path d="M0 24C0 10.7452 10.7452 0 24 0H72C85.2548 0 96 10.7452 96 24V72C96 85.2548 85.2548 96 72 96H24C10.7452 96 0 85.2548 0 72V24Z" fill="url(#paint0_radial_5333_365)"/>
<path d="M34.5045 43.3491C35.0384 44.1406 35.4677 44.9979 35.7819 45.8995C36.6446 48.2992 36.9041 51.1559 36.9692 53.1418H59.8229C59.8892 51.157 60.1485 48.298 61.0112 45.8984C61.3245 44.9979 61.7531 44.1417 62.2865 43.3513C62.9843 42.351 63.8522 41.4808 64.8506 40.7803C65.2111 40.5178 65.5861 40.2759 65.9739 40.0558C63.3492 34.2178 56.4542 30.2881 48.396 30.2881C40.7605 30.2881 34.0256 34.3412 31.2969 40.3437C31.5185 40.4865 31.7322 40.6329 31.9402 40.7803C32.9372 41.4816 33.8048 42.3509 34.5045 43.3491Z" fill="#8BD500"/>
<path d="M71.5451 42.5215C70.9669 41.9421 70.2527 41.7833 69.8254 41.6885C69.2373 41.5577 68.6275 41.5577 68.0394 41.6885C67.292 41.8564 66.8202 42.189 66.1654 42.6506C65.3881 43.1956 64.7121 43.8723 64.168 44.6503C63.7502 45.2796 63.4128 45.9586 63.1636 46.6717C62.2255 49.2564 62.0884 52.552 62.0872 54.2842C62.0872 54.9153 61.5756 55.4269 60.9445 55.4269H35.8511C35.2201 55.4269 34.7084 54.9153 34.7084 54.2842C34.7084 52.5508 34.5644 49.2564 33.6354 46.6717C33.3854 45.958 33.0476 45.2783 32.6298 44.6479C32.0846 43.8702 31.4078 43.1935 30.6301 42.6482C29.9754 42.1911 29.5023 41.8483 28.7538 41.6849C28.1665 41.5529 27.5573 41.5529 26.97 41.6849C26.5415 41.7797 25.8273 41.9398 25.248 42.5191C25.2389 42.5294 24.2195 43.5864 24.4287 44.9656C24.6572 46.4408 26.0661 47.2601 26.9608 47.4497C27.286 47.5182 27.6227 47.5107 27.9447 47.428C28.3332 47.3537 28.8668 47.2509 29.4724 47.5251C31.3796 48.3868 31.5875 51.6548 30.1808 58.7817C30.8995 60.8934 31.8045 61.0567 32.4902 61.1368H34.7069V64.5648C34.7069 65.1959 35.2186 65.7075 35.8496 65.7075H36.9924C37.6234 65.7075 38.1351 65.1959 38.1351 64.5648V61.1402H58.6645V64.5682C58.6645 65.1993 59.1761 65.711 59.8072 65.711H60.9499C61.581 65.711 62.0927 65.1993 62.0927 64.5682V61.1402H64.3094C64.995 61.0613 65.9 60.8968 66.6188 58.7851C65.2121 51.6594 65.4201 48.3867 67.3272 47.5286C67.9328 47.2543 68.4699 47.356 68.8561 47.4314C69.1786 47.5123 69.5154 47.5194 69.8411 47.452C70.7358 47.2623 72.147 46.4429 72.3733 44.9689C72.578 43.5898 71.5554 42.5329 71.5451 42.5215Z" fill="#076AAB"/>
<defs>
<radialGradient id="paint0_radial_5333_365" cx="0" cy="0" r="1" gradientUnits="userSpaceOnUse" gradientTransform="translate(48 48) rotate(90) scale(48)">
<stop stop-color="white"/>
<stop offset="0.33" stop-color="#F4FBFF"/>
<stop offset="0.66" stop-color="#EDF8FF"/>
<stop offset="1" stop-color="#DEF2FF"/>
</radialGradient>
</defs>
</svg>
