<svg width="96" height="96" viewBox="0 0 96 96" fill="none" xmlns="http://www.w3.org/2000/svg">
<path d="M0 24C0 10.7452 10.7452 0 24 0H72C85.2548 0 96 10.7452 96 24V72C96 85.2548 85.2548 96 72 96H24C10.7452 96 0 85.2548 0 72V24Z" fill="url(#paint0_radial_5447_10043)"/>
<g clip-path="url(#clip0_5447_10043)">
<path d="M35.6221 39.1739L31.3804 40.4174C28.5933 41.2355 26.2812 43.1926 25.0138 45.8063C23.7675 48.3846 23.6658 51.3687 24.7336 54.0258C24.7479 54.0627 24.7663 54.0975 24.7807 54.1343L28.2983 53.5596C31.6139 52.696 34.6457 50.9799 37.0925 48.5817C37.9 47.7911 39.1957 47.8048 39.9864 48.6124C40.777 49.4199 40.7633 50.7156 39.9557 51.5063C36.9442 54.4458 33.2079 56.5352 29.1266 57.562L26.7297 57.9588C28.1089 60.2002 29.8189 62.2205 31.8017 63.9511L36.0003 62.3927L38.8636 60.9611C41.8152 59.4778 44.3422 57.2697 46.2077 54.5434L47.2692 52.987C47.8795 52.0366 49.1446 51.7608 50.0951 52.371C51.0455 52.9813 51.3214 54.2464 50.7112 55.197C50.6909 55.2285 50.6698 55.2595 50.6478 55.2898L49.5884 56.8462C47.3317 60.1486 44.2724 62.8229 40.6981 64.6179L37.5281 66.1988L35.804 66.8369C39.959 69.2592 44.6847 70.53 49.4942 70.5182H51.384C51.8068 70.5179 52.2193 70.388 52.5661 70.1459C56.8974 67.2021 60.4844 63.2909 63.0434 58.7217L40.7676 36.8506C39.1423 37.8103 37.4168 38.5893 35.6221 39.1739Z" fill="#076AAB"/>
<path d="M71.3963 26.0846C70.5878 25.2791 69.2801 25.2791 68.4717 26.0846L58.7286 35.8278L58.0741 35.1877C54.5121 31.7086 48.9641 31.2952 44.9258 34.208C44.7376 34.343 44.5515 34.4554 44.3613 34.5864L64.868 54.7188C65.5206 52.952 66 51.1259 66.2996 49.2664C66.8142 45.9794 65.7071 42.6466 63.328 40.3209L61.6919 38.7176L71.4004 29.0091C72.2048 28.1997 72.203 26.8919 71.3963 26.0846Z" fill="#8BD500"/>
</g>
<defs>
<radialGradient id="paint0_radial_5447_10043" cx="0" cy="0" r="1" gradientUnits="userSpaceOnUse" gradientTransform="translate(48 48) rotate(90) scale(48)">
<stop stop-color="white"/>
<stop offset="0.33" stop-color="#F4FBFF"/>
<stop offset="0.66" stop-color="#EDF8FF"/>
<stop offset="1" stop-color="#DEF2FF"/>
</radialGradient>
<clipPath id="clip0_5447_10043">
<rect width="48" height="48" fill="white" transform="translate(24 24)"/>
</clipPath>
</defs>
</svg>
