<svg width="96" height="96" viewBox="0 0 96 96" fill="none" xmlns="http://www.w3.org/2000/svg">
<rect width="96" height="96" rx="24" fill="url(#paint0_radial_5447_9976)"/>
<g clip-path="url(#clip0_5447_9976)">
<path d="M54.6892 49.2473C52.878 47.5321 50.4783 46.5762 47.9838 46.5762C45.4893 46.5762 43.0896 47.5321 41.2784 49.2473L33.1905 56.8965C28.5547 61.1101 31.8991 69.1649 38.1575 68.8503C41.5516 68.7593 44.3083 67.0208 47.9755 67.087C51.7753 67.0208 54.5982 68.5523 58.0088 68.8503C64.1596 68.991 67.3384 61.0273 62.7688 56.8965L54.6892 49.2473Z" fill="#076AAB"/>
<path d="M27.3542 38.0054C30.5161 37.3848 32.9411 40.9025 33.5622 43.9321C34.448 48.1374 32.9502 51.9044 29.7053 52.0122C23.9767 51.9791 21.4932 39.4872 27.3542 38.0054Z" fill="#8BD500"/>
<path d="M62.4123 43.9321C63.0416 40.9026 65.4585 37.3851 68.6203 38.0054C71.2362 38.5848 72.6109 42.103 71.7419 46.002C69.6144 55.0998 60.5249 53.3114 62.4123 43.9321Z" fill="#8BD500"/>
<path d="M35.0564 35.1064C35.3712 24.5439 46.1492 24.5439 46.4558 35.1064C46.4558 39.4938 43.8978 43.0705 40.7605 43.0708C37.6147 43.0708 35.0564 39.4939 35.0564 35.1064Z" fill="#8BD500"/>
<path d="M49.5173 35.1064C49.8239 24.5439 60.6019 24.5439 60.9167 35.1064C60.9167 39.4939 58.3584 43.0708 55.2126 43.0708C52.0752 43.0707 49.5173 39.4939 49.5173 35.1064Z" fill="#8BD500"/>
</g>
<defs>
<radialGradient id="paint0_radial_5447_9976" cx="0" cy="0" r="1" gradientUnits="userSpaceOnUse" gradientTransform="translate(48 48) rotate(90) scale(48)">
<stop stop-color="white"/>
<stop offset="0.33" stop-color="#F4FBFF"/>
<stop offset="0.66" stop-color="#EDF8FF"/>
<stop offset="1" stop-color="#DEF2FF"/>
</radialGradient>
<clipPath id="clip0_5447_9976">
<rect width="48" height="48" fill="white" transform="translate(24 24)"/>
</clipPath>
</defs>
</svg>
