<svg width="96" height="96" viewBox="0 0 96 96" fill="none" xmlns="http://www.w3.org/2000/svg">
<rect width="96" height="96" rx="24" fill="url(#paint0_radial_5447_9821)"/>
<path d="M65.5219 46.1904C62.4671 44.7401 59.0187 44.3404 55.7131 45.0534C52.4075 45.7664 49.4304 47.552 47.245 50.1324C45.0596 52.713 43.7885 55.9434 43.6296 59.3213C43.4706 62.6992 44.4329 66.0349 46.3664 68.8091H28.2689C27.6936 68.8051 27.143 68.5749 26.736 68.1684C26.329 67.7618 26.0983 67.2113 26.0938 66.6361V27.1729C26.0938 25.9726 27.0685 25 28.2689 25H54.5696L65.5219 35.9523V46.1904Z" fill="#076AAB"/>
<path d="M58.9523 71.0002C56.0475 71.0002 53.2617 69.8463 51.2079 67.7923C49.1539 65.7385 48 62.9527 48 60.048C48 57.1432 49.1539 54.3574 51.2079 52.3036C53.2617 50.2496 56.0475 49.0957 58.9523 49.0957C61.857 49.0957 64.6428 50.2496 66.6966 52.3036C68.7506 54.3574 69.9045 57.1432 69.9045 60.048C69.9045 62.9527 68.7506 65.7385 66.6966 67.7923C64.6428 69.8463 61.857 71.0002 58.9523 71.0002ZM56.12 65.9797C57.3467 66.5665 58.7249 66.7584 60.0652 66.5291C61.4054 66.2995 62.6414 65.6601 63.6028 64.6985C64.5644 63.7371 65.2038 62.5011 65.4334 61.1609C65.6627 59.8206 65.4708 58.4424 64.884 57.2157L56.12 65.9797ZM53.0205 62.8802L61.7845 54.1184C60.5579 53.5316 59.1796 53.3397 57.8393 53.569C56.4992 53.7986 55.2631 54.438 54.3017 55.3996C53.3401 56.361 52.7007 57.5971 52.4712 58.9372C52.2418 60.2775 52.4337 61.6558 53.0205 62.8824V62.8802Z" fill="#8BD500"/>
<defs>
<radialGradient id="paint0_radial_5447_9821" cx="0" cy="0" r="1" gradientUnits="userSpaceOnUse" gradientTransform="translate(48 48) rotate(90) scale(48)">
<stop stop-color="white"/>
<stop offset="0.33" stop-color="#F4FBFF"/>
<stop offset="0.66" stop-color="#EDF8FF"/>
<stop offset="1" stop-color="#DEF2FF"/>
</radialGradient>
</defs>
</svg>
