<svg width="96" height="96" viewBox="0 0 96 96" fill="none" xmlns="http://www.w3.org/2000/svg">
<path d="M0 24C0 10.7452 10.7452 0 24 0H72C85.2548 0 96 10.7452 96 24V72C96 85.2548 85.2548 96 72 96H24C10.7452 96 0 85.2548 0 72V24Z" fill="url(#paint0_radial_5629_5713)"/>
<g clip-path="url(#clip0_5629_5713)">
<path d="M52.8137 44H30.3817C26.2657 47.298 23.5977 52.328 23.5977 58C23.5957 61.194 24.4477 64.342 25.9737 67.084C27.6957 70.176 31.0517 72 34.5917 72H48.6037C52.1437 72 55.4997 70.176 57.2217 67.084C58.7477 64.342 59.5997 61.196 59.5977 58C59.5977 52.328 56.9297 47.298 52.8137 44Z" fill="#076AAB"/>
<path d="M71.4417 34.7039C70.7777 38.3039 67.8337 41.2099 64.2297 41.8539C60.6257 42.4979 57.3717 40.9619 55.4297 38.3839C52.6577 39.6539 50.1877 39.9299 47.5977 39.9819V39.9999H35.5977V34.9999C35.5977 32.2379 37.8357 29.9999 40.5977 29.9999H42.5977C45.3597 29.9999 47.5977 32.2379 47.5977 34.9999V35.9819C49.8197 35.9339 51.6897 35.7059 53.7737 34.7479C53.4317 33.0139 53.5317 31.1199 54.5797 29.1139C56.1297 26.1499 59.1277 24.0479 62.4697 23.9999C68.0517 23.9219 72.5037 28.9499 71.4417 34.7039Z" fill="#8BD500"/>
</g>
<defs>
<radialGradient id="paint0_radial_5629_5713" cx="0" cy="0" r="1" gradientUnits="userSpaceOnUse" gradientTransform="translate(48 48) rotate(90) scale(48)">
<stop stop-color="white"/>
<stop offset="0.33" stop-color="#F4FBFF"/>
<stop offset="0.66" stop-color="#EDF8FF"/>
<stop offset="1" stop-color="#DEF2FF"/>
</radialGradient>
<clipPath id="clip0_5629_5713">
<rect width="48" height="48" fill="white" transform="translate(23.5977 24)"/>
</clipPath>
</defs>
</svg>
