<svg width="96" height="96" viewBox="0 0 96 96" fill="none" xmlns="http://www.w3.org/2000/svg">
<rect width="96" height="96" rx="24" fill="url(#paint0_radial_5447_9954)"/>
<path d="M67.5605 26.5488C67.9688 27.2731 68.2035 28.1087 68.2036 28.9995V32.3438C68.2036 33.4037 67.7817 34.4224 67.0317 35.1724L66.2026 36V40.0005L67.0317 40.8281C67.7813 41.5779 68.2034 42.5957 68.2036 43.6553V52.3418C68.2036 53.4017 67.7817 54.4204 67.0317 55.1704L66.2026 55.998V59.9985L67.0317 60.8262C67.7813 61.576 68.2034 62.5938 68.2036 63.6533V66.9976C68.2036 69.7596 65.9646 71.9985 63.2026 71.9985H59.8584C58.7988 71.9983 57.781 71.5762 57.0312 70.8267L56.2036 69.9976H40.2031L39.3755 70.8267C38.6255 71.5766 37.6068 71.9985 36.5469 71.9985H33.2026C30.4409 71.9983 28.2031 69.7594 28.2031 66.9976V63.6533C28.2033 62.5936 28.6253 61.576 29.375 60.8262L30.2026 59.9985V55.998L29.375 55.1704C28.625 54.4204 28.2031 53.4018 28.2031 52.3418V49.2729L34.2031 45.8086V64.0005C34.2034 65.1041 35.099 65.9997 36.2026 66H60.2026C61.3065 66 62.2033 65.1043 62.2036 64.0005V31.9995C62.2034 31.2426 61.7813 30.5841 61.1606 30.2446L67.5605 26.5488Z" fill="#076AAB"/>
<path d="M58.2031 61.9995H38.2036V43.4985L54.6567 34.0005H58.2031V61.9995Z" fill="#076AAB"/>
<path d="M36.5469 24C37.6069 24 38.6255 24.4219 39.3755 25.1719L40.2031 25.9995H56.2036L57.0312 25.1719C57.7811 24.4221 58.7987 24.0002 59.8584 24H63.2026C65.0736 24 66.7032 25.0277 67.5605 26.5488L61.1606 30.2446C60.8761 30.089 60.5496 30 60.2026 30H36.2026C35.099 30.0003 34.2034 30.8959 34.2031 31.9995V45.8086L28.2031 49.2729V43.6553C28.2033 42.5956 28.6252 41.5779 29.375 40.8281L30.2026 40.0005V36L29.375 35.1724C28.625 34.4224 28.2031 33.4037 28.2031 32.3438V28.9995C28.2034 26.2379 30.441 24.0003 33.2026 24H36.5469Z" fill="#8BD500"/>
<path d="M38.2036 43.4985V34.0005H54.6567L38.2036 43.4985Z" fill="#8BD500"/>
<defs>
<radialGradient id="paint0_radial_5447_9954" cx="0" cy="0" r="1" gradientUnits="userSpaceOnUse" gradientTransform="translate(48 48) rotate(90) scale(48)">
<stop stop-color="white"/>
<stop offset="0.33" stop-color="#F4FBFF"/>
<stop offset="0.66" stop-color="#EDF8FF"/>
<stop offset="1" stop-color="#DEF2FF"/>
</radialGradient>
</defs>
</svg>
