<svg width="96" height="96" viewBox="0 0 96 96" fill="none" xmlns="http://www.w3.org/2000/svg">
<rect width="96" height="96" rx="24" fill="url(#paint0_radial_5579_3304)"/>
<path d="M34.8899 30.7871C35.4764 30.8395 36.0258 31.0967 36.4416 31.5137C36.9599 32.0274 37.2234 32.7446 37.1613 33.4717L37.0129 35.3135C34.9952 35.4743 33.3894 37.0711 33.218 39.0879L32.2102 51.4121C32.0921 52.8191 31.6489 54.1794 30.9152 55.3858L28.091 52.5625C27.9695 52.4395 27.9698 52.2414 28.091 52.1182C28.9871 51.2221 29.72 50.1752 30.2551 49.0264C30.7815 47.8772 31.1042 46.6454 31.2102 45.3858L32.2209 33.0596C32.3349 31.6975 33.5269 30.6829 34.8899 30.7871Z" fill="#8BD500"/>
<path d="M50.4152 25.7276C51.0429 25.1001 51.9574 24.8553 52.8147 25.085C53.672 25.3148 54.3419 25.9845 54.5715 26.8418C54.8011 27.6992 54.5556 28.6137 53.9279 29.2413L41.2893 41.8799C41.2355 40.6245 42.2666 38.1188 39.9221 36.2237L50.4152 25.7276Z" fill="#8BD500"/>
<path d="M53.3438 32.1683C54.3179 31.2275 55.8665 31.2412 56.8242 32.1986C57.7819 33.1563 57.7954 34.7049 56.8545 35.6791L47.4922 45.0394C47.1788 45.3642 47.1828 45.8804 47.502 46.1996C47.8211 46.5188 48.3374 46.5228 48.6621 46.2094L60.3662 34.5101C61.3485 33.5716 62.8956 33.5716 63.8779 34.5101C64.8468 35.4797 64.8471 37.0515 63.8779 38.0209L52.1738 49.7279C51.8821 50.0555 51.8966 50.5537 52.207 50.8637C52.5179 51.1737 53.0168 51.187 53.3438 50.8939L62.707 41.5326C63.6893 40.5943 65.2355 40.5943 66.2178 41.5326C67.187 42.5021 67.187 44.0738 66.2178 45.0433L56.8545 54.4057C56.5409 54.7304 56.546 55.2466 56.8652 55.5658C57.1845 55.8849 57.7007 55.8892 58.0254 55.5756L64.4639 49.1381C65.4465 48.2009 66.9925 48.2013 67.9746 49.139C68.4412 49.6041 68.7031 50.2361 68.7031 50.8949C68.7031 51.5537 68.4413 52.1857 67.9746 52.6508L60.9502 59.6723C55.537 65.0822 50.7451 67.5075 47.6748 68.5834C46.1996 69.0899 44.8578 69.923 43.75 71.0209C43.6441 71.0954 43.4655 71.4455 43.1709 71.1517L30.7461 58.7279C30.6862 58.6686 30.6523 58.5876 30.6523 58.5033C30.6524 58.419 30.6862 58.338 30.7461 58.2787C31.058 57.9619 31.3505 57.6266 31.6211 57.2738L31.6279 57.268C31.6367 57.2589 31.6405 57.2457 31.6494 57.2367C32.9197 55.5934 33.6883 53.618 33.8623 51.5482L34.8721 39.2182C34.9105 38.3075 35.4445 37.4908 36.2637 37.0912C37.0828 36.6916 38.0555 36.7729 38.7969 37.3031C39.538 37.8333 39.9287 38.7271 39.8154 39.6312L39.4883 43.6459C39.5006 44.1951 39.9237 44.6479 40.4707 44.6986C41.0808 44.6986 40.8054 44.5869 46.3223 39.1908L53.3438 32.1683Z" fill="#076AAB"/>
<path d="M57.1465 28.3646C57.7719 27.7291 58.6899 27.4781 59.5518 27.7064C60.4138 27.9348 61.0868 28.6081 61.3154 29.4701C61.5439 30.332 61.2928 31.2499 60.6572 31.8754L59.1797 33.3539C58.9452 31.5205 57.5014 30.0767 55.668 29.8422L57.1465 28.3646Z" fill="#076AAB"/>
<defs>
<radialGradient id="paint0_radial_5579_3304" cx="0" cy="0" r="1" gradientUnits="userSpaceOnUse" gradientTransform="translate(48 48) rotate(90) scale(48)">
<stop stop-color="white"/>
<stop offset="0.33" stop-color="#F4FBFF"/>
<stop offset="0.66" stop-color="#EDF8FF"/>
<stop offset="1" stop-color="#DEF2FF"/>
</radialGradient>
</defs>
</svg>
