<svg width="328" height="148" viewBox="0 0 328 148" fill="none" xmlns="http://www.w3.org/2000/svg">
<g clip-path="url(#clip0_5583_3498)">
<rect width="328" height="148" rx="74" fill="url(#paint0_radial_5583_3498)"/>
<path d="M109.078 68L104 62.9216L104.922 62L110 67.0784L115.078 62L116 62.9216L110.922 68L116 73.0783L115.078 74L110 68.9216L104.922 74L104 73.0783L109.078 68Z" fill="#88D1FF"/>
<g opacity="0.5">
<path d="M84.3625 145.559C84.4601 145.559 84.5589 145.556 84.6583 145.55C87.4158 145.389 89.5212 143.022 89.3605 140.264C89.1154 136.105 89.0047 132.318 89.0047 128.87C88.9841 113.729 91.1908 105.223 93.3599 100.783V194.578C93.3599 198.849 96.8222 202.309 101.09 202.309C105.36 202.309 108.822 198.849 108.822 194.578V138.132H111.72V194.578C111.72 198.849 115.183 202.309 119.451 202.309C123.72 202.309 127.183 198.849 127.183 194.578V100.81C127.553 101.57 127.926 102.442 128.295 103.46C130.058 108.345 131.541 116.36 131.535 128.871C131.535 132.319 131.424 136.107 131.182 140.266C131.021 143.023 133.127 145.39 135.885 145.551C135.984 145.556 136.081 145.56 136.18 145.56C138.809 145.56 141.016 143.508 141.171 140.849C141.422 136.514 141.541 132.533 141.541 128.871C141.515 109.998 138.501 99.5522 134.391 93.2718C132.336 90.1534 129.933 88.1543 127.713 87.0463C125.582 85.9727 123.71 85.7288 122.582 85.7126C122.504 85.7088 122.429 85.7007 122.35 85.7007H98.1922C98.109 85.7007 98.0271 85.7088 97.9452 85.7132C96.8153 85.7288 94.9494 85.9758 92.8272 87.0463C89.4624 88.7134 85.8382 92.362 83.3002 98.8269C80.7333 105.318 79.0081 114.702 79 128.87C79 132.532 79.1176 136.513 79.3727 140.849C79.5277 143.507 81.7319 145.559 84.3625 145.559Z" fill="#88D1FF"/>
<path d="M110.268 54C102.497 54 96.1992 60.2986 96.1992 68.0698C96.1992 75.8409 102.497 82.1377 110.268 82.1377C118.04 82.1377 124.338 75.8409 124.338 68.0698C124.338 60.2986 118.04 54 110.268 54ZM110.268 79.1306C104.159 79.1306 99.2075 74.1783 99.2075 68.0698C99.2075 61.9619 104.16 57.0102 110.268 57.0102C116.377 57.0102 121.329 61.9619 121.329 68.0698C121.328 74.1789 116.376 79.1306 110.268 79.1306Z" fill="#88D1FF"/>
</g>
<path d="M216.078 68L211 62.9216L211.922 62L217 67.0784L222.078 62L223 62.9216L217.922 68L223 73.0783L222.078 74L217 68.9216L211.922 74L211 73.0783L216.078 68Z" fill="#88D1FF"/>
<g opacity="0.5">
<path d="M191.363 145.559C191.46 145.559 191.559 145.556 191.658 145.55C194.416 145.389 196.521 143.022 196.361 140.264C196.115 136.105 196.005 132.318 196.005 128.87C195.984 113.729 198.191 105.223 200.36 100.783V194.578C200.36 198.849 203.822 202.309 208.09 202.309C212.36 202.309 215.822 198.849 215.822 194.578V138.132H218.72V194.578C218.72 198.849 222.183 202.309 226.451 202.309C230.72 202.309 234.183 198.849 234.183 194.578V100.81C234.553 101.57 234.926 102.442 235.295 103.46C237.058 108.345 238.541 116.36 238.535 128.871C238.535 132.319 238.424 136.107 238.182 140.266C238.021 143.023 240.127 145.39 242.885 145.551C242.984 145.556 243.081 145.56 243.18 145.56C245.809 145.56 248.016 143.508 248.171 140.849C248.422 136.514 248.541 132.533 248.541 128.871C248.515 109.998 245.501 99.5522 241.391 93.2718C239.336 90.1534 236.933 88.1543 234.713 87.0463C232.582 85.9727 230.71 85.7288 229.582 85.7126C229.504 85.7088 229.429 85.7007 229.35 85.7007H205.192C205.109 85.7007 205.027 85.7088 204.945 85.7132C203.815 85.7288 201.949 85.9758 199.827 87.0463C196.462 88.7134 192.838 92.362 190.3 98.8269C187.733 105.318 186.008 114.702 186 128.87C186 132.532 186.118 136.513 186.373 140.849C186.528 143.507 188.732 145.559 191.363 145.559Z" fill="#88D1FF"/>
<path d="M217.268 54C209.497 54 203.199 60.2986 203.199 68.0698C203.199 75.8409 209.497 82.1377 217.268 82.1377C225.04 82.1377 231.338 75.8409 231.338 68.0698C231.338 60.2986 225.04 54 217.268 54ZM217.268 79.1306C211.159 79.1306 206.208 74.1783 206.208 68.0698C206.208 61.9619 211.16 57.0102 217.268 57.0102C223.377 57.0102 228.329 61.9619 228.329 68.0698C228.328 74.1789 223.376 79.1306 217.268 79.1306Z" fill="#88D1FF"/>
</g>
<path d="M163.078 59L158 53.9216L158.922 53L164 58.0784L169.078 53L170 53.9216L164.922 59L170 64.0783L169.078 65L164 59.9216L158.922 65L158 64.0783L163.078 59Z" fill="#076AAB"/>
<path d="M138.363 136.559C138.46 136.559 138.559 136.556 138.658 136.55C141.416 136.389 143.521 134.022 143.361 131.264C143.115 127.105 143.005 123.318 143.005 119.87C142.984 104.729 145.191 96.223 147.36 91.7834V185.578C147.36 189.849 150.822 193.309 155.09 193.309C159.36 193.309 162.822 189.849 162.822 185.578V129.132H165.72V185.578C165.72 189.849 169.183 193.309 173.451 193.309C177.72 193.309 181.183 189.849 181.183 185.578V91.8097C181.553 92.5701 181.926 93.4423 182.295 94.4603C184.058 99.3445 185.541 107.36 185.535 119.871C185.535 123.319 185.424 127.107 185.182 131.266C185.021 134.023 187.127 136.39 189.885 136.551C189.984 136.556 190.081 136.56 190.18 136.56C192.809 136.56 195.016 134.508 195.171 131.849C195.422 127.514 195.541 123.533 195.541 119.871C195.515 100.998 192.501 90.5522 188.391 84.2718C186.336 81.1534 183.933 79.1543 181.713 78.0463C179.582 76.9727 177.71 76.7288 176.582 76.7126C176.504 76.7088 176.429 76.7007 176.35 76.7007H152.192C152.109 76.7007 152.027 76.7088 151.945 76.7132C150.815 76.7288 148.949 76.9758 146.827 78.0463C143.462 79.7134 139.838 83.362 137.3 89.8269C134.733 96.3181 133.008 105.702 133 119.87C133 123.532 133.118 127.513 133.373 131.849C133.528 134.507 135.732 136.559 138.363 136.559Z" fill="#076AAB"/>
<path d="M164.268 45C156.497 45 150.199 51.2986 150.199 59.0698C150.199 66.8409 156.497 73.1377 164.268 73.1377C172.04 73.1377 178.338 66.8409 178.338 59.0698C178.338 51.2986 172.04 45 164.268 45ZM164.268 70.1306C158.159 70.1306 153.208 65.1783 153.208 59.0698C153.208 52.9619 158.16 48.0102 164.268 48.0102C170.377 48.0102 175.329 52.9619 175.329 59.0698C175.328 65.1789 170.376 70.1306 164.268 70.1306Z" fill="#076AAB"/>
</g>
<defs>
<radialGradient id="paint0_radial_5583_3498" cx="0" cy="0" r="1" gradientUnits="userSpaceOnUse" gradientTransform="translate(164 74) rotate(90) scale(74 164)">
<stop stop-color="white"/>
<stop offset="0.5" stop-color="#F4FBFF"/>
<stop offset="1" stop-color="#EDF8FF"/>
</radialGradient>
<clipPath id="clip0_5583_3498">
<rect width="328" height="148" rx="74" fill="white"/>
</clipPath>
</defs>
</svg>
