<svg width="328" height="148" viewBox="0 0 328 148" fill="none" xmlns="http://www.w3.org/2000/svg">
<rect width="328" height="148" rx="74" fill="url(#paint0_radial_5583_3416)"/>
<path d="M91 110H237.5" stroke="#076AAB" stroke-width="2"/>
<path d="M163.313 37.0089C163.093 37.0029 162.872 37 162.651 37C162.43 37 162.209 37.0029 161.989 37.0089C144.857 37.4684 133.743 56.3568 140.719 72.9307L160.922 108.447C161.706 109.827 165.322 109.827 166.107 108.447L186.309 72.9307C193.285 56.3568 180.445 37.4684 163.313 37.0089ZM160.271 74.4669C153.599 74.4669 148.191 68.741 148.191 61.6779C148.191 54.6147 153.599 48.8889 160.271 48.8889C166.942 48.8889 172.35 54.6147 172.35 61.6779C172.35 68.7411 166.942 74.4669 160.271 74.4669Z" fill="#076AAB"/>
<path d="M162.078 62L157 56.9216L157.922 56L163 61.0784L168.078 56L169 56.9216L163.922 62L169 67.0783L168.078 68L163 62.9216L157.922 68L157 67.0783L162.078 62Z" fill="#076AAB"/>
<path d="M165.038 37.0089C164.818 37.003 162.871 37 162.65 37C162.429 37 162.208 37.0029 161.988 37.0089C161.408 37.0244 160.835 37.0618 160.27 37.1189C176.415 38.7456 186.56 56.918 179.821 72.9307L160.897 106.2C160.511 106.878 160.511 107.727 160.897 108.405L160.921 108.447C161.705 109.827 165.321 109.827 166.106 108.447L186.308 72.9307C193.284 56.3568 182.171 37.4684 165.038 37.0089Z" fill="#88D1FF"/>
<path d="M160.271 74.4669C161.048 74.4669 161.807 74.3883 162.543 74.2399C156.958 73.1142 152.736 67.9185 152.736 61.6779C152.736 55.4373 156.959 50.2416 162.543 49.1159C161.807 48.9675 161.048 48.8889 160.271 48.8889C153.6 48.8889 148.191 54.6147 148.191 61.6779C148.191 68.7411 153.6 74.4669 160.271 74.4669Z" fill="#004877"/>
<g opacity="0.7">
<path d="M92.7071 37.0089C92.4872 37.0029 92.2667 37 92.0455 37C91.8243 37 91.6037 37.0029 91.3839 37.0089C74.2511 37.4684 63.1379 56.3568 70.1138 72.9307L90.316 108.447C91.1008 109.827 94.7164 109.827 95.5012 108.447L115.703 72.9307C122.679 56.3568 109.84 37.4684 92.7071 37.0089ZM89.6651 74.4669C82.9938 74.4669 77.5856 68.741 77.5856 61.6779C77.5856 54.6147 82.9938 48.8889 89.6651 48.8889C96.3364 48.8889 101.745 54.6147 101.745 61.6779C101.745 68.7411 96.3364 74.4669 89.6651 74.4669Z" fill="#88D1FF"/>
<path d="M94.4324 37.0089C94.2125 37.003 92.2657 37 92.0445 37C91.8233 37 91.6028 37.0029 91.3829 37.0089C90.8028 37.0244 90.2299 37.0618 89.6641 37.1189C105.81 38.7456 115.955 56.918 109.215 72.9307L90.2913 106.2C89.9055 106.878 89.9055 107.727 90.2913 108.405L90.3151 108.447C91.0999 109.827 94.7155 109.827 95.5003 108.447L115.703 72.9307C122.678 56.3568 111.565 37.4684 94.4324 37.0089Z" fill="#6BC5FF"/>
<path d="M89.6654 74.4669C90.4423 74.4669 91.2018 74.3883 91.9378 74.2399C86.353 73.1142 82.1308 67.9185 82.1308 61.6779C82.1308 55.4373 86.3531 50.2416 91.9378 49.1159C91.2017 48.9675 90.4423 48.8889 89.6654 48.8889C82.9941 48.8889 77.5859 54.6147 77.5859 61.6779C77.5859 68.7411 82.9941 74.4669 89.6654 74.4669Z" fill="#004877"/>
</g>
<g opacity="0.7">
<path d="M237.707 37.0089C237.487 37.0029 237.267 37 237.045 37C236.824 37 236.604 37.0029 236.384 37.0089C219.251 37.4684 208.138 56.3568 215.114 72.9307L235.316 108.447C236.101 109.827 239.716 109.827 240.501 108.447L260.703 72.9307C267.679 56.3568 254.84 37.4684 237.707 37.0089ZM234.665 74.4669C227.994 74.4669 222.586 68.741 222.586 61.6779C222.586 54.6147 227.994 48.8889 234.665 48.8889C241.336 48.8889 246.745 54.6147 246.745 61.6779C246.745 68.7411 241.336 74.4669 234.665 74.4669Z" fill="#88D1FF"/>
<path d="M239.432 37.0089C239.213 37.003 237.266 37 237.045 37C236.823 37 236.603 37.0029 236.383 37.0089C235.803 37.0244 235.23 37.0618 234.664 37.1189C250.81 38.7456 260.955 56.918 254.215 72.9307L235.291 106.2C234.905 106.878 234.905 107.727 235.291 108.405L235.315 108.447C236.1 109.827 239.716 109.827 240.5 108.447L260.703 72.9307C267.678 56.3568 256.565 37.4684 239.432 37.0089Z" fill="#6BC5FF"/>
<path d="M234.665 74.4669C235.442 74.4669 236.202 74.3883 236.938 74.2399C231.353 73.1142 227.131 67.9185 227.131 61.6779C227.131 55.4373 231.353 50.2416 236.938 49.1159C236.202 48.9675 235.442 48.8889 234.665 48.8889C227.994 48.8889 222.586 54.6147 222.586 61.6779C222.586 68.7411 227.994 74.4669 234.665 74.4669Z" fill="#004877"/>
</g>
<defs>
<radialGradient id="paint0_radial_5583_3416" cx="0" cy="0" r="1" gradientUnits="userSpaceOnUse" gradientTransform="translate(164 74) rotate(90) scale(74 164)">
<stop stop-color="white"/>
<stop offset="0.5" stop-color="#F4FBFF"/>
<stop offset="1" stop-color="#EDF8FF"/>
</radialGradient>
</defs>
</svg>
