<svg width="328" height="148" viewBox="0 0 328 148" fill="none" xmlns="http://www.w3.org/2000/svg">
<rect width="328" height="148" rx="74" fill="url(#paint0_radial_5583_3395)"/>
<rect x="111" y="26" width="106" height="96" rx="8" fill="#076AAB"/>
<rect x="123" y="38" width="82" height="9" rx="4" fill="white"/>
<rect x="123" y="70" width="76" height="9" rx="4" fill="#A9DEFF"/>
<rect x="123" y="54" width="63" height="9" rx="4" fill="#A9DEFF"/>
<path d="M169.791 96.0095L169.486 96.0007C169.107 95.996 168.757 96.0091 168.418 96.2058C167.823 96.5511 167.276 97.3308 166.801 97.8317C165.91 98.769 164.996 99.6745 164.065 100.571C163.028 99.6037 162.019 98.6085 161.003 97.6191C160.446 97.0768 159.848 96.3304 159.086 96.1044C158.664 95.9793 158.127 96.1161 157.765 96.3525C157.351 96.6234 156.996 97.0168 156.94 97.5239C156.912 97.7863 156.953 98.0189 157.085 98.2479C157.445 98.8708 158.091 99.3982 158.601 99.9052C159.624 100.923 160.679 101.915 161.632 103L157.598 107.094C157.219 107.539 156.954 107.955 157.05 108.555C157.157 109.224 157.809 109.684 158.328 110.026L158.451 110.021C158.82 110.001 159.16 109.978 159.489 109.798C160.178 109.42 160.73 108.762 161.273 108.207C162.21 107.247 163.149 106.295 164.047 105.298L164.401 105.709C165.435 106.878 166.588 108.028 167.743 109.079C168.01 109.322 168.434 109.769 168.796 109.788C169.427 109.823 169.928 109.825 170.407 109.365C170.783 109.005 171.006 108.63 171 108.101C170.995 107.674 170.739 107.41 170.481 107.098C169.257 105.619 167.728 104.31 166.313 103.017L170.139 99.2785C170.572 98.8323 170.987 98.3314 170.956 97.673C170.919 96.9117 170.328 96.4619 169.791 96.0095Z" fill="#88D1FF"/>
<defs>
<radialGradient id="paint0_radial_5583_3395" cx="0" cy="0" r="1" gradientUnits="userSpaceOnUse" gradientTransform="translate(164 74) rotate(90) scale(74 164)">
<stop stop-color="white"/>
<stop offset="0.5" stop-color="#F4FBFF"/>
<stop offset="1" stop-color="#EDF8FF"/>
</radialGradient>
</defs>
</svg>
