<svg width="136" height="136" viewBox="0 0 136 136" fill="none" xmlns="http://www.w3.org/2000/svg">
<g clip-path="url(#clip0_5586_2601)">
<path d="M74.7165 89.934C86.7879 89.934 96.5737 80.1482 96.5737 68.0769C96.5737 56.0055 86.7879 46.2197 74.7165 46.2197C62.6452 46.2197 52.8594 56.0055 52.8594 68.0769C52.8594 80.1482 62.6452 89.934 74.7165 89.934Z" fill="#E62415"/>
<path d="M100.681 95.1933C94.1072 101.11 85.3972 104.396 75.8655 104.396C71.0232 104.533 66.2041 103.678 61.7048 101.883C57.2055 100.087 53.1213 97.3902 49.7037 93.9571C46.286 90.5241 43.6071 86.4278 41.832 81.9205C40.057 77.4132 39.2233 72.5902 39.3822 67.7486C39.3822 46.5488 54.337 31.7583 75.8655 31.7583C85.2328 31.7583 94.1072 34.8807 100.845 40.797L105.447 44.7411L125.825 24.363L120.73 19.7615C108.39 8.75457 92.4013 2.72236 75.8655 2.83454C38.0674 2.83454 10.6228 30.1149 10.6228 67.5843C10.422 76.2223 11.9698 84.8118 15.1732 92.8364C18.3767 100.861 23.1696 108.155 29.2639 114.28C35.3583 120.405 42.6281 125.235 50.6365 128.478C58.6449 131.722 67.2265 133.313 75.8655 133.156C93.1211 133.156 109.226 127.075 121.059 116.064L125.989 111.463L105.282 91.0848L100.681 95.1933Z" fill="#002F4D"/>
</g>
<defs>
<clipPath id="clip0_5586_2601">
<rect width="136" height="136" fill="white"/>
</clipPath>
</defs>
</svg>
