<svg width="52" height="52" viewBox="0 0 52 52" fill="none" xmlns="http://www.w3.org/2000/svg">
<rect width="52" height="52" rx="16" fill="#2A8FD2" fill-opacity="0.24"/>
<g clip-path="url(#clip0_5763_16047)">
<path d="M26.7341 21.6669C28.7931 21.6669 30.4623 19.9692 30.4623 17.8749C30.4623 15.7807 28.7931 14.083 26.7341 14.083C24.675 14.083 23.0059 15.7807 23.0059 17.8749C23.0059 19.9692 24.675 21.6669 26.7341 21.6669Z" fill="#7B83EB"/>
<path opacity="0.1" d="M26.4666 18.6875H23.0898L23.1066 18.7631L23.1082 18.7696L23.1258 18.8394C23.3712 19.7858 23.9665 20.5991 24.7874 21.1096C25.6083 21.6201 26.5915 21.7884 27.5315 21.5792V19.7706C27.5306 19.4836 27.4181 19.2086 27.2186 19.0057C27.0191 18.8027 26.7487 18.6884 26.4666 18.6875Z" fill="black"/>
<path opacity="0.2" d="M25.6691 19.5H23.3652C23.6676 20.1484 24.1447 20.6962 24.741 21.0798C25.3373 21.4634 26.0284 21.667 26.734 21.6669V20.5831C26.7331 20.2961 26.6207 20.0211 26.4212 19.8182C26.2216 19.6152 25.9513 19.5009 25.6691 19.5Z" fill="black"/>
<path d="M35.1221 21.9375C36.6663 21.9375 37.9181 20.6643 37.9181 19.0938C37.9181 17.5232 36.6663 16.25 35.1221 16.25C33.578 16.25 32.3262 17.5232 32.3262 19.0938C32.3262 20.6643 33.578 21.9375 35.1221 21.9375Z" fill="#5059C9"/>
<path d="M37.5183 22.75H31.2385C31.1029 22.75 30.9729 22.8048 30.877 22.9023C30.7811 22.9998 30.7273 23.1321 30.7273 23.27V29.8594C30.71 30.813 31.0153 31.7438 31.5922 32.4958C32.1692 33.2478 32.9826 33.7753 33.8963 33.9901C34.4782 34.1143 35.0801 34.105 35.6581 33.9627C36.236 33.8205 36.7755 33.5489 37.2372 33.1679C37.699 32.7868 38.0714 32.3058 38.3273 31.7599C38.5832 31.214 38.7162 30.6169 38.7166 30.0121V23.9688C38.7166 23.6455 38.5903 23.3355 38.3656 23.107C38.1409 22.8784 37.8361 22.75 37.5183 22.75Z" fill="#5059C9"/>
<path d="M33.1234 23.9688V31.6875C33.1242 33.1179 32.6607 34.5087 31.8049 35.6438C30.9492 36.779 29.7489 37.5951 28.3905 37.9655C27.032 38.3359 25.5914 38.2399 24.292 37.6924C22.9927 37.1449 21.9074 36.1765 21.2046 34.9375C21.0508 34.6776 20.9173 34.406 20.8051 34.125C20.7006 33.8601 20.6125 33.5887 20.5415 33.3125C20.4098 32.7812 20.3427 32.2354 20.3418 31.6875V23.9688C20.3416 23.8086 20.3724 23.6501 20.4326 23.5021C20.4927 23.3541 20.581 23.2197 20.6923 23.1065C20.8036 22.9933 20.9358 22.9035 21.0813 22.8423C21.2267 22.7812 21.3827 22.7498 21.5401 22.75H31.9251C32.0825 22.7498 32.2385 22.7812 32.3839 22.8423C32.5294 22.9035 32.6616 22.9933 32.7729 23.1065C32.8842 23.2197 32.9725 23.3541 33.0326 23.5021C33.0928 23.6501 33.1236 23.8086 33.1234 23.9688Z" fill="#7B83EB"/>
<path opacity="0.2" d="M25.6691 19.5H23.3652C23.6676 20.1484 24.1447 20.6962 24.741 21.0798C25.3373 21.4634 26.0284 21.667 26.734 21.6669V20.5831C26.7331 20.2961 26.6207 20.0211 26.4212 19.8182C26.2216 19.6152 25.9513 19.5009 25.6691 19.5Z" fill="black"/>
<path opacity="0.1" d="M27.5314 22.75V33.0444C27.5315 33.2893 27.449 33.5269 27.2979 33.7175C27.1467 33.9082 26.936 34.0405 26.7006 34.0925C26.6255 34.1152 26.5474 34.1262 26.469 34.125H20.8051C20.7006 33.8601 20.6125 33.5887 20.5415 33.3125C20.4098 32.7812 20.3427 32.2354 20.3418 31.6875V23.9688C20.3416 23.8086 20.3724 23.6501 20.4326 23.5021C20.4927 23.3541 20.581 23.2197 20.6923 23.1065C20.8036 22.9933 20.9358 22.9035 21.0813 22.8423C21.2267 22.7812 21.3827 22.7498 21.5401 22.75H27.5314Z" fill="black"/>
<path opacity="0.2" d="M26.7326 22.75V33.8569C26.7338 33.9366 26.723 34.0161 26.7006 34.0925C26.6496 34.3319 26.5195 34.5462 26.332 34.7C26.1445 34.8537 25.9109 34.9375 25.6701 34.9375H21.2046C21.0508 34.6776 20.9173 34.406 20.8051 34.125C20.7006 33.8601 20.6125 33.5887 20.5415 33.3125C20.4098 32.7812 20.3427 32.2354 20.3418 31.6875V23.9688C20.3416 23.8086 20.3724 23.6501 20.4326 23.5021C20.4927 23.3541 20.581 23.2197 20.6923 23.1065C20.8036 22.9933 20.9358 22.9035 21.0813 22.8423C21.2267 22.7812 21.3827 22.7498 21.5401 22.75H26.7326Z" fill="black"/>
<path opacity="0.2" d="M26.7326 22.75V32.2319C26.7313 32.5181 26.619 32.7922 26.42 32.9946C26.221 33.197 25.9515 33.3112 25.6701 33.3125H20.5415C20.4098 32.7812 20.3427 32.2354 20.3418 31.6875V23.9688C20.3416 23.8086 20.3724 23.6501 20.4326 23.5021C20.4927 23.3541 20.581 23.2197 20.6923 23.1065C20.8036 22.9933 20.9358 22.9035 21.0813 22.8423C21.2267 22.7812 21.3827 22.7498 21.5401 22.75H26.7326Z" fill="black"/>
<path opacity="0.2" d="M21.5401 22.75C21.3827 22.7498 21.2267 22.7812 21.0813 22.8423C20.9358 22.9035 20.8036 22.9933 20.6923 23.1065C20.581 23.2197 20.4927 23.3541 20.4326 23.5021C20.3724 23.6501 20.3416 23.8086 20.3418 23.9688V31.6875C20.3427 32.2354 20.4098 32.7812 20.5415 33.3125H24.8713C25.1527 33.3112 25.4222 33.197 25.6212 32.9946C25.8201 32.7922 25.9325 32.5181 25.9337 32.2319V22.75H21.5401Z" fill="black"/>
<path d="M14.2172 19.5H24.8691C25.1515 19.5 25.4223 19.6141 25.6221 19.8172C25.8218 20.0203 25.9339 20.2958 25.9339 20.5831V31.4169C25.9339 31.7042 25.8218 31.9797 25.6221 32.1828C25.4223 32.3859 25.1515 32.5 24.8691 32.5H14.2172C13.9348 32.5 13.6639 32.3859 13.4642 32.1828C13.2645 31.9797 13.1523 31.7042 13.1523 31.4169V20.5831C13.1523 20.2958 13.2645 20.0203 13.4642 19.8172C13.6639 19.6141 13.9348 19.5 14.2172 19.5Z" fill="#4B53BC"/>
<path d="M22.7241 23.542H20.3355V30.0583H18.7682V23.542H16.3652V21.9414H22.7241V23.542Z" fill="white"/>
</g>
<defs>
<clipPath id="clip0_5763_16047">
<rect width="26" height="26" fill="white" transform="translate(13 13)"/>
</clipPath>
</defs>
</svg>
