<svg width="64" height="64" viewBox="0 0 64 64" fill="none" xmlns="http://www.w3.org/2000/svg">
<rect width="64" height="64" rx="24" fill="#2A8FD2" fill-opacity="0.24"/>
<path d="M16 28V40C16.0021 41.7675 16.7052 43.4619 17.955 44.7117C19.2047 45.9615 20.8992 46.6646 22.6667 46.6667H41.3333C43.1008 46.6646 44.7953 45.9615 46.045 44.7117C47.2948 43.4619 47.9979 41.7675 48 40V28H16ZM34.6667 41.3333H24C23.6464 41.3333 23.3072 41.1929 23.0572 40.9428C22.8071 40.6928 22.6667 40.3536 22.6667 40C22.6667 39.6464 22.8071 39.3072 23.0572 39.0572C23.3072 38.8071 23.6464 38.6667 24 38.6667H34.6667C35.0203 38.6667 35.3594 38.8071 35.6095 39.0572C35.8595 39.3072 36 39.6464 36 40C36 40.3536 35.8595 40.6928 35.6095 40.9428C35.3594 41.1929 35.0203 41.3333 34.6667 41.3333ZM40 36H24C23.6464 36 23.3072 35.8595 23.0572 35.6095C22.8071 35.3594 22.6667 35.0203 22.6667 34.6667C22.6667 34.313 22.8071 33.9739 23.0572 33.7239C23.3072 33.4738 23.6464 33.3333 24 33.3333H40C40.3536 33.3333 40.6928 33.4738 40.9428 33.7239C41.1929 33.9739 41.3333 34.313 41.3333 34.6667C41.3333 35.0203 41.1929 35.3594 40.9428 35.6095C40.6928 35.8595 40.3536 36 40 36Z" fill="#2A8FD2"/>
<path d="M48 25.3335V24.0002C47.9979 22.2327 47.2948 20.5382 46.045 19.2885C44.7953 18.0387 43.1008 17.3356 41.3333 17.3335H22.6667C20.8992 17.3356 19.2047 18.0387 17.955 19.2885C16.7052 20.5382 16.0021 22.2327 16 24.0002V25.3335H48ZM29.3333 20.0002C29.597 20.0002 29.8548 20.0784 30.0741 20.2249C30.2934 20.3714 30.4643 20.5796 30.5652 20.8233C30.6661 21.0669 30.6925 21.335 30.641 21.5936C30.5896 21.8523 30.4626 22.0898 30.2761 22.2763C30.0897 22.4628 29.8521 22.5898 29.5935 22.6412C29.3348 22.6927 29.0667 22.6663 28.8231 22.5653C28.5795 22.4644 28.3712 22.2935 28.2247 22.0743C28.0782 21.855 28 21.5972 28 21.3335C28 20.9799 28.1405 20.6407 28.3905 20.3907C28.6406 20.1406 28.9797 20.0002 29.3333 20.0002ZM25.3333 20.0002C25.597 20.0002 25.8548 20.0784 26.0741 20.2249C26.2934 20.3714 26.4643 20.5796 26.5652 20.8233C26.6661 21.0669 26.6925 21.335 26.641 21.5936C26.5896 21.8523 26.4626 22.0898 26.2761 22.2763C26.0897 22.4628 25.8521 22.5898 25.5935 22.6412C25.3348 22.6927 25.0667 22.6663 24.8231 22.5653C24.5795 22.4644 24.3712 22.2935 24.2247 22.0743C24.0782 21.855 24 21.5972 24 21.3335C24 20.9799 24.1405 20.6407 24.3905 20.3907C24.6406 20.1406 24.9797 20.0002 25.3333 20.0002ZM21.3333 20.0002C21.597 20.0002 21.8548 20.0784 22.0741 20.2249C22.2934 20.3714 22.4643 20.5796 22.5652 20.8233C22.6661 21.0669 22.6925 21.335 22.641 21.5936C22.5896 21.8523 22.4626 22.0898 22.2761 22.2763C22.0897 22.4628 21.8521 22.5898 21.5935 22.6412C21.3348 22.6927 21.0667 22.6663 20.8231 22.5653C20.5795 22.4644 20.3712 22.2935 20.2247 22.0743C20.0782 21.855 20 21.5972 20 21.3335C20 20.9799 20.1405 20.6407 20.3905 20.3907C20.6406 20.1406 20.9797 20.0002 21.3333 20.0002Z" fill="#BFFB4F"/>
</svg>
