<svg width="52" height="52" viewBox="0 0 52 52" fill="none" xmlns="http://www.w3.org/2000/svg">
<rect width="52" height="52" rx="16" fill="#2A8FD2" fill-opacity="0.24"/>
<g clip-path="url(#clip0_5747_5379)">
<path d="M35.3763 29.0945C34.0838 27.8573 32.0288 27.8616 30.7396 29.101L28.6748 30.8408C25.2102 29.3707 22.7446 26.9007 21.1651 23.317L22.8984 21.262C23.5018 20.6347 23.8333 19.8114 23.8333 18.9382C23.8333 18.065 23.504 17.2493 22.9049 16.622C22.9049 16.622 20.8986 14.0145 20.865 13.9809C19.5574 12.6733 17.4308 12.6744 16.1774 13.93L14.9316 15.0176C13.6858 16.2635 13 17.9459 13 19.7583C13 28.0306 23.9698 39.0005 32.2422 39.0005C34.0546 39.0005 35.7381 38.3136 37.0316 37.0147L38.0196 35.8772C39.325 34.5696 39.325 32.442 38.0196 31.1344C37.986 31.1019 35.3763 29.0945 35.3763 29.0945Z" fill="#2A8FD2"/>
<path d="M38.9991 16.2499V19.4999C38.9991 21.2917 37.541 22.7499 35.7491 22.7499H32.8816L30.5773 24.6024C30.2805 24.8104 29.9587 24.9122 29.6456 24.9122C29.4127 24.9122 29.1841 24.8559 28.9729 24.7465C28.4778 24.4886 28.1701 23.9816 28.168 23.4237V16.2521C28.1658 14.4602 29.624 13.0021 31.4158 13.001H35.7481C36.6169 13.001 37.4326 13.339 38.0458 13.9521C38.659 14.5653 38.9981 15.3821 38.9981 16.251L38.9991 16.2499Z" fill="#BFFB4F"/>
</g>
<defs>
<clipPath id="clip0_5747_5379">
<rect width="26" height="26" fill="white" transform="translate(13 13)"/>
</clipPath>
</defs>
</svg>
