<svg width="52" height="52" viewBox="0 0 52 52" fill="none" xmlns="http://www.w3.org/2000/svg">
<rect width="52" height="52" rx="16" fill="#2A8FD2" fill-opacity="0.24"/>
<g clip-path="url(#clip0_5763_15985)">
<path fill-rule="evenodd" clip-rule="evenodd" d="M22.5328 13C21.0955 13.0011 19.9323 14.1651 19.9334 15.5995C19.9323 17.0338 21.0966 18.1979 22.5338 18.1989H25.1343V15.6005C25.1353 14.1662 23.9711 13.0021 22.5328 13C22.5338 13 22.5338 13 22.5328 13ZM22.5328 19.9333H15.6004C14.1632 19.9344 12.9989 21.0984 13 22.5328C12.9979 23.9672 14.1621 25.1312 15.5994 25.1333H22.5328C23.97 25.1323 25.1343 23.9682 25.1332 22.5339C25.1343 21.0984 23.97 19.9344 22.5328 19.9333Z" fill="#36C5F0"/>
<path fill-rule="evenodd" clip-rule="evenodd" d="M39.0004 22.5328C39.0014 21.0984 37.8372 19.9344 36.4 19.9333C34.9627 19.9344 33.7985 21.0984 33.7995 22.5328V25.1333H36.4C37.8372 25.1323 39.0014 23.9682 39.0004 22.5328ZM32.067 22.5328V15.5995C32.068 14.1662 30.9049 13.0021 29.4676 13C28.0304 13.0011 26.8661 14.1651 26.8672 15.5995V22.5328C26.8651 23.9672 28.0293 25.1312 29.4666 25.1333C30.9038 25.1323 32.068 23.9682 32.067 22.5328Z" fill="#2EB67D"/>
<path fill-rule="evenodd" clip-rule="evenodd" d="M29.4657 38.9996C30.9029 38.9986 32.0671 37.8345 32.0661 36.4002C32.0671 34.9658 30.9029 33.8017 29.4657 33.8007H26.8652V36.4002C26.8642 37.8335 28.0284 38.9975 29.4657 38.9996ZM29.4657 32.0652H36.3991C37.8363 32.0642 39.0006 30.9001 38.9995 29.4658C39.0016 28.0314 37.8374 26.8674 36.4001 26.8652H29.4667C28.0295 26.8663 26.8652 28.0303 26.8663 29.4647C26.8652 30.9001 28.0284 32.0642 29.4657 32.0652Z" fill="#ECB22E"/>
<path fill-rule="evenodd" clip-rule="evenodd" d="M13 29.4657C12.9989 30.9001 14.1632 32.0641 15.6004 32.0652C17.0377 32.0641 18.2019 30.9001 18.2009 29.4657V26.8662H15.6004C14.1632 26.8673 12.9989 28.0313 13 29.4657ZM19.9334 29.4657V36.399C19.9313 37.8334 21.0955 38.9974 22.5328 38.9995C23.97 38.9985 25.1343 37.8344 25.1332 36.4001V29.4678C25.1353 28.0334 23.9711 26.8694 22.5338 26.8673C21.0955 26.8673 19.9323 28.0313 19.9334 29.4657Z" fill="#E01E5A"/>
</g>
<defs>
<clipPath id="clip0_5763_15985">
<rect width="26" height="26" fill="white" transform="translate(13 13)"/>
</clipPath>
</defs>
</svg>
