<svg width="52" height="52" viewBox="0 0 52 52" fill="none" xmlns="http://www.w3.org/2000/svg">
<rect width="52" height="52" rx="16" fill="#2A8FD2" fill-opacity="0.24"/>
<g clip-path="url(#clip0_5586_1125)">
<path fill-rule="evenodd" clip-rule="evenodd" d="M25.9587 13C29.4524 13 32.7022 14.3815 35.1397 16.819C37.5772 19.2565 38.9587 22.5875 38.9587 26C38.9587 33.15 33.1087 38.9999 25.9587 39C23.6837 39 21.4087 38.4311 19.3775 37.2123L18.8902 36.9687L14.0144 38.1879L15.3148 33.3944L14.99 32.9061C13.7713 30.8748 13.0399 28.5187 13.0399 26.0812C12.9587 18.85 18.8087 13 25.9587 13ZM20.6768 19.0127C20.5144 19.0128 20.352 19.0939 20.1896 19.0939L20.1084 19.1752C19.946 19.2563 19.7835 19.4187 19.6211 19.5C19.4586 19.6625 19.3765 19.8248 19.214 19.9873C18.6452 20.7185 18.3207 21.6131 18.3207 22.5069C18.3207 23.1568 18.483 23.8071 18.7267 24.3758L18.8079 24.6194C19.5392 26.1631 20.5149 27.5446 21.8148 28.7633L22.1397 29.0881C22.3833 29.3317 22.6269 29.4942 22.7894 29.7378C24.4956 31.2003 26.4459 32.2571 28.6397 32.8259C28.8834 32.907 29.2081 32.9071 29.4518 32.9883H30.2649C30.6711 32.9882 31.1582 32.8249 31.4831 32.6624C31.7268 32.5 31.8891 32.5 32.0516 32.3376L32.2151 32.1752C32.3774 32.0129 32.5399 31.9315 32.7023 31.7691C32.8647 31.6067 33.0271 31.4442 33.1084 31.2818C33.2709 30.9568 33.352 30.5501 33.4332 30.1438V29.5754C33.431 29.5731 33.3498 29.493 33.1896 29.4129L32.2963 29.0069C32.2963 29.0069 30.9963 28.4376 30.1837 28.0313C30.1025 28.0313 30.0203 27.9501 29.9391 27.9501C29.6956 27.9502 29.533 28.0313 29.3706 28.1125C29.3706 28.1125 29.2898 28.1943 28.1524 29.4942C28.0712 29.6567 27.9078 29.7378 27.7453 29.7378H27.6641C27.5827 29.7375 27.4204 29.6565 27.3393 29.5754L26.9332 29.4129C26.0395 29.0067 25.2271 28.5189 24.5771 27.8689C24.4146 27.7065 24.1711 27.544 24.0086 27.3816C23.4398 26.8129 22.8708 26.1628 22.4645 25.4315L22.3833 25.2691C22.3021 25.1879 22.302 25.1066 22.2209 24.9443C22.2209 24.7819 22.221 24.6195 22.3021 24.5382C22.3021 24.5382 22.6268 24.1312 22.8706 23.8875C23.033 23.725 23.1143 23.4815 23.2766 23.319C23.4391 23.0753 23.5202 22.7506 23.4391 22.5069C23.3578 22.1006 22.3834 19.9063 22.1397 19.4188C21.9773 19.1752 21.8147 19.0939 21.5712 19.0127H20.6768Z" fill="#25D366"/>
</g>
<defs>
<clipPath id="clip0_5586_1125">
<rect width="26" height="26" fill="white" transform="translate(13 13)"/>
</clipPath>
</defs>
</svg>
