<svg width="52" height="52" viewBox="0 0 52 52" fill="none" xmlns="http://www.w3.org/2000/svg">
<rect width="52" height="52" rx="16" fill="#2A8FD2" fill-opacity="0.24"/>
<path d="M38.9502 19.0039L29.8307 28.1234C28.8138 29.1377 27.4362 29.7073 26 29.7073C24.5638 29.7073 23.1862 29.1377 22.1693 28.1234L13.0498 19.0039C13.0347 19.1751 13 19.33 13 19.5001V32.5001C13.0017 33.9361 13.573 35.3129 14.5884 36.3283C15.6039 37.3438 16.9806 37.915 18.4167 37.9167H33.5833C35.0194 37.915 36.3961 37.3438 37.4116 36.3283C38.427 35.3129 38.9983 33.9361 39 32.5001V19.5001C39 19.33 38.9653 19.1751 38.9502 19.0039Z" fill="#2A8FD2"/>
<path d="M28.2975 26.5912L38.1927 16.6949C37.7133 15.9001 37.0373 15.2422 36.2297 14.7847C35.4221 14.3272 34.5102 14.0855 33.582 14.083H18.4154C17.4872 14.0855 16.5753 14.3272 15.7677 14.7847C14.9601 15.2422 14.284 15.9001 13.8047 16.6949L23.6999 26.5912C24.3104 27.1993 25.137 27.5407 25.9987 27.5407C26.8604 27.5407 27.687 27.1993 28.2975 26.5912Z" fill="#BFFB4F"/>
</svg>
