<svg width="64" height="64" viewBox="0 0 64 64" fill="none" xmlns="http://www.w3.org/2000/svg">
<rect width="64" height="64" rx="24" fill="#2A8FD2" fill-opacity="0.24"/>
<g clip-path="url(#clip0_5447_9623)">
<path d="M26.6667 32C22.2547 32 18.6667 28.412 18.6667 24C18.6667 19.588 22.2547 16 26.6667 16C31.0787 16 34.6667 19.588 34.6667 24C34.6667 28.412 31.0787 32 26.6667 32ZM30.6667 39.3613V36.6387C30.6667 35.892 30.1693 35.2293 29.448 35.0347C28.1733 34.6893 26.804 34.576 25.3893 34.7413C19.9613 35.3773 16 40.2227 16 45.688V46.6667C16 47.4027 16.5973 48 17.3333 48H35.3307C33.0787 46.188 30.6667 43.3227 30.6667 39.3613Z" fill="#2A8FD2"/>
<path d="M40.6667 48C40.4627 48 40.2574 47.9533 40.0707 47.86L39.8027 47.7253C38.284 46.9666 33.332 44.12 33.332 39.3626V35.2493C33.332 33.5226 34.4334 31.9973 36.072 31.452L40.2467 30.068C40.5174 29.9786 40.8147 29.9786 41.0854 30.068L45.2587 31.452C46.8974 31.996 48 33.5226 48 35.2493V39.3626C48 44.7386 42.9814 47.1733 41.444 47.792L41.1654 47.904C41.0054 47.968 40.836 48 40.668 48H40.6667Z" fill="#BFFB4F"/>
</g>
<defs>
<clipPath id="clip0_5447_9623">
<rect width="32" height="32" fill="white" transform="translate(16 16)"/>
</clipPath>
</defs>
</svg>
