<svg width="64" height="64" viewBox="0 0 64 64" fill="none" xmlns="http://www.w3.org/2000/svg">
<rect width="64" height="64" rx="24" fill="#2A8FD2" fill-opacity="0.24"/>
<g clip-path="url(#clip0_5447_9520)">
<path d="M39.9355 18.6885C40.4525 19.073 40.9442 19.497 41.4053 19.958C43.8999 22.4526 45.3034 25.8354 45.3076 29.3633C45.3074 32.79 42.654 38.1527 37.4209 45.3018C36.7979 46.1552 35.982 46.8495 35.04 47.3281C34.098 47.8068 33.0557 48.0566 31.999 48.0566C30.9425 48.0566 29.9009 47.8067 28.959 47.3281C28.017 46.8495 27.2011 46.1552 26.5781 45.3018C22.0567 39.125 19.4624 34.2814 18.8398 30.8682L28.5732 25.249C28.4545 25.3486 28.3387 25.4523 28.2285 25.5625C27.4826 26.3084 26.9743 27.2584 26.7686 28.293C26.5628 29.3274 26.6687 30.3996 27.0723 31.374C27.4759 32.3484 28.1592 33.1816 29.0361 33.7676C29.9131 34.3535 30.9443 34.6669 31.999 34.667C33.4135 34.667 34.7703 34.1047 35.7705 33.1045C36.7707 32.1043 37.333 30.7475 37.333 29.333C37.3329 28.2783 37.0195 27.247 36.4336 26.3701C35.8476 25.4932 35.0144 24.8099 34.04 24.4062C33.0656 24.0027 31.9934 23.8968 30.959 24.1025C30.6951 24.155 30.4365 24.2267 30.1855 24.3174L39.9355 18.6885Z" fill="#2A8FD2"/>
<path d="M31.999 16.0557C34.8751 16.0588 37.6549 16.9923 39.9355 18.6885L30.1855 24.3174C29.5981 24.5298 29.0532 24.8464 28.5732 25.249L18.8398 30.8682C18.7419 30.3309 18.6914 29.8293 18.6914 29.3633C18.6956 25.8353 20.099 22.4526 22.5938 19.958C25.0885 17.4635 28.4711 16.0596 31.999 16.0557Z" fill="#BFFB4F"/>
</g>
<defs>
<clipPath id="clip0_5447_9520">
<rect width="32" height="32" fill="white" transform="translate(16 16)"/>
</clipPath>
</defs>
</svg>
