<svg width="64" height="64" viewBox="0 0 64 64" fill="none" xmlns="http://www.w3.org/2000/svg">
<rect width="64" height="64" rx="24" fill="#2A8FD2" fill-opacity="0.24"/>
<g clip-path="url(#clip0_5447_9593)">
<path d="M32 25.3333V16.6133C33.2173 17.0747 34.3373 17.7853 35.2867 18.7333L39.932 23.3813C40.8813 24.3293 41.592 25.4493 42.0533 26.6667H33.3333C32.5973 26.6667 32 26.068 32 25.3333ZM29.3333 46.06C29.3333 43.804 30.212 41.6827 31.8067 40.088L40.8827 31.012C41.4013 30.4933 42.0053 30.0947 42.6573 29.8107C42.652 29.6507 42.6453 29.492 42.6347 29.332H33.3333C31.128 29.332 29.3333 27.5373 29.3333 25.332V16.032C29.1187 16.0173 28.904 16 28.6867 16H22.6667C18.9907 16 16 18.9907 16 22.6667V41.3333C16 45.0093 18.9907 48 22.6667 48H29.3333V46.06Z" fill="#2A8FD2"/>
<path d="M33.6933 41.9735C32.6093 43.0575 32 44.5268 32 46.0602V48.0002H33.94C35.4733 48.0002 36.9427 47.3908 38.0267 46.3068L47.1027 37.2308C48.2987 36.0348 48.2987 34.0935 47.1027 32.8975C45.9067 31.7015 43.9653 31.7015 42.7693 32.8975L33.6933 41.9735Z" fill="#BFFB4F"/>
</g>
<defs>
<clipPath id="clip0_5447_9593">
<rect width="32" height="32" fill="white" transform="translate(16 16)"/>
</clipPath>
</defs>
</svg>
