<svg width="96" height="96" viewBox="0 0 96 96" fill="none" xmlns="http://www.w3.org/2000/svg">
<rect width="96" height="96" rx="24" fill="url(#paint0_radial_5447_9722)"/>
<path d="M52.5895 40.6627C52.064 40.4452 51.459 40.5653 51.0569 40.9678L27.7538 64.2668C25.8586 66.1678 26.3988 69.0463 27.9493 70.5822C28.9722 71.6086 31.9586 73.083 34.2639 70.7718C37.9491 67.0881 53.0458 51.994 53.0458 51.994C53.3095 51.7303 53.4578 51.3725 53.4578 50.9994V41.962C53.4578 41.3933 53.115 40.8802 52.5895 40.6627Z" fill="#076AAB"/>
<path d="M69.1437 24.107C68.6182 23.8895 68.0132 24.0096 67.6111 24.4121L53.8672 38.156C55.3328 38.8544 56.2684 40.3247 56.2684 41.9624V48.1957L57.0671 48.9944C57.4817 49.4089 57.9779 49.4064 58.0621 49.4064C58.4353 49.4064 58.7931 49.2577 59.0568 48.9936C59.0575 48.9933 59.8848 48.1645 61.0823 46.9707C63.927 44.1245 66.1506 40.796 67.6906 37.0775C69.2308 33.3586 70.0116 29.4321 70.0116 25.4067C70.0116 24.8376 69.6692 24.3249 69.1437 24.107Z" fill="#8BD500"/>
<defs>
<radialGradient id="paint0_radial_5447_9722" cx="0" cy="0" r="1" gradientUnits="userSpaceOnUse" gradientTransform="translate(48 48) rotate(90) scale(48)">
<stop stop-color="white"/>
<stop offset="0.33" stop-color="#F4FBFF"/>
<stop offset="0.66" stop-color="#EDF8FF"/>
<stop offset="1" stop-color="#DEF2FF"/>
</radialGradient>
</defs>
</svg>
