<svg width="64" height="64" viewBox="0 0 64 64" fill="none" xmlns="http://www.w3.org/2000/svg">
<rect width="64" height="64" rx="24" fill="#2A8FD2" fill-opacity="0.24"/>
<path d="M28 32C23.588 32 20 28.412 20 24C20 19.588 23.588 16 28 16C32.412 16 36 19.588 36 24C36 28.412 32.412 32 28 32ZM26.6667 38.6667C26.6667 37.2747 26.916 35.9427 27.352 34.7C21.0373 35.0387 16 40.2693 16 46.6667C16 47.4027 16.5973 48 17.3333 48H31.132C28.4107 45.8 26.6667 42.4387 26.6667 38.6667Z" fill="#2A8FD2"/>
<path d="M46.2623 41.5118L44.9636 40.7625C45.1849 40.0998 45.3343 39.4038 45.3343 38.6665C45.3343 37.9291 45.1863 37.2331 44.9636 36.5705L46.2623 35.8211C46.8996 35.4531 47.1183 34.6371 46.7503 33.9998C46.3809 33.3611 45.5676 33.1411 44.9289 33.5118L43.6316 34.2611C42.6916 33.2025 41.4396 32.4278 40.0009 32.1358V30.6678C40.0009 29.9318 39.4036 29.3345 38.6676 29.3345C37.9316 29.3345 37.3343 29.9318 37.3343 30.6678V32.1358C35.8956 32.4291 34.6436 33.2038 33.7036 34.2611L32.4063 33.5118C31.7663 33.1425 30.9529 33.3611 30.5849 33.9998C30.2169 34.6385 30.4356 35.4531 31.0729 35.8211L32.3716 36.5705C32.1503 37.2331 32.0009 37.9291 32.0009 38.6665C32.0009 39.4038 32.1489 40.0998 32.3716 40.7625L31.0729 41.5118C30.4356 41.8798 30.2169 42.6958 30.5849 43.3331C30.8329 43.7611 31.2796 43.9998 31.7409 43.9998C31.9663 43.9998 32.1956 43.9425 32.4063 43.8211L33.7036 43.0718C34.6436 44.1305 35.8956 44.9051 37.3343 45.1971V46.6651C37.3343 47.4011 37.9316 47.9985 38.6676 47.9985C39.4036 47.9985 40.0009 47.4011 40.0009 46.6651V45.1971C41.4396 44.9038 42.6916 44.1291 43.6316 43.0718L44.9289 43.8211C45.1396 43.9425 45.3689 43.9998 45.5943 43.9998C46.0556 43.9998 46.5036 43.7611 46.7503 43.3331C47.1183 42.6945 46.8996 41.8798 46.2623 41.5118ZM38.6676 40.6665C37.5649 40.6665 36.6676 39.7691 36.6676 38.6665C36.6676 37.5638 37.5649 36.6665 38.6676 36.6665C39.7703 36.6665 40.6676 37.5638 40.6676 38.6665C40.6676 39.7691 39.7703 40.6665 38.6676 40.6665Z" fill="#BFFB4F"/>
</svg>
