<svg width="96" height="96" viewBox="0 0 96 96" fill="none" xmlns="http://www.w3.org/2000/svg">
<rect width="96" height="96" rx="24" fill="url(#paint0_radial_5447_9712)"/>
<g clip-path="url(#clip0_5447_9712)">
<path d="M67.2432 29.3254C65.6869 28.3129 63.6338 28.6316 62.4432 30.0472C60.1651 32.7566 55.8713 36.6754 49.8244 37.2191H46.9744C40.9276 36.6754 36.6338 32.7566 34.3557 30.0472C33.1651 28.6222 31.1119 28.3129 29.5651 29.316C27.6994 30.5347 27.3432 33.1222 28.8151 34.791C31.1026 37.3972 34.9369 40.8847 40.2901 42.7972V42.8254V68.6441C40.2901 70.491 41.7901 71.991 43.6369 71.991C45.4838 71.991 46.9838 70.491 46.9838 68.6441V58.1816H49.8526V68.6535C49.8526 70.5004 51.3526 72.0004 53.1994 72.0004C55.0463 72.0004 56.5463 70.5004 56.5463 68.6535V42.8347C56.5463 42.8254 56.5463 42.816 56.5463 42.8066C61.8994 40.8941 65.7338 37.4066 68.0213 34.8004C69.4651 33.1222 69.1088 30.5347 67.2432 29.3254Z" fill="#076AAB"/>
<path d="M48.4004 35.8125C51.6623 35.8125 54.3066 33.1682 54.3066 29.9062C54.3066 26.6443 51.6623 24 48.4004 24C45.1385 24 42.4941 26.6443 42.4941 29.9062C42.4941 33.1682 45.1385 35.8125 48.4004 35.8125Z" fill="#8BD500"/>
</g>
<defs>
<radialGradient id="paint0_radial_5447_9712" cx="0" cy="0" r="1" gradientUnits="userSpaceOnUse" gradientTransform="translate(48 48) rotate(90) scale(48)">
<stop stop-color="white"/>
<stop offset="0.33" stop-color="#F4FBFF"/>
<stop offset="0.66" stop-color="#EDF8FF"/>
<stop offset="1" stop-color="#DEF2FF"/>
</radialGradient>
<clipPath id="clip0_5447_9712">
<rect width="48" height="48" fill="white" transform="translate(24.4004 24)"/>
</clipPath>
</defs>
</svg>
