<svg width="96" height="96" viewBox="0 0 96 96" fill="none" xmlns="http://www.w3.org/2000/svg">
<rect width="96" height="96" rx="24" fill="url(#paint0_radial_5447_9742)"/>
<g clip-path="url(#clip0_5447_9742)">
<path d="M40.0784 47.7116L38.4264 46.4496C36.9924 45.3556 35.0044 45.3556 33.5704 46.4496L31.9184 47.7116L27.5144 51.5136C22.8364 56.1916 22.8364 63.8056 27.5144 68.4836C29.7804 70.7496 32.7944 71.9976 35.9984 71.9976C39.2024 71.9976 42.2164 70.7496 44.4844 68.4836C49.1624 63.8056 49.1624 56.1916 44.3764 51.4116L40.0804 47.7096L40.0784 47.7116ZM49.7224 28.4136L46.7224 25.2076C45.2484 23.6336 42.7504 23.6316 41.2764 25.2076L38.3404 28.3436C36.8284 29.8536 35.9964 31.8636 35.9964 33.9996C35.9964 36.1356 36.8284 38.1456 38.3384 39.6556C39.8484 41.1656 41.8584 41.9996 43.9964 41.9996C46.1344 41.9996 48.1424 41.1676 49.6544 39.6556C52.7744 36.5356 52.7744 31.4616 49.7224 28.4136Z" fill="#076AAB"/>
<path d="M68.7239 41.1686L64.8299 37.5726L63.7779 36.5606C62.2299 35.0726 59.7839 35.0706 58.2359 36.5566L57.2179 37.5326L53.2259 41.2226C51.1479 43.3006 50.0039 46.0626 50.0039 49.0006C50.0039 51.9386 51.1479 54.7026 53.2259 56.7786C55.3039 58.8566 58.0659 60.0006 61.0039 60.0006C63.9419 60.0006 66.7039 58.8566 68.7819 56.7786C73.0719 52.4886 73.0719 45.5106 68.7259 41.1666L68.7239 41.1686Z" fill="#8BD500"/>
</g>
<defs>
<radialGradient id="paint0_radial_5447_9742" cx="0" cy="0" r="1" gradientUnits="userSpaceOnUse" gradientTransform="translate(48 48) rotate(90) scale(48)">
<stop stop-color="white"/>
<stop offset="0.33" stop-color="#F4FBFF"/>
<stop offset="0.66" stop-color="#EDF8FF"/>
<stop offset="1" stop-color="#DEF2FF"/>
</radialGradient>
<clipPath id="clip0_5447_9742">
<rect width="48" height="48" fill="white" transform="translate(24 24)"/>
</clipPath>
</defs>
</svg>
