<svg width="96" height="96" viewBox="0 0 96 96" fill="none" xmlns="http://www.w3.org/2000/svg">
<rect width="96" height="96" rx="24" fill="url(#paint0_radial_5447_9692)"/>
<path d="M70.7425 40.2851H69.0282C69.1712 38.1679 68.7879 36.0481 67.9125 34.115C67.0371 32.1818 65.6969 30.4955 64.0113 29.2062C62.3257 27.917 60.3472 27.065 58.2523 26.7263C56.1574 26.3876 54.0113 26.5727 52.0053 27.2651C49.1523 28.2593 46.0469 28.2593 43.1939 27.2651C41.1879 26.5727 39.0418 26.3876 36.9469 26.7263C34.852 27.065 32.8735 27.917 31.1879 29.2062C29.5023 30.4955 28.1621 32.1818 27.2867 34.115C26.4113 36.0481 26.028 38.1679 26.171 40.2851H24.4568C24.2294 40.2851 24.0114 40.3754 23.8507 40.5362C23.6899 40.6969 23.5996 40.9149 23.5996 41.1423C23.5996 41.3696 23.6899 41.5876 23.8507 41.7484C24.0114 41.9091 24.2294 41.9994 24.4568 41.9994H39.8853V40.2851C39.8853 39.6031 40.1562 38.9491 40.6385 38.4669C41.1207 37.9846 41.7748 37.7137 42.4568 37.7137H52.7425C53.4245 37.7137 54.0785 37.9846 54.5607 38.4669C55.043 38.9491 55.3139 39.6031 55.3139 40.2851V41.9994H70.7425C70.9698 41.9994 71.1878 41.9091 71.3486 41.7484C71.5093 41.5876 71.5996 41.3696 71.5996 41.1423C71.5996 40.9149 71.5093 40.6969 71.3486 40.5362C71.1878 40.3754 70.9698 40.2851 70.7425 40.2851ZM47.5996 34.2851C44.1347 34.2213 40.7406 33.2932 37.7253 31.5851C37.5701 31.4548 37.466 31.2737 37.4317 31.074C37.3973 30.8742 37.4348 30.6687 37.5376 30.494C37.6404 30.3193 37.8017 30.1867 37.993 30.1197C38.1843 30.0527 38.3931 30.0556 38.5825 30.128C41.3465 31.6593 44.4406 32.4975 47.5996 32.5708C50.7475 32.4957 53.8301 31.6574 56.5825 30.128C56.7718 30.0556 56.9806 30.0527 57.1719 30.1197C57.3632 30.1867 57.5246 30.3193 57.6273 30.494C57.7301 30.6687 57.7676 30.8742 57.7333 31.074C57.6989 31.2737 57.5948 31.4548 57.4396 31.5851C54.4345 33.2877 51.0528 34.2156 47.5996 34.2851Z" fill="#8BD500"/>
<path d="M39.8755 43.7129V45.4268C39.8755 46.1087 40.1462 46.7639 40.6284 47.2461C41.1105 47.7281 41.7646 47.9988 42.4463 47.999H52.7324C53.4141 47.999 54.0681 47.7279 54.5503 47.2461C55.0325 46.7639 55.3047 46.1087 55.3047 45.4268V43.7129H68.2817C66.6875 48.1872 63.875 48.4359 62.4692 55.4902C60.1465 66.7098 60.3957 67.1902 58.8101 68.4673C58.2492 68.9211 57.5821 69.2258 56.8721 69.3535C56.1622 69.4811 55.4317 69.4281 54.748 69.1982C54.0642 68.9683 53.4496 68.5689 52.9609 68.0381C52.4724 67.5074 52.1258 66.862 51.9531 66.1616L50.1016 58.6016C49.9622 58.0456 49.6408 57.5523 49.189 57.1997C48.7371 56.8471 48.1801 56.6548 47.6069 56.6548C47.0338 56.6548 46.4768 56.8471 46.0249 57.1997C45.5732 57.5523 45.2516 58.0457 45.1123 58.6016C43.1839 66.4866 43.3043 67.2844 41.7446 68.5186C41.1706 68.9725 40.4896 69.2724 39.7671 69.3887C39.0447 69.5049 38.3041 69.4344 37.6167 69.1836C36.9293 68.9327 36.3176 68.5089 35.8398 67.9546C35.3621 67.4002 35.0343 66.7322 34.8877 66.0151C32.8478 56.1584 32.5897 51.8216 29.0928 47.5874C28.1416 46.4334 27.399 45.1221 26.8984 43.7129H39.8755Z" fill="#076AAB"/>
<path d="M50.1631 40.2852C50.3903 40.2852 50.6088 40.3751 50.7695 40.5356C50.9302 40.6963 51.02 40.9148 51.02 41.1421V41.999H51.8784C52.1055 41.9992 52.3228 42.0904 52.4834 42.251C52.644 42.4116 52.7352 42.6289 52.7354 42.856C52.7354 43.0833 52.6441 43.3017 52.4834 43.4624C52.3228 43.6229 52.1055 43.7142 51.8784 43.7144H51.02V44.5713C51.0199 44.7983 50.93 45.0157 50.7695 45.1763C50.6088 45.337 50.3904 45.4282 50.1631 45.4282C49.9359 45.4281 49.7188 45.3369 49.5581 45.1763C49.3975 45.0156 49.3063 44.7985 49.3062 44.5713V43.7144H45.8784V44.5713C45.8783 44.7984 45.787 45.0156 45.6265 45.1763C45.4657 45.337 45.2473 45.4282 45.02 45.4282C44.7929 45.4281 44.5756 45.3369 44.415 45.1763C44.2545 45.0156 44.1632 44.7984 44.1631 44.5713V43.7144H43.3062C43.0789 43.7143 42.8604 43.6231 42.6997 43.4624C42.5392 43.3017 42.4492 43.0831 42.4492 42.856C42.4494 42.6291 42.5394 42.4115 42.6997 42.251C42.8604 42.0903 43.0789 41.9991 43.3062 41.999H44.1631V41.1421C44.1631 40.9148 44.2543 40.6963 44.415 40.5356C44.5756 40.3754 44.7932 40.2853 45.02 40.2852C45.2472 40.2852 45.4658 40.3752 45.6265 40.5356C45.7872 40.6963 45.8784 40.9148 45.8784 41.1421V41.999H49.3062V41.1421C49.3062 40.9148 49.3974 40.6963 49.5581 40.5356C49.7187 40.3754 49.9362 40.2853 50.1631 40.2852Z" fill="#076AAB"/>
<defs>
<radialGradient id="paint0_radial_5447_9692" cx="0" cy="0" r="1" gradientUnits="userSpaceOnUse" gradientTransform="translate(48 48) rotate(90) scale(48)">
<stop stop-color="white"/>
<stop offset="0.33" stop-color="#F4FBFF"/>
<stop offset="0.66" stop-color="#EDF8FF"/>
<stop offset="1" stop-color="#DEF2FF"/>
</radialGradient>
</defs>
</svg>
