<svg width="96" height="96" viewBox="0 0 96 96" fill="none" xmlns="http://www.w3.org/2000/svg">
<rect width="96" height="96" rx="24" fill="url(#paint0_radial_5447_9674)"/>
<mask id="mask0_5447_9674" style="mask-type:luminance" maskUnits="userSpaceOnUse" x="23" y="24" width="49" height="48">
<path d="M23.8008 24H71.8008V72H23.8008V24Z" fill="white"/>
</mask>
<g mask="url(#mask0_5447_9674)">
<path d="M61.0777 44.1028L51.7832 34.8075C50.4014 33.4256 49.6336 31.6594 49.4798 29.8491C48.381 30.2822 47.348 30.885 46.4105 31.6481L45.5461 32.3512L44.6816 31.6481C42.6154 29.9681 40.0092 29.0437 37.3419 29.0437C30.923 29.0437 25.6992 34.2666 25.6992 40.6866C25.6992 47.1066 30.923 52.3294 37.3419 52.3294V55.0706C35.677 55.0706 34.0777 54.7866 32.5889 54.2634V64.9997C32.5889 68.8659 35.723 72 39.5892 72H40.9383L42.4345 58.9294C42.6183 57.3272 43.9739 56.1178 45.5873 56.1178C46.3936 56.1178 47.1361 56.4206 47.6995 56.9231C48.263 57.4256 48.6473 58.1287 48.7392 58.9294L50.2355 72H51.6323C55.4995 72 58.6336 68.8659 58.6336 64.9997V54.2166C57.1083 54.7697 55.4629 55.0706 53.7492 55.0706V52.3294C60.1692 52.3294 65.392 47.1066 65.392 40.6866C65.392 40.3959 65.3817 40.1072 65.3602 39.8203L61.0777 44.1028Z" fill="#076AAB"/>
<path d="M68.3848 25.5131C66.3673 23.4956 63.0963 23.4956 61.0788 25.5131C59.0614 23.4956 55.7904 23.4956 53.7729 25.5131C51.7554 27.5306 51.7554 30.8017 53.7729 32.8191L61.0788 40.125L68.3848 32.8191C70.4023 30.8017 70.4023 27.5306 68.3848 25.5131Z" fill="#8BD500"/>
</g>
<defs>
<radialGradient id="paint0_radial_5447_9674" cx="0" cy="0" r="1" gradientUnits="userSpaceOnUse" gradientTransform="translate(48 48) rotate(90) scale(48)">
<stop stop-color="white"/>
<stop offset="0.33" stop-color="#F4FBFF"/>
<stop offset="0.66" stop-color="#EDF8FF"/>
<stop offset="1" stop-color="#DEF2FF"/>
</radialGradient>
</defs>
</svg>
