<svg width="96" height="96" viewBox="0 0 96 96" fill="none" xmlns="http://www.w3.org/2000/svg">
<path d="M0 24C0 10.7452 10.7452 0 24 0H72C85.2548 0 96 10.7452 96 24V72C96 85.2548 85.2548 96 72 96H24C10.7452 96 0 85.2548 0 72V24Z" fill="url(#paint0_radial_5447_9664)"/>
<g clip-path="url(#clip0_5447_9664)">
<path d="M59.0944 49.0092C58.3181 50.7173 57.255 52.2267 55.9575 53.4107C55.1128 54.1814 54.705 55.4507 54.8409 56.8926C54.9909 58.492 54.9656 60.1279 54.7697 61.7217C54.4725 64.1404 53.2838 66.2611 51.555 67.7779C49.8253 69.2939 47.5547 70.2061 45.0938 70.2061H43.6875V57.5498C43.6875 56.7745 43.0566 56.1436 42.2812 56.1436C41.5059 56.1436 40.875 56.7745 40.875 57.5498V70.2061H39.4688C34.5469 70.2061 30.3872 66.5582 29.7928 61.7217C29.5969 60.127 29.5716 58.4911 29.7216 56.8936C29.8575 55.4517 29.4497 54.1814 28.6041 53.4098C25.7213 50.7792 24 46.5436 24 42.0811C24 34.912 28.5394 28.0186 35.25 28.0186C36.6506 28.0186 39.0412 29.8373 39.7406 30.3951C41.2125 31.5679 43.35 31.5679 44.8219 30.3951C45.5212 29.8373 47.9119 28.0186 49.3125 28.0186C51.6759 28.0186 53.9091 28.9101 55.7709 30.5423C55.1194 31.2417 54.3263 31.8061 53.4291 32.1951L43.6181 36.4561L53.4291 40.7179C55.0697 41.4295 56.3653 42.7251 57.0778 44.3657L59.0944 49.0092Z" fill="#076AAB"/>
<path d="M61.3387 47.1173L59.6571 43.2453C58.6598 40.949 56.8459 39.1351 54.5495 38.1378L50.6777 36.4561L54.5495 34.7744C56.8459 33.7771 58.6598 31.9632 59.6571 29.6669L61.3387 25.7949L63.0205 29.6669C64.0178 31.9632 65.8317 33.7771 68.128 34.7744L72 36.4561L68.128 38.1378C65.8316 39.1351 64.0178 40.949 63.0205 43.2453L61.3387 47.1173Z" fill="#8BD500"/>
</g>
<defs>
<radialGradient id="paint0_radial_5447_9664" cx="0" cy="0" r="1" gradientUnits="userSpaceOnUse" gradientTransform="translate(48 48) rotate(90) scale(48)">
<stop stop-color="white"/>
<stop offset="0.33" stop-color="#F4FBFF"/>
<stop offset="0.66" stop-color="#EDF8FF"/>
<stop offset="1" stop-color="#DEF2FF"/>
</radialGradient>
<clipPath id="clip0_5447_9664">
<rect width="48" height="48" fill="white" transform="translate(24 24)"/>
</clipPath>
</defs>
</svg>
