<svg width="64" height="64" viewBox="0 0 64 64" fill="none" xmlns="http://www.w3.org/2000/svg">
<rect width="64" height="64" rx="24" fill="#2A8FD2" fill-opacity="0.24"/>
<path d="M30.668 39.3333C30.6696 37.6352 31.1701 35.9751 32.1073 34.559C33.0444 33.1429 34.3769 32.0333 35.9392 31.368C37.5016 30.7028 39.2249 30.5111 40.8953 30.8169C42.5656 31.1227 44.1093 31.9124 45.3346 33.088V20C45.3346 18.9391 44.9132 17.9217 44.1631 17.1716C43.4129 16.4214 42.3955 16 41.3346 16H25.3346C23.5672 16.0021 21.8727 16.7052 20.6229 17.955C19.3731 19.2047 18.6701 20.8992 18.668 22.6667V41.3333C18.6701 43.1008 19.3731 44.7953 20.6229 46.045C21.8727 47.2948 23.5672 47.9979 25.3346 48H39.3346C37.0361 48 34.8317 47.0869 33.2064 45.4616C31.5811 43.8363 30.668 41.6319 30.668 39.3333ZM25.3346 25.3333C25.3346 24.9797 25.4751 24.6406 25.7252 24.3905C25.9752 24.1405 26.3143 24 26.668 24H37.3346C37.6883 24 38.0274 24.1405 38.2774 24.3905C38.5275 24.6406 38.668 24.9797 38.668 25.3333C38.668 25.687 38.5275 26.0261 38.2774 26.2761C38.0274 26.5262 37.6883 26.6667 37.3346 26.6667H26.668C26.3143 26.6667 25.9752 26.5262 25.7252 26.2761C25.4751 26.0261 25.3346 25.687 25.3346 25.3333Z" fill="#2A8FD2"/>
<path d="M47.608 47.6095C47.358 47.8595 47.0189 47.9999 46.6654 47.9999C46.3118 47.9999 45.9727 47.8595 45.7227 47.6095L42.5134 44.4002C41.5629 45.0068 40.4595 45.3305 39.332 45.3335C38.1453 45.3335 36.9853 44.9816 35.9986 44.3223C35.0119 43.663 34.2429 42.726 33.7888 41.6296C33.3346 40.5332 33.2158 39.3268 33.4473 38.163C33.6788 36.9991 34.2503 35.93 35.0894 35.0909C35.9285 34.2517 36.9976 33.6803 38.1615 33.4488C39.3254 33.2173 40.5318 33.3361 41.6281 33.7902C42.7245 34.2443 43.6616 35.0134 44.3209 36.0001C44.9801 36.9868 45.332 38.1468 45.332 39.3335C45.329 40.461 45.0053 41.5644 44.3987 42.5148L47.608 45.7242C47.858 45.9742 47.9984 46.3133 47.9984 46.6668C47.9984 47.0204 47.858 47.3595 47.608 47.6095Z" fill="#BFFB4F"/>
</svg>
