<svg width="96" height="96" viewBox="0 0 96 96" fill="none" xmlns="http://www.w3.org/2000/svg">
<rect width="96" height="96" rx="24" fill="url(#paint0_radial_5447_9448)"/>
<g clip-path="url(#clip0_5447_9448)">
<path d="M66 36H60C60 32.8174 58.7357 29.7652 56.4853 27.5147C54.2348 25.2643 51.1826 24 48 24C44.8174 24 41.7652 25.2643 39.5147 27.5147C37.2643 29.7652 36 32.8174 36 36H30C28.4087 36 26.8826 36.6321 25.7574 37.7574C24.6321 38.8826 24 40.4087 24 42V62C24.0032 64.6512 25.0578 67.1929 26.9324 69.0676C28.8071 70.9422 31.3488 71.9968 34 72H57.372C55.9816 71.0962 54.7936 69.9141 53.883 68.5282C52.9724 67.1422 52.3589 65.5826 52.0813 63.9477C51.8037 62.3128 51.868 60.6381 52.27 59.0293C52.6721 57.4204 53.4032 55.9124 54.4174 54.6003C55.4315 53.2882 56.7065 52.2006 58.1621 51.406C59.6176 50.6114 61.2221 50.1271 62.8742 49.9837C64.5263 49.8403 66.1902 50.0409 67.7609 50.5727C69.3316 51.1046 70.775 51.9563 72 53.074V42C72 40.4087 71.3679 38.8826 70.2426 37.7574C69.1174 36.6321 67.5913 36 66 36ZM40 36C40 33.8783 40.8429 31.8434 42.3431 30.3431C43.8434 28.8429 45.8783 28 48 28C50.1217 28 52.1566 28.8429 53.6569 30.3431C55.1571 31.8434 56 33.8783 56 36H40Z" fill="#076AAB"/>
<path d="M70 60H66V56C66 55.4696 65.7893 54.9609 65.4142 54.5858C65.0391 54.2107 64.5304 54 64 54C63.4696 54 62.9609 54.2107 62.5858 54.5858C62.2107 54.9609 62 55.4696 62 56V60H58C57.4696 60 56.9609 60.2107 56.5858 60.5858C56.2107 60.9609 56 61.4696 56 62C56 62.5304 56.2107 63.0391 56.5858 63.4142C56.9609 63.7893 57.4696 64 58 64H62V68C62 68.5304 62.2107 69.0391 62.5858 69.4142C62.9609 69.7893 63.4696 70 64 70C64.5304 70 65.0391 69.7893 65.4142 69.4142C65.7893 69.0391 66 68.5304 66 68V64H70C70.5304 64 71.0391 63.7893 71.4142 63.4142C71.7893 63.0391 72 62.5304 72 62C72 61.4696 71.7893 60.9609 71.4142 60.5858C71.0391 60.2107 70.5304 60 70 60Z" fill="#8BD500"/>
</g>
<defs>
<radialGradient id="paint0_radial_5447_9448" cx="0" cy="0" r="1" gradientUnits="userSpaceOnUse" gradientTransform="translate(48 48) rotate(90) scale(48)">
<stop stop-color="white"/>
<stop offset="0.33" stop-color="#F4FBFF"/>
<stop offset="0.66" stop-color="#EDF8FF"/>
<stop offset="1" stop-color="#DEF2FF"/>
</radialGradient>
<clipPath id="clip0_5447_9448">
<rect width="48" height="48" fill="white" transform="translate(24 24)"/>
</clipPath>
</defs>
</svg>
