<svg width="96" height="96" viewBox="0 0 96 96" fill="none" xmlns="http://www.w3.org/2000/svg">
<rect width="96" height="96" rx="24" fill="url(#paint0_radial_5447_9440)"/>
<g clip-path="url(#clip0_5447_9440)">
<path d="M65.31 53.7129C62.924 51.4289 59.13 51.4369 56.75 53.7249L52.938 56.9369C46.542 54.2229 41.99 49.6629 39.074 43.0469L42.274 39.2529C43.388 38.0949 44 36.5749 44 34.9629C44 33.3509 43.392 31.8449 42.286 30.6869C42.286 30.6869 38.582 25.8729 38.52 25.8109C36.106 23.3969 32.18 23.3989 29.866 25.7169L27.566 27.7249C25.266 30.0249 24 33.1309 24 36.4769C24 51.7489 44.252 72.0009 59.524 72.0009C62.87 72.0009 65.978 70.7329 68.366 68.3349L70.19 66.2349C72.6 63.8209 72.6 59.8929 70.19 57.4789C70.128 57.4189 65.31 53.7129 65.31 53.7129Z" fill="#076AAB"/>
<path d="M71.9999 30V36C71.9999 39.308 69.3079 42 65.9999 42H60.7059L56.4519 45.42C55.9039 45.804 55.3099 45.992 54.7319 45.992C54.3019 45.992 53.8799 45.888 53.4899 45.686C52.5759 45.21 52.0079 44.274 52.0039 43.244V30.004C51.9999 26.696 54.6919 24.004 57.9999 24.002H65.9979C67.6019 24.002 69.1079 24.626 70.2399 25.758C71.3719 26.89 71.9979 28.398 71.9979 30.002L71.9999 30Z" fill="#8BD500"/>
</g>
<defs>
<radialGradient id="paint0_radial_5447_9440" cx="0" cy="0" r="1" gradientUnits="userSpaceOnUse" gradientTransform="translate(48 48) rotate(90) scale(48)">
<stop stop-color="white"/>
<stop offset="0.33" stop-color="#F4FBFF"/>
<stop offset="0.66" stop-color="#EDF8FF"/>
<stop offset="1" stop-color="#DEF2FF"/>
</radialGradient>
<clipPath id="clip0_5447_9440">
<rect width="48" height="48" fill="white" transform="translate(24 24)"/>
</clipPath>
</defs>
</svg>
