<svg width="96" height="96" viewBox="0 0 96 96" fill="none" xmlns="http://www.w3.org/2000/svg">
<rect width="96" height="96" rx="24" fill="url(#paint0_radial_5447_9490)"/>
<path d="M52.8841 40H57.9983C59.0884 39.9999 60.158 40.2974 61.0921 40.8594C62.0259 41.4213 62.7896 42.2265 63.3001 43.1895C63.8106 44.1525 64.0486 45.2368 63.9896 46.3252C63.9304 47.4137 63.5761 48.466 62.9642 49.3682L50.1644 69.9678C49.7688 70.5873 49.2241 71.0982 48.5804 71.4531C47.9365 71.8081 47.2131 71.9962 46.4778 72C45.8228 71.9976 45.176 71.8531 44.5823 71.5762C43.6123 71.1442 42.8328 70.3727 42.3909 69.4072C41.9492 68.4418 41.8749 67.3483 42.1819 66.332L45.304 56H37.9485C37.0114 56.0011 36.0868 55.7827 35.2493 55.3623C34.4119 54.9419 33.6842 54.3312 33.1253 53.5791C32.5663 52.8269 32.1915 51.9535 32.0306 51.0303C31.8697 50.1071 31.9271 49.1587 32.1985 48.2617L32.4046 47.5771L54.9153 34.5811L52.8841 40Z" fill="#076AAB"/>
<path d="M51.3848 24.0001C52.2243 24.0008 53.0514 24.2051 53.7949 24.5948C54.5383 24.9846 55.1762 25.5485 55.6543 26.2384C56.1324 26.9283 56.4371 27.7238 56.541 28.5567C56.6449 29.3898 56.5451 30.2363 56.251 31.0226L54.916 34.5802L32.4062 47.5763L38.2471 28.2618C38.6157 27.0251 39.3753 25.9413 40.4121 25.173C41.4492 24.4045 42.7082 23.9926 43.999 24.0001H51.3848Z" fill="#8BD500"/>
<defs>
<radialGradient id="paint0_radial_5447_9490" cx="0" cy="0" r="1" gradientUnits="userSpaceOnUse" gradientTransform="translate(48 48) rotate(90) scale(48)">
<stop stop-color="white"/>
<stop offset="0.33" stop-color="#F4FBFF"/>
<stop offset="0.66" stop-color="#EDF8FF"/>
<stop offset="1" stop-color="#DEF2FF"/>
</radialGradient>
</defs>
</svg>
