<svg width="20" height="20" viewBox="0 0 20 20" fill="none" xmlns="http://www.w3.org/2000/svg">
<path d="M6.49063 17.1912C6.51437 16.8546 6.56208 16.5199 6.63358 16.1897C6.69656 15.8951 6.88769 15.0596 7.16774 13.8498L7.17483 13.8191C7.29797 13.2872 7.42991 12.7192 7.56185 12.1525C7.64101 11.8124 7.70258 11.5484 7.7434 11.4602C7.54914 11.0123 7.452 10.5263 7.45871 10.0373C7.45871 8.6999 8.21472 7.66359 9.19482 7.6636C9.55452 7.65809 9.89862 7.81388 10.1373 8.09C10.3754 8.3655 10.4853 8.7335 10.4394 9.086C10.4394 9.5385 10.3538 9.8844 9.98552 11.1212C9.91482 11.3587 9.86642 11.5254 9.82052 11.692C9.76862 11.8799 9.72512 12.0503 9.68772 12.2136C9.59182 12.6003 9.68012 13.011 9.92522 13.3195C10.1697 13.6272 10.5411 13.7966 10.9309 13.7762C12.4232 13.7762 13.5311 11.7911 13.5311 9.2277C13.5311 7.25804 12.2402 5.95424 10.099 5.95416C9.02142 5.91127 7.97368 6.32523 7.19997 7.09986C6.42566 7.87508 5.99354 8.9437 6.00461 10.0614C5.98116 10.6633 6.16966 11.2536 6.51706 11.7053C6.69817 11.8441 6.76771 12.0885 6.69164 12.2941C6.65059 12.4632 6.55161 12.8473 6.51551 12.9755C6.49366 13.1032 6.41399 13.2131 6.30028 13.2715C6.1858 13.3303 6.05074 13.3297 5.9452 13.2737C4.78409 12.7954 4.14869 11.4963 4.14869 9.8349C4.14869 6.84907 6.64031 4.2497 10.3407 4.2497C13.4762 4.2497 15.8221 6.57864 15.8221 9.3896C15.8221 12.922 13.8901 15.4942 11.1327 15.4942C10.3383 15.5202 9.58282 15.162 9.08602 14.535L9.04302 14.712C8.94892 15.0992 8.90182 15.2928 8.83582 15.5638L8.83392 15.5715C8.68772 16.1717 8.58572 16.5885 8.54612 16.7452C8.44022 17.0998 8.30602 17.448 8.14612 17.7841C8.74112 17.9253 9.36182 18 10 18C14.4183 18 18 14.4183 18 10C18 5.58172 14.4183 2 10 2C5.58172 2 2 5.58172 2 10C2 13.1594 3.83146 15.8911 6.49063 17.1912ZM10 20C4.47715 20 0 15.5228 0 10C0 4.47715 4.47715 0 10 0C15.5228 0 20 4.47715 20 10C20 15.5228 15.5228 20 10 20Z" fill="#D4EEFF"/>
</svg>
