<svg width="48" height="48" viewBox="0 0 48 48" fill="none" xmlns="http://www.w3.org/2000/svg">
<path d="M0 16C0 7.16344 7.16344 0 16 0H32C40.8366 0 48 7.16344 48 16V32C48 40.8366 40.8366 48 32 48H16C7.16344 48 0 40.8366 0 32V16Z" fill="#2A8FD2" fill-opacity="0.24"/>
<g clip-path="url(#clip0_5925_8358)">
<path d="M22.9995 16.5C22.9992 15.2824 22.6542 14.0898 22.0045 13.06C23.8183 12.1184 25.8832 11.7738 27.9046 12.0753C29.9259 12.3768 31.8004 13.3091 33.2605 14.739C34.176 15.6571 34.8919 16.7545 35.3632 17.9624C35.8346 19.1703 36.0512 20.4625 35.9995 21.758C35.9076 24.4422 34.7907 26.9892 32.8785 28.875C32.105 29.6543 31.2212 30.3157 30.2555 30.838L20.7865 21.373C21.4811 20.7652 22.0378 20.016 22.4195 19.1756C22.8011 18.3352 22.9989 17.423 22.9995 16.5ZM19.0585 22.473C18.2502 22.8211 17.3795 23.0004 16.4995 23C16.3415 23 16.1855 22.987 16.0305 22.976C16.0792 23.8437 16.2474 24.7004 16.5305 25.522C16.674 26.0286 16.8579 26.5229 17.0805 27C17.1319 27.092 17.1518 27.1983 17.1371 27.3026C17.1225 27.407 17.0742 27.5037 16.9995 27.578L13.1855 30.242V30.256C12.8317 30.546 12.5434 30.9076 12.3395 31.317C12.1356 31.7265 12.0208 32.1745 12.0026 32.6316C11.9844 33.0886 12.0632 33.5443 12.2339 33.9687C12.4046 34.3931 12.6633 34.7765 12.9929 35.0936C13.3225 35.4108 13.7155 35.6545 14.1462 35.8087C14.5768 35.963 15.0352 36.0242 15.4912 35.9885C15.9472 35.9527 16.3905 35.8207 16.7918 35.6012C17.1931 35.3817 17.5433 35.0797 17.8195 34.715L17.8295 34.721L20.3995 31C20.4722 30.9166 20.5706 30.8596 20.6791 30.8381C20.7877 30.8165 20.9004 30.8316 20.9995 30.881C22.397 31.5983 23.9427 31.9791 25.5135 31.993C26.4336 32.0147 27.3519 31.9001 28.2385 31.653L19.0585 22.473Z" fill="#2A8FD2"/>
<path d="M21 16.5C21 15.61 20.7361 14.74 20.2416 13.9999C19.7471 13.2599 19.0443 12.6831 18.2221 12.3425C17.3998 12.0019 16.495 11.9128 15.6221 12.0865C14.7492 12.2601 13.9474 12.6887 13.318 13.318C12.6887 13.9474 12.2601 14.7492 12.0865 15.6221C11.9128 16.495 12.0019 17.3998 12.3425 18.2221C12.6831 19.0443 13.2599 19.7471 13.9999 20.2416C14.74 20.7361 15.61 21 16.5 21C17.6931 20.9987 18.8369 20.5241 19.6805 19.6805C20.5241 18.8369 20.9987 17.6931 21 16.5Z" fill="#BFFB4F"/>
</g>
<defs>
<clipPath id="clip0_5925_8358">
<rect width="24" height="24" fill="white" transform="translate(12 12)"/>
</clipPath>
</defs>
</svg>
