<svg width="96" height="96" viewBox="0 0 96 96" fill="none" xmlns="http://www.w3.org/2000/svg">
<path d="M0 24C0 10.7452 10.7452 0 24 0H72C85.2548 0 96 10.7452 96 24V72C96 85.2548 85.2548 96 72 96H24C10.7452 96 0 85.2548 0 72V24Z" fill="url(#paint0_radial_5579_3361)"/>
<g clip-path="url(#clip0_5579_3361)">
<path d="M57.7842 59.672C58.9562 60.844 58.9562 62.744 57.7842 63.914C56.6122 65.086 54.7122 65.086 53.5422 63.914L41.9102 52.282L39.0822 55.11L49.8682 65.896C51.0402 67.068 51.0402 68.968 49.8682 70.138C48.6962 71.31 46.7962 71.31 45.6262 70.138L36.2802 60.792C30.3662 55.022 24.3242 47.334 24.3242 40.01C24.3242 32.29 30.1582 26.01 37.3242 26.01C40.8702 26.01 43.5862 27.334 45.6542 28.804L38.3762 36.02C37.0522 37.342 36.3242 39.102 36.3242 40.972C36.3242 42.842 37.0522 44.6 38.3722 45.92C39.6942 47.244 41.4522 47.972 43.3242 47.972C44.1762 47.972 44.9982 47.802 45.7742 47.514L57.7842 59.672ZM53.1682 41.06L48.9842 45.216L61.2042 57.252C62.3762 58.424 64.2762 58.424 65.4462 57.252C67.2382 55.46 65.7042 53.476 65.7042 53.476L53.1662 41.06H53.1682Z" fill="#076AAB"/>
<path d="M59.2373 26.126C55.9693 26.146 52.8653 27.566 50.4733 29.794L41.1993 39.006C40.0273 40.178 40.0273 42.078 41.1993 43.248C42.3713 44.42 44.2713 44.42 45.4413 43.248L53.2533 35.488L68.7213 50.844C71.1033 47 72.3193 43.4 72.3193 40.126C72.3193 32.406 66.4033 26.126 59.2353 26.126H59.2373Z" fill="#8BD500"/>
</g>
<defs>
<radialGradient id="paint0_radial_5579_3361" cx="0" cy="0" r="1" gradientUnits="userSpaceOnUse" gradientTransform="translate(48 48) rotate(90) scale(48)">
<stop stop-color="white"/>
<stop offset="0.33" stop-color="#F4FBFF"/>
<stop offset="0.66" stop-color="#EDF8FF"/>
<stop offset="1" stop-color="#DEF2FF"/>
</radialGradient>
<clipPath id="clip0_5579_3361">
<rect width="48" height="48" fill="white" transform="translate(24.1992 24)"/>
</clipPath>
</defs>
</svg>
