<svg width="48" height="48" viewBox="0 0 48 48" fill="none" xmlns="http://www.w3.org/2000/svg">
<path d="M0 16C0 7.16344 7.16344 0 16 0H32C40.8366 0 48 7.16344 48 16V32C48 40.8366 40.8366 48 32 48H16C7.16344 48 0 40.8366 0 32V16Z" fill="#2A8FD2" fill-opacity="0.24"/>
<path d="M27.848 28C27.5573 28 27.2701 28.0633 27.0064 28.1855C26.7427 28.3078 26.5088 28.4861 26.321 28.708L26.074 29H21.925L21.679 28.708C21.4911 28.486 21.2571 28.3076 20.9932 28.1853C20.7292 28.0631 20.4419 27.9998 20.151 28H14.5C13.837 28 13.2011 28.2634 12.7322 28.7322C12.2634 29.2011 12 29.837 12 30.5C12 31.163 12.2634 31.7989 12.7322 32.2678C13.2011 32.7366 13.837 33 14.5 33H33.5C33.8283 33 34.1534 32.9353 34.4567 32.8097C34.76 32.6841 35.0356 32.4999 35.2678 32.2678C35.4999 32.0356 35.6841 31.76 35.8097 31.4567C35.9353 31.1534 36 30.8283 36 30.5C36 30.1717 35.9353 29.8466 35.8097 29.5433C35.6841 29.24 35.4999 28.9644 35.2678 28.7322C35.0356 28.5001 34.76 28.3159 34.4567 28.1903C34.1534 28.0647 33.8283 28 33.5 28H27.848Z" fill="#BFFB4F"/>
<path d="M15 26H20.151C21.1265 25.9986 22.0688 26.3543 22.8 27H25.2C25.931 26.3553 26.8723 25.9997 27.847 26H33C33.3362 26.0023 33.6713 26.0392 34 26.11V20C33.9984 18.6744 33.4711 17.4036 32.5338 16.4662C31.5964 15.5289 30.3256 15.0016 29 15H19C17.6744 15.0016 16.4036 15.5289 15.4662 16.4662C14.5289 17.4036 14.0016 18.6744 14 20V26.11C14.3287 26.0392 14.6638 26.0023 15 26Z" fill="#2A8FD2"/>
</svg>
