<svg width="20" height="20" viewBox="0 0 20 20" fill="none" xmlns="http://www.w3.org/2000/svg">
<path d="M13.2067 13.3334C12.9644 13.3333 12.7251 13.3861 12.5053 13.488C12.2856 13.5899 12.0907 13.7385 11.9342 13.9234L11.7283 14.1667H8.27083L8.06583 13.9234C7.90926 13.7384 7.71421 13.5897 7.49429 13.4878C7.27437 13.3859 7.03488 13.3332 6.7925 13.3334H2.08333C1.5308 13.3334 1.0009 13.5529 0.610194 13.9436C0.219493 14.3343 0 14.8642 0 15.4167C0 15.9692 0.219493 16.4991 0.610194 16.8898C1.0009 17.2805 1.5308 17.5 2.08333 17.5H17.9167C18.1903 17.5 18.4612 17.4462 18.7139 17.3415C18.9667 17.2368 19.1964 17.0833 19.3898 16.8898C19.5833 16.6964 19.7367 16.4667 19.8414 16.214C19.9461 15.9612 20 15.6903 20 15.4167C20 15.1431 19.9461 14.8722 19.8414 14.6195C19.7367 14.3667 19.5833 14.137 19.3898 13.9436C19.1964 13.7501 18.9667 13.5967 18.7139 13.492C18.4612 13.3873 18.1903 13.3334 17.9167 13.3334H13.2067Z" fill="#8BD500"/>
<path d="M2.5013 11.6667H6.7938C7.60673 11.6655 8.39197 11.9619 9.0013 12.5H11.0013C11.6105 11.9627 12.3949 11.6664 13.2071 11.6667H17.5013C17.7815 11.6686 18.0607 11.6993 18.3346 11.7583V6.66667C18.3333 5.562 17.8939 4.50296 17.1128 3.72185C16.3317 2.94073 15.2726 2.50132 14.168 2.5H5.83464C4.72997 2.50132 3.67093 2.94073 2.88982 3.72185C2.1087 4.50296 1.66929 5.562 1.66797 6.66667V11.7583C1.94187 11.6993 2.22112 11.6686 2.5013 11.6667Z" fill="#076AAB"/>
</svg>
