<svg width="16" height="16" viewBox="0 0 16 16" fill="none" xmlns="http://www.w3.org/2000/svg">
<path d="M15.3242 3.63467C15.3056 3.51667 15.1162 2.45667 14.3482 1.68267C13.5769 0.928007 12.5129 0.74134 12.3942 0.722673C12.2362 0.696673 12.0749 0.730007 11.9396 0.814007C11.8922 0.84334 11.1969 1.27867 9.82422 2.43934C10.5302 2.68867 11.4429 3.12134 12.1829 3.84534C12.9256 4.57201 13.3696 5.46601 13.6242 6.15934C14.7709 4.81934 15.2022 4.14067 15.2309 4.09401C15.3162 3.95734 15.3496 3.79401 15.3242 3.63467Z" fill="white"/>
<path d="M8.63522 3.48199C7.91989 4.12733 7.08722 4.91133 6.13389 5.85799C2.09188 9.87133 1.03189 11.476 0.988552 11.542C0.927885 11.6353 0.891219 11.7427 0.882552 11.8533L0.669885 14.5673C0.655219 14.762 0.725219 14.9527 0.863219 15.0907C0.988552 15.216 1.15855 15.286 1.33522 15.286C1.35189 15.286 1.36922 15.286 1.38655 15.284L4.12055 15.0733C4.23055 15.0647 4.33655 15.0293 4.42922 14.97C4.49589 14.9273 6.11122 13.8747 10.1526 9.86199C11.1272 8.89399 11.9312 8.05133 12.5892 7.33066C12.4886 6.89799 12.1372 5.66333 11.2526 4.79866C10.3552 3.92066 9.06455 3.57666 8.63522 3.48199Z" fill="white"/>
</svg>
