<svg width="328" height="148" viewBox="0 0 328 148" fill="none" xmlns="http://www.w3.org/2000/svg">
<g clip-path="url(#clip0_5583_2809)">
<rect width="328" height="148" rx="74" fill="url(#paint0_radial_5583_2809)"/>
<rect x="111" y="45" width="106" height="106" rx="8" fill="#076AAB"/>
<rect opacity="0.2" x="123" y="124" width="82" height="12" rx="6" fill="white"/>
<rect x="123" y="106" width="82" height="12" rx="6" fill="white"/>
<rect x="123" y="61" width="82" height="31" rx="4" fill="#88D1FF"/>
<path d="M178.923 25.0095L178.619 25.0007C178.24 24.996 177.89 25.0091 177.551 25.2058C176.956 25.5511 176.409 26.3308 175.933 26.8317C175.043 27.769 174.128 28.6745 173.198 29.5715C172.161 28.6037 171.152 27.6085 170.136 26.6191C169.578 26.0768 168.981 25.3304 168.219 25.1044C167.797 24.9793 167.259 25.1161 166.898 25.3525C166.484 25.6234 166.129 26.0168 166.073 26.5239C166.044 26.7863 166.086 27.0189 166.218 27.2479C166.578 27.8708 167.224 28.3982 167.734 28.9052C168.757 29.9228 169.812 30.9153 170.764 32.0001L166.73 36.094C166.352 36.5385 166.087 36.9555 166.183 37.5546C166.289 38.2237 166.942 38.6841 167.461 39.0262L167.584 39.0207C167.952 39.0014 168.293 38.9776 168.622 38.7976C169.311 38.4204 169.863 37.7622 170.406 37.2066C171.343 36.2471 172.282 35.2948 173.179 34.298L173.534 34.7087C174.568 35.8782 175.721 37.028 176.876 38.0788C177.143 38.3221 177.567 38.7686 177.929 38.7883C178.56 38.8226 179.061 38.8247 179.54 38.3649C179.916 38.0048 180.139 37.6295 180.133 37.1008C180.128 36.6743 179.872 36.4101 179.614 36.0978C178.39 34.6193 176.861 33.31 175.446 32.0165L179.272 28.2785C179.704 27.8323 180.12 27.3314 180.088 26.673C180.052 25.9117 179.461 25.4619 178.923 25.0095Z" fill="#88D1FF"/>
<path d="M159.861 25.0095L159.557 25.0007C159.177 24.996 158.827 25.0091 158.488 25.2058C157.893 25.5511 157.347 26.3308 156.871 26.8317C155.981 27.769 155.066 28.6745 154.135 29.5715C153.098 28.6037 152.09 27.6085 151.073 26.6191C150.516 26.0768 149.918 25.3304 149.156 25.1044C148.734 24.9793 148.197 25.1161 147.835 25.3525C147.421 25.6234 147.066 26.0168 147.011 26.5239C146.982 26.7863 147.023 27.0189 147.155 27.2479C147.515 27.8708 148.162 28.3982 148.671 28.9052C149.695 29.9228 150.749 30.9153 151.702 32.0001L147.668 36.094C147.29 36.5385 147.025 36.9555 147.12 37.5546C147.227 38.2237 147.879 38.6841 148.398 39.0262L148.522 39.0207C148.89 39.0014 149.23 38.9776 149.559 38.7976C150.249 38.4204 150.801 37.7622 151.343 37.2066C152.28 36.2471 153.219 35.2948 154.117 34.298L154.472 34.7087C155.505 35.8782 156.658 37.028 157.813 38.0788C158.08 38.3221 158.505 38.7686 158.867 38.7883C159.497 38.8226 159.998 38.8247 160.477 38.3649C160.853 38.0048 161.076 37.6295 161.07 37.1008C161.065 36.6743 160.81 36.4101 160.551 36.0978C159.327 34.6193 157.798 33.31 156.384 32.0165L160.209 28.2785C160.642 27.8323 161.058 27.3314 161.026 26.673C160.99 25.9117 160.398 25.4619 159.861 25.0095Z" fill="#88D1FF"/>
<rect opacity="0.2" x="123" y="142" width="30" height="12" rx="6" fill="white"/>
</g>
<defs>
<radialGradient id="paint0_radial_5583_2809" cx="0" cy="0" r="1" gradientUnits="userSpaceOnUse" gradientTransform="translate(164 74) rotate(90) scale(74 164)">
<stop stop-color="white"/>
<stop offset="0.5" stop-color="#F4FBFF"/>
<stop offset="1" stop-color="#EDF8FF"/>
</radialGradient>
<clipPath id="clip0_5583_2809">
<rect width="328" height="148" rx="74" fill="white"/>
</clipPath>
</defs>
</svg>
