<svg width="48" height="48" viewBox="0 0 48 48" fill="none" xmlns="http://www.w3.org/2000/svg">
<path d="M0 16C0 7.16344 7.16344 0 16 0H32C40.8366 0 48 7.16344 48 16V32C48 40.8366 40.8366 48 32 48H16C7.16344 48 0 40.8366 0 32V16Z" fill="#2A8FD2" fill-opacity="0.24"/>
<g clip-path="url(#clip0_5476_11016)">
<path d="M20.7 30H15C13.507 30 12 28.866 12 26.334V21.294C12.021 18.9961 12.8814 16.7853 14.4192 15.0777C15.9569 13.3701 18.0659 12.2837 20.349 12.0229C21.6374 11.9294 22.9308 12.1143 24.1413 12.5651C25.3519 13.0159 26.4512 13.722 27.3646 14.6354C28.278 15.5488 28.9841 16.6481 29.4348 17.8586C29.8856 19.0692 30.0705 20.3626 29.977 21.651C29.7159 23.935 28.6286 26.0447 26.9198 27.5825C25.211 29.1203 22.9988 29.9802 20.7 30Z" fill="#2A8FD2"/>
<path d="M32.0019 21.08H31.9899C31.9899 21.317 31.9899 21.554 31.9779 21.792C31.5919 27.2 26.6489 31.778 21.0859 31.981V31.996C21.7865 33.2111 22.7943 34.2207 24.0082 34.9234C25.222 35.6262 26.5993 35.9975 28.0019 36H33.0019C33.7976 36 34.5606 35.6839 35.1233 35.1213C35.6859 34.5587 36.0019 33.7957 36.0019 33V28C36.0005 26.5971 35.6302 25.2193 34.9281 24.0047C34.226 22.7901 33.2169 21.7815 32.0019 21.08Z" fill="#BFFB4F"/>
</g>
<defs>
<clipPath id="clip0_5476_11016">
<rect width="24" height="24" fill="white" transform="translate(12 12)"/>
</clipPath>
</defs>
</svg>
