<svg width="96" height="96" viewBox="0 0 96 96" fill="none" xmlns="http://www.w3.org/2000/svg">
<path d="M0 24C0 10.7452 10.7452 0 24 0H72C85.2548 0 96 10.7452 96 24V72C96 85.2548 85.2548 96 72 96H24C10.7452 96 0 85.2548 0 72V24Z" fill="url(#paint0_radial_5476_12555)"/>
<g clip-path="url(#clip0_5476_12555)">
<path fill-rule="evenodd" clip-rule="evenodd" d="M47.0285 24.0011C48.3434 23.9729 49.6402 24.3141 50.7712 24.9855L58.1144 29.3771C61.342 31.3132 64.0954 33.9489 66.1696 37.0895L70.2712 43.3253L66.9313 45.5255L69.1315 48.8669L60.7775 54.3659L58.5773 51.0231L48.8874 57.2809L51.0876 60.6237L42.9196 65.9997H42.6545L40.5407 62.777L37.2009 64.9772L33.0993 58.7414C31.0343 55.5951 29.7022 52.0255 29.2013 48.2956L28.0602 39.8112C27.8913 38.507 28.0914 37.1814 28.6374 35.985C29.1835 34.7884 30.0549 33.7691 31.151 33.0421L43.3312 25.1452C44.4323 24.4259 45.7136 24.0294 47.0285 24.0011ZM40.384 49.4674C39.9924 49.3869 39.5886 49.3847 39.196 49.4601C38.8032 49.5356 38.4283 49.6868 38.0944 49.9069C37.42 50.3506 36.9495 51.0454 36.7863 51.8361C36.6234 52.6265 36.7807 53.4499 37.2243 54.1242H37.2331C37.4524 54.4585 37.736 54.7459 38.0666 54.9709C38.3973 55.1959 38.7692 55.3539 39.1608 55.4352C39.5523 55.5165 39.956 55.5201 40.3488 55.4455C40.7416 55.3708 41.1161 55.2194 41.4504 55.0002C41.7844 54.7797 42.0728 54.4953 42.297 54.1637C42.5212 53.8321 42.6769 53.4587 42.757 53.0666C42.837 52.6744 42.8391 52.2701 42.7629 51.8771C42.6866 51.4841 42.5342 51.1094 42.3132 50.7755C42.0933 50.4415 41.8091 50.1547 41.4782 49.9303C41.1472 49.7059 40.7756 49.5481 40.384 49.4674ZM47.1501 29.9938C46.9619 29.9977 46.7785 30.0545 46.6213 30.1579L34.4411 38.0534C34.2843 38.1569 34.16 38.3028 34.0822 38.4738C34.0044 38.645 33.9751 38.8352 34.0002 39.0216L34.8014 44.9997L52.8586 33.2296L47.6847 30.1359C47.5234 30.0391 47.3382 29.99 47.1501 29.9938ZM58.3605 37.7604C57.9691 37.6797 57.5651 37.6764 57.1725 37.7516C56.7797 37.827 56.405 37.9798 56.071 38.1999C55.7368 38.4195 55.4489 38.7025 55.2243 39.0334C54.9998 39.3641 54.8422 39.7361 54.7614 40.1276C54.6806 40.5193 54.6787 40.9242 54.7541 41.317C54.8294 41.7095 54.981 42.0833 55.2009 42.4171C55.6449 43.0917 56.3391 43.5621 57.1301 43.7252C57.921 43.8883 58.7449 43.731 59.4196 43.2873C59.7534 43.0677 60.0404 42.7843 60.2648 42.4538C60.4893 42.123 60.6469 41.751 60.7277 41.3595C60.8085 40.9678 60.8118 40.5629 60.7365 40.1701C60.6611 39.7774 60.5082 39.4039 60.2883 39.07C60.0686 38.7358 59.7857 38.4479 59.4548 38.2233C59.1239 37.9987 58.7521 37.8412 58.3605 37.7604Z" fill="#076AAB"/>
<path d="M72 65.999V71.999H24V65.999H72Z" fill="#8BD500"/>
</g>
<defs>
<radialGradient id="paint0_radial_5476_12555" cx="0" cy="0" r="1" gradientUnits="userSpaceOnUse" gradientTransform="translate(48 48) rotate(90) scale(48)">
<stop stop-color="white"/>
<stop offset="0.33" stop-color="#F4FBFF"/>
<stop offset="0.66" stop-color="#EDF8FF"/>
<stop offset="1" stop-color="#DEF2FF"/>
</radialGradient>
<clipPath id="clip0_5476_12555">
<rect width="48" height="48" fill="white" transform="translate(24 24)"/>
</clipPath>
</defs>
</svg>
