<svg width="96" height="96" viewBox="0 0 96 96" fill="none" xmlns="http://www.w3.org/2000/svg">
<rect width="96" height="96" rx="24" fill="url(#paint0_radial_5476_12627)"/>
<path d="M66.6532 37.8C66.4292 37.164 65.8972 36.686 65.2432 36.526C65.0312 36.474 61.6612 35.666 56.8092 35.114V34.606C56.8092 29.86 52.9472 26 48.2012 26C43.4552 26 39.5952 29.862 39.5952 34.606V35.114C34.7472 35.664 31.3732 36.472 31.1612 36.524C30.5032 36.684 29.9692 37.166 29.7472 37.806C29.6792 38 28.4932 41.44 27.8652 46.57C30.4512 47.114 38.8232 48.706 48.2032 48.706C57.5832 48.706 65.9572 47.112 68.5432 46.57C67.9152 41.412 66.7212 37.992 66.6532 37.8ZM45.5932 34.658V34.606C45.5932 33.168 46.7612 32 48.1992 32C49.6372 32 50.8072 33.168 50.8072 34.606V34.658C49.9552 34.626 49.0832 34.608 48.1992 34.608C47.3152 34.608 46.4452 34.626 45.5932 34.658Z" fill="#8BD500"/>
<path d="M50.1985 52.68V55.046C50.1985 56.15 49.3045 57.044 48.2005 57.044C47.0965 57.044 46.2025 56.15 46.2025 55.046V52.68C37.7305 52.496 30.4845 51.192 27.5285 50.586C27.4965 51.3 27.4785 52.032 27.4785 52.782C27.4785 61.254 29.6545 66.546 29.7485 66.808C29.9745 67.444 30.5045 67.924 31.1605 68.082C31.4805 68.16 39.1425 70 48.2025 70C57.2625 70 64.9205 68.16 65.2445 68.082C65.9025 67.922 66.4345 67.44 66.6585 66.8C66.7505 66.536 68.9245 61.18 68.9245 52.78C68.9245 52.03 68.9065 51.296 68.8765 50.582C65.9185 51.188 58.6605 52.492 50.2005 52.678L50.1985 52.68Z" fill="#076AAB"/>
<defs>
<radialGradient id="paint0_radial_5476_12627" cx="0" cy="0" r="1" gradientUnits="userSpaceOnUse" gradientTransform="translate(48 48) rotate(90) scale(48)">
<stop stop-color="white"/>
<stop offset="0.33" stop-color="#F4FBFF"/>
<stop offset="0.66" stop-color="#EDF8FF"/>
<stop offset="1" stop-color="#DEF2FF"/>
</radialGradient>
</defs>
</svg>
