<svg width="328" height="148" viewBox="0 0 328 148" fill="none" xmlns="http://www.w3.org/2000/svg">
<g clip-path="url(#clip0_5583_2694)">
<rect width="328" height="148" rx="74" fill="url(#paint0_radial_5583_2694)"/>
<path d="M233.862 56.8869V158.341C233.862 164.907 228.54 170.242 221.975 170.242H93.8088C87.2445 170.242 81.9219 164.906 81.9219 158.341V56.8869C81.9219 50.3226 87.2433 45 93.8088 45H221.975C228.539 45.0011 233.862 50.3226 233.862 56.8869Z" fill="#076AAB"/>
<path d="M233.862 56.8869V69.5658H81.9219V56.8869C81.9219 50.3226 87.2433 45 93.8088 45H221.975C228.539 45.0011 233.862 50.3226 233.862 56.8869Z" fill="#88D1FF"/>
<path d="M114.854 54.2429C112.971 54.2429 111.445 55.7689 111.445 57.6511C111.445 59.5333 112.971 61.0593 114.854 61.0593C116.736 61.0593 118.262 59.5333 118.262 57.6511C118.262 55.7689 116.737 54.2429 114.854 54.2429Z" fill="white"/>
<path d="M105.768 54.2429C103.885 54.2429 102.359 55.7689 102.359 57.6511C102.359 59.5333 103.885 61.0593 105.768 61.0593C107.65 61.0593 109.176 59.5333 109.176 57.6511C109.176 55.7689 107.65 54.2429 105.768 54.2429Z" fill="white"/>
<path d="M96.6738 54.2429C94.7916 54.2429 93.2656 55.7689 93.2656 57.6511C93.2656 59.5333 94.7916 61.0593 96.6738 61.0593C98.5561 61.0593 100.082 59.5333 100.082 57.6511C100.082 55.7689 98.5561 54.2429 96.6738 54.2429Z" fill="white"/>
<path d="M177.596 116H112.84C111.272 116 110 117.272 110 118.84C110 120.409 111.272 121.68 112.84 121.68H177.596C179.164 121.68 180.436 120.409 180.436 118.84C180.436 117.272 179.164 116 177.596 116Z" fill="white"/>
<path d="M203 93.7531V105.247C203 107.873 200.977 110 198.478 110H114.522C112.023 110 110 107.873 110 105.247V93.7531C110 91.1266 112.023 89 114.522 89H198.478C200.976 89 203 91.1276 203 93.7531Z" fill="white"/>
<path d="M131.115 91V108.56H115.975C113.778 108.56 112 106.781 112 104.585V94.9746C112 92.7783 113.778 91 115.975 91H131.115Z" fill="white"/>
<path d="M122.753 94.417C120.555 94.417 118.773 96.1987 118.773 98.3959C118.773 100.594 120.555 102.376 122.753 102.376C124.951 102.376 126.733 100.594 126.733 98.3959C126.733 96.1979 124.951 94.417 122.753 94.417Z" fill="#076AAB"/>
<path d="M116.383 104.866L120.124 101.384" stroke="#076AAB" stroke-width="2" stroke-miterlimit="10" stroke-linecap="round" stroke-linejoin="round"/>
<path d="M286.359 56.5031C302.021 56.5031 314.717 43.8545 314.717 28.2516C314.717 12.6487 302.021 0 286.359 0C270.697 0 258 12.6487 258 28.2516C258 43.8545 270.697 56.5031 286.359 56.5031Z" fill="#88D1FF"/>
<path d="M280.025 21.5536C279.601 25.4909 277.345 28.4817 274.985 28.2335C272.625 27.9852 271.056 24.5923 271.481 20.6541C271.906 16.7169 274.162 13.726 276.522 13.9743C278.881 14.2221 280.449 17.6159 280.025 21.5536Z" fill="#076AAB"/>
<path d="M301.494 23.8133C301.07 27.7506 298.813 30.741 296.454 30.4932C294.095 30.2454 292.526 26.8511 292.95 22.9139C293.375 18.9766 295.631 15.9857 297.991 16.234C300.349 16.4827 301.919 19.8761 301.494 23.8133Z" fill="#076AAB"/>
<path d="M297.372 46.8679C297.451 40.4991 293.165 34.9418 287.242 33.4895C280.783 31.9047 273.865 35.5674 271.445 42.1138C272.012 41.5586 277.447 36.415 285.297 37.6774C293.58 39.0078 297.095 46.2707 297.372 46.8679Z" fill="#076AAB"/>
</g>
<defs>
<radialGradient id="paint0_radial_5583_2694" cx="0" cy="0" r="1" gradientUnits="userSpaceOnUse" gradientTransform="translate(164 74) rotate(90) scale(74 164)">
<stop stop-color="white"/>
<stop offset="0.5" stop-color="#F4FBFF"/>
<stop offset="1" stop-color="#EDF8FF"/>
</radialGradient>
<clipPath id="clip0_5583_2694">
<rect width="328" height="148" rx="74" fill="white"/>
</clipPath>
</defs>
</svg>
