<svg width="96" height="96" viewBox="0 0 96 96" fill="none" xmlns="http://www.w3.org/2000/svg">
<rect width="96" height="96" rx="24" fill="url(#paint0_radial_5476_12633)"/>
<path d="M28 41C28 38.238 30.238 36 33 36C35.762 36 38 38.238 38 41C38 43.762 35.762 46 33 46C30.238 46 28 43.762 28 41ZM47 40C49.762 40 52 37.762 52 35C52 32.238 49.762 30 47 30C44.238 30 42 32.238 42 35C42 37.762 44.238 40 47 40ZM48 52V44C48 43.324 48.07 42.664 48.178 42.018C48.118 42.018 48.062 42 48 42H46C41.588 42 38 45.588 38 50V54C38 56.948 39.62 59.5 42 60.888V70C42 71.104 42.896 72 44 72C45.104 72 46 71.104 46 70V62H48C49.462 62 50.814 61.578 51.994 60.89C49.486 58.636 48 55.404 48 52ZM34 54V50C34 49.318 34.07 48.652 34.18 48H31C27.14 48 24 51.14 24 55V57C24 59.782 25.644 62.17 28 63.298V70C28 71.104 28.896 72 30 72C31.104 72 32 71.104 32 70V64H35C36.184 64 37.282 63.676 38.26 63.156C35.658 60.952 34 57.668 34 54Z" fill="#076AAB"/>
<path d="M60.9961 34C63.7581 34 65.9961 31.762 65.9961 29C65.9961 26.238 63.7581 24 60.9961 24C58.2341 24 55.9961 26.238 55.9961 29C55.9961 31.762 58.2341 34 60.9961 34ZM61.9961 36H59.9961C55.5841 36 51.9961 39.588 51.9961 44V52C51.9961 54.948 53.6161 57.5 55.9961 58.888V70C55.9961 71.104 56.8921 72 57.9961 72C59.1001 72 59.9961 71.104 59.9961 70V60H61.9961V70C61.9961 71.104 62.8921 72 63.9961 72C65.1001 72 65.9961 71.104 65.9961 70V58.888C68.3761 57.5 69.9961 54.948 69.9961 52V44C69.9961 39.588 66.4081 36 61.9961 36Z" fill="#8BD500"/>
<defs>
<radialGradient id="paint0_radial_5476_12633" cx="0" cy="0" r="1" gradientUnits="userSpaceOnUse" gradientTransform="translate(48 48) rotate(90) scale(48)">
<stop stop-color="white"/>
<stop offset="0.33" stop-color="#F4FBFF"/>
<stop offset="0.66" stop-color="#EDF8FF"/>
<stop offset="1" stop-color="#DEF2FF"/>
</radialGradient>
</defs>
</svg>
