<svg width="96" height="96" viewBox="0 0 96 96" fill="none" xmlns="http://www.w3.org/2000/svg">
<rect width="96" height="96" rx="24" fill="url(#paint0_radial_5476_12670)"/>
<g clip-path="url(#clip0_5476_12670)">
<path d="M54 25.172V34H62.828L54 25.172ZM49.442 72H24V30C24 26.686 26.686 24 30 24H50V38H64V44.524C62.72 44.194 61.384 44 60 44C51.164 44 44 51.164 44 60C44 64.786 46.112 69.068 49.442 72Z" fill="#076AAB"/>
<path d="M60 48C53.372 48 48 53.372 48 60C48 66.628 53.372 72 60 72C66.628 72 72 66.628 72 60C72 53.372 66.628 48 60 48ZM64.242 67.072L60 62.83L55.758 67.072L52.93 64.244L57.172 60.002L52.93 55.76L55.758 52.932L60 57.174L64.242 52.932L67.07 55.76L62.828 60.002L67.07 64.244L64.242 67.072Z" fill="#8BD500"/>
</g>
<defs>
<radialGradient id="paint0_radial_5476_12670" cx="0" cy="0" r="1" gradientUnits="userSpaceOnUse" gradientTransform="translate(48 48) rotate(90) scale(48)">
<stop stop-color="white"/>
<stop offset="0.33" stop-color="#F4FBFF"/>
<stop offset="0.66" stop-color="#EDF8FF"/>
<stop offset="1" stop-color="#DEF2FF"/>
</radialGradient>
<clipPath id="clip0_5476_12670">
<rect width="48" height="48" fill="white" transform="translate(24 24)"/>
</clipPath>
</defs>
</svg>
