<svg width="96" height="96" viewBox="0 0 96 96" fill="none" xmlns="http://www.w3.org/2000/svg">
<rect width="96" height="96" rx="24" fill="url(#paint0_radial_5476_12585)"/>
<path d="M59.6494 26.0068C66.6948 26.151 72.3994 32.3706 72.3994 40.0005C72.3992 53.8404 50.4791 69.2008 49.5391 69.8408L48.3994 70.6406L47.2598 69.8408C46.6575 69.4308 37.4441 62.9777 30.9004 54.7544L41.5981 44.0581L49.5596 52.0195L44.979 56.6001L47.7988 59.4199L55.2197 52.0005L47.2188 44.001L56.2188 35.001L53.437 32.2178L59.6494 26.0068Z" fill="#076AAB"/>
<path d="M37.4609 26.0405C40.2407 26.0407 42.8809 27.3399 44.8408 29.2998L50.561 35.02L41.561 44.02L41.5991 44.0581L30.9014 54.7544C27.2313 50.1423 24.4005 44.9735 24.4004 40.0005C24.4004 32.2805 30.2409 26.0005 37.4009 26.0405H37.4609Z" fill="#8BD500"/>
<path d="M59.6504 26.0054L53.438 32.2178L50.7603 29.54C53.0601 27.3402 56.1001 25.9996 59.3999 25.9995C59.4834 25.9995 59.5672 26.0037 59.6504 26.0054Z" fill="#8BD500"/>
<defs>
<radialGradient id="paint0_radial_5476_12585" cx="0" cy="0" r="1" gradientUnits="userSpaceOnUse" gradientTransform="translate(48 48) rotate(90) scale(48)">
<stop stop-color="white"/>
<stop offset="0.33" stop-color="#F4FBFF"/>
<stop offset="0.66" stop-color="#EDF8FF"/>
<stop offset="1" stop-color="#DEF2FF"/>
</radialGradient>
</defs>
</svg>
