<svg width="96" height="96" viewBox="0 0 96 96" fill="none" xmlns="http://www.w3.org/2000/svg">
<rect width="96" height="96" rx="24" fill="url(#paint0_radial_5476_12593)"/>
<g clip-path="url(#clip0_5476_12593)">
<path d="M46.2012 24H30.2012C28.6099 24 27.0837 24.6321 25.9585 25.7574C24.8333 26.8826 24.2012 28.4087 24.2012 30V72H52.2012V30C52.2012 28.4087 51.569 26.8826 50.4438 25.7574C49.3186 24.6321 47.7925 24 46.2012 24ZM36.2012 62H30.2012V58H36.2012V62ZM36.2012 54H30.2012V50H36.2012V54ZM36.2012 46H30.2012V42H36.2012V46ZM36.2012 38H30.2012V34H36.2012V38ZM46.2012 62H40.2012V58H46.2012V62ZM46.2012 54H40.2012V50H46.2012V54ZM46.2012 46H40.2012V42H46.2012V46ZM46.2012 38H40.2012V34H46.2012V38Z" fill="#076AAB"/>
<path d="M66.1992 34.0005H56.1992V72.0005H72.1992V40.0005C72.1992 38.4092 71.5671 36.8831 70.4419 35.7578C69.3166 34.6326 67.7905 34.0005 66.1992 34.0005ZM66.1992 62.0005H62.1992V58.0005H66.1992V62.0005ZM66.1992 54.0005H62.1992V50.0005H66.1992V54.0005ZM66.1992 46.0005H62.1992V42.0005H66.1992V46.0005Z" fill="#8BD500"/>
</g>
<defs>
<radialGradient id="paint0_radial_5476_12593" cx="0" cy="0" r="1" gradientUnits="userSpaceOnUse" gradientTransform="translate(48 48) rotate(90) scale(48)">
<stop stop-color="white"/>
<stop offset="0.33" stop-color="#F4FBFF"/>
<stop offset="0.66" stop-color="#EDF8FF"/>
<stop offset="1" stop-color="#DEF2FF"/>
</radialGradient>
<clipPath id="clip0_5476_12593">
<rect width="48" height="48" fill="white" transform="translate(24.2012 24)"/>
</clipPath>
</defs>
</svg>
