<svg width="96" height="96" viewBox="0 0 96 96" fill="none" xmlns="http://www.w3.org/2000/svg">
<rect width="96" height="96" rx="24" fill="url(#paint0_radial_5476_12645)"/>
<path d="M48.1972 35.6219C42.5292 33.9179 36.0152 33.7019 28.6732 34.9859C27.0252 37.7319 26.0012 41.0939 25.6172 45.0479C32.6192 38.5699 40.2352 35.4059 48.1972 35.6219Z" fill="#076AAB"/>
<path d="M69.5999 47.966C69.3559 33.892 61.5199 26.09 47.5139 26C41.2759 26.038 36.3039 27.532 32.6719 30.41C59.3099 27.576 69.5999 47.994 69.5999 47.966Z" fill="#8BD500"/>
<path d="M60.6796 43.0641C47.9876 36.6181 36.1896 39.2061 25.5996 50.7461C26.7396 63.2821 34.2696 69.9241 47.5376 70.0021C59.3416 69.9341 66.4576 64.9341 68.7716 55.0801C66.5696 50.2361 63.8696 46.2301 60.6796 43.0641ZM37.4936 46.0001C37.4936 44.8961 38.3916 44.0001 39.4996 44.0001C40.6076 44.0001 41.5056 44.8961 41.5056 46.0001V50.0001C41.5056 51.1041 40.6076 52.0001 39.4996 52.0001C38.3916 52.0001 37.4936 51.1041 37.4936 50.0001V46.0001ZM56.9976 61.3881C56.6056 61.7961 56.0776 62.0001 55.5536 62.0001C55.0516 62.0001 54.5496 61.8141 54.1616 61.4401C49.5236 56.9841 44.1636 58.2181 40.9116 61.4241C40.1236 62.2001 38.8516 62.1921 38.0736 61.4081C37.2956 60.6221 37.3016 59.3561 38.0896 58.5781C42.5776 54.1561 50.3916 52.2641 56.9456 58.5621C57.7436 59.3281 57.7676 60.5921 56.9976 61.3881ZM57.5596 50.0001C57.5596 51.1041 56.6616 52.0001 55.5536 52.0001C54.4456 52.0001 53.5476 51.1041 53.5476 50.0001V46.0001C53.5476 44.8961 54.4456 44.0001 55.5536 44.0001C56.6616 44.0001 57.5596 44.8961 57.5596 46.0001V50.0001Z" fill="#076AAB"/>
<defs>
<radialGradient id="paint0_radial_5476_12645" cx="0" cy="0" r="1" gradientUnits="userSpaceOnUse" gradientTransform="translate(48 48) rotate(90) scale(48)">
<stop stop-color="white"/>
<stop offset="0.33" stop-color="#F4FBFF"/>
<stop offset="0.66" stop-color="#EDF8FF"/>
<stop offset="1" stop-color="#DEF2FF"/>
</radialGradient>
</defs>
</svg>
