<svg width="96" height="96" viewBox="0 0 96 96" fill="none" xmlns="http://www.w3.org/2000/svg">
<rect width="96" height="96" rx="24" fill="url(#paint0_radial_5476_12639)"/>
<g clip-path="url(#clip0_5476_12639)">
<path d="M70.1046 41.3618C69.0746 40.4238 67.7326 39.9378 66.3486 40.0058C64.9546 40.0698 63.6706 40.6738 62.7606 41.6758L55.6786 49.1498C55.7426 49.5698 55.8086 49.9898 55.8086 50.4258C55.8086 54.5918 52.6986 58.1778 48.5746 58.7658L40.0706 59.9578C38.9766 60.1138 37.9646 59.3538 37.8086 58.2618C37.6526 57.1678 38.4126 56.1558 39.5046 55.9998L47.8286 54.8338C49.7006 54.5658 51.3246 53.2218 51.7086 51.3698C52.3006 48.5198 50.1286 45.9998 47.3806 45.9998H31.8066C27.3886 45.9998 23.8066 49.5818 23.8066 53.9998V63.9998C23.8066 68.4178 27.3886 71.9998 31.8066 71.9998H40.3306C45.9406 71.9998 51.2906 69.6438 55.0786 65.5078L70.4826 48.6898C72.3786 46.5658 72.2066 43.2778 70.1046 41.3618Z" fill="#076AAB"/>
<path d="M33.8008 32C33.8008 30.896 34.6968 30 35.8008 30H39.8008V26C39.8008 24.896 40.6968 24 41.8008 24C42.9048 24 43.8008 24.896 43.8008 26V30H47.8008C48.9048 30 49.8008 30.896 49.8008 32C49.8008 33.104 48.9048 34 47.8008 34H43.8008V38C43.8008 39.104 42.9048 40 41.8008 40C40.6968 40 39.8008 39.104 39.8008 38V34H35.8008C34.6968 34 33.8008 33.104 33.8008 32Z" fill="#8BD500"/>
</g>
<defs>
<radialGradient id="paint0_radial_5476_12639" cx="0" cy="0" r="1" gradientUnits="userSpaceOnUse" gradientTransform="translate(48 48) rotate(90) scale(48)">
<stop stop-color="white"/>
<stop offset="0.33" stop-color="#F4FBFF"/>
<stop offset="0.66" stop-color="#EDF8FF"/>
<stop offset="1" stop-color="#DEF2FF"/>
</radialGradient>
<clipPath id="clip0_5476_12639">
<rect width="48" height="48" fill="white" transform="translate(23.8008 24)"/>
</clipPath>
</defs>
</svg>
