<svg width="96" height="96" viewBox="0 0 96 96" fill="none" xmlns="http://www.w3.org/2000/svg">
<rect width="96" height="96" rx="24" fill="url(#paint0_radial_5476_12563)"/>
<g clip-path="url(#clip0_5476_12563)">
<path d="M71.8008 51C71.8008 51.6566 71.6715 52.3068 71.4202 52.9134C71.1689 53.52 70.8006 54.0712 70.3363 54.5355C69.872 54.9998 69.3208 55.3681 68.7142 55.6194C68.1076 55.8707 67.4574 56 66.8008 56H58.7288L50.2768 68.974C49.7566 69.8967 48.9994 70.6638 48.0834 71.1958C47.1675 71.7277 46.126 72.0054 45.0668 72C44.2169 72.0002 43.3796 71.7945 42.6267 71.4003C41.8737 71.0061 41.2276 70.4353 40.7435 69.7367C40.2595 69.0382 39.9519 68.2327 39.8473 67.3893C39.7427 66.5459 39.8441 65.6897 40.1428 64.894L43.8388 56H35.8008C34.3905 56.0001 33.0053 55.6274 31.7855 54.9197C30.5657 54.212 29.5546 53.1944 28.8548 51.97L24.2008 44.32C24.0019 43.9898 23.8712 43.6231 23.8164 43.2415C23.7616 42.8599 23.7838 42.4713 23.8817 42.0984C23.9796 41.7256 24.1511 41.3761 24.3863 41.0707C24.6214 40.7652 24.9154 40.51 25.2508 40.32C25.783 40.0409 26.3905 39.9389 26.9847 40.0289C27.5789 40.1188 28.1289 40.3959 28.5548 40.82L31.3888 43.656C32.8887 45.1564 34.9232 45.9995 37.0448 46H66.8008C67.4574 46 68.1076 46.1293 68.7142 46.3806C69.3208 46.6319 69.872 47.0002 70.3363 47.4645C70.8006 47.9288 71.1689 48.48 71.4202 49.0866C71.6715 49.6932 71.8008 50.3434 71.8008 51Z" fill="#076AAB"/>
<path d="M59.2594 42.0001L50.2594 27.0261C49.7399 26.1041 48.9837 25.3375 48.0688 24.8055C47.154 24.2736 46.1137 23.9955 45.0554 24.0001C44.2057 24.0003 43.3687 24.2064 42.616 24.6007C41.8633 24.995 41.2174 25.5658 40.7334 26.2642C40.2495 26.9626 39.9419 27.7679 39.8371 28.6111C39.7322 29.4543 39.8332 30.3104 40.1314 31.1061L44.3674 42.0001H59.2594Z" fill="#8BD500"/>
</g>
<defs>
<radialGradient id="paint0_radial_5476_12563" cx="0" cy="0" r="1" gradientUnits="userSpaceOnUse" gradientTransform="translate(48 48) rotate(90) scale(48)">
<stop stop-color="white"/>
<stop offset="0.33" stop-color="#F4FBFF"/>
<stop offset="0.66" stop-color="#EDF8FF"/>
<stop offset="1" stop-color="#DEF2FF"/>
</radialGradient>
<clipPath id="clip0_5476_12563">
<rect width="48" height="48" fill="white" transform="translate(23.8008 24)"/>
</clipPath>
</defs>
</svg>
