<svg width="96" height="96" viewBox="0 0 96 96" fill="none" xmlns="http://www.w3.org/2000/svg">
<rect width="96" height="96" rx="24" fill="url(#paint0_radial_5476_12577)"/>
<g clip-path="url(#clip0_5476_12577)">
<path d="M71.5999 34V36C71.5999 37.104 70.7039 38 69.5999 38V38.006C69.5999 40.212 67.8119 42 65.6059 42H26.8939C24.9159 42.026 23.4539 40.296 23.5999 38.378V34C23.5999 32.94 24.4679 31.96 25.5259 31.998C26.6859 32.04 27.6399 31.086 27.5979 29.926C27.5599 28.866 28.5399 28 29.5999 28H61.5999C61.5999 26.896 62.4959 26 63.5999 26C64.7039 26 65.5999 26.896 65.5999 28C67.7619 28 69.5219 29.732 69.5919 31.892C69.5939 31.96 69.5999 32 69.5999 32C70.7039 32 71.5999 32.896 71.5999 34Z" fill="#8BD500"/>
<path d="M51.73 49.724C50.962 52.282 48.652 54 45.982 54H41.016L42.342 50H45.602C46.706 50 47.602 49.104 47.602 48C47.602 46.896 46.706 46 45.602 46H28.66C28.608 46.418 28.502 46.938 28.308 47.618L23.946 60.008C22.51 63.754 25.594 68.11 29.606 68H31.132C34.272 68 37.044 65.998 38.03 63.018L39.708 57.954C39.786 57.964 39.854 58 39.936 58H45.984C50.434 58 54.284 55.136 55.564 50.874L57.026 46H52.85L51.734 49.724H51.73Z" fill="#076AAB"/>
</g>
<defs>
<radialGradient id="paint0_radial_5476_12577" cx="0" cy="0" r="1" gradientUnits="userSpaceOnUse" gradientTransform="translate(48 48) rotate(90) scale(48)">
<stop stop-color="white"/>
<stop offset="0.33" stop-color="#F4FBFF"/>
<stop offset="0.66" stop-color="#EDF8FF"/>
<stop offset="1" stop-color="#DEF2FF"/>
</radialGradient>
<clipPath id="clip0_5476_12577">
<rect width="48" height="48" fill="white" transform="translate(23.5996 24)"/>
</clipPath>
</defs>
</svg>
