<svg width="96" height="96" viewBox="0 0 96 96" fill="none" xmlns="http://www.w3.org/2000/svg">
<rect width="96" height="96" rx="24" fill="url(#paint0_radial_5476_12549)"/>
<g clip-path="url(#clip0_5476_12549)">
<path d="M40.5313 34.1279L49.4413 33.1379L50.4313 24.2299L56.2013 29.9999L61.9713 24.2299L62.9613 33.1399L71.8713 34.1299L67.8653 38.1359C66.0213 36.7879 63.7673 35.9999 61.3813 35.9999H49.0193C47.1393 35.9999 45.3493 36.5019 43.7673 37.3659L40.5293 34.1279H40.5313ZM40.6613 43.2999L37.7753 51.3839C37.0453 53.4259 36.5833 55.5359 36.3613 57.6799L30.6753 58.7539L29.9333 54.8239L26.0033 55.5659L24.6033 48.1599C24.1133 45.5639 24.0733 42.9239 24.4833 40.3119L25.8173 31.8339C26.2753 28.9199 28.5333 26.5919 31.4333 26.0439L41.6133 24.1219C43.2653 23.8099 44.9233 24.1279 46.3293 24.9159L45.8173 29.5179L42.7273 30.0179L32.5453 31.9419C32.1313 32.0199 31.8073 32.3519 31.7433 32.7679L30.8613 38.3659L37.7993 37.0539L41.8033 41.0579C41.3513 41.7579 40.9493 42.4939 40.6613 43.2999Z" fill="#8BD500"/>
<path d="M70.867 52.728L67.981 44.644C66.989 41.866 64.339 39.998 61.389 39.998H51.027C48.075 39.998 45.427 41.866 44.435 44.644L41.549 52.728C40.661 55.218 40.209 57.82 40.209 60.462V67.998H44.209V71.9981H52.209V67.998H60.209V71.9981H68.209V67.998H72.209V60.462C72.209 57.82 71.757 55.218 70.869 52.726L70.867 52.728ZM49.207 62C47.551 62 46.207 60.656 46.207 59C46.207 57.344 47.551 56 49.207 56C50.863 56 52.207 57.344 52.207 59C52.207 60.656 50.863 62 49.207 62ZM48.177 52L50.083 46.664C50.225 46.268 50.603 46 51.025 46H61.387C61.809 46 62.187 46.266 62.329 46.664L64.235 52H48.177ZM63.207 62C61.551 62 60.207 60.656 60.207 59C60.207 57.344 61.551 56 63.207 56C64.863 56 66.207 57.344 66.207 59C66.207 60.656 64.863 62 63.207 62Z" fill="#076AAB"/>
</g>
<defs>
<radialGradient id="paint0_radial_5476_12549" cx="0" cy="0" r="1" gradientUnits="userSpaceOnUse" gradientTransform="translate(48 48) rotate(90) scale(48)">
<stop stop-color="white"/>
<stop offset="0.33" stop-color="#F4FBFF"/>
<stop offset="0.66" stop-color="#EDF8FF"/>
<stop offset="1" stop-color="#DEF2FF"/>
</radialGradient>
<clipPath id="clip0_5476_12549">
<rect width="48" height="48" fill="white" transform="translate(24.2012 24)"/>
</clipPath>
</defs>
</svg>
