<svg width="96" height="96" viewBox="0 0 96 96" fill="none" xmlns="http://www.w3.org/2000/svg">
<rect width="96" height="96" rx="24" fill="url(#paint0_radial_5476_12543)"/>
<g clip-path="url(#clip0_5476_12543)">
<path d="M52.401 36C50.191 36 48.401 37.79 48.401 40C48.401 37.79 46.611 36 44.401 36C42.191 36 40.401 37.79 40.401 40C40.401 43.19 44.141 47.658 46.505 49.554C47.617 50.446 49.183 50.446 50.295 49.554C52.661 47.658 56.399 43.19 56.399 40C56.399 37.79 54.609 36 52.399 36H52.401ZM29.401 29C29.401 26.238 31.639 24 34.401 24C37.163 24 39.401 26.238 39.401 29C39.401 31.762 37.163 34 34.401 34C31.639 34 29.401 31.762 29.401 29ZM43.755 52.468C41.493 50.57 36.401 45.204 36.401 40C36.401 38.744 36.717 37.572 37.235 36.514C36.347 36.188 35.395 36 34.401 36C30.241 36 26.715 39.114 26.199 43.24L24.447 57.256C24.233 58.962 24.763 60.68 25.903 61.97C26.585 62.742 27.449 63.318 28.401 63.656V70C28.401 71.106 29.297 72 30.401 72C31.505 72 32.401 71.106 32.401 70V64H36.401V70C36.401 71.106 37.297 72 38.401 72C39.505 72 40.401 71.106 40.401 70V63.656C41.353 63.318 42.217 62.744 42.899 61.97C44.037 60.678 44.567 58.96 44.355 57.256L43.757 52.468H43.755Z" fill="#076AAB"/>
<path d="M62.3971 34C59.6351 34 57.3971 31.762 57.3971 29C57.3971 26.238 59.6351 24 62.3971 24C65.1591 24 67.3971 26.238 67.3971 29C67.3971 31.762 65.1591 34 62.3971 34ZM52.4431 57.256C52.2291 58.962 52.7591 60.68 53.8991 61.97C54.5811 62.742 55.4451 63.318 56.3971 63.656V70C56.3971 71.106 57.2931 72 58.3971 72C59.5011 72 60.3971 71.106 60.3971 70V64H64.3971V70C64.3971 71.106 65.2931 72 66.3971 72C67.5011 72 68.3971 71.106 68.3971 70V63.656C69.3491 63.318 70.2131 62.744 70.8951 61.97C72.0331 60.678 72.5631 58.96 72.3511 57.256L70.5991 43.24C70.0831 39.114 66.5571 36 62.3971 36C61.4051 36 60.4531 36.188 59.5631 36.514C60.0811 37.572 60.3971 38.746 60.3971 40C60.3971 45.204 55.3031 50.57 53.0431 52.468L52.4451 57.256H52.4431Z" fill="#8BD500"/>
</g>
<defs>
<radialGradient id="paint0_radial_5476_12543" cx="0" cy="0" r="1" gradientUnits="userSpaceOnUse" gradientTransform="translate(48 48) rotate(90) scale(48)">
<stop stop-color="white"/>
<stop offset="0.33" stop-color="#F4FBFF"/>
<stop offset="0.66" stop-color="#EDF8FF"/>
<stop offset="1" stop-color="#DEF2FF"/>
</radialGradient>
<clipPath id="clip0_5476_12543">
<rect width="48" height="48" fill="white" transform="translate(24.4004 24)"/>
</clipPath>
</defs>
</svg>
