<svg width="328" height="148" viewBox="0 0 328 148" fill="none" xmlns="http://www.w3.org/2000/svg">
<g clip-path="url(#clip0_5583_2759)">
<rect width="328" height="148" rx="74" fill="url(#paint0_radial_5583_2759)"/>
<path d="M263.674 17.8856C272.387 17.8856 278.936 21.3952 284.325 26.5487C289.687 31.6761 293.928 38.4584 298.039 45.0253C302.025 51.3931 305.847 57.4927 310.458 62.1708C315.047 66.8266 320.385 70.0388 327.397 70.663C328.213 70.7358 328.817 71.4553 328.744 72.2733C328.671 73.0956 327.943 73.6878 327.138 73.62H327.134C319.315 72.924 313.347 69.2572 308.371 64.2255C303.415 59.2131 299.409 52.8088 295.522 46.6005C291.309 39.8705 287.274 33.4321 282.302 28.662C277.36 23.9211 271.517 20.8544 263.674 20.8544C255.831 20.8544 249.988 23.921 245.046 28.662C240.073 33.4322 236.038 39.8711 231.825 46.6014L231.824 46.6005C227.714 53.1669 223.475 59.9497 218.113 65.077C212.724 70.2305 206.175 73.74 197.462 73.7401C188.749 73.7401 182.2 70.2306 176.811 65.077C171.449 59.9496 167.208 53.1673 163.098 46.6005C158.885 39.8704 154.849 33.4321 149.877 28.662C144.935 23.9213 139.093 20.8544 131.251 20.8544C123.409 20.8544 117.567 23.9211 112.625 28.662C107.653 33.4321 103.618 39.8705 99.4053 46.6005C95.2948 53.1673 91.054 59.9496 85.6924 65.077C80.3033 70.2306 73.7546 73.7401 65.042 73.7401C56.3292 73.74 49.7806 70.2306 44.3916 65.077C39.0301 59.9497 34.7895 53.1673 30.6787 46.6005C26.6924 40.2326 22.8704 34.1331 18.2598 29.455C13.6711 24.7992 8.33428 21.5876 1.32227 20.9637C0.505374 20.891 -0.096417 20.1702 -0.0253906 19.3544V19.3524C0.0456526 18.5573 0.743309 17.9254 1.58301 18.0077L1.58398 18.0057C9.40279 18.7013 15.3722 22.3684 20.3477 27.4003C25.3037 32.4126 29.3087 38.8171 33.1943 45.0253C37.4074 51.7553 41.4429 58.1937 46.415 62.9637C51.3567 67.7046 57.1987 70.7714 65.041 70.7714C72.8832 70.7713 78.7253 67.7046 83.667 62.9637C88.0175 58.7899 91.6507 53.3391 95.3135 47.5331L96.8877 45.0253C100.998 38.4585 105.238 31.676 110.6 26.5487C115.988 21.3952 122.537 17.8857 131.249 17.8856C139.962 17.8856 146.51 21.3953 151.899 26.5487C157.261 31.6761 161.503 38.4584 165.613 45.0253C169.826 51.7553 173.862 58.1936 178.834 62.9637C183.776 67.7046 189.618 70.7713 197.46 70.7714C205.303 70.7714 211.145 67.7046 216.087 62.9637C221.059 58.1936 225.095 51.7553 229.309 45.0253C233.419 38.4584 237.661 31.6761 243.022 26.5487C248.412 21.3952 254.961 17.8856 263.674 17.8856Z" fill="#88D1FF" stroke="#88D1FF" stroke-width="1.5"/>
<path d="M118.055 20.0551C123.588 14.5221 123.588 5.55138 118.055 0.0183894C112.522 -5.5146 103.551 -5.5146 98.0184 0.0183867C92.4854 5.55137 92.4854 14.5221 98.0184 20.0551C103.551 25.5881 112.522 25.5881 118.055 20.0551Z" fill="#88D1FF"/>
<path fill-rule="evenodd" clip-rule="evenodd" d="M228.669 93C228.669 75.5105 214.492 61.3334 197.003 61.3334C179.513 61.3334 165.336 75.5105 165.336 93C165.336 110.49 179.513 124.667 197.003 124.667C214.492 124.667 228.669 110.49 228.669 93ZM197.003 77.1667C197.842 77.1667 198.648 77.5003 199.242 78.0942C199.836 78.6881 200.169 79.4935 200.169 80.3334V96.1667C200.169 97.0066 199.836 97.812 199.242 98.4059C198.648 98.9997 197.842 99.3334 197.003 99.3334C196.163 99.3334 195.357 98.9997 194.763 98.4059C194.17 97.812 193.836 97.0066 193.836 96.1667V80.3334C193.836 79.4935 194.17 78.6881 194.763 78.0942C195.357 77.5003 196.163 77.1667 197.003 77.1667ZM193.836 105.667C193.836 104.827 194.17 104.021 194.763 103.428C195.357 102.834 196.163 102.5 197.003 102.5H197.028C197.868 102.5 198.673 102.834 199.267 103.428C199.861 104.021 200.195 104.827 200.195 105.667C200.195 106.507 199.861 107.312 199.267 107.906C198.673 108.5 197.868 108.833 197.028 108.833H197.003C196.163 108.833 195.357 108.5 194.763 107.906C194.17 107.312 193.836 106.507 193.836 105.667Z" fill="#076AAB"/>
</g>
<defs>
<radialGradient id="paint0_radial_5583_2759" cx="0" cy="0" r="1" gradientUnits="userSpaceOnUse" gradientTransform="translate(164 74) rotate(90) scale(74 164)">
<stop stop-color="white"/>
<stop offset="0.5" stop-color="#F4FBFF"/>
<stop offset="1" stop-color="#EDF8FF"/>
</radialGradient>
<clipPath id="clip0_5583_2759">
<rect width="328" height="148" rx="74" fill="white"/>
</clipPath>
</defs>
</svg>
