<svg width="328" height="148" viewBox="0 0 328 148" fill="none" xmlns="http://www.w3.org/2000/svg">
<rect width="328" height="148" rx="74" fill="url(#paint0_radial_5583_2788)"/>
<path d="M213.984 107.897C213.987 110.082 212.211 111.856 210.017 111.86L120.202 112C117.38 112.004 115.09 109.73 115.086 106.922L115 52H213.896L213.984 107.897Z" fill="#076AAB"/>
<path d="M178.92 80.0345L169.477 85.4861C167.228 86.7847 164.333 85.9962 163.023 83.7283L162.32 82.5097C161.011 80.2419 161.775 77.3403 164.024 76.0417L173.467 70.5901C175.716 69.2915 178.611 70.08 179.921 72.3479L180.624 73.5665C181.934 75.8344 181.169 78.7359 178.92 80.0345ZM164.904 77.565C163.488 78.3827 163.006 80.2096 163.831 81.6374L164.534 82.8561C165.359 84.284 167.182 84.7804 168.598 83.9628L178.04 78.5112C179.456 77.6935 179.938 75.8666 179.113 74.4388L178.41 73.2201C177.585 71.7922 175.763 71.2958 174.346 72.1134L164.904 77.565Z" fill="white"/>
<path d="M165.554 85.7998L158.254 93.8991C156.516 95.8285 153.518 95.9718 151.573 94.2187L150.528 93.2767C148.583 91.5235 148.415 88.5277 150.153 86.5983L157.453 78.499C159.191 76.5696 162.189 76.4263 164.134 78.1794L165.179 79.1214C167.124 80.8746 167.292 83.8704 165.554 85.7998ZM159.356 79.1696C159.14 79.3081 158.939 79.4771 158.759 79.6765L151.46 87.7759C150.365 88.9906 150.471 90.8769 151.696 91.9807L152.741 92.9228C153.966 94.0266 155.853 93.9363 156.948 92.7216L164.247 84.6222C165.342 83.4074 165.236 81.5211 164.011 80.4173L162.966 79.4753C161.942 78.5526 160.456 78.4643 159.356 79.1696Z" fill="white"/>
<path d="M135.973 37C137.562 36.997 139.114 37.5774 140.423 38.6602L144.059 41.6699C145.369 42.7546 147.02 43.3476 148.724 43.3447L209.928 43.25C212.122 43.247 213.904 45.0156 213.907 47.2002L213.912 50H115.016L115 39.9795C114.997 38.3519 116.32 37.0315 117.955 37.0283L135.973 37Z" fill="#88D1FF"/>
<defs>
<radialGradient id="paint0_radial_5583_2788" cx="0" cy="0" r="1" gradientUnits="userSpaceOnUse" gradientTransform="translate(164 74) rotate(90) scale(74 164)">
<stop stop-color="white"/>
<stop offset="0.5" stop-color="#F4FBFF"/>
<stop offset="1" stop-color="#EDF8FF"/>
</radialGradient>
</defs>
</svg>
