<svg width="328" height="148" viewBox="0 0 328 148" fill="none" xmlns="http://www.w3.org/2000/svg">
<g clip-path="url(#clip0_5583_2655)">
<rect width="328" height="148" rx="74" fill="url(#paint0_radial_5583_2655)"/>
<path d="M112.562 203.065C112.755 203.065 112.951 203.059 113.148 203.048C118.616 202.729 122.79 198.06 122.472 192.621C121.986 184.418 121.766 176.949 121.766 170.147C121.725 140.283 126.1 123.506 130.401 114.749V299.752C130.401 308.175 137.266 314.999 145.729 314.999C154.194 314.999 161.058 308.175 161.058 299.752V188.416H166.805V299.752C166.805 308.175 173.669 314.999 182.132 314.999C190.597 314.999 197.462 308.175 197.462 299.752V114.801C198.196 116.3 198.936 118.021 199.667 120.029C203.164 129.662 206.103 145.473 206.091 170.149C206.091 176.95 205.871 184.422 205.392 192.625C205.072 198.064 209.247 202.731 214.716 203.049C214.912 203.06 215.105 203.066 215.3 203.066C220.513 203.066 224.888 199.019 225.196 193.774C225.694 185.225 225.93 177.372 225.93 170.149C225.879 132.925 219.903 112.32 211.753 99.9327C207.68 93.782 202.914 89.839 198.513 87.6535C194.288 85.5359 190.576 85.0549 188.34 85.0228C188.186 85.0154 188.036 84.9994 187.881 84.9994H139.982C139.817 84.9994 139.655 85.0154 139.492 85.0241C137.252 85.0549 133.553 85.5421 129.345 87.6535C122.674 90.9416 115.488 98.1382 110.456 110.89C105.366 123.693 101.946 142.202 101.93 170.147C101.93 177.369 102.163 185.223 102.669 193.774C102.976 199.017 107.346 203.065 112.562 203.065Z" fill="#076AAB"/>
<path d="M163.93 21.9994C148.464 21.9994 135.93 34.535 135.93 50.0013C135.93 65.4676 148.464 77.9994 163.93 77.9994C179.397 77.9994 191.93 65.4676 191.93 50.0013C191.93 34.535 179.396 21.9994 163.93 21.9994ZM163.93 72.0147C151.771 72.0147 141.917 62.1585 141.917 50.0013C141.917 37.8453 151.773 27.9903 163.93 27.9903C176.087 27.9903 185.941 37.8453 185.941 50.0013C185.94 62.1597 176.085 72.0147 163.93 72.0147Z" fill="#076AAB"/>
<g clip-path="url(#clip1_5583_2655)">
<path d="M165.667 55.5811H161.272C161.076 55.5811 160.905 55.6548 160.759 55.801C160.612 55.9477 160.539 56.1184 160.539 56.3138V60.7095C160.539 60.9048 160.613 61.0759 160.759 61.2222C160.905 61.3684 161.076 61.442 161.272 61.442H165.667C165.862 61.442 166.034 61.3686 166.18 61.2222C166.326 61.0759 166.4 60.9048 166.4 60.7095V56.3138C166.4 56.1184 166.327 55.9477 166.18 55.801C166.034 55.6544 165.862 55.5811 165.667 55.5811Z" fill="#076AAB"/>
<path d="M171.431 42.423C170.93 41.5007 170.284 40.7227 169.49 40.0877C168.696 39.4529 167.805 38.9459 166.816 38.5676C165.827 38.1894 164.844 38 163.867 38C160.156 38 157.323 39.6239 155.369 42.8717C155.272 43.0303 155.238 43.2012 155.269 43.3844C155.299 43.5674 155.394 43.72 155.553 43.8421L158.556 46.1316C158.715 46.2291 158.868 46.2779 159.014 46.2779C159.234 46.2779 159.423 46.18 159.582 45.9847C160.461 44.886 161.114 44.184 161.542 43.8786C162.067 43.5246 162.726 43.3477 163.519 43.3477C164.264 43.3477 164.92 43.5431 165.488 43.9335C166.056 44.3243 166.339 44.7761 166.339 45.2889C166.339 45.8625 166.187 46.3266 165.882 46.6807C165.577 47.0347 165.064 47.3764 164.343 47.7062C163.391 48.1334 162.518 48.7959 161.725 49.6933C160.931 50.5908 160.534 51.5462 160.534 52.5595V53.3836C160.534 53.6158 160.598 53.8446 160.726 54.0705C160.855 54.2965 161.01 54.4094 161.193 54.4094H165.589C165.784 54.4094 165.955 54.3149 166.102 54.1251C166.248 53.9363 166.321 53.7379 166.321 53.5306C166.321 53.2255 166.489 52.816 166.825 52.3035C167.161 51.7907 167.579 51.3935 168.08 51.1126C168.555 50.8441 168.927 50.6277 169.196 50.4626C169.466 50.298 169.816 50.0319 170.25 49.6658C170.683 49.2994 171.019 48.9362 171.257 48.5761C171.495 48.216 171.709 47.7489 171.898 47.1749C172.088 46.6011 172.182 45.9845 172.182 45.3252C172.182 44.3118 171.931 43.3443 171.431 42.423Z" fill="#076AAB"/>
</g>
<g clip-path="url(#clip2_5583_2655)">
<path d="M255.232 25.1454C251.874 24.62 247.999 25.5491 245.191 27.4314C242.18 29.4505 239.809 32.842 239.113 36.4256C238.391 40.138 239.191 44.0373 241.335 47.1583C243.54 50.3695 247.145 52.3691 250.929 53.0424L251.124 53.08C254.892 53.7576 258.756 52.5496 261.794 50.3417C264.67 48.2522 266.784 44.8141 267.339 41.301C267.921 37.6173 266.98 33.8528 264.786 30.8326C262.441 27.6048 259.142 25.7477 255.232 25.1454Z" fill="#88D1FF"/>
<path d="M257.154 33.6194C257.802 33.5444 258.319 33.5435 258.888 33.1839C258.485 33.0871 258.064 33.3147 257.672 33.4148C256.955 33.598 256.227 33.7538 255.495 33.8598C253.19 34.1942 250.715 34.0054 248.506 33.2759L248.519 59.7218L248.468 141.254C247.925 140.549 247.25 139.475 246.516 138.988L246.357 139.249C246.033 140.139 244.927 142.433 245.283 143.281L245.359 143.432L245.15 143.629L244.966 144.376L244.603 144.469L243.104 144.152C242.372 143.79 241.262 143.688 240.456 143.51L240.309 143.48C239.567 143.539 239.382 144.192 238.817 144.626C238.521 144.854 238.105 144.964 237.754 145.074L237.501 145.389C237.912 146.724 239.724 148.149 240.867 148.907L240.805 149.115C238.896 149.033 237.607 149.3 235.795 149.867C235.411 149.987 234.838 150.088 234.539 150.358L234.506 150.458L234.322 150.776L234.088 150.824C235.424 152.023 237.157 152.925 238.613 154.009L237.608 154.812C239.05 154.852 240.864 154.894 242.234 155.399C241.903 155.632 241.533 155.826 241.367 156.211C241.49 156.667 241.688 156.812 242.087 157.044L242.694 157.382L244.235 157.528C245.075 157.769 246.432 157.521 247.334 157.519C248.581 157.516 250.014 157.732 251.241 157.531L252.007 157.406C253.808 157.38 255.611 157.404 257.412 157.406C258.352 157.407 259.341 157.477 260.271 157.332C260.047 157.139 259.533 156.881 259.479 156.608C259.611 156.643 259.822 156.708 259.951 156.663C260.01 156.643 260.298 156.282 260.345 156.229C260.671 155.867 261.013 155.506 261.3 155.113C261.658 154.625 261.837 154.142 262.436 153.922L262.443 153.852L262.675 153.335L262.811 153.139C263.07 152.855 263.369 152.622 263.628 152.311C263.985 151.758 264.57 151.205 265.013 150.711C265.969 149.645 267.006 148.483 267.694 147.219L268.523 147.203L268.72 146.935C268.881 146.706 268.979 146.662 269.241 146.555L270.204 146.406L270.179 146.259C269.602 146.232 269.055 146.225 268.477 146.283C268.77 145.12 269.22 144.088 269.71 143.001C269.314 142.676 268.871 142.432 268.43 142.173C267.573 141.62 266.59 141.22 265.676 140.762C267.195 140.093 268.845 139.475 270.459 139.094C270.638 137.916 270.881 136.75 271.113 135.582C271.19 135.195 271.411 134.587 271.231 134.247L270.543 134.292L270.58 134.07C271.095 132.428 271.285 130.592 271.568 128.896C272.056 125.972 272.661 122.887 272.784 119.927L272.819 119.41L272.62 119.351C269.814 120.94 266.987 122.539 264.421 124.503C262.274 126.146 260.321 128.069 258.385 129.954L258.079 130.337C257.784 130.378 257.447 130.834 257.229 131.057L257.071 95.648L257.074 79.5816L277.545 79.5191L277.454 89.826L301.078 73.7253C299.192 72.8022 297.327 71.4446 295.549 70.307C291.751 67.8771 287.941 65.4606 284.157 63.0074C281.96 61.5827 279.771 59.9544 277.45 58.744L277.516 68.0248L257.001 68.089L257.154 33.6194Z" fill="#88D1FF"/>
<path d="M259.017 32.0095L258.713 32.0007C258.333 31.996 257.983 32.0091 257.645 32.2058C257.05 32.5511 256.503 33.3308 256.027 33.8317C255.137 34.769 254.222 35.6745 253.292 36.5715C252.254 35.6037 251.246 34.6085 250.23 33.6191C249.672 33.0768 249.074 32.3304 248.312 32.1044C247.89 31.9793 247.353 32.1161 246.992 32.3525C246.578 32.6234 246.222 33.0168 246.167 33.5239C246.138 33.7863 246.179 34.0189 246.311 34.2479C246.671 34.8708 247.318 35.3982 247.827 35.9052C248.851 36.9228 249.905 37.9153 250.858 39.0001L246.824 43.094C246.446 43.5385 246.181 43.9555 246.277 44.5546C246.383 45.2237 247.035 45.6841 247.555 46.0262L247.678 46.0207C248.046 46.0014 248.386 45.9776 248.716 45.7976C249.405 45.4204 249.957 44.7622 250.499 44.2066C251.437 43.2471 252.375 42.2948 253.273 41.298L253.628 41.7087C254.662 42.8782 255.815 44.028 256.97 45.0788C257.237 45.3221 257.661 45.7686 258.023 45.7883C258.653 45.8226 259.154 45.8247 259.634 45.3649C260.009 45.0048 260.232 44.6295 260.226 44.1008C260.222 43.6743 259.966 43.4101 259.707 43.0978C258.483 41.6193 256.954 40.31 255.54 39.0165L259.366 35.2785C259.798 34.8323 260.214 34.3314 260.182 33.673C260.146 32.9117 259.555 32.4619 259.017 32.0095Z" fill="#FDFEFB"/>
</g>
</g>
<defs>
<radialGradient id="paint0_radial_5583_2655" cx="0" cy="0" r="1" gradientUnits="userSpaceOnUse" gradientTransform="translate(164 74) rotate(90) scale(74 164)">
<stop stop-color="white"/>
<stop offset="0.5" stop-color="#F4FBFF"/>
<stop offset="1" stop-color="#EDF8FF"/>
</radialGradient>
<clipPath id="clip0_5583_2655">
<rect width="328" height="148" rx="74" fill="white"/>
</clipPath>
<clipPath id="clip1_5583_2655">
<rect width="23.4419" height="23.4419" fill="white" transform="translate(152 38)"/>
</clipPath>
<clipPath id="clip2_5583_2655">
<rect width="67.0732" height="87.766" fill="white" transform="matrix(-1 0 0 1 301.078 4)"/>
</clipPath>
</defs>
</svg>
