<svg width="96" height="96" viewBox="0 0 96 96" fill="none" xmlns="http://www.w3.org/2000/svg">
<rect width="96" height="96" rx="24" fill="url(#paint0_radial_5476_12599)"/>
<g clip-path="url(#clip0_5476_12599)">
<path d="M24.5813 41.1041C24.1504 40.3048 23.9507 39.4011 24.0048 38.4946C24.0588 37.5881 24.3644 36.7146 24.8873 35.9721C25.7418 34.7183 26.8862 33.6892 28.2233 32.9721L43.2253 25.1641C44.6998 24.3974 46.3374 23.9971 47.9993 23.9971C49.6613 23.9971 51.2988 24.3974 52.7733 25.1641L67.7733 32.9781C69.1104 33.6952 70.2548 34.7243 71.1093 35.9781C71.6322 36.7206 71.9378 37.5941 71.9919 38.5006C72.0459 39.4071 71.8463 40.3108 71.4153 41.1101C70.9513 41.9878 70.2555 42.7213 69.4035 43.2309C68.5515 43.7405 67.576 44.0065 66.5833 44.0001H29.4153C28.4216 44.0063 27.4453 43.7395 26.5929 43.2288C25.7405 42.7182 25.0446 41.9832 24.5813 41.1041Z" fill="#8BD500"/>
<path d="M70 68C70 66.9391 69.5786 65.9217 68.8284 65.1716C68.0783 64.4214 67.0609 64 66 64V48H62V64H56V48H52V64H44V48H40V64H34V48H30V64C28.9391 64 27.9217 64.4214 27.1716 65.1716C26.4214 65.9217 26 66.9391 26 68C25.4696 68 24.9609 68.2107 24.5858 68.5858C24.2107 68.9609 24 69.4696 24 70C24 70.5304 24.2107 71.0391 24.5858 71.4142C24.9609 71.7893 25.4696 72 26 72H70C70.5304 72 71.0391 71.7893 71.4142 71.4142C71.7893 71.0391 72 70.5304 72 70C72 69.4696 71.7893 68.9609 71.4142 68.5858C71.0391 68.2107 70.5304 68 70 68Z" fill="#076AAB"/>
</g>
<defs>
<radialGradient id="paint0_radial_5476_12599" cx="0" cy="0" r="1" gradientUnits="userSpaceOnUse" gradientTransform="translate(48 48) rotate(90) scale(48)">
<stop stop-color="white"/>
<stop offset="0.33" stop-color="#F4FBFF"/>
<stop offset="0.66" stop-color="#EDF8FF"/>
<stop offset="1" stop-color="#DEF2FF"/>
</radialGradient>
<clipPath id="clip0_5476_12599">
<rect width="48" height="48" fill="white" transform="translate(24 24)"/>
</clipPath>
</defs>
</svg>
