<svg width="144" height="32" viewBox="0 0 144 32" fill="none" xmlns="http://www.w3.org/2000/svg">
<path fill-rule="evenodd" clip-rule="evenodd" d="M23.1967 15.2527C23.1967 17.3648 22.6668 19.3238 21.6072 21.1135C20.5813 22.8675 19.1727 24.2747 17.3938 25.3289L17.3899 25.3312C15.628 26.3618 13.6839 26.8743 11.5751 26.8743C9.49488 26.8743 7.5538 26.3605 5.7663 25.3344L5.75842 25.3301C5.75842 28.4986 3.16552 31.721 0 32L0 15.2527C2.10308e-05 13.1725 0.513778 11.2314 1.53994 9.44388L1.54269 9.43916L1.54545 9.43403C2.59957 7.65525 4.00656 6.24653 5.76039 5.22067L5.76354 5.2191L5.7663 5.21752C7.5538 4.19136 9.49488 3.6776 11.5751 3.67758C13.6817 3.67758 15.6239 4.18913 17.3844 5.21752L17.551 5.3148C19.2568 6.33046 20.6111 7.70681 21.6048 9.43403C22.6648 11.2228 23.1967 13.1675 23.1967 15.2527ZM15.9039 10.924C17.1089 12.129 17.7014 13.5572 17.7014 15.2527C17.7014 16.9482 17.109 18.3764 15.9039 19.5815L15.9007 19.5846L15.8976 19.5882C14.7285 20.7844 13.305 21.379 11.5751 21.379C9.87967 21.379 8.45141 20.7865 7.24637 19.5815C6.04139 18.3764 5.44925 16.9482 5.44925 15.2527C5.44928 13.5572 6.04134 12.129 7.24637 10.924C8.45141 9.71892 9.87967 9.12687 11.5751 9.12684C13.2508 9.12684 14.639 9.68464 15.7869 10.807L15.9039 10.924Z" fill="#2A8FD2"/>
<path d="M4.90192 3.67758H0V9.12416C1.56256 5.55913 4.08809 4.00768 4.90192 3.67758Z" fill="#2A8FD2"/>
<path d="M7.15635 15.5936C7.57277 15.5936 7.91035 15.256 7.91035 14.8395C7.91035 14.4231 7.57277 14.0855 7.15635 14.0855C6.73992 14.0855 6.40234 14.4231 6.40234 14.8395C6.40234 15.256 6.73992 15.5936 7.15635 15.5936Z" fill="#2A8FD2"/>
<path d="M10.7813 19.533C10.6945 19.9371 10.294 20.1992 9.906 20.0569C9.19432 19.7959 8.54349 19.3854 7.99894 18.8499C7.45438 18.3144 7.03303 17.6706 6.7601 16.9634C6.61132 16.5779 6.86668 16.173 7.2692 16.0794C7.67171 15.9859 8.0674 16.2411 8.23694 16.6179C8.43189 17.0512 8.70632 17.4467 9.04819 17.7829C9.39005 18.1191 9.79009 18.3868 10.2266 18.5745C10.6063 18.7377 10.868 19.129 10.7813 19.533Z" fill="#2A8FD2"/>
<path d="M102.727 16.7859C102.727 9.84603 107.451 5.20501 114.93 5.20501C121.229 5.20501 126.478 9.0653 126.478 15.3112C126.478 16.222 126.346 17.1329 126.04 18.1305H108.588C109.156 21.4269 112.218 23.7257 115.718 23.7257C118.429 23.7257 120.966 22.598 122.585 20.9498L125.822 24.6366C123.635 27.0222 119.698 28.4101 115.674 28.4101C108.85 28.4101 102.727 24.2896 102.727 16.7859ZM120.529 14.6606C120.529 11.3641 117.773 9.54241 114.58 9.54241C111.562 9.54241 108.894 11.7111 108.675 14.6606H120.529Z" fill="white"/>
<path d="M78.3477 5.46525H84.2526V9.58579C85.6961 6.80985 88.8891 5.20501 92.1259 5.20501C96.9811 5.20501 100.043 8.84843 100.043 14.6172V28.1499H94.0943V14.9642C94.0943 12.3184 92.5196 10.3231 89.7639 10.2798C86.7458 10.2364 84.2526 12.7955 84.2526 15.875V28.1499H78.3477V5.46525Z" fill="white"/>
<path fill-rule="evenodd" clip-rule="evenodd" d="M66.2789 28.6204L49.9805 5.73228H57.2818L65.3275 16.8799L73.5331 28.6204H66.2789Z" fill="white"/>
<path fill-rule="evenodd" clip-rule="evenodd" d="M74.0745 13.0273L74.2029 5.73209H68.5055L68.3798 12.8772C68.3417 15.0408 66.015 16.3557 64.1366 15.2799L62.8023 14.5159C57.3309 11.3827 50.511 15.0127 50.0905 21.302L50.0723 28.6202H55.7839L55.7734 21.7332C55.9137 19.6346 58.1801 18.4229 60.0106 19.4713L61.345 20.2354C66.9783 23.4616 73.9603 19.5178 74.0745 13.0273Z" fill="#BFFB4F"/>
<path d="M68.3798 12.8772C68.3417 15.0408 66.015 16.3557 64.1366 15.2799L62.8023 14.5159C57.3309 11.3827 50.511 15.0127 50.0905 21.302L50.0723 28.6202H55.7839L55.7734 21.7332C55.9137 19.6346 58.1801 18.4229 60.0106 19.4713L61.345 20.2354C66.9783 23.4616 73.9603 19.5178 74.0745 13.0273L74.2029 5.73209H68.5055L68.3798 12.8772Z" fill="#BFFB4F"/>
<path d="M25.1523 16.7859C25.1523 9.84603 29.8763 5.20501 37.356 5.20501C43.6546 5.20501 48.9035 9.0653 48.9035 15.3112C48.9035 16.222 48.7722 17.1329 48.4661 18.1305H31.0136C31.5822 21.4269 34.644 23.7257 38.1433 23.7257C40.8552 23.7257 43.3922 22.598 45.0106 20.9498L48.2474 24.6366C46.0603 27.0222 42.1237 28.4101 38.0996 28.4101C31.276 28.4101 25.1523 24.2896 25.1523 16.7859ZM42.9548 14.6606C42.9548 11.3641 40.1991 9.54241 37.006 9.54241C33.9879 9.54241 31.3198 11.7111 31.1011 14.6606H42.9548Z" fill="white"/>
<path d="M137.134 5.63848H143.346V10.3662H137.134V20.6025C137.134 22.164 137.878 23.4652 139.409 23.5086C140.546 23.6821 141.902 23.205 142.821 22.7279L144.002 27.3255C142.34 28.0629 140.284 28.6267 138.272 28.6267C133.635 28.6267 131.142 25.5905 131.142 21.123V10.3662H128.518V5.63848H131.141H134.204H137.134Z" fill="white"/>
<path d="M137.969 4.33746H130.096L133.913 5.72205e-05L137.969 4.33746Z" fill="white"/>
</svg>
