<svg width="144" height="32" viewBox="0 0 144 32" fill="none" xmlns="http://www.w3.org/2000/svg">
<path fill-rule="evenodd" clip-rule="evenodd" d="M23.1967 15.2529C23.1967 17.365 22.6668 19.3239 21.6072 21.1137C20.5813 22.8676 19.1727 24.2749 17.3938 25.329L17.3899 25.3314C15.628 26.3619 13.6839 26.8745 11.5751 26.8745C9.49488 26.8745 7.5538 26.3607 5.7663 25.3345L5.75842 25.3302C5.75842 28.4988 3.16552 31.7212 0 32.0002L0 15.2529C2.10308e-05 13.1726 0.513778 11.2315 1.53994 9.44403L1.54269 9.43931L1.54545 9.43419C2.59957 7.6554 4.00656 6.24668 5.76039 5.22082L5.76354 5.21925L5.7663 5.21767C7.5538 4.19151 9.49488 3.67776 11.5751 3.67773C13.6817 3.67773 15.6239 4.18928 17.3844 5.21767L17.551 5.31495C19.2568 6.33061 20.6111 7.70696 21.6048 9.43419C22.6648 11.2229 23.1967 13.1676 23.1967 15.2529ZM15.9039 10.9241C17.1089 12.1291 17.7014 13.5574 17.7014 15.2529C17.7014 16.9484 17.109 18.3766 15.9039 19.5816L15.9007 19.5848L15.8976 19.5883C14.7285 20.7846 13.305 21.3791 11.5751 21.3791C9.87967 21.3791 8.45141 20.7867 7.24637 19.5816C6.04139 18.3766 5.44925 16.9483 5.44925 15.2529C5.44928 13.5574 6.04134 12.1291 7.24637 10.9241C8.45141 9.71907 9.87967 9.12702 11.5751 9.12699C13.2508 9.12699 14.639 9.68479 15.7869 10.8071L15.9039 10.9241Z" fill="#2A8FD2"/>
<path d="M4.90192 3.67773H0V9.12431C1.56256 5.55928 4.08809 4.00783 4.90192 3.67773Z" fill="#2A8FD2"/>
<path d="M7.15635 15.5939C7.57277 15.5939 7.91035 15.2564 7.91035 14.8399C7.91035 14.4235 7.57277 14.0859 7.15635 14.0859C6.73992 14.0859 6.40234 14.4235 6.40234 14.8399C6.40234 15.2564 6.73992 15.5939 7.15635 15.5939Z" fill="#2A8FD2"/>
<path d="M10.7813 19.5338C10.6945 19.9379 10.294 20.2 9.906 20.0577C9.19432 19.7967 8.54349 19.3862 7.99894 18.8507C7.45438 18.3152 7.03303 17.6714 6.7601 16.9642C6.61132 16.5787 6.86668 16.1738 7.2692 16.0802C7.67171 15.9867 8.0674 16.2419 8.23694 16.6187C8.43189 17.052 8.70632 17.4475 9.04819 17.7837C9.39005 18.1199 9.79009 18.3876 10.2266 18.5753C10.6063 18.7385 10.868 19.1298 10.7813 19.5338Z" fill="#2A8FD2"/>
<path d="M102.727 16.786C102.727 9.8461 107.451 5.20508 114.93 5.20508C121.229 5.20508 126.478 9.06537 126.478 15.3112C126.478 16.2221 126.346 17.1329 126.04 18.1305H108.588C109.156 21.427 112.218 23.7258 115.718 23.7258C118.429 23.7258 120.966 22.5981 122.585 20.9499L125.822 24.6367C123.635 27.0222 119.698 28.4102 115.674 28.4102C108.85 28.4102 102.727 24.2897 102.727 16.786ZM120.529 14.6606C120.529 11.3642 117.773 9.54249 114.58 9.54249C111.562 9.54249 108.894 11.7112 108.675 14.6606H120.529Z" fill="white"/>
<path d="M78.3477 5.46532H84.2526V9.58586C85.6961 6.80992 88.8891 5.20508 92.1259 5.20508C96.9811 5.20508 100.043 8.8485 100.043 14.6172V28.15H94.0943V14.9642C94.0943 12.3184 92.5196 10.3232 89.7639 10.2798C86.7458 10.2365 84.2526 12.7955 84.2526 15.8751V28.15H78.3477V5.46532Z" fill="white"/>
<path fill-rule="evenodd" clip-rule="evenodd" d="M66.2789 28.6206L49.9805 5.73242H57.2818L65.3275 16.88L73.5331 28.6206H66.2789Z" fill="white"/>
<path fill-rule="evenodd" clip-rule="evenodd" d="M74.0745 13.0276L74.2029 5.73242H68.5055L68.3798 12.8775C68.3417 15.0412 66.015 16.356 64.1366 15.2803L62.8023 14.5162C57.3309 11.383 50.511 15.013 50.0905 21.3023L50.0723 28.6206H55.7839L55.7734 21.7335C55.9137 19.6349 58.1801 18.4233 60.0106 19.4716L61.345 20.2357C66.9783 23.462 73.9603 19.5181 74.0745 13.0276Z" fill="#BDEB11"/>
<path d="M68.3798 12.8775C68.3417 15.0412 66.015 16.356 64.1366 15.2803L62.8023 14.5162C57.3309 11.383 50.511 15.013 50.0905 21.3023L50.0723 28.6206H55.7839L55.7734 21.7335C55.9137 19.6349 58.1801 18.4233 60.0106 19.4716L61.345 20.2357C66.9783 23.462 73.9603 19.5181 74.0745 13.0276L74.2029 5.73242H68.5055L68.3798 12.8775Z" fill="#BDEB11"/>
<path d="M25.1523 16.786C25.1523 9.8461 29.8763 5.20508 37.356 5.20508C43.6546 5.20508 48.9035 9.06537 48.9035 15.3112C48.9035 16.2221 48.7722 17.1329 48.4661 18.1305H31.0136C31.5822 21.427 34.644 23.7258 38.1433 23.7258C40.8552 23.7258 43.3922 22.5981 45.0106 20.9499L48.2474 24.6367C46.0603 27.0222 42.1237 28.4102 38.0996 28.4102C31.276 28.4102 25.1523 24.2897 25.1523 16.786ZM42.9548 14.6606C42.9548 11.3642 40.1991 9.54249 37.006 9.54249C33.9879 9.54249 31.3198 11.7112 31.1011 14.6606H42.9548Z" fill="white"/>
<path d="M137.134 5.63867H143.346V10.3664H137.134V20.6027C137.134 22.1642 137.878 23.4654 139.409 23.5088C140.546 23.6823 141.902 23.2052 142.821 22.728L144.002 27.3257C142.34 28.0631 140.284 28.6269 138.272 28.6269C133.635 28.6269 131.142 25.5907 131.142 21.1232V10.3664H128.518V5.63867H131.141H134.204H137.134Z" fill="white"/>
<path d="M137.969 4.33741H130.096L133.913 0L137.969 4.33741Z" fill="white"/>
</svg>
