<svg width="96" height="96" viewBox="0 0 96 96" fill="none" xmlns="http://www.w3.org/2000/svg">
<path d="M0 24C0 10.7452 10.7452 0 24 0H72C85.2548 0 96 10.7452 96 24V72C96 85.2548 85.2548 96 72 96H24C10.7452 96 0 85.2548 0 72V24Z" fill="url(#paint0_radial_5579_3348)"/>
<g clip-path="url(#clip0_5579_3348)">
<path d="M23.5977 56C23.5977 54.896 24.4917 54 25.5977 54H26.5257L26.6637 52.832C27.2577 47.796 31.5277 44 36.5957 44H58.6037C63.6717 44 67.9417 47.796 68.5357 52.832L68.6737 54H69.6017C70.7077 54 71.6017 54.896 71.6017 56C71.6017 57.104 70.7077 58 69.6017 58H25.5977C24.4917 58 23.5977 57.104 23.5977 56ZM68.6697 62L68.5317 63.168C67.9377 68.204 63.6677 72 58.5997 72H36.5937C31.5257 72 27.2557 68.204 26.6617 63.168L26.5237 62H42.0357L42.2777 62.97C42.7237 64.754 44.3197 66 46.1577 66H49.0337C50.8737 66 52.4697 64.754 52.9137 62.97L53.1557 62H68.6697Z" fill="#076AAB"/>
<path d="M65.5977 30H47.3137C46.4197 26.56 43.3157 24 39.5977 24C35.4757 24 27.5977 27.116 27.5977 32C27.5977 36.884 35.4757 40 39.5977 40C43.3157 40 46.4197 37.44 47.3137 34H65.5977C66.7037 34 67.5977 33.104 67.5977 32C67.5977 30.896 66.7037 30 65.5977 30Z" fill="#8BD500"/>
</g>
<defs>
<radialGradient id="paint0_radial_5579_3348" cx="0" cy="0" r="1" gradientUnits="userSpaceOnUse" gradientTransform="translate(48 48) rotate(90) scale(48)">
<stop stop-color="white"/>
<stop offset="0.33" stop-color="#F4FBFF"/>
<stop offset="0.66" stop-color="#EDF8FF"/>
<stop offset="1" stop-color="#DEF2FF"/>
</radialGradient>
<clipPath id="clip0_5579_3348">
<rect width="48" height="48" fill="white" transform="translate(23.5977 24)"/>
</clipPath>
</defs>
</svg>
