<svg width="96" height="96" viewBox="0 0 96 96" fill="none" xmlns="http://www.w3.org/2000/svg">
<rect width="96" height="96" rx="24" fill="url(#paint0_radial_5447_10386)"/>
<g clip-path="url(#clip0_5447_10386)">
<path d="M70 56C69.6904 56 69.3851 55.9281 69.108 55.79L65.108 53.79C64.6333 53.5529 64.2722 53.1369 64.1041 52.6336C63.9361 52.1302 63.9749 51.5807 64.212 51.106C64.4491 50.6313 64.8651 50.2702 65.3684 50.1021C65.8718 49.9341 66.4213 49.9729 66.896 50.21L70.896 52.21C71.2997 52.4112 71.6236 52.743 71.815 53.1515C72.0063 53.56 72.054 54.0212 71.9502 54.4601C71.8464 54.8991 71.5973 55.2901 71.2433 55.5697C70.8892 55.8492 70.4511 56.0009 70 56ZM66.894 37.8L70.894 35.8C71.3687 35.5629 71.7298 35.1469 71.8979 34.6436C72.0659 34.1402 72.0271 33.5907 71.79 33.116C71.5529 32.6413 71.1369 32.2802 70.6336 32.1121C70.1302 31.9441 69.5807 31.9829 69.106 32.22L65.106 34.22C64.6313 34.4571 64.2702 34.8731 64.1021 35.3764C63.9341 35.8798 63.9729 36.4293 64.21 36.904C64.4471 37.3787 64.8631 37.7398 65.3664 37.9079C65.8698 38.0759 66.4193 38.0371 66.894 37.8ZM72 44C72 43.4696 71.7893 42.9609 71.4142 42.5858C71.0392 42.2107 70.5304 42 70 42H66C65.4696 42 64.9609 42.2107 64.5858 42.5858C64.2107 42.9609 64 43.4696 64 44C64 44.5304 64.2107 45.0391 64.5858 45.4142C64.9609 45.7893 65.4696 46 66 46H70C70.5304 46 71.0392 45.7893 71.4142 45.4142C71.7893 45.0391 72 44.5304 72 44ZM60 62V26C60 25.4696 59.7893 24.9609 59.4142 24.5858C59.0392 24.2107 58.5304 24 58 24C57.4696 24 56.9609 24.2107 56.5858 24.5858C56.2107 24.9609 56 25.4696 56 26C56 31.898 50.834 34 46 34H32C29.8783 34 27.8434 34.8429 26.3431 36.3431C24.8429 37.8434 24 39.8783 24 42V46C24 48.1217 24.8429 50.1566 26.3431 51.6569C27.8434 53.1571 29.8783 54 32 54H46C50.834 54 56 56.102 56 62C56 62.5304 56.2107 63.0391 56.5858 63.4142C56.9609 63.7893 57.4696 64 58 64C58.5304 64 59.0392 63.7893 59.4142 63.4142C59.7893 63.0391 60 62.5304 60 62Z" fill="#076AAB"/>
<path d="M40.3782 58H32.0062C31.075 57.9963 30.1474 57.8842 29.2422 57.666L34.2422 68.83C34.6621 69.7736 35.3466 70.5752 36.2127 71.1378C37.0788 71.7004 38.0894 71.9999 39.1222 72C39.9439 71.9989 40.7523 71.7922 41.4736 71.3987C42.195 71.0052 42.8064 70.4374 43.2521 69.7471C43.6979 69.0568 43.9638 68.266 44.0256 67.4466C44.0875 66.6272 43.9433 65.8054 43.6062 65.056L40.3782 58Z" fill="#8BD500"/>
</g>
<defs>
<radialGradient id="paint0_radial_5447_10386" cx="0" cy="0" r="1" gradientUnits="userSpaceOnUse" gradientTransform="translate(48 48) rotate(90) scale(48)">
<stop stop-color="white"/>
<stop offset="0.33" stop-color="#F4FBFF"/>
<stop offset="0.66" stop-color="#EDF8FF"/>
<stop offset="1" stop-color="#DEF2FF"/>
</radialGradient>
<clipPath id="clip0_5447_10386">
<rect width="48" height="48" fill="white" transform="translate(24 24)"/>
</clipPath>
</defs>
</svg>
