<svg width="96" height="96" viewBox="0 0 96 96" fill="none" xmlns="http://www.w3.org/2000/svg">
<path d="M0 24C0 10.7452 10.7452 0 24 0H72C85.2548 0 96 10.7452 96 24V72C96 85.2548 85.2548 96 72 96H24C10.7452 96 0 85.2548 0 72V24Z" fill="url(#paint0_radial_5579_3336)"/>
<g clip-path="url(#clip0_5579_3336)">
<path d="M63.6167 35.542C62.7747 33.39 60.7527 32 58.4707 32H29.5287C27.2447 32 25.2247 33.39 24.3827 35.542C23.5627 37.632 24.0627 39.864 25.7347 41.41L39.0707 53.73C39.9387 54.52 40.9427 55.064 42.0007 55.366V68H36.0007C34.8947 68 34.0007 68.896 34.0007 70C34.0007 71.104 34.8947 72 36.0007 72H52.0007C53.1067 72 54.0007 71.104 54.0007 70C54.0007 68.896 53.1067 68 52.0007 68H46.0007V55.364C47.0607 55.06 48.0687 54.514 48.9427 53.718L62.3187 41.362C63.9407 39.862 64.4387 37.632 63.6167 35.542Z" fill="#076AAB"/>
<path d="M72.0011 36C72.0011 42.254 67.1931 47.404 61.0811 47.95L65.0331 44.298C67.8491 41.696 68.7551 37.686 67.3431 34.084C65.8971 30.386 62.4151 27.998 58.4711 27.998H51.0391C53.2551 25.514 56.4711 23.998 60.0011 23.998C66.6191 23.998 72.0011 29.382 72.0011 36Z" fill="#8BD500"/>
</g>
<defs>
<radialGradient id="paint0_radial_5579_3336" cx="0" cy="0" r="1" gradientUnits="userSpaceOnUse" gradientTransform="translate(48 48) rotate(90) scale(48)">
<stop stop-color="white"/>
<stop offset="0.33" stop-color="#F4FBFF"/>
<stop offset="0.66" stop-color="#EDF8FF"/>
<stop offset="1" stop-color="#DEF2FF"/>
</radialGradient>
<clipPath id="clip0_5579_3336">
<rect width="48" height="48" fill="white" transform="translate(24 24)"/>
</clipPath>
</defs>
</svg>
