<svg width="96" height="96" viewBox="0 0 96 96" fill="none" xmlns="http://www.w3.org/2000/svg">
<rect width="96" height="96" rx="24" fill="url(#paint0_radial_5579_3292)"/>
<path d="M52.3984 42C51.2984 42 50.3984 42.9 50.3984 44C50.3984 45.1 51.2984 46 52.3984 46C53.4984 46 54.3984 45.1 54.3984 44C54.3984 42.9 53.4984 42 52.3984 42ZM72.3984 38V50C72.3984 54.42 68.8184 58 64.3984 58H40.3984C35.9784 58 32.3984 54.42 32.3984 50V38C32.3984 33.58 35.9784 30 40.3984 30H64.3984C68.8184 30 72.3984 33.58 72.3984 38ZM58.3984 44C58.3984 40.7 55.6984 38 52.3984 38C49.0984 38 46.3984 40.7 46.3984 44C46.3984 47.3 49.0984 50 52.3984 50C55.6984 50 58.3984 47.3 58.3984 44Z" fill="#076AAB"/>
<path d="M60.3984 66H34.3984C28.8784 66 24.3984 61.52 24.3984 56V42C24.3984 40.9 25.2984 40 26.3984 40C27.4984 40 28.3984 40.9 28.3984 42V56C28.3984 59.3 31.0984 62 34.3984 62H60.3984C61.4984 62 62.3984 62.9 62.3984 64C62.3984 65.1 61.4984 66 60.3984 66Z" fill="#8BD500"/>
<defs>
<radialGradient id="paint0_radial_5579_3292" cx="0" cy="0" r="1" gradientUnits="userSpaceOnUse" gradientTransform="translate(48 48) rotate(90) scale(48)">
<stop stop-color="white"/>
<stop offset="0.33" stop-color="#F4FBFF"/>
<stop offset="0.66" stop-color="#EDF8FF"/>
<stop offset="1" stop-color="#DEF2FF"/>
</radialGradient>
</defs>
</svg>
