<svg width="96" height="96" viewBox="0 0 96 96" fill="none" xmlns="http://www.w3.org/2000/svg">
<path d="M0 24C0 10.7452 10.7452 0 24 0H72C85.2548 0 96 10.7452 96 24V72C96 85.2548 85.2548 96 72 96H24C10.7452 96 0 85.2548 0 72V24Z" fill="url(#paint0_radial_5579_3373)"/>
<g clip-path="url(#clip0_5579_3373)">
<path d="M67.7969 36C67.7969 39.738 66.1829 43.54 63.8549 47.094C58.9789 45.458 49.0569 42.128 44.1529 40.482C41.7549 39.678 39.4689 41.962 40.2749 44.36C41.7569 48.776 45.3969 59.612 46.8369 63.904L45.7949 64.648L44.6329 63.818C42.8249 62.526 38.1389 59.026 33.6569 54.39C27.1149 47.624 23.7969 41.438 23.7969 36C23.7969 29.382 29.1789 24 35.7969 24C38.7789 24 41.8169 25.34 44.1329 27.678C44.7609 28.312 45.3109 29 45.7849 29.722C48.0249 26.39 51.8369 24.002 55.7949 24.002C62.4129 24.002 67.7949 29.384 67.7949 36.002L67.7969 36Z" fill="#076AAB"/>
<path d="M61.5082 58.884L71.7102 69.086L68.8822 71.914L58.6782 61.71L53.8342 71.998L44.4922 44.698L71.7962 54.04L61.5082 58.884ZM61.5082 58.884L71.7102 69.086L68.8822 71.914L58.6782 61.71" fill="#8BD500"/>
</g>
<defs>
<radialGradient id="paint0_radial_5579_3373" cx="0" cy="0" r="1" gradientUnits="userSpaceOnUse" gradientTransform="translate(48 48) rotate(90) scale(48)">
<stop stop-color="white"/>
<stop offset="0.33" stop-color="#F4FBFF"/>
<stop offset="0.66" stop-color="#EDF8FF"/>
<stop offset="1" stop-color="#DEF2FF"/>
</radialGradient>
<clipPath id="clip0_5579_3373">
<rect width="48" height="48" fill="white" transform="translate(23.7969 24)"/>
</clipPath>
</defs>
</svg>
