<svg width="96" height="96" viewBox="0 0 96 96" fill="none" xmlns="http://www.w3.org/2000/svg">
<rect width="96" height="96" rx="24" fill="url(#paint0_radial_5629_2907)"/>
<g clip-path="url(#clip0_5629_2907)">
<path d="M70.6838 48.6898L55.2798 65.5078C51.4918 69.6438 46.1398 71.9998 40.5318 71.9998H32.0078C27.5898 71.9998 24.0078 68.4178 24.0078 63.9998V53.9998C24.0078 49.5818 27.5898 45.9998 32.0078 45.9998H47.5818C50.3298 45.9998 52.5018 48.5198 51.9098 51.3698C51.5258 53.2218 49.9018 54.5658 48.0298 54.8338L39.7058 55.9998C38.6118 56.1558 37.8518 57.1698 38.0098 58.2618C38.1658 59.3558 39.1798 60.1138 40.2718 59.9578L48.7758 58.7658C52.8998 58.1778 56.0098 54.5918 56.0098 50.4258C56.0098 49.9878 55.9458 49.5678 55.8798 49.1498L62.9618 41.6758C63.8718 40.6758 65.1558 40.0698 66.5498 40.0058C67.9338 39.9378 69.2758 40.4238 70.3058 41.3618C72.4098 43.2778 72.5818 46.5638 70.6838 48.6898Z" fill="#076AAB"/>
<path d="M48 24H36C32.692 24 30 26.692 30 30V36C30 39.308 32.692 42 36 42H48C51.308 42 54 39.308 54 36V30C54 26.692 51.308 24 48 24ZM44 32H40C38.896 32 38 31.106 38 30C38 28.894 38.896 28 40 28H44C45.104 28 46 28.894 46 30C46 31.106 45.104 32 44 32Z" fill="#8BD500"/>
</g>
<defs>
<radialGradient id="paint0_radial_5629_2907" cx="0" cy="0" r="1" gradientUnits="userSpaceOnUse" gradientTransform="translate(48 48) rotate(90) scale(48)">
<stop stop-color="white"/>
<stop offset="0.33" stop-color="#F4FBFF"/>
<stop offset="0.66" stop-color="#EDF8FF"/>
<stop offset="1" stop-color="#DEF2FF"/>
</radialGradient>
<clipPath id="clip0_5629_2907">
<rect width="48" height="48" fill="white" transform="translate(24 24)"/>
</clipPath>
</defs>
</svg>
