<svg width="64" height="64" viewBox="0 0 64 64" fill="none" xmlns="http://www.w3.org/2000/svg">
<rect width="64" height="64" rx="24" fill="#2A8FD2" fill-opacity="0.24"/>
<g clip-path="url(#clip0_5476_13021)">
<path d="M32 25.3333V16.6133C33.2173 17.0747 34.3373 17.7853 35.2867 18.7333L39.932 23.3813C40.8813 24.3293 41.592 25.4493 42.0533 26.6667H33.3333C32.5973 26.6667 32 26.068 32 25.3333ZM29.3333 40C29.3333 34.1187 34.1187 29.3333 40 29.3333H33.3333C31.128 29.3333 29.3333 27.5387 29.3333 25.3333V16.032C29.1187 16.0173 28.904 16 28.6867 16H22.6667C18.9907 16 16 18.9907 16 22.6667V41.3333C16 45.0093 18.9907 48 22.6667 48H32.968C30.7453 46.044 29.3333 43.1867 29.3333 40Z" fill="#2A8FD2"/>
<path d="M40 32C35.5813 32 32 35.5813 32 40C32 44.4187 35.5813 48 40 48C44.4187 48 48 44.4187 48 40C48 35.5813 44.4187 32 40 32ZM43.9093 39.2787C43.728 39.716 43.3013 40 42.8267 40H41.332V44C41.332 44.736 40.736 45.3333 39.9987 45.3333C39.2613 45.3333 38.6653 44.736 38.6653 44V40H37.1707C36.6973 40 36.2693 39.716 36.088 39.2787C35.904 38.84 36.0053 38.3373 36.3413 38.0027L38.3413 36.0027C39.2547 35.0893 40.7413 35.0893 41.6547 36.0027L43.6547 38.0027C43.992 38.3387 44.0907 38.8453 43.9093 39.2787Z" fill="#BFFB4F"/>
</g>
<defs>
<clipPath id="clip0_5476_13021">
<rect width="32" height="32" fill="white" transform="translate(16 16)"/>
</clipPath>
</defs>
</svg>
