<svg width="64" height="64" viewBox="0 0 64 64" fill="none" xmlns="http://www.w3.org/2000/svg">
<rect width="64" height="64" rx="24" fill="#2A8FD2" fill-opacity="0.24"/>
<g clip-path="url(#clip0_5476_13087)">
<path d="M44 24H40C40 21.8783 39.1571 19.8434 37.6569 18.3431C36.1566 16.8429 34.1217 16 32 16C29.8783 16 27.8434 16.8429 26.3431 18.3431C24.8429 19.8434 24 21.8783 24 24H20C18.9391 24 17.9217 24.4214 17.1716 25.1716C16.4214 25.9217 16 26.9391 16 28V41.3333C16.0021 43.1008 16.7052 44.7953 17.955 46.045C19.2047 47.2948 20.8992 47.9979 22.6667 48H38.248C37.3211 47.3975 36.5291 46.6094 35.922 45.6854C35.3149 44.7615 34.906 43.7217 34.7209 42.6318C34.5358 41.5419 34.5786 40.4254 34.8467 39.3528C35.1147 38.2803 35.6022 37.2749 36.2782 36.4002C36.9543 35.5255 37.8044 34.8004 38.7747 34.2707C39.7451 33.7409 40.8147 33.4181 41.9161 33.3225C43.0175 33.2269 44.1268 33.3606 45.1739 33.7152C46.221 34.0698 47.1833 34.6375 48 35.3827V28C48 26.9391 47.5786 25.9217 46.8284 25.1716C46.0783 24.4214 45.0609 24 44 24ZM26.6667 24C26.6667 22.5855 27.2286 21.229 28.2288 20.2288C29.229 19.2286 30.5855 18.6667 32 18.6667C33.4145 18.6667 34.771 19.2286 35.7712 20.2288C36.7714 21.229 37.3333 22.5855 37.3333 24H26.6667Z" fill="#2A8FD2"/>
<path d="M46.6654 40H43.9987V37.3333C43.9987 36.9797 43.8582 36.6406 43.6082 36.3905C43.3581 36.1405 43.019 36 42.6654 36C42.3117 36 41.9726 36.1405 41.7226 36.3905C41.4725 36.6406 41.332 36.9797 41.332 37.3333V40H38.6654C38.3117 40 37.9726 40.1405 37.7226 40.3905C37.4725 40.6406 37.332 40.9797 37.332 41.3333C37.332 41.687 37.4725 42.0261 37.7226 42.2761C37.9726 42.5262 38.3117 42.6667 38.6654 42.6667H41.332V45.3333C41.332 45.687 41.4725 46.0261 41.7226 46.2761C41.9726 46.5262 42.3117 46.6667 42.6654 46.6667C43.019 46.6667 43.3581 46.5262 43.6082 46.2761C43.8582 46.0261 43.9987 45.687 43.9987 45.3333V42.6667H46.6654C47.019 42.6667 47.3581 42.5262 47.6082 42.2761C47.8582 42.0261 47.9987 41.687 47.9987 41.3333C47.9987 40.9797 47.8582 40.6406 47.6082 40.3905C47.3581 40.1405 47.019 40 46.6654 40Z" fill="#BFFB4F"/>
</g>
<defs>
<clipPath id="clip0_5476_13087">
<rect width="32" height="32" fill="white" transform="translate(16 16)"/>
</clipPath>
</defs>
</svg>
