<svg width="96" height="96" viewBox="0 0 96 96" fill="none" xmlns="http://www.w3.org/2000/svg">
<path d="M0 24C0 10.7452 10.7452 0 24 0H72C85.2548 0 96 10.7452 96 24V72C96 85.2548 85.2548 96 72 96H24C10.7452 96 0 85.2548 0 72V24Z" fill="url(#paint0_radial_5447_10120)"/>
<g clip-path="url(#clip0_5447_10120)">
<path d="M46 24H30C28.4087 24 26.8826 24.6321 25.7574 25.7574C24.6321 26.8826 24 28.4087 24 30V72H52V30C52 28.4087 51.3679 26.8826 50.2426 25.7574C49.1174 24.6321 47.5913 24 46 24ZM36 62H30V58H36V62ZM36 54H30V50H36V54ZM36 46H30V42H36V46ZM36 38H30V34H36V38ZM46 62H40V58H46V62ZM46 54H40V50H46V54ZM46 46H40V42H46V46ZM46 38H40V34H46V38Z" fill="#076AAB"/>
<path d="M66 34.0005H56V72.0005H72V40.0005C72 38.4092 71.3679 36.8831 70.2426 35.7578C69.1174 34.6326 67.5913 34.0005 66 34.0005ZM66 62.0005H62V58.0005H66V62.0005ZM66 54.0005H62V50.0005H66V54.0005ZM66 46.0005H62V42.0005H66V46.0005Z" fill="#8BD500"/>
</g>
<defs>
<radialGradient id="paint0_radial_5447_10120" cx="0" cy="0" r="1" gradientUnits="userSpaceOnUse" gradientTransform="translate(48 48) rotate(90) scale(48)">
<stop stop-color="white"/>
<stop offset="0.33" stop-color="#F4FBFF"/>
<stop offset="0.66" stop-color="#EDF8FF"/>
<stop offset="1" stop-color="#DEF2FF"/>
</radialGradient>
<clipPath id="clip0_5447_10120">
<rect width="48" height="48" fill="white" transform="translate(24 24)"/>
</clipPath>
</defs>
</svg>
