<svg width="96" height="96" viewBox="0 0 96 96" fill="none" xmlns="http://www.w3.org/2000/svg">
<rect width="96" height="96" rx="24" fill="url(#paint0_radial_5447_10052)"/>
<path d="M46 59C46.0025 56.4529 46.7532 53.9626 48.1589 51.8385C49.5646 49.7143 51.5634 48.05 53.9069 47.052C56.2504 46.0541 58.8354 45.7667 61.3409 46.2253C63.8464 46.684 66.162 47.8686 68 49.632V30C68 28.4087 67.3679 26.8826 66.2426 25.7574C65.1174 24.6321 63.5913 24 62 24H38C35.3488 24.0032 32.8071 25.0578 30.9324 26.9324C29.0578 28.8071 28.0032 31.3488 28 34V62C28.0032 64.6512 29.0578 67.1929 30.9324 69.0676C32.8071 70.9422 35.3488 71.9968 38 72H59C55.5522 72 52.2456 70.6304 49.8076 68.1924C47.3696 65.7544 46 62.4478 46 59ZM38 38C38 37.4696 38.2107 36.9609 38.5858 36.5858C38.9609 36.2107 39.4696 36 40 36H56C56.5304 36 57.0391 36.2107 57.4142 36.5858C57.7893 36.9609 58 37.4696 58 38C58 38.5304 57.7893 39.0391 57.4142 39.4142C57.0391 39.7893 56.5304 40 56 40H40C39.4696 40 38.9609 39.7893 38.5858 39.4142C38.2107 39.0391 38 38.5304 38 38Z" fill="#076AAB"/>
<path d="M71.414 71.414C71.039 71.7889 70.5303 71.9996 70 71.9996C69.4697 71.9996 68.9611 71.7889 68.586 71.414L63.772 66.6C62.3464 67.5099 60.6913 67.9955 59 68C57.22 68 55.4799 67.4722 53.9999 66.4832C52.5198 65.4943 51.3663 64.0887 50.6851 62.4442C50.0039 60.7996 49.8257 58.99 50.1729 57.2442C50.5202 55.4984 51.3774 53.8947 52.636 52.636C53.8947 51.3774 55.4984 50.5202 57.2442 50.1729C58.99 49.8257 60.7996 50.0039 62.4442 50.6851C64.0887 51.3663 65.4943 52.5198 66.4832 53.9999C67.4722 55.4799 68 57.22 68 59C67.9955 60.6913 67.5099 62.3464 66.6 63.772L71.414 68.586C71.7889 68.9611 71.9996 69.4697 71.9996 70C71.9996 70.5303 71.7889 71.0389 71.414 71.414Z" fill="#8BD500"/>
<defs>
<radialGradient id="paint0_radial_5447_10052" cx="0" cy="0" r="1" gradientUnits="userSpaceOnUse" gradientTransform="translate(48 48) rotate(90) scale(48)">
<stop stop-color="white"/>
<stop offset="0.33" stop-color="#F4FBFF"/>
<stop offset="0.66" stop-color="#EDF8FF"/>
<stop offset="1" stop-color="#DEF2FF"/>
</radialGradient>
</defs>
</svg>
