<svg width="96" height="96" viewBox="0 0 96 96" fill="none" xmlns="http://www.w3.org/2000/svg">
<path d="M0 24C0 10.7452 10.7452 0 24 0H72C85.2548 0 96 10.7452 96 24V72C96 85.2548 85.2548 96 72 96H24C10.7452 96 0 85.2548 0 72V24Z" fill="url(#paint0_radial_5447_10134)"/>
<g clip-path="url(#clip0_5447_10134)">
<path d="M61.7969 24H53.7969C48.2829 24 43.7969 28.486 43.7969 34V36.612C45.4349 37.102 47.0089 37.866 48.4209 38.97L54.4249 43.672C57.8389 46.344 59.7969 50.364 59.7969 54.696V60C59.7969 58.894 60.6909 58 61.7969 58H63.7969C64.9029 58 65.7969 58.894 65.7969 60C65.7969 61.106 64.9029 62 63.7969 62H61.7969C60.6909 62 59.7969 61.106 59.7969 60V63C59.7969 66.492 58.4049 69.662 56.1549 72H61.7969C67.3109 72 71.7969 67.514 71.7969 62V34C71.7969 28.486 67.3109 24 61.7969 24ZM53.7969 38H51.7969C50.6909 38 49.7969 37.106 49.7969 36C49.7969 34.894 50.6909 34 51.7969 34H53.7969C54.9029 34 55.7969 34.894 55.7969 36C55.7969 37.106 54.9029 38 53.7969 38ZM63.7969 54H61.7969C60.6909 54 59.7969 53.106 59.7969 52C59.7969 50.894 60.6909 50 61.7969 50H63.7969C64.9029 50 65.7969 50.894 65.7969 52C65.7969 53.106 64.9029 54 63.7969 54ZM63.7969 46H61.7969C60.6909 46 59.7969 45.106 59.7969 44C59.7969 42.894 60.6909 42 61.7969 42H63.7969C64.9029 42 65.7969 42.894 65.7969 44C65.7969 45.106 64.9029 46 63.7969 46ZM63.7969 38H61.7969C60.6909 38 59.7969 37.106 59.7969 36C59.7969 34.894 60.6909 34 61.7969 34H63.7969C64.9029 34 65.7969 34.894 65.7969 36C65.7969 37.106 64.9029 38 63.7969 38Z" fill="#076AAB"/>
<path d="M51.9628 46.8199L45.9628 42.1219C42.3348 39.2859 37.2668 39.2839 33.6388 42.1219L27.6388 46.8179C25.1988 48.7279 23.8008 51.5979 23.8008 54.6939V62.9979C23.8008 67.9599 27.8388 71.9979 32.8008 71.9979H46.8008C51.7628 71.9979 55.8008 67.9599 55.8008 62.9979V54.6939C55.8008 51.5979 54.4028 48.7319 51.9628 46.8199ZM43.8008 59.9999C43.8008 61.1039 42.9048 61.9999 41.8008 61.9999H37.8008C36.6968 61.9999 35.8008 61.1039 35.8008 59.9999V55.9999C35.8008 54.8959 36.6968 53.9999 37.8008 53.9999H41.8008C42.9048 53.9999 43.8008 54.8959 43.8008 55.9999V59.9999Z" fill="#8BD500"/>
</g>
<defs>
<radialGradient id="paint0_radial_5447_10134" cx="0" cy="0" r="1" gradientUnits="userSpaceOnUse" gradientTransform="translate(48 48) rotate(90) scale(48)">
<stop stop-color="white"/>
<stop offset="0.33" stop-color="#F4FBFF"/>
<stop offset="0.66" stop-color="#EDF8FF"/>
<stop offset="1" stop-color="#DEF2FF"/>
</radialGradient>
<clipPath id="clip0_5447_10134">
<rect width="48" height="48" fill="white" transform="translate(23.8008 24)"/>
</clipPath>
</defs>
</svg>
