<svg width="96" height="96" viewBox="0 0 96 96" fill="none" xmlns="http://www.w3.org/2000/svg">
<rect width="96" height="96" rx="24" fill="url(#paint0_radial_5447_10060)"/>
<g clip-path="url(#clip0_5447_10060)">
<path d="M59.9014 28.0327C60.6768 28.6095 61.4144 29.2455 62.106 29.937C65.8479 33.6789 67.9531 38.753 67.9595 44.0449C67.9591 49.185 63.979 57.2291 56.1294 67.9526C55.1949 69.2328 53.9711 70.2742 52.5581 70.9922C51.145 71.7102 49.5816 72.085 47.9966 72.085C46.4118 72.0849 44.8494 71.7101 43.4365 70.9922C42.0235 70.2742 40.7997 69.2328 39.8652 67.9526C33.0831 58.6875 29.1916 51.4221 28.2578 46.3022L42.8579 37.8735C42.6798 38.023 42.5061 38.1784 42.3408 38.3438C41.222 39.4626 40.4596 40.8876 40.1509 42.4395C39.8422 43.9911 40.0011 45.5993 40.6064 47.061C41.2119 48.5226 42.2369 49.7723 43.5522 50.6514C44.8677 51.5303 46.4145 52.0004 47.9966 52.0005C50.1183 52.0005 52.1535 51.157 53.6538 49.6567C55.1541 48.1565 55.9976 46.1212 55.9976 43.9995C55.9974 42.4175 55.5274 40.8706 54.6484 39.5552C53.7694 38.2399 52.5197 37.2148 51.0581 36.6094C49.5964 36.004 47.9882 35.8452 46.4365 36.1538C46.0407 36.2325 45.6527 36.34 45.2764 36.4761L59.9014 28.0327Z" fill="#076AAB"/>
<path d="M48.0005 24.0835C52.3147 24.0882 56.4844 25.4884 59.9053 28.0327L45.2803 36.4761C44.3991 36.7947 43.5817 37.2697 42.8618 37.8735L28.2617 46.3022C28.1147 45.4964 28.0391 44.744 28.0391 44.0449C28.0454 38.753 30.1505 33.6789 33.8926 29.937C37.6347 26.1952 42.7086 24.0895 48.0005 24.0835Z" fill="#8BD500"/>
</g>
<defs>
<radialGradient id="paint0_radial_5447_10060" cx="0" cy="0" r="1" gradientUnits="userSpaceOnUse" gradientTransform="translate(48 48) rotate(90) scale(48)">
<stop stop-color="white"/>
<stop offset="0.33" stop-color="#F4FBFF"/>
<stop offset="0.66" stop-color="#EDF8FF"/>
<stop offset="1" stop-color="#DEF2FF"/>
</radialGradient>
<clipPath id="clip0_5447_10060">
<rect width="48" height="48" fill="white" transform="translate(24 24)"/>
</clipPath>
</defs>
</svg>
