<svg width="96" height="96" viewBox="0 0 96 96" fill="none" xmlns="http://www.w3.org/2000/svg">
<rect width="96" height="96" rx="24" fill="url(#paint0_radial_5343_1982)"/>
<path d="M55.217 33.7272L54.0179 48.1167C53.9525 48.9122 53.2372 49.4769 52.5004 49.4007C51.7258 49.3375 51.1518 48.6577 51.2164 47.8832L52.6028 31.2416C52.6713 30.4219 52.0243 29.7188 51.2015 29.7188H45.5947C44.7721 29.7188 44.1249 30.4219 44.1934 31.2417L45.5804 47.8833C45.6449 48.6578 45.0709 49.3362 44.2964 49.4008C43.5612 49.4768 42.8445 48.9145 42.7789 48.1168L41.5794 33.7275C40.6328 34.0524 39.731 34.4617 38.8545 34.9088L39.9361 47.8834C40.0006 48.6579 39.4266 49.3363 38.6521 49.4009C37.9169 49.4769 37.2002 48.9146 37.1346 48.1169L36.1702 36.5478C30.7571 40.4183 27.2109 46.7048 27.2109 53.625C27.2109 54.4009 26.5806 55.0312 25.8047 55.0312H70.9922C70.2163 55.0312 69.5859 54.4009 69.5859 53.625C69.5859 46.7048 66.0399 40.4184 60.6267 36.5476L59.6621 48.1167C59.5967 48.9122 58.8814 49.4769 58.1446 49.4007C57.37 49.3362 56.796 48.6564 56.8606 47.8832L57.9424 34.9087C57.0658 34.4616 56.1638 34.0522 55.217 33.7272Z" fill="#076AAB"/>
<path d="M24.3984 59.25C24.3984 59.7829 24.6992 60.269 25.1757 60.5079C25.6467 60.7442 36.9479 66.2812 48.3984 66.2812C59.849 66.2812 71.1502 60.7441 71.6212 60.5079C72.0977 60.269 72.3984 59.7829 72.3984 59.25C72.3984 58.4734 71.7688 57.8438 70.9922 57.8438H25.8047C25.0281 57.8438 24.3984 58.4734 24.3984 59.25Z" fill="#8BD500"/>
<defs>
<radialGradient id="paint0_radial_5343_1982" cx="0" cy="0" r="1" gradientUnits="userSpaceOnUse" gradientTransform="translate(48 48) rotate(90) scale(48)">
<stop stop-color="white"/>
<stop offset="0.33" stop-color="#F4FBFF"/>
<stop offset="0.66" stop-color="#EDF8FF"/>
<stop offset="1" stop-color="#DEF2FF"/>
</radialGradient>
</defs>
</svg>
