<svg width="96" height="96" viewBox="0 0 96 96" fill="none" xmlns="http://www.w3.org/2000/svg">
<rect width="96" height="96" rx="24" fill="url(#paint0_radial_5629_2933)"/>
<g clip-path="url(#clip0_5629_2933)">
<path d="M71.7988 51C71.7988 51.6566 71.6695 52.3068 71.4182 52.9134C71.167 53.52 70.7987 54.0712 70.3344 54.5355C69.8701 54.9998 69.3189 55.3681 68.7122 55.6194C68.1056 55.8707 67.4554 56 66.7988 56H58.7268L50.2748 68.974C49.7547 69.8967 48.9974 70.6638 48.0815 71.1958C47.1655 71.7277 46.1241 72.0054 45.0648 72C44.215 72.0002 43.3777 71.7945 42.6247 71.4003C41.8718 71.0061 41.2256 70.4353 40.7416 69.7367C40.2575 69.0382 39.95 68.2327 39.8454 67.3893C39.7407 66.5459 39.8421 65.6897 40.1408 64.894L43.8368 56H35.7988C34.3886 56.0001 33.0034 55.6274 31.7835 54.9197C30.5637 54.212 29.5527 53.1944 28.8528 51.97L24.1988 44.32C24 43.9898 23.8693 43.6231 23.8145 43.2415C23.7597 42.8599 23.7819 42.4713 23.8797 42.0984C23.9776 41.7256 24.1492 41.3761 24.3843 41.0707C24.6195 40.7652 24.9134 40.51 25.2488 40.32C25.7811 40.0409 26.3885 39.9389 26.9827 40.0289C27.5769 40.1188 28.127 40.3959 28.5528 40.82L31.3868 43.656C32.8868 45.1564 34.9213 45.9995 37.0428 46H66.7988C67.4554 46 68.1056 46.1293 68.7122 46.3806C69.3189 46.6319 69.8701 47.0002 70.3344 47.4645C70.7987 47.9288 71.167 48.48 71.4182 49.0866C71.6695 49.6932 71.7988 50.3434 71.7988 51Z" fill="#076AAB"/>
<path d="M59.2594 42.0001L50.2594 27.0261C49.7399 26.1041 48.9837 25.3375 48.0688 24.8055C47.154 24.2736 46.1137 23.9955 45.0554 24.0001C44.2057 24.0003 43.3687 24.2064 42.616 24.6007C41.8633 24.995 41.2174 25.5658 40.7334 26.2642C40.2495 26.9626 39.9419 27.7679 39.8371 28.6111C39.7322 29.4543 39.8332 30.3104 40.1314 31.1061L44.3674 42.0001H59.2594Z" fill="#8BD500"/>
</g>
<defs>
<radialGradient id="paint0_radial_5629_2933" cx="0" cy="0" r="1" gradientUnits="userSpaceOnUse" gradientTransform="translate(48 48) rotate(90) scale(48)">
<stop stop-color="white"/>
<stop offset="0.33" stop-color="#F4FBFF"/>
<stop offset="0.66" stop-color="#EDF8FF"/>
<stop offset="1" stop-color="#DEF2FF"/>
</radialGradient>
<clipPath id="clip0_5629_2933">
<rect width="48" height="48" fill="white" transform="translate(23.8008 24)"/>
</clipPath>
</defs>
</svg>
