<svg width="96" height="96" viewBox="0 0 96 96" fill="none" xmlns="http://www.w3.org/2000/svg">
<rect width="96" height="96" rx="24" fill="url(#paint0_radial_5579_3355)"/>
<g clip-path="url(#clip0_5579_3355)">
<path d="M50.4492 30V26C50.4492 25.4696 50.6599 24.9609 51.035 24.5858C51.4101 24.2107 51.9188 24 52.4492 24C52.9796 24 53.4883 24.2107 53.8634 24.5858C54.2385 24.9609 54.4492 25.4696 54.4492 26V30C54.4492 30.5304 54.2385 31.0391 53.8634 31.4142C53.4883 31.7893 52.9796 32 52.4492 32C51.9188 32 51.4101 31.7893 51.035 31.4142C50.6599 31.0391 50.4492 30.5304 50.4492 30ZM44.4492 32C44.9796 32 45.4883 31.7893 45.8634 31.4142C46.2385 31.0391 46.4492 30.5304 46.4492 30V26C46.4492 25.4696 46.2385 24.9609 45.8634 24.5858C45.4883 24.2107 44.9796 24 44.4492 24C43.9188 24 43.4101 24.2107 43.035 24.5858C42.6599 24.9609 42.4492 25.4696 42.4492 26V30C42.4492 30.5304 42.6599 31.0391 43.035 31.4142C43.4101 31.7893 43.9188 32 44.4492 32ZM36.4492 32C36.9796 32 37.4883 31.7893 37.8634 31.4142C38.2385 31.0391 38.4492 30.5304 38.4492 30V26C38.4492 25.4696 38.2385 24.9609 37.8634 24.5858C37.4883 24.2107 36.9796 24 36.4492 24C35.9188 24 35.4101 24.2107 35.035 24.5858C34.6599 24.9609 34.4492 25.4696 34.4492 26V30C34.4492 30.5304 34.6599 31.0391 35.035 31.4142C35.4101 31.7893 35.9188 32 36.4492 32ZM72.3992 50.286C72.3336 52.3606 71.4607 54.3277 69.9666 55.7685C68.4724 57.2092 66.4748 58.0099 64.3992 58H59.4492C58.1755 59.8668 56.4613 61.391 54.4582 62.4375C52.4552 63.484 50.2251 64.0207 47.9652 64H40.8312C38.5332 64.023 36.266 63.4698 34.2369 62.3909C32.2077 61.312 30.4813 59.7419 29.2152 57.824C26.3832 53.306 19.4932 36.742 30.3992 36H58.3992C59.353 36.0259 60.2879 36.2716 61.1313 36.7179C61.9746 37.1643 62.7035 37.7992 63.2612 38.5734C63.819 39.3475 64.1906 40.2399 64.347 41.1812C64.5035 42.1224 64.4406 43.0871 64.1632 44C69.1052 44 72.3992 46.41 72.3992 50.286ZM68.3992 50.286C68.5752 48.432 65.8992 47.838 63.4832 48C63.0362 50.0553 62.3974 52.064 61.5752 54H64.3992C65.4145 54.0103 66.3952 53.6309 67.1392 52.94C67.8833 52.2491 68.3343 51.2993 68.3992 50.286Z" fill="#076AAB"/>
<path d="M62.3984 68H26.3984C25.868 68 25.3593 68.2107 24.9842 68.5858C24.6092 68.9609 24.3984 69.4696 24.3984 70C24.3984 70.5304 24.6092 71.0391 24.9842 71.4142C25.3593 71.7893 25.868 72 26.3984 72H62.3984C62.9289 72 63.4376 71.7893 63.8127 71.4142C64.1877 71.0391 64.3984 70.5304 64.3984 70C64.3984 69.4696 64.1877 68.9609 63.8127 68.5858C63.4376 68.2107 62.9289 68 62.3984 68Z" fill="#8BD500"/>
</g>
<defs>
<radialGradient id="paint0_radial_5579_3355" cx="0" cy="0" r="1" gradientUnits="userSpaceOnUse" gradientTransform="translate(48 48) rotate(90) scale(48)">
<stop stop-color="white"/>
<stop offset="0.33" stop-color="#F4FBFF"/>
<stop offset="0.66" stop-color="#EDF8FF"/>
<stop offset="1" stop-color="#DEF2FF"/>
</radialGradient>
<clipPath id="clip0_5579_3355">
<rect width="48" height="48" fill="white" transform="translate(24.3984 24)"/>
</clipPath>
</defs>
</svg>
