<svg width="24" height="24" viewBox="0 0 24 24" fill="none" xmlns="http://www.w3.org/2000/svg">
<path d="M22.6633 2.72276C22.6633 2.72276 21.4982 1.55726 20.5869 0.646055C19.7254 -0.215227 18.3239 -0.215414 17.4624 0.646055L6.46289 11.6464L11.92 17.1034C12.5078 17.6913 12.8497 18.4331 12.9472 19.2002L15.1322 17.0146C15.2641 16.8828 15.3382 16.7039 15.3382 16.5175V14.9613H16.1412C16.5295 14.9613 16.8443 14.6464 16.8443 14.2581V12.7019H17.6475C18.0358 12.7019 18.3506 12.3871 18.3506 11.9988V10.4426H19.1536C19.542 10.4426 19.8568 10.1277 19.8568 9.73943V8.18323H20.6599C21.0482 8.18323 21.363 7.86841 21.363 7.4801V5.92395H22.1661C22.5544 5.92395 22.8692 5.60913 22.8692 5.22082V3.21982C22.8692 3.0334 22.7951 2.85462 22.6633 2.72276Z" fill="#2A8FD2"/>
<path d="M5.46718 12.6408L1.77493 16.3331C0.913551 17.1946 0.913551 18.5962 1.77502 19.4577L5.66963 23.3523C6.53236 24.2151 7.92989 24.2167 8.79413 23.3524L10.9243 21.2223C10.9243 21.2223 10.9244 21.2223 10.9244 21.2222C11.7858 20.3609 11.7858 18.9593 10.9243 18.0977C9.19407 16.3677 5.46718 12.6408 5.46718 12.6408ZM7.72932 20.1572C7.45477 20.4318 7.0095 20.4318 6.735 20.1572L4.97011 18.3926C4.69552 18.118 4.69547 17.6729 4.97002 17.3982C5.24457 17.1236 5.68979 17.1236 5.96433 17.3981L7.72922 19.1628C8.00382 19.4374 8.00386 19.8826 7.72932 20.1572Z" fill="#BFFB4F"/>
</svg>
