<svg width="24" height="24" viewBox="0 0 24 24" fill="none" xmlns="http://www.w3.org/2000/svg">
<g clip-path="url(#clip0_5944_12822)">
<path d="M11.9983 1.30304C12.9945 0.670635 15.6009 -0.648056 18.7701 0.378372C20.4391 0.919025 21.77 2.32531 22.4219 4.23663C23.279 6.74983 22.8495 9.64956 21.2723 11.9933C20.2139 13.5663 19.523 15.3385 19.2751 17.1183C19.2613 17.2172 19.2481 17.3183 19.2349 17.4213C18.9958 19.2952 18.6436 20.7994 18.1881 21.8918C17.6422 23.2007 16.9376 23.9075 16.0943 23.9928C16.0465 23.9976 15.999 24 15.952 24C15.1218 24 14.4284 23.2479 13.889 21.7612C13.4904 20.6626 13.1759 19.1905 13.0039 17.6161C12.9078 16.736 12.683 16.0232 12.3538 15.5553C12.2364 15.3884 12.066 15.3706 11.9983 15.3706C11.9306 15.3706 11.7608 15.3887 11.6434 15.5553C11.3142 16.0232 11.0889 16.736 10.9927 17.6161C10.8208 19.1905 10.5069 20.6626 10.1083 21.7612C9.53821 23.3321 8.79611 24.0829 7.90234 23.9928C7.05913 23.9076 6.35498 23.2006 5.80915 21.8918C5.35362 20.7994 5.00141 19.2951 4.76228 17.4213C4.74859 17.3143 4.7342 17.2096 4.71987 17.1072C4.47154 15.3304 3.78309 13.5637 2.72824 11.9983C2.52668 11.6993 2.34356 11.3912 2.17969 11.0759L11.9699 1.28574C11.9794 1.29172 11.9891 1.29717 11.9983 1.30304Z" fill="#2A8FD2"/>
<path d="M5.22606 0.378351C8.36609 -0.6387 10.9536 0.646826 11.9699 1.28572L2.17974 11.0765C1.05907 8.92093 0.825694 6.43301 1.57315 4.23884C2.22474 2.3264 3.55634 0.919273 5.22606 0.378351Z" fill="#BFFB4F"/>
</g>
<defs>
<clipPath id="clip0_5944_12822">
<rect width="24" height="24" fill="white"/>
</clipPath>
</defs>
</svg>
