<svg width="24" height="24" viewBox="0 0 24 24" fill="none" xmlns="http://www.w3.org/2000/svg">
<g clip-path="url(#clip0_5944_12827)">
<path d="M9.91304 7.19989H6.91967L9.42901 11.3825C9.54091 11.5689 9.6002 11.7826 9.6002 12C9.6002 14.6509 7.45102 16.8 4.8001 16.8001C2.14913 16.8001 1.34456e-07 14.6509 0 12C0 11.7826 0.0592957 11.5689 0.171196 11.3825L3.77089 5.38247C3.98776 5.02105 4.37861 4.80009 4.8001 4.80009H9.91304V7.19989Z" fill="#BFFB4F"/>
<path d="M12 0C12.6627 1.34446e-07 13.1998 0.537209 13.1999 1.1999V3.9212C13.5642 4.13196 13.8681 4.43575 14.0788 4.8001H19.1999C19.6214 4.8001 20.0123 5.02105 20.2291 5.38247L23.8288 11.3825C23.9406 11.569 24 11.7826 24 12C24 14.6509 21.8508 16.8001 19.1999 16.8001C16.549 16.8 14.3998 14.6509 14.3998 12C14.3998 11.7826 14.4592 11.569 14.571 11.3825L17.0803 7.1999H14.0788C13.8681 7.56425 13.5642 7.86804 13.1999 8.0788V21.6002H16.8001C17.4628 21.6003 18 22.1374 18 22.8001C17.9999 23.4628 17.4628 23.9999 16.8001 24H7.1999C6.53724 23.9999 6.00006 23.4628 6 22.8001C6 22.1374 6.53721 21.6003 7.1999 21.6002H10.8001V8.0788C10.4358 7.86804 10.1319 7.56425 9.9212 7.1999H9.91304V4.8001H9.9212C10.1319 4.43575 10.4358 4.13196 10.8001 3.9212V1.1999C10.8002 0.537209 11.3373 0 12 0Z" fill="#2A8FD2"/>
</g>
<defs>
<clipPath id="clip0_5944_12827">
<rect width="24" height="24" fill="white"/>
</clipPath>
</defs>
</svg>
