<svg width="48" height="48" viewBox="0 0 48 48" fill="none" xmlns="http://www.w3.org/2000/svg">
<path d="M0 16C0 7.16344 7.16344 0 16 0H32C40.8366 0 48 7.16344 48 16V32C48 40.8366 40.8366 48 32 48H16C7.16344 48 0 40.8366 0 32V16Z" fill="#2A8FD2" fill-opacity="0.24"/>
<g clip-path="url(#clip0_5447_772)">
<path d="M29.501 12.917C31.296 12.995 32.9872 13.7806 34.2051 15.1016C35.4229 16.4225 36.0687 18.1715 36.001 19.9668C36.001 26.7418 25.0451 34.5694 24.5791 34.8994L24.001 35.3076L23.4229 34.8994C23.0876 34.6606 17.3237 30.5434 14.1152 25.7295L23.8613 15.9834C23.9085 16.0607 23.957 16.1373 24.001 16.2168C24.5463 15.2315 25.342 14.4075 26.3076 13.8281C27.2733 13.2487 28.3749 12.9345 29.501 12.917Z" fill="#2A8FD2"/>
<path d="M18.5009 12.917C19.6269 12.9345 20.7286 13.2487 21.6943 13.8281C22.582 14.3608 23.3233 15.102 23.8613 15.9834L14.1152 25.7295C12.8637 23.8518 12.0009 21.8679 12.0009 19.9668C11.9332 18.1714 12.579 16.4225 13.7968 15.1016C15.0147 13.7806 16.7059 12.995 18.5009 12.917Z" fill="#BFFB4F"/>
</g>
<defs>
<clipPath id="clip0_5447_772">
<rect width="24" height="24" fill="white" transform="translate(12 12)"/>
</clipPath>
</defs>
</svg>
