<svg width="48" height="48" viewBox="0 0 48 48" fill="none" xmlns="http://www.w3.org/2000/svg">
<path d="M0 16C0 7.16344 7.16344 0 16 0H32C40.8366 0 48 7.16344 48 16V32C48 40.8366 40.8366 48 32 48H16C7.16344 48 0 40.8366 0 32V16Z" fill="#2A8FD2" fill-opacity="0.24"/>
<g clip-path="url(#clip0_5447_765)">
<path d="M30.7216 12.2683C32.1945 11.7133 33.7684 12.052 34.8574 13.1418C35.9484 14.2318 36.2875 15.805 35.7435 17.2469L28.9133 33.7037C28.3023 35.3247 26.9013 35.9987 25.5933 35.9987C25.3645 35.9987 25.1387 35.9783 24.9199 35.9383C23.453 35.6714 21.9733 34.4752 21.9731 32.4065V26.0117H21.9551V15.9002L30.7216 12.2683Z" fill="#2A8FD2"/>
<path d="M21.9561 26.0124H15.5947C13.5237 26.0134 12.3271 24.5317 12.0601 23.0637C11.7932 21.5969 12.3915 19.7914 14.3281 19.0613L21.9561 15.9009V26.0124Z" fill="#BFFB4F"/>
</g>
<defs>
<clipPath id="clip0_5447_765">
<rect width="24" height="24" fill="white" transform="translate(12 12)"/>
</clipPath>
</defs>
</svg>
