<svg width="48" height="46" viewBox="0 0 48 46" fill="none" xmlns="http://www.w3.org/2000/svg">
<path d="M11.6221 13.6932L7.38044 14.9367C4.59331 15.7548 2.2812 17.7119 1.01385 20.3256C-0.232513 22.9039 -0.334227 25.888 0.733631 28.5451C0.747915 28.5819 0.766321 28.6167 0.780701 28.6536L4.29833 28.0788C7.61388 27.2153 10.6457 25.4992 13.0925 23.101C13.9 22.3104 15.1957 22.3241 15.9864 23.1316C16.777 23.9392 16.7633 25.2349 15.9557 26.0256C12.9442 28.9651 9.20785 31.0545 5.12662 32.0813L2.72967 32.4781C4.1089 34.7195 5.81887 36.7398 7.80168 38.4704L12.0003 36.912L14.8636 35.4804C17.8152 33.9971 20.3422 31.789 22.2077 29.0627L23.2692 27.5063C23.8795 26.5559 25.1446 26.2801 26.0951 26.8903C27.0455 27.5006 27.3214 28.7657 26.7112 29.7162C26.6909 29.7478 26.6698 29.7787 26.6478 29.8091L25.5884 31.3655C23.3317 34.6678 20.2724 37.3421 16.6981 39.1371L13.5281 40.7181L11.804 41.3562C15.959 43.7785 20.6847 45.0493 25.4942 45.0374H27.384C27.8068 45.0372 28.2193 44.9073 28.5661 44.6652C32.8974 41.7214 36.4844 37.8102 39.0434 33.241L16.7676 11.3699C15.1423 12.3296 13.4168 13.1086 11.6221 13.6932Z" fill="#2A8FD2"/>
<path d="M47.3982 0.604175C46.5898 -0.201392 45.2821 -0.201392 44.4736 0.604175L34.7305 10.3473L34.076 9.70718C30.514 6.22809 24.966 5.81471 20.9277 8.72752C20.7396 8.8625 20.5535 8.97495 20.3633 9.10591L40.87 29.2384C41.5226 27.4715 42.002 25.6455 42.3016 23.786C42.8162 20.499 41.709 17.1662 39.33 14.8405L37.6938 13.2371L47.4023 3.52868C48.2068 2.71918 48.2049 1.41147 47.3982 0.604175Z" fill="#BFFB4F"/>
</svg>
