<svg width="48" height="48" viewBox="0 0 48 48" fill="none" xmlns="http://www.w3.org/2000/svg">
<path d="M0 16C0 7.16344 7.16344 0 16 0H32C40.8366 0 48 7.16344 48 16V32C48 40.8366 40.8366 48 32 48H16C7.16344 48 0 40.8366 0 32V16Z" fill="#2A8FD2" fill-opacity="0.24"/>
<g clip-path="url(#clip0_5447_751)">
<path d="M28.5 22C27.473 22 26.499 21.885 25.609 21.685C24.25 20.666 22.023 20 19.5 20C15.358 20 12 21.791 12 24C12 26.209 15.358 28 19.5 28C23.642 28 27 26.209 27 24C27 23.971 26.993 23.943 26.992 23.914H27V26C27 28.209 23.642 30 19.5 30C15.358 30 12 28.209 12 26V28C12 30.209 15.358 32 19.5 32C23.642 32 27 30.209 27 28V30C27 32.209 23.642 34 19.5 34C15.358 34 12 32.209 12 30V32C12 34.209 15.358 36 19.5 36C23.642 36 27 34.209 27 32V31.92C27.485 31.972 27.986 32 28.5 32C32.642 32 36 30.209 36 28V26C36 28.119 32.908 29.849 29 29.987V27.987C32.908 27.849 36 26.12 36 24V22C36 24.119 32.908 25.849 29 25.987V23.987C32.908 23.849 36 22.12 36 20V18C36 20.209 32.642 22 28.5 22Z" fill="#2A8FD2"/>
<path d="M21 16C21 13.791 24.358 12 28.5 12C32.642 12 36 13.791 36 16C36 18.209 32.642 20 28.5 20C24.358 20 21 18.209 21 16Z" fill="#BFFB4F"/>
</g>
<defs>
<clipPath id="clip0_5447_751">
<rect width="24" height="24" fill="white" transform="translate(12 12)"/>
</clipPath>
</defs>
</svg>
