<svg width="48" height="48" viewBox="0 0 48 48" fill="none" xmlns="http://www.w3.org/2000/svg">
<g clip-path="url(#clip0_5583_427)">
<path d="M23.9986 2.60607C25.991 1.34127 31.2037 -1.29611 37.5421 0.756743C40.8801 1.83805 43.5419 4.65063 44.8457 8.47326C46.5599 13.4997 45.7009 19.2991 42.5466 23.9867C40.4297 27.1326 39.048 30.677 38.5522 34.2366C38.5246 34.4344 38.4982 34.6365 38.4718 34.8427C37.9935 38.5904 37.2891 41.5989 36.3781 43.7835C35.2864 46.4014 33.8771 47.8151 32.1906 47.9855C32.0949 47.9952 31.9999 48 31.906 48C30.2456 48 28.8588 46.4957 27.7799 43.5224C26.9827 41.3253 26.3537 38.381 26.0098 35.2322C25.8175 33.472 25.3679 32.0464 24.7095 31.1105C24.4747 30.7769 24.134 30.7411 23.9986 30.7411C23.8632 30.7411 23.5235 30.7774 23.2888 31.1105C22.6304 32.0464 22.1798 33.4719 21.9874 35.2322C21.6435 38.381 21.0157 41.3253 20.2185 43.5224C19.0784 46.6643 17.5942 48.1658 15.8066 47.9855C14.1202 47.8151 12.7119 46.4012 11.6203 43.7835C10.7092 41.5989 10.0048 38.5902 9.52651 34.8427C9.49914 34.6286 9.47035 34.4193 9.44168 34.2143C8.94503 30.6608 7.56813 27.1274 5.45843 23.9967C5.05531 23.3985 4.68908 22.7824 4.36133 22.1518L23.9417 2.57148C23.9607 2.58345 23.9801 2.59433 23.9986 2.60607Z" fill="#2A8FD2"/>
<path d="M10.456 0.756703C16.7361 -1.2774 21.9111 1.29365 23.9437 2.57143L4.36339 22.1529C2.12206 17.8419 1.65529 12.866 3.15022 8.47768C4.45339 4.6528 7.11659 1.83855 10.456 0.756703Z" fill="#BFFB4F"/>
</g>
<defs>
<clipPath id="clip0_5583_427">
<rect width="48" height="48" fill="white"/>
</clipPath>
</defs>
</svg>
