<svg width="48" height="48" viewBox="0 0 48 48" fill="none" xmlns="http://www.w3.org/2000/svg">
<g clip-path="url(#clip0_7231_6313)">
<path d="M19.8261 14.3997H13.8393L18.858 22.7648C19.0818 23.1378 19.2004 23.565 19.2004 23.9999C19.2004 29.3017 14.902 33.6 9.6002 33.6001C4.29827 33.6001 2.68912e-07 29.3017 0 23.9999C0 23.565 0.118591 23.1378 0.342391 22.7648L7.54178 10.7648C7.97552 10.042 8.75721 9.6001 9.6002 9.6001H19.8261V14.3997Z" fill="#BFFB4F"/>
<path d="M24 0C25.3255 2.68893e-07 26.3997 1.07442 26.3998 2.3998V7.84239C27.1284 8.26393 27.7362 8.87149 28.1576 9.6002H38.3998C39.2429 9.6002 40.0245 10.0421 40.4582 10.7649L47.6576 22.7649C47.8813 23.1379 48 23.5651 48 24C48 29.3018 43.7016 33.6002 38.3998 33.6002C33.098 33.6001 28.7996 29.3018 28.7996 24C28.7996 23.5651 28.9183 23.1379 29.142 22.7649L34.1607 14.3998H28.1576C27.7362 15.1285 27.1284 15.7361 26.3998 16.1576V43.2004H33.6002C34.9256 43.2005 36 44.2748 36 45.6002C35.9999 46.9256 34.9256 47.9999 33.6002 48H14.3998C13.0745 47.9999 12.0001 46.9256 12 45.6002C12 44.2748 13.0744 43.2005 14.3998 43.2004H21.6002V16.1576C20.8716 15.7361 20.2638 15.1285 19.8424 14.3998H19.8261V9.6002H19.8424C20.2638 8.87149 20.8716 8.26393 21.6002 7.84239V2.3998C21.6003 1.07442 22.6745 0 24 0Z" fill="#2A8FD2"/>
</g>
<defs>
<clipPath id="clip0_7231_6313">
<rect width="48" height="48" fill="white"/>
</clipPath>
</defs>
</svg>
