<svg width="48" height="48" viewBox="0 0 48 48" fill="none" xmlns="http://www.w3.org/2000/svg">
<g clip-path="url(#clip0_7231_6356)">
<path d="M45.3286 5.44552C45.3286 5.44552 42.9984 3.11452 41.1758 1.29211C39.4528 -0.430453 36.6497 -0.430828 34.9268 1.29211L12.9277 23.2929L23.8419 34.2068C25.0176 35.3826 25.7013 36.8661 25.8965 38.4004L30.2664 34.0292C30.5301 33.7655 30.6783 33.4079 30.6783 33.0349V29.9225H32.2844C33.061 29.9225 33.6906 29.2929 33.6906 28.5163V25.4038H35.2969C36.0735 25.4038 36.7031 24.7741 36.7031 23.9975V20.8851H38.3092C39.0859 20.8851 39.7155 20.2555 39.7155 19.4789V16.3665H41.3217C42.0983 16.3665 42.728 15.7368 42.728 14.9602V11.8479H44.3341C45.1107 11.8479 45.7403 11.2183 45.7403 10.4416V6.43964C45.7403 6.0668 45.5922 5.70923 45.3286 5.44552Z" fill="#2A8FD2"/>
<path d="M10.9363 25.2817L3.5518 32.6663C1.82905 34.3893 1.82905 37.1924 3.55199 38.9154L11.3412 46.7047C13.0667 48.4302 15.8617 48.4334 17.5902 46.7049L21.8506 42.4446C21.8506 42.4446 21.8507 42.4446 21.8507 42.4446C23.5735 40.7219 23.5735 37.9186 21.8506 36.1956C18.3901 32.7355 10.9363 25.2817 10.9363 25.2817ZM15.4606 40.3144C14.9115 40.8636 14.021 40.8636 13.472 40.3146L9.94218 36.7852C9.39299 36.2361 9.3929 35.3458 9.94199 34.7965C10.4911 34.2472 11.3815 34.2472 11.9306 34.7963L15.4604 38.3256C16.0096 38.8748 16.0097 39.7652 15.4606 40.3144Z" fill="#BFFB4F"/>
</g>
<defs>
<clipPath id="clip0_7231_6356">
<rect width="48" height="48" fill="white"/>
</clipPath>
</defs>
</svg>
