<svg width="48" height="48" viewBox="0 0 48 48" fill="none" xmlns="http://www.w3.org/2000/svg">
<path d="M0 16C0 7.16344 7.16344 0 16 0H32C40.8366 0 48 7.16344 48 16V32C48 40.8366 40.8366 48 32 48H16C7.16344 48 0 40.8366 0 32V16Z" fill="#2A8FD2" fill-opacity="0.24"/>
<g clip-path="url(#clip0_5447_757)">
<path d="M26.896 25.373L26.001 26.38V36L20.001 31.5V26.38L12 17.381V15.001C12 13.347 13.346 12 15 12H24.726C23.059 13.467 22 15.61 22 18C22 21.311 24.023 24.158 26.896 25.373Z" fill="#2A8FD2"/>
<path d="M30 12C26.686 12 24 14.686 24 18C24 21.314 26.686 24 30 24C33.314 24 36 21.314 36 18C36 14.686 33.314 12 30 12ZM30.619 20.414C30.241 20.792 29.739 21 29.205 21H29.203C28.669 21 28.167 20.791 27.79 20.413L25.778 18.401L27.192 16.987L29.205 19L32.82 15.385L34.234 16.799L30.619 20.414Z" fill="#BFFB4F"/>
</g>
<defs>
<clipPath id="clip0_5447_757">
<rect width="24" height="24" fill="white" transform="translate(12 12)"/>
</clipPath>
</defs>
</svg>
