<svg width="64" height="64" viewBox="0 0 64 64" fill="none" xmlns="http://www.w3.org/2000/svg">
<rect width="64" height="64" rx="24" fill="#2A8FD2" fill-opacity="0.24"/>
<g clip-path="url(#clip0_5447_9864)">
<path d="M35.2548 26.6668H38.6643C39.391 26.6668 40.1041 26.8651 40.7268 27.2397C41.3493 27.6144 41.8584 28.1512 42.1988 28.7931C42.5391 29.4352 42.6978 30.158 42.6584 30.8836C42.619 31.6093 42.3827 32.3108 41.9748 32.9123L33.4416 46.6453C33.1779 47.0584 32.8147 47.3989 32.3856 47.6356C31.9563 47.8722 31.4741 47.9977 30.9839 48.0002C30.5472 47.9986 30.116 47.9022 29.7202 47.7176C29.0736 47.4296 28.5539 46.9153 28.2593 46.2716C27.9649 45.6281 27.9153 44.899 28.12 44.2215L30.2014 37.3335H25.2977C24.673 37.3342 24.0566 37.1886 23.4982 36.9084C22.9399 36.6281 22.4549 36.221 22.0822 35.7196C21.7096 35.2181 21.4597 34.6359 21.3524 34.0203C21.2451 33.4049 21.2834 32.7726 21.4644 32.1746L21.6018 31.7183L36.6089 23.0542L35.2548 26.6668Z" fill="#2A8FD2"/>
<path d="M34.2578 16.0001C34.8175 16.0005 35.3689 16.1367 35.8646 16.3966C36.3602 16.6564 36.7854 17.0323 37.1042 17.4923C37.4229 17.9522 37.6261 18.4825 37.6953 19.0378C37.7645 19.5932 37.6981 20.1575 37.502 20.6817L36.612 23.0535L21.6055 31.7175L25.4993 18.8412C25.7451 18.0168 26.2515 17.2942 26.9427 16.782C27.6341 16.2697 28.4735 15.9951 29.334 16.0001H34.2578Z" fill="#BFFB4F"/>
</g>
<defs>
<clipPath id="clip0_5447_9864">
<rect width="32" height="32" fill="white" transform="translate(16 16)"/>
</clipPath>
</defs>
</svg>
