<svg width="96" height="96" viewBox="0 0 96 96" fill="none" xmlns="http://www.w3.org/2000/svg">
<path d="M0 24C0 10.7452 10.7452 0 24 0H72C85.2548 0 96 10.7452 96 24V72C96 85.2548 85.2548 96 72 96H24C10.7452 96 0 85.2548 0 72V24Z" fill="url(#paint0_radial_5579_3342)"/>
<g clip-path="url(#clip0_5579_3342)">
<path d="M68.6617 46.092C67.9857 44.4 67.0137 42.82 65.7977 41.438V34.008C65.7977 32.772 65.2417 31.624 64.2697 30.856C63.3137 30.102 62.0917 29.83 60.9077 30.108C57.2577 30.978 54.5197 33.046 53.0537 36H42.3277C37.1657 36 32.5317 38.316 29.4897 41.938C27.0897 41.588 27.3797 37.996 29.7957 38C32.4097 37.99 32.4117 34.01 29.7957 34C23.4257 33.98 21.5377 42.812 27.2597 45.418C23.7417 52.658 26.8017 61.982 33.7957 65.842V66C33.7997 72.702 43.2757 74.236 45.4537 68H50.1397C52.3177 74.24 61.7937 72.698 61.7977 66V65.816C64.9177 64.01 67.3397 61.216 68.6617 57.908C70.3037 57.558 71.7977 56.212 71.7977 54V50C71.7977 47.788 70.3017 46.442 68.6617 46.092ZM59.7977 50C57.1817 49.988 57.1817 46.012 59.7977 46C62.4137 46.012 62.4137 49.988 59.7977 50Z" fill="#076AAB"/>
<path d="M35.9022 33.024C34.7782 21.842 51.3822 20.76 51.7982 32H42.3302C40.0882 32 37.9302 32.37 35.9022 33.024Z" fill="#8BD500"/>
</g>
<defs>
<radialGradient id="paint0_radial_5579_3342" cx="0" cy="0" r="1" gradientUnits="userSpaceOnUse" gradientTransform="translate(48 48) rotate(90) scale(48)">
<stop stop-color="white"/>
<stop offset="0.33" stop-color="#F4FBFF"/>
<stop offset="0.66" stop-color="#EDF8FF"/>
<stop offset="1" stop-color="#DEF2FF"/>
</radialGradient>
<clipPath id="clip0_5579_3342">
<rect width="48" height="48" fill="white" transform="translate(23.7969 24)"/>
</clipPath>
</defs>
</svg>
