<svg width="80" height="80" viewBox="0 0 80 80" fill="none" xmlns="http://www.w3.org/2000/svg">
<path d="M79.8438 39.9219C79.6031 53.2766 77.2578 64.0172 70.5344 70.5344C64.0172 77.2578 53.2766 79.6031 39.9219 79.8438C26.5672 79.6031 15.8266 77.2578 9.30938 70.5344C2.58594 64.0172 0.240625 53.2766 0 39.9219C0.240625 26.5672 2.58594 15.8266 9.30938 9.30938C15.8266 2.58594 26.5672 0.240625 39.9219 0C53.2766 0.240625 64.0172 2.58594 70.5344 9.30938C77.2578 15.8266 79.6031 26.5672 79.8438 39.9219Z" fill="#BFFB4F"/>
<path d="M49.7578 40.4768L35.6263 49.8978C35.32 50.102 34.906 50.0192 34.7018 49.713C34.6288 49.6034 34.5898 49.4747 34.5898 49.3431V30.5011C34.5898 30.1329 34.8883 29.8345 35.2565 29.8345C35.3881 29.8345 35.5168 29.8734 35.6263 29.9464L49.7578 39.3674C50.0641 39.5716 50.1469 39.9856 49.9426 40.2919C49.8938 40.3651 49.831 40.428 49.7578 40.4768Z" fill="#00243B"/>
</svg>
