<svg width="48" height="48" viewBox="0 0 48 48" fill="none" xmlns="http://www.w3.org/2000/svg">
<path d="M0 16C0 7.16344 7.16344 0 16 0H32C40.8366 0 48 7.16344 48 16V32C48 40.8366 40.8366 48 32 48H16C7.16344 48 0 40.8366 0 32V16Z" fill="#2A8FD2" fill-opacity="0.24"/>
<g clip-path="url(#clip0_5366_302)">
<path d="M28.7925 29.836C29.3785 30.422 29.3785 31.372 28.7925 31.957C28.2065 32.543 27.2565 32.543 26.6715 31.957L20.8555 26.141L19.4415 27.555L24.8345 32.948C25.4205 33.534 25.4205 34.484 24.8345 35.069C24.2485 35.655 23.2985 35.655 22.7135 35.069L18.0405 30.396C15.0835 27.511 12.0625 23.667 12.0625 20.005C12.0625 16.145 14.9795 13.005 18.5625 13.005C20.3355 13.005 21.6935 13.667 22.7275 14.402L19.0885 18.01C18.4265 18.671 18.0625 19.551 18.0625 20.486C18.0625 21.421 18.4265 22.3 19.0865 22.96C19.7475 23.622 20.6265 23.986 21.5625 23.986C21.9885 23.986 22.3995 23.901 22.7875 23.757L28.7925 29.836ZM26.4845 20.53L24.3925 22.608L30.5025 28.626C31.0885 29.212 32.0385 29.212 32.6235 28.626C33.5195 27.73 32.7525 26.738 32.7525 26.738L26.4835 20.53H26.4845Z" fill="#2A8FD2"/>
<path d="M29.521 13.063C27.887 13.073 26.335 13.783 25.139 14.897L20.502 19.503C19.916 20.089 19.916 21.039 20.502 21.624C21.088 22.21 22.038 22.21 22.623 21.624L26.529 17.744L34.263 25.422C35.454 23.5 36.062 21.7 36.062 20.063C36.062 16.203 33.104 13.063 29.52 13.063H29.521Z" fill="#BFFB4F"/>
</g>
<defs>
<clipPath id="clip0_5366_302">
<rect width="24" height="24" fill="white" transform="translate(12 12)"/>
</clipPath>
</defs>
</svg>
