<svg width="328" height="148" viewBox="0 0 328 148" fill="none" xmlns="http://www.w3.org/2000/svg">
<rect width="328" height="148" rx="74" fill="url(#paint0_radial_5583_4800)"/>
<rect x="168" y="75" width="18" height="48" fill="#076AAB"/>
<rect x="142" y="90" width="18" height="33" fill="#076AAB"/>
<rect x="116" y="104" width="18" height="19" fill="#076AAB"/>
<rect x="194" y="57" width="18" height="66" fill="#076AAB"/>
<path d="M117 130.5H210.5" stroke="#076AAB" stroke-width="2" stroke-linecap="square"/>
<rect x="126" y="17" width="67" height="22" rx="11" fill="#88D1FF"/>
<path d="M139.728 23.2H141.758V33H139.728V23.2ZM140.498 27.876H143.116V29.64H140.498V27.876ZM143.116 27.876C143.564 27.876 143.947 27.834 144.264 27.75C144.591 27.6567 144.838 27.5073 145.006 27.302C145.183 27.0873 145.272 26.7933 145.272 26.42C145.272 26.0467 145.183 25.7573 145.006 25.552C144.838 25.3373 144.591 25.188 144.264 25.104C143.947 25.0107 143.564 24.964 143.116 24.964V23.2C143.965 23.2 144.707 23.3027 145.342 23.508C145.986 23.7133 146.485 24.0493 146.84 24.516C147.204 24.9827 147.386 25.6173 147.386 26.42C147.386 27.2133 147.204 27.848 146.84 28.324C146.485 28.7907 145.986 29.1267 145.342 29.332C144.707 29.5373 143.965 29.64 143.116 29.64V27.876ZM140.498 23.2H143.116V24.964H140.498V23.2ZM143.228 28.478H145.258L147.456 33H145.146L143.228 28.478ZM152.131 33.224C151.329 33.224 150.624 33.0513 150.017 32.706C149.42 32.3513 148.953 31.8613 148.617 31.236C148.291 30.6107 148.127 29.8967 148.127 29.094C148.127 28.282 148.291 27.5633 148.617 26.938C148.953 26.3127 149.42 25.8227 150.017 25.468C150.624 25.1133 151.329 24.936 152.131 24.936C152.663 24.936 153.167 25.0433 153.643 25.258C154.119 25.4727 154.53 25.7853 154.875 26.196C155.221 26.6067 155.473 27.1107 155.631 27.708C155.79 28.3053 155.813 28.9867 155.701 29.752H149.261V28.128H154.343L153.699 28.506C153.746 28.2353 153.718 27.9647 153.615 27.694C153.522 27.414 153.354 27.1853 153.111 27.008C152.869 26.8213 152.542 26.728 152.131 26.728C151.655 26.728 151.273 26.8353 150.983 27.05C150.694 27.2553 150.484 27.54 150.353 27.904C150.232 28.2587 150.171 28.6553 150.171 29.094C150.171 29.5233 150.232 29.9153 150.353 30.27C150.484 30.6247 150.694 30.9093 150.983 31.124C151.273 31.3293 151.655 31.432 152.131 31.432C152.514 31.432 152.831 31.3433 153.083 31.166C153.335 30.9887 153.513 30.7693 153.615 30.508H155.729C155.617 31.0493 155.398 31.5253 155.071 31.936C154.745 32.3373 154.329 32.6547 153.825 32.888C153.331 33.112 152.766 33.224 152.131 33.224ZM158.688 30.522C158.735 30.8953 158.898 31.1567 159.178 31.306C159.458 31.446 159.78 31.516 160.144 31.516C160.499 31.516 160.793 31.4553 161.026 31.334C161.26 31.2033 161.376 30.9933 161.376 30.704C161.376 30.5173 161.292 30.3773 161.124 30.284C160.956 30.1813 160.737 30.102 160.466 30.046C160.196 29.9807 159.897 29.92 159.57 29.864C159.244 29.808 158.912 29.7333 158.576 29.64C158.25 29.5467 157.951 29.416 157.68 29.248C157.41 29.08 157.19 28.8513 157.022 28.562C156.854 28.2727 156.77 27.904 156.77 27.456C156.77 27.036 156.906 26.6347 157.176 26.252C157.456 25.86 157.844 25.5427 158.338 25.3C158.833 25.0573 159.398 24.936 160.032 24.936C160.602 24.936 161.129 25.0527 161.614 25.286C162.1 25.51 162.492 25.8227 162.79 26.224C163.089 26.6253 163.238 27.092 163.238 27.624H161.236C161.199 27.2507 161.059 26.994 160.816 26.854C160.583 26.714 160.303 26.644 159.976 26.644C159.575 26.644 159.272 26.7233 159.066 26.882C158.861 27.0313 158.758 27.2227 158.758 27.456C158.758 27.6613 158.842 27.82 159.01 27.932C159.178 28.044 159.398 28.1327 159.668 28.198C159.939 28.2633 160.238 28.324 160.564 28.38C160.9 28.4267 161.232 28.4967 161.558 28.59C161.885 28.674 162.184 28.8 162.454 28.968C162.725 29.1267 162.944 29.346 163.112 29.626C163.28 29.906 163.364 30.2653 163.364 30.704C163.364 31.1987 163.224 31.6373 162.944 32.02C162.674 32.3933 162.291 32.6873 161.796 32.902C161.311 33.1167 160.737 33.224 160.074 33.224C159.458 33.224 158.894 33.1073 158.38 32.874C157.876 32.6313 157.47 32.3093 157.162 31.908C156.854 31.4973 156.691 31.0353 156.672 30.522H158.688ZM171.419 33H169.417V25.16H171.419V33ZM169.417 28.996L169.641 30.606C169.641 30.8487 169.603 31.1193 169.529 31.418C169.463 31.7167 169.333 32.006 169.137 32.286C168.95 32.5567 168.679 32.7807 168.325 32.958C167.97 33.1353 167.508 33.224 166.939 33.224C166.435 33.224 165.987 33.1213 165.595 32.916C165.203 32.7107 164.895 32.37 164.671 31.894C164.447 31.418 164.335 30.7833 164.335 29.99V25.16H166.323V29.808C166.323 30.116 166.346 30.396 166.393 30.648C166.439 30.9 166.547 31.1053 166.715 31.264C166.883 31.4133 167.144 31.488 167.499 31.488C167.779 31.488 168.068 31.4087 168.367 31.25C168.665 31.0913 168.913 30.83 169.109 30.466C169.314 30.102 169.417 29.612 169.417 28.996ZM172.731 22.5H174.733V33H172.731V22.5ZM175.825 25.16H179.955V26.868H175.825V25.16ZM176.721 23.2H178.723V30.592C178.723 30.8253 178.784 31.0027 178.905 31.124C179.036 31.236 179.227 31.292 179.479 31.292H180.179V33H179.465C178.551 33 177.865 32.7993 177.407 32.398C176.95 31.9967 176.721 31.3947 176.721 30.592V23.2Z" fill="#076AAB"/>
<path d="M194 57L166 39H183.111L194 57Z" fill="#88D1FF"/>
<defs>
<radialGradient id="paint0_radial_5583_4800" cx="0" cy="0" r="1" gradientUnits="userSpaceOnUse" gradientTransform="translate(164 74) rotate(90) scale(74 164)">
<stop stop-color="white"/>
<stop offset="0.5" stop-color="#F4FBFF"/>
<stop offset="1" stop-color="#EDF8FF"/>
</radialGradient>
</defs>
</svg>
