<svg width="328" height="148" viewBox="0 0 328 148" fill="none" xmlns="http://www.w3.org/2000/svg">
<rect width="328" height="148" rx="74" fill="url(#paint0_radial_5583_4750)"/>
<rect x="52" y="45" width="107" height="48" rx="4" fill="#88D1FF"/>
<rect x="61" y="56" width="60" height="6" rx="3" fill="#076AAB"/>
<rect x="61" y="65" width="30" height="6" rx="3" fill="#076AAB"/>
<path d="M232.766 119.209L210.951 97.3935M210.951 97.3935C214.682 93.6618 217.642 89.2317 219.662 84.356C221.681 79.4804 222.721 74.2547 222.721 68.9773C222.721 63.6999 221.681 58.4742 219.662 53.5985C217.642 48.7228 214.682 44.2927 210.951 40.561C207.219 36.8294 202.789 33.8692 197.913 31.8497C193.037 29.8301 187.812 28.7906 182.534 28.7906C177.257 28.7906 172.031 29.8301 167.156 31.8497C162.28 33.8692 157.85 36.8294 154.118 40.561C146.582 48.0975 142.348 58.3191 142.348 68.9773C142.348 79.6354 146.582 89.857 154.118 97.3935C161.654 104.93 171.876 109.164 182.534 109.164C193.192 109.164 203.414 104.93 210.951 97.3935Z" stroke="#076AAB" stroke-width="4" stroke-linecap="round" stroke-linejoin="round"/>
<path d="M106.017 10.8C98.781 10.8 92.9219 16.6591 92.9219 23.8949C92.9219 30.0742 97.2121 35.2289 102.943 36.6056L104.736 40.3836C105.248 41.4722 106.785 41.4722 107.297 40.3836L109.058 36.6056C114.821 35.2289 119.08 30.0742 119.08 23.8949C119.112 16.6591 113.253 10.8 106.017 10.8ZM108.452 18.7193L107.625 25.135C107.547 25.7345 107.037 26.1833 106.432 26.1833H105.601C104.997 26.1833 104.486 25.7345 104.409 25.135L103.582 18.7193C103.489 18.0003 104.049 17.3635 104.774 17.3635H107.26C107.984 17.3635 108.544 18.0003 108.452 18.7193ZM106.017 31.8031C104.96 31.8031 104.096 30.9386 104.096 29.8821C104.096 28.8255 104.96 27.9611 106.017 27.9611C107.073 27.9611 107.938 28.8255 107.938 29.8821C107.938 30.9386 107.073 31.8031 106.017 31.8031Z" fill="#076AAB"/>
<defs>
<radialGradient id="paint0_radial_5583_4750" cx="0" cy="0" r="1" gradientUnits="userSpaceOnUse" gradientTransform="translate(164 74) rotate(90) scale(74 164)">
<stop stop-color="white"/>
<stop offset="0.5" stop-color="#F4FBFF"/>
<stop offset="1" stop-color="#EDF8FF"/>
</radialGradient>
</defs>
</svg>
