<svg width="328" height="148" viewBox="0 0 328 148" fill="none" xmlns="http://www.w3.org/2000/svg">
<rect width="328" height="148" rx="74" fill="url(#paint0_radial_5583_4884)"/>
<g clip-path="url(#clip0_5583_4884)">
<path d="M172.338 59.2049C171.102 62.1662 168.951 64.4534 166.361 65.8724C162.896 67.7695 158.643 68.1142 154.733 66.4415C150.822 64.7688 148.102 61.4426 147.031 57.6049C146.23 54.7356 146.35 51.5802 147.586 48.6188C150.473 41.6985 158.354 38.4593 165.19 41.3822C172.025 44.3051 175.226 52.2846 172.338 59.2039V59.2049Z" fill="#88D1FF"/>
<path d="M164.204 52.2484C165.834 50.9623 166.125 48.5821 164.855 46.9319C163.585 45.2817 161.234 44.9865 159.604 46.2725C157.974 47.5585 157.682 49.9388 158.952 51.589C160.223 53.2392 162.574 53.5344 164.204 52.2484Z" fill="white"/>
<path d="M165.677 62.5966C162.837 64.1521 159.349 64.4351 156.144 63.0636C152.938 61.6921 150.707 58.9642 149.828 55.8189C152.428 53.2194 156.416 52.3148 159.991 53.844C163.566 55.3732 165.706 58.8985 165.677 62.5976V62.5966Z" fill="white"/>
<path d="M143.599 40.4998C143.246 42.8406 142.12 44.868 140.525 46.3568C138.391 48.3469 135.416 49.3727 132.325 48.8967C129.235 48.4196 126.696 46.5438 125.244 44.0009C124.159 42.0987 123.68 39.8236 124.032 37.4829C124.855 32.0129 129.902 28.2542 135.305 29.087C140.709 29.9198 144.422 35.0299 143.6 40.4998H143.599Z" fill="#88D1FF"/>
<path d="M135.535 37.8425C136.914 37.1882 137.507 35.5266 136.861 34.1312C136.215 32.7358 134.573 32.135 133.195 32.7892C131.817 33.4435 131.223 35.1051 131.869 36.5005C132.516 37.8959 134.157 38.4967 135.535 37.8425Z" fill="white"/>
<path d="M139.447 44.1434C137.698 45.7746 135.259 46.6166 132.724 46.2254C130.19 45.8343 128.109 44.296 126.918 42.2109C128.309 39.8782 130.994 38.5006 133.82 38.9362C136.647 39.3719 138.805 41.4963 139.447 44.1424V44.1434Z" fill="white"/>
<path d="M159.498 23.2613C159.715 25.0239 159.309 26.7199 158.456 28.1227C157.316 29.9996 155.374 31.3529 153.047 31.646C150.72 31.9391 148.509 31.1073 146.95 29.571C145.784 28.4219 144.981 26.8775 144.765 25.1159C144.258 20.9973 147.147 17.2435 151.215 16.7311C155.283 16.2187 158.992 19.1427 159.497 23.2613H159.498Z" fill="#88D1FF"/>
<path d="M153.561 22.5083C154.154 21.5203 153.843 20.2328 152.867 19.6326C151.891 19.0323 150.62 19.3467 150.027 20.3346C149.434 21.3226 149.744 22.6101 150.72 23.2103C151.696 23.8106 152.968 23.4962 153.561 22.5083Z" fill="white"/>
<path d="M157.234 26.7463C156.3 28.2846 154.707 29.3953 152.799 29.6348C150.891 29.8754 149.08 29.1932 147.801 27.9338C148.336 25.963 149.997 24.4146 152.126 24.1467C154.253 23.8789 156.239 24.9684 157.234 26.7463Z" fill="white"/>
<path d="M196.438 53.8674L199.87 51.8289L201.435 52.2392L201.53 53.2044L196.438 53.8674ZM199.889 51.9623L197.023 53.6653L201.395 53.0953L201.321 52.3383L199.889 51.9623Z" fill="#076AAB"/>
<path d="M196.344 53.9555L201.321 50.8233L205.99 50.7637L196.344 53.9555Z" fill="#88D1FF"/>
<path d="M199.801 50.5726L196.344 53.9554L198.502 48.3582L199.801 50.5726Z" fill="#88D1FF"/>
<path d="M199.801 50.5725L199.871 51.7358L196.344 53.9553L199.801 50.5725Z" fill="#076AAB"/>
<path d="M224.036 54.9792C224.006 54.9792 223.981 54.956 223.978 54.9247C223.976 54.8923 224 54.865 224.032 54.862C224.183 54.8519 224.329 54.8276 224.464 54.7923C224.495 54.7842 224.526 54.8024 224.535 54.8337C224.543 54.865 224.525 54.8964 224.494 54.9044C224.352 54.9429 224.199 54.9671 224.04 54.9782C224.039 54.9782 224.037 54.9782 224.036 54.9782V54.9792ZM223.588 54.9742C223.588 54.9742 223.585 54.9742 223.583 54.9742C223.437 54.9621 223.286 54.9398 223.132 54.9085C223.101 54.9024 223.081 54.8711 223.087 54.8398C223.093 54.8084 223.124 54.7872 223.155 54.7943C223.304 54.8246 223.451 54.8468 223.592 54.858C223.624 54.861 223.647 54.8893 223.645 54.9206C223.643 54.9509 223.617 54.9742 223.588 54.9742ZM222.708 54.7973C222.703 54.7973 222.697 54.7973 222.691 54.7953C222.553 54.7528 222.408 54.7023 222.262 54.6457C222.232 54.6346 222.217 54.6002 222.229 54.5699C222.241 54.5396 222.274 54.5254 222.304 54.5365C222.447 54.5921 222.589 54.6417 222.725 54.6841C222.756 54.6932 222.773 54.7255 222.764 54.7569C222.756 54.7821 222.734 54.7983 222.709 54.7983L222.708 54.7973ZM224.9 54.7448C224.879 54.7448 224.859 54.7336 224.849 54.7134C224.834 54.6851 224.845 54.6497 224.874 54.6346C225.003 54.5669 225.123 54.484 225.234 54.387C225.258 54.3657 225.295 54.3688 225.315 54.393C225.336 54.4173 225.333 54.4547 225.309 54.4749C225.192 54.577 225.063 54.6659 224.927 54.7377C224.918 54.7417 224.909 54.7437 224.901 54.7437L224.9 54.7448ZM221.87 54.4709C221.862 54.4709 221.854 54.4688 221.846 54.4658C221.713 54.4041 221.576 54.3354 221.439 54.2626C221.412 54.2475 221.401 54.2121 221.416 54.1838C221.431 54.1555 221.465 54.1444 221.493 54.1596C221.628 54.2313 221.763 54.299 221.894 54.3607C221.923 54.3738 221.936 54.4092 221.922 54.4385C221.912 54.4597 221.891 54.4729 221.87 54.4729V54.4709ZM225.576 54.1575C225.564 54.1575 225.552 54.1535 225.541 54.1454C225.516 54.1262 225.51 54.0898 225.529 54.0635C225.54 54.0484 225.551 54.0332 225.562 54.0181C225.638 53.9099 225.709 53.7997 225.773 53.6896C225.789 53.6623 225.825 53.6532 225.852 53.6694C225.879 53.6855 225.888 53.7219 225.872 53.7492C225.805 53.8614 225.732 53.9746 225.654 54.0858C225.643 54.1019 225.632 54.1181 225.62 54.1343C225.609 54.1495 225.591 54.1575 225.574 54.1575H225.576ZM221.073 54.0464C221.063 54.0464 221.053 54.0433 221.044 54.0383C220.917 53.9625 220.789 53.8816 220.66 53.7977C220.633 53.7805 220.626 53.7442 220.643 53.7169C220.66 53.6896 220.696 53.6825 220.723 53.6997C220.85 53.7836 220.978 53.8634 221.103 53.9382C221.13 53.9544 221.14 53.9908 221.123 54.0181C221.112 54.0363 221.093 54.0464 221.073 54.0464ZM220.317 53.5521C220.306 53.5521 220.294 53.5491 220.284 53.541C220.163 53.4551 220.04 53.3641 219.919 53.2722C219.894 53.253 219.888 53.2166 219.908 53.1903C219.927 53.164 219.963 53.159 219.989 53.1792C220.109 53.2712 220.23 53.3611 220.351 53.446C220.377 53.4642 220.383 53.5006 220.365 53.5269C220.354 53.543 220.336 53.5521 220.318 53.5521H220.317ZM226.034 53.3763C226.026 53.3763 226.018 53.3742 226.01 53.3712C225.981 53.3581 225.968 53.3227 225.982 53.2934C226.045 53.1559 226.1 53.0154 226.144 52.877C226.154 52.8467 226.186 52.8295 226.217 52.8396C226.246 52.8497 226.263 52.882 226.253 52.9134C226.208 53.0569 226.152 53.2014 226.087 53.3429C226.077 53.3641 226.056 53.3773 226.035 53.3773L226.034 53.3763ZM219.599 53.0043C219.586 53.0043 219.573 53.0003 219.563 52.9912C219.447 52.8962 219.33 52.7992 219.215 52.6991C219.191 52.6779 219.188 52.6415 219.209 52.6172C219.23 52.593 219.266 52.5899 219.29 52.6112C219.405 52.7102 219.52 52.8072 219.635 52.9012C219.66 52.9215 219.664 52.9578 219.644 52.9831C219.633 52.9973 219.617 53.0053 219.6 53.0053L219.599 53.0043ZM226.31 52.5131C226.31 52.5131 226.303 52.5131 226.299 52.5131C226.268 52.5071 226.247 52.4767 226.253 52.4454C226.28 52.2989 226.297 52.1493 226.304 52.0017C226.306 51.9694 226.334 51.9451 226.364 51.9461C226.396 51.9471 226.421 51.9744 226.419 52.0068C226.412 52.1594 226.394 52.314 226.366 52.4666C226.361 52.4949 226.337 52.5141 226.309 52.5141L226.31 52.5131ZM218.915 52.4131C218.901 52.4131 218.887 52.408 218.876 52.3979C218.765 52.2968 218.655 52.1927 218.545 52.0866C218.522 52.0644 218.521 52.027 218.543 52.0037C218.565 51.9805 218.602 51.9795 218.625 52.0017C218.734 52.1068 218.844 52.2099 218.954 52.311C218.978 52.3322 218.979 52.3696 218.958 52.3939C218.947 52.407 218.931 52.4131 218.915 52.4131ZM218.264 51.7844C218.249 51.7844 218.234 51.7783 218.223 51.7672C218.117 51.6601 218.012 51.5499 217.908 51.4388C217.886 51.4155 217.887 51.3781 217.91 51.3559C217.933 51.3336 217.97 51.3347 217.992 51.3579C218.095 51.4681 218.2 51.5772 218.305 51.6844C218.328 51.7076 218.327 51.744 218.305 51.7672C218.294 51.7783 218.279 51.7844 218.264 51.7844ZM226.351 51.6075C226.322 51.6075 226.296 51.5853 226.294 51.555C226.281 51.4094 226.257 51.2609 226.224 51.1143C226.217 51.083 226.236 51.0517 226.266 51.0446C226.297 51.0375 226.328 51.0567 226.335 51.088C226.37 51.2396 226.394 51.3923 226.408 51.5439C226.411 51.5762 226.388 51.6045 226.356 51.6075C226.354 51.6075 226.352 51.6075 226.351 51.6075ZM217.646 51.1224C217.63 51.1224 217.614 51.1163 217.603 51.1032C217.503 50.99 217.403 50.8758 217.305 50.7596C217.284 50.7353 217.287 50.6979 217.311 50.6777C217.335 50.6565 217.372 50.6595 217.392 50.6838C217.49 50.799 217.588 50.9132 217.688 51.0254C217.709 51.0496 217.707 51.086 217.684 51.1083C217.673 51.1184 217.659 51.1234 217.645 51.1234L217.646 51.1224ZM226.152 50.7242C226.128 50.7242 226.106 50.709 226.098 50.6858C226.049 50.5493 225.99 50.4109 225.923 50.2744C225.909 50.2451 225.921 50.2108 225.949 50.1966C225.977 50.1825 226.012 50.1936 226.026 50.2229C226.095 50.3634 226.155 50.5049 226.206 50.6464C226.217 50.6767 226.201 50.71 226.171 50.7212C226.165 50.7232 226.158 50.7252 226.151 50.7252L226.152 50.7242ZM217.062 50.4301C217.045 50.4301 217.029 50.423 217.017 50.4089C216.922 50.2906 216.829 50.1713 216.736 50.0511C216.716 50.0258 216.721 49.9884 216.746 49.9692C216.771 49.95 216.807 49.954 216.827 49.9793C216.919 50.0996 217.012 50.2178 217.106 50.3351C217.126 50.3603 217.122 50.3967 217.098 50.4169C217.087 50.426 217.074 50.4301 217.062 50.4301ZM201.859 49.9581C201.842 49.9581 201.825 49.95 201.813 49.9358C201.793 49.9106 201.798 49.8742 201.823 49.854C201.823 49.854 201.952 49.7529 202.186 49.5791C202.212 49.5599 202.248 49.5659 202.267 49.5912C202.286 49.6175 202.28 49.6539 202.255 49.6731C202.023 49.8449 201.895 49.946 201.894 49.946C201.884 49.954 201.871 49.9581 201.859 49.9581ZM225.756 49.9106C225.737 49.9106 225.718 49.9005 225.707 49.8833C225.631 49.759 225.547 49.6336 225.457 49.5124C225.438 49.4861 225.443 49.4497 225.469 49.4305C225.494 49.4113 225.531 49.4163 225.55 49.4426C225.642 49.5669 225.727 49.6953 225.806 49.8216C225.823 49.8489 225.815 49.8853 225.787 49.9025C225.778 49.9086 225.767 49.9116 225.757 49.9116L225.756 49.9106ZM216.512 49.7095C216.494 49.7095 216.477 49.7014 216.465 49.6852C216.376 49.5619 216.288 49.4376 216.202 49.3122C216.184 49.286 216.19 49.2496 216.217 49.2314C216.243 49.2132 216.279 49.2193 216.297 49.2465C216.382 49.3709 216.47 49.4942 216.558 49.6165C216.577 49.6427 216.571 49.6791 216.546 49.6983C216.536 49.7064 216.524 49.7095 216.512 49.7095ZM202.587 49.4174C202.569 49.4174 202.551 49.4083 202.54 49.3931C202.522 49.3668 202.528 49.3304 202.554 49.3112C202.666 49.2304 202.789 49.1435 202.924 49.0495C202.95 49.0313 202.986 49.0383 203.004 49.0646C203.022 49.0909 203.016 49.1273 202.989 49.1455C202.855 49.2385 202.733 49.3264 202.621 49.4062C202.611 49.4133 202.599 49.4174 202.588 49.4174H202.587ZM225.221 49.1809C225.205 49.1809 225.189 49.1738 225.177 49.1606C225.082 49.0505 224.981 48.9383 224.874 48.8301C224.852 48.8069 224.852 48.7705 224.874 48.7473C224.897 48.725 224.933 48.725 224.956 48.7473C225.063 48.8584 225.167 48.9716 225.264 49.0838C225.285 49.1081 225.282 49.1455 225.258 49.1657C225.247 49.1748 225.234 49.1798 225.22 49.1798L225.221 49.1809ZM215.999 48.9595C215.98 48.9595 215.962 48.9504 215.951 48.9332C215.868 48.8059 215.787 48.6765 215.708 48.5471C215.691 48.5199 215.7 48.4835 215.727 48.4673C215.754 48.4501 215.79 48.4592 215.806 48.4865C215.884 48.6149 215.965 48.7432 216.046 48.8696C216.063 48.8968 216.056 48.9322 216.029 48.9504C216.019 48.9565 216.009 48.9595 215.998 48.9595H215.999ZM203.33 48.8999C203.311 48.8999 203.293 48.8908 203.282 48.8736C203.264 48.8473 203.271 48.8109 203.298 48.7927C203.417 48.7119 203.542 48.627 203.674 48.5401C203.701 48.5229 203.736 48.53 203.754 48.5573C203.771 48.5845 203.764 48.6199 203.737 48.6381C203.606 48.725 203.481 48.8089 203.363 48.8898C203.353 48.8968 203.342 48.8999 203.331 48.8999H203.33ZM224.591 48.533C224.577 48.533 224.563 48.5279 224.552 48.5178C224.444 48.4188 224.33 48.3197 224.213 48.2237C224.188 48.2035 224.184 48.1671 224.205 48.1419C224.225 48.1166 224.262 48.1136 224.286 48.1338C224.404 48.2308 224.519 48.3319 224.629 48.4319C224.653 48.4531 224.655 48.4905 224.633 48.5148C224.622 48.5279 224.606 48.534 224.59 48.534L224.591 48.533ZM204.083 48.4006C204.064 48.4006 204.045 48.3915 204.034 48.3733C204.017 48.346 204.025 48.3096 204.052 48.2924C204.176 48.2126 204.303 48.1317 204.435 48.0499C204.462 48.0327 204.498 48.0418 204.514 48.0691C204.531 48.0964 204.522 48.1328 204.495 48.1489C204.364 48.2308 204.237 48.3117 204.114 48.3915C204.104 48.3976 204.094 48.4006 204.083 48.4006ZM215.526 48.1843C215.506 48.1843 215.487 48.1742 215.476 48.155C215.401 48.0226 215.328 47.8892 215.256 47.7558C215.241 47.7275 215.251 47.6921 215.279 47.6769C215.307 47.6618 215.342 47.6719 215.357 47.7002C215.427 47.8326 215.5 47.965 215.575 48.0964C215.591 48.1247 215.582 48.16 215.554 48.1762C215.545 48.1813 215.535 48.1843 215.525 48.1843H215.526ZM223.894 47.9579C223.882 47.9579 223.87 47.9539 223.86 47.9468C223.744 47.8589 223.621 47.7709 223.495 47.685C223.469 47.6668 223.462 47.6304 223.48 47.6042C223.498 47.5779 223.534 47.5708 223.56 47.589C223.687 47.6759 223.811 47.7649 223.929 47.8538C223.955 47.873 223.96 47.9094 223.941 47.9357C223.93 47.9508 223.912 47.9589 223.895 47.9589L223.894 47.9579ZM204.849 47.9205C204.829 47.9205 204.81 47.9104 204.799 47.8922C204.782 47.8649 204.791 47.8285 204.819 47.8124C204.946 47.7356 205.075 47.6577 205.206 47.5789C205.234 47.5627 205.269 47.5718 205.285 47.6001C205.301 47.6284 205.292 47.6638 205.264 47.68C205.133 47.7578 205.004 47.8356 204.878 47.9124C204.869 47.9185 204.858 47.9205 204.848 47.9205H204.849ZM205.627 47.4606C205.607 47.4606 205.587 47.4495 205.577 47.4313C205.561 47.403 205.571 47.3677 205.599 47.3515C205.729 47.2777 205.859 47.2029 205.993 47.1291C206.021 47.114 206.056 47.1241 206.071 47.1524C206.086 47.1807 206.076 47.2161 206.048 47.2312C205.915 47.305 205.785 47.3788 205.656 47.4526C205.647 47.4576 205.637 47.4606 205.628 47.4606H205.627ZM223.151 47.4465C223.141 47.4465 223.13 47.4435 223.121 47.4374C222.996 47.3586 222.867 47.2807 222.736 47.2049C222.708 47.1888 222.699 47.1534 222.715 47.1251C222.731 47.0968 222.766 47.0877 222.794 47.1039C222.926 47.1807 223.056 47.2595 223.182 47.3394C223.209 47.3565 223.217 47.3929 223.2 47.4202C223.189 47.4384 223.17 47.4475 223.151 47.4475V47.4465ZM215.1 47.3828C215.079 47.3828 215.058 47.3707 215.048 47.3505C214.981 47.214 214.915 47.0756 214.852 46.9381C214.839 46.9088 214.852 46.8744 214.88 46.8603C214.909 46.8471 214.943 46.8603 214.957 46.8886C215.019 47.024 215.084 47.1625 215.151 47.2979C215.165 47.3272 215.154 47.3616 215.125 47.3757C215.117 47.3798 215.108 47.3818 215.099 47.3818L215.1 47.3828ZM206.416 47.023C206.395 47.023 206.376 47.0119 206.366 46.9917C206.351 46.9634 206.362 46.928 206.389 46.9128C206.521 46.8421 206.655 46.7724 206.79 46.7026C206.818 46.6885 206.853 46.6996 206.868 46.7279C206.882 46.7562 206.871 46.7916 206.843 46.8067C206.708 46.8754 206.575 46.9452 206.443 47.0159C206.434 47.021 206.425 47.023 206.416 47.023ZM222.371 46.9917C222.362 46.9917 222.353 46.9897 222.344 46.9846C222.214 46.9149 222.08 46.8451 221.946 46.7774C221.917 46.7633 221.906 46.7279 221.92 46.6996C221.934 46.6703 221.969 46.6592 221.997 46.6733C222.132 46.741 222.268 46.8118 222.399 46.8815C222.427 46.8967 222.438 46.932 222.423 46.9603C222.413 46.9796 222.393 46.9917 222.372 46.9917H222.371ZM207.219 46.6106C207.198 46.6106 207.177 46.5985 207.167 46.5773C207.153 46.548 207.165 46.5136 207.194 46.4995C207.329 46.4338 207.465 46.3681 207.601 46.3044C207.63 46.2913 207.664 46.3044 207.678 46.3327C207.691 46.362 207.678 46.3964 207.65 46.4105C207.515 46.4742 207.38 46.5389 207.245 46.6046C207.237 46.6086 207.228 46.6106 207.22 46.6106H207.219ZM221.564 46.5884C221.556 46.5884 221.548 46.5864 221.54 46.5834C221.406 46.5207 221.269 46.46 221.13 46.4004C221.101 46.3883 221.087 46.3539 221.099 46.3236C221.111 46.2943 221.145 46.2801 221.175 46.2923C221.315 46.3519 221.452 46.4136 221.588 46.4762C221.617 46.4894 221.63 46.5247 221.617 46.554C221.607 46.5753 221.586 46.5884 221.564 46.5884ZM214.725 46.554C214.702 46.554 214.681 46.5409 214.672 46.5177C214.613 46.3741 214.557 46.2306 214.506 46.0922C214.495 46.0618 214.51 46.0285 214.54 46.0174C214.57 46.0062 214.603 46.0214 214.614 46.0517C214.665 46.1892 214.72 46.3317 214.779 46.4732C214.791 46.5025 214.777 46.5369 214.748 46.55C214.741 46.553 214.733 46.554 214.726 46.554H214.725ZM220.736 46.2326C220.729 46.2326 220.722 46.2316 220.715 46.2286C220.576 46.173 220.436 46.1205 220.295 46.0679C220.265 46.0568 220.25 46.0234 220.26 45.9931C220.271 45.9628 220.304 45.9476 220.334 45.9577C220.476 46.0103 220.617 46.0639 220.757 46.1194C220.787 46.1316 220.801 46.1649 220.79 46.1952C220.781 46.2185 220.759 46.2326 220.736 46.2326ZM208.035 46.2296C208.013 46.2296 207.992 46.2165 207.982 46.1942C207.969 46.1649 207.982 46.1306 208.012 46.1174C208.15 46.0558 208.288 45.9961 208.427 45.9385C208.456 45.9264 208.49 45.9406 208.502 45.9699C208.514 45.9992 208.5 46.0335 208.471 46.0457C208.332 46.1033 208.194 46.1629 208.058 46.2235C208.05 46.2266 208.043 46.2286 208.035 46.2286V46.2296ZM219.89 45.9213C219.884 45.9213 219.878 45.9213 219.872 45.9183C219.73 45.8708 219.589 45.8243 219.445 45.7788C219.415 45.7697 219.397 45.7364 219.407 45.7061C219.416 45.6747 219.449 45.6576 219.479 45.6677C219.624 45.7131 219.766 45.7596 219.908 45.8082C219.938 45.8183 219.954 45.8516 219.944 45.8819C219.936 45.9062 219.913 45.9213 219.889 45.9213H219.89ZM208.868 45.8819C208.845 45.8819 208.823 45.8678 208.814 45.8445C208.803 45.8142 208.817 45.7809 208.847 45.7687C208.988 45.7142 209.13 45.6606 209.271 45.6101C209.301 45.5989 209.334 45.6151 209.345 45.6454C209.356 45.6757 209.34 45.7091 209.31 45.7202C209.169 45.7708 209.029 45.8233 208.889 45.8779C208.882 45.8809 208.875 45.8819 208.868 45.8819ZM214.41 45.701C214.386 45.701 214.363 45.6859 214.355 45.6606C214.308 45.514 214.263 45.3665 214.223 45.223C214.214 45.1916 214.232 45.1593 214.263 45.1512C214.295 45.1421 214.326 45.1603 214.334 45.1916C214.374 45.3341 214.417 45.4797 214.464 45.6252C214.474 45.6555 214.457 45.6889 214.427 45.699C214.421 45.701 214.415 45.702 214.409 45.702L214.41 45.701ZM219.03 45.6525C219.025 45.6525 219.021 45.6525 219.015 45.6505C218.871 45.609 218.727 45.5696 218.581 45.5322C218.55 45.5241 218.531 45.4928 218.539 45.4615C218.547 45.4301 218.578 45.4109 218.609 45.419C218.755 45.4574 218.901 45.4969 219.044 45.5383C219.075 45.5474 219.093 45.5797 219.084 45.6101C219.077 45.6353 219.054 45.6525 219.028 45.6525H219.03ZM209.717 45.5777C209.693 45.5777 209.67 45.5615 209.662 45.5373C209.652 45.507 209.669 45.4736 209.699 45.4635C209.844 45.416 209.99 45.3715 210.131 45.3301C210.162 45.321 210.194 45.3392 210.202 45.3705C210.211 45.4018 210.193 45.4342 210.163 45.4423C210.022 45.4837 209.879 45.5282 209.735 45.5747C209.729 45.5767 209.723 45.5777 209.717 45.5777ZM218.159 45.4261C218.159 45.4261 218.15 45.4261 218.146 45.4241C218 45.3897 217.854 45.3574 217.708 45.326C217.677 45.32 217.657 45.2886 217.663 45.2573C217.67 45.226 217.701 45.2058 217.731 45.2118C217.878 45.2432 218.025 45.2755 218.171 45.3099C218.202 45.3169 218.221 45.3483 218.214 45.3796C218.208 45.4069 218.184 45.4251 218.158 45.4251L218.159 45.4261ZM210.582 45.3271C210.556 45.3271 210.532 45.3089 210.526 45.2826C210.518 45.2513 210.537 45.2199 210.568 45.2118C210.658 45.1886 210.749 45.1674 210.84 45.1461C210.896 45.134 210.952 45.1209 211.008 45.1098C211.039 45.1037 211.07 45.1239 211.076 45.1552C211.083 45.1866 211.062 45.2179 211.031 45.224C210.975 45.2361 210.92 45.2482 210.864 45.2604C210.774 45.2806 210.684 45.3018 210.595 45.325C210.59 45.326 210.586 45.3271 210.581 45.3271H210.582ZM217.277 45.2411C217.277 45.2411 217.27 45.2411 217.266 45.2411C217.12 45.2139 216.972 45.1886 216.823 45.1643C216.791 45.1593 216.77 45.129 216.775 45.0976C216.78 45.0663 216.81 45.0441 216.841 45.0491C216.99 45.0734 217.139 45.0986 217.286 45.1269C217.317 45.133 217.338 45.1633 217.332 45.1947C217.327 45.223 217.302 45.2422 217.275 45.2422L217.277 45.2411ZM211.462 45.1411C211.434 45.1411 211.41 45.1209 211.405 45.0926C211.4 45.0612 211.421 45.0309 211.452 45.0249C211.599 44.9996 211.749 44.9753 211.898 44.9551C211.929 44.9501 211.959 44.9733 211.963 45.0046C211.967 45.037 211.945 45.0663 211.914 45.0703C211.767 45.0916 211.617 45.1148 211.472 45.1401C211.469 45.1401 211.465 45.1401 211.462 45.1401V45.1411ZM216.388 45.0976C216.388 45.0976 216.383 45.0976 216.38 45.0976C216.231 45.0774 216.083 45.0592 215.935 45.042C215.903 45.038 215.88 45.0097 215.884 44.9774C215.888 44.945 215.916 44.9218 215.948 44.9258C216.097 44.943 216.247 44.9612 216.396 44.9814C216.428 44.9854 216.45 45.0148 216.446 45.0471C216.442 45.0764 216.417 45.0976 216.389 45.0976H216.388ZM212.353 45.0158C212.324 45.0158 212.299 44.9935 212.296 44.9632C212.293 44.9309 212.316 44.9026 212.347 44.8985C212.495 44.8823 212.647 44.8692 212.796 44.8571C212.827 44.854 212.855 44.8783 212.858 44.9106C212.86 44.943 212.837 44.9713 212.805 44.9733C212.657 44.9844 212.506 44.9986 212.359 45.0137C212.357 45.0137 212.355 45.0137 212.353 45.0137V45.0158ZM215.493 44.9966C215.493 44.9966 215.49 44.9966 215.488 44.9966C215.34 44.9834 215.191 44.9723 215.042 44.9632C215.01 44.9612 214.986 44.9339 214.988 44.9016C214.99 44.8692 215.02 44.845 215.049 44.847C215.199 44.8561 215.349 44.8672 215.498 44.8803C215.53 44.8834 215.553 44.9117 215.551 44.943C215.548 44.9733 215.523 44.9966 215.494 44.9966H215.493ZM213.249 44.947C213.218 44.947 213.193 44.9228 213.191 44.8914C213.19 44.8591 213.214 44.8318 213.246 44.8308C213.396 44.8237 213.547 44.8187 213.697 44.8167H213.698C213.729 44.8167 213.755 44.8419 213.756 44.8743C213.756 44.9066 213.731 44.9329 213.699 44.9339C213.55 44.9369 213.401 44.941 213.251 44.948H213.248L213.249 44.947ZM214.597 44.941H214.595C214.445 44.9359 214.296 44.9319 214.148 44.9309C214.116 44.9309 214.091 44.9046 214.091 44.8722C214.091 44.8439 214.111 44.8207 214.138 44.8156C214.126 44.8076 214.117 44.7954 214.114 44.7803C214.08 44.6297 214.049 44.4781 214.024 44.3315C214.018 44.3002 214.039 44.2699 214.071 44.2638C214.102 44.2577 214.132 44.279 214.138 44.3113C214.163 44.4558 214.193 44.6054 214.226 44.754C214.231 44.7782 214.221 44.8015 214.204 44.8146C214.335 44.8167 214.468 44.8197 214.601 44.8247C214.633 44.8257 214.658 44.853 214.657 44.8854C214.656 44.9167 214.63 44.942 214.599 44.942L214.597 44.941ZM214.014 43.9293C213.985 43.9293 213.96 43.907 213.957 43.8777C213.939 43.7251 213.926 43.5715 213.917 43.4209C213.915 43.3885 213.939 43.3612 213.971 43.3592C214.001 43.3572 214.03 43.3815 214.032 43.4138C214.041 43.5614 214.054 43.713 214.071 43.8636C214.075 43.8959 214.052 43.9242 214.021 43.9282C214.019 43.9282 214.016 43.9282 214.014 43.9282V43.9293ZM213.963 43.0206C213.931 43.0206 213.905 42.9944 213.906 42.962C213.907 42.8407 213.911 42.7195 213.919 42.6012L213.926 42.5032C213.928 42.4708 213.957 42.4466 213.988 42.4496C214.02 42.4516 214.044 42.4799 214.041 42.5123L214.034 42.6093C214.027 42.7245 214.022 42.8438 214.021 42.963C214.021 42.9954 213.995 43.0206 213.963 43.0206ZM230.941 43.0085C230.922 43.0085 230.903 42.9994 230.892 42.9812C230.811 42.8539 230.728 42.7275 230.644 42.6032C230.626 42.5769 230.633 42.5406 230.659 42.5224C230.685 42.5042 230.721 42.5112 230.739 42.5375C230.824 42.6629 230.907 42.7892 230.989 42.9176C231.006 42.9448 230.999 42.9812 230.972 42.9984C230.962 43.0045 230.951 43.0075 230.941 43.0075V43.0085ZM230.433 42.2576C230.415 42.2576 230.398 42.2495 230.386 42.2333C230.298 42.11 230.208 41.9887 230.117 41.8705C230.097 41.8452 230.102 41.8078 230.127 41.7886C230.152 41.7694 230.189 41.7734 230.208 41.7997C230.299 41.92 230.39 42.0413 230.478 42.1656C230.497 42.1919 230.491 42.2283 230.465 42.2475C230.456 42.2545 230.444 42.2586 230.432 42.2586L230.433 42.2576ZM214.029 42.114C214.029 42.114 214.024 42.114 214.021 42.114C213.989 42.11 213.967 42.0807 213.971 42.0483C213.991 41.8947 214.016 41.7431 214.044 41.5956C214.05 41.5642 214.081 41.543 214.112 41.5491C214.143 41.5551 214.164 41.5854 214.158 41.6178C214.13 41.7623 214.106 41.9129 214.086 42.0635C214.082 42.0928 214.057 42.114 214.029 42.114ZM229.884 41.5369C229.867 41.5369 229.852 41.5299 229.84 41.5157C229.745 41.3975 229.648 41.2822 229.551 41.169C229.53 41.1448 229.533 41.1074 229.557 41.0872C229.581 41.0659 229.618 41.068 229.639 41.0932C229.737 41.2074 229.834 41.3237 229.929 41.4429C229.949 41.4682 229.945 41.5046 229.921 41.5248C229.91 41.5339 229.897 41.5379 229.884 41.5379V41.5369ZM214.2 41.2216C214.2 41.2216 214.19 41.2216 214.186 41.2196C214.155 41.2115 214.137 41.1791 214.145 41.1488C214.183 41.0003 214.225 40.8517 214.272 40.7092C214.282 40.6789 214.315 40.6617 214.345 40.6718C214.375 40.6819 214.392 40.7152 214.382 40.7456C214.336 40.886 214.293 41.0316 214.256 41.1781C214.249 41.2044 214.226 41.2216 214.201 41.2216H214.2ZM229.294 40.8497C229.278 40.8497 229.263 40.8436 229.253 40.8305C229.153 40.7203 229.049 40.6101 228.944 40.502C228.922 40.4787 228.922 40.4423 228.944 40.4191C228.967 40.3969 229.003 40.3969 229.026 40.4191C229.131 40.5283 229.236 40.6394 229.336 40.7506C229.358 40.7739 229.356 40.8113 229.333 40.8335C229.322 40.8436 229.308 40.8486 229.294 40.8486V40.8497ZM214.483 40.3585C214.476 40.3585 214.468 40.3574 214.461 40.3544C214.432 40.3423 214.417 40.3079 214.43 40.2786C214.488 40.1361 214.552 39.9956 214.619 39.8612C214.633 39.8319 214.668 39.8208 214.697 39.8349C214.725 39.8491 214.737 39.8844 214.723 39.9138C214.657 40.0462 214.595 40.1836 214.538 40.3231C214.529 40.3453 214.507 40.3595 214.485 40.3595L214.483 40.3585ZM228.665 40.1988C228.652 40.1988 228.637 40.1937 228.626 40.1826C228.518 40.0775 228.407 39.9734 228.298 39.8733C228.274 39.8521 228.272 39.8147 228.294 39.7904C228.315 39.7662 228.352 39.7642 228.376 39.7864C228.486 39.8875 228.598 39.9916 228.706 40.0977C228.729 40.1199 228.73 40.1573 228.708 40.1806C228.697 40.1927 228.681 40.1988 228.666 40.1988H228.665ZM227.998 39.5893C227.985 39.5893 227.972 39.5853 227.961 39.5752C227.847 39.4771 227.73 39.3811 227.614 39.2881C227.589 39.2679 227.585 39.2315 227.605 39.2063C227.625 39.181 227.661 39.177 227.686 39.1972C227.803 39.2912 227.921 39.3882 228.036 39.4872C228.059 39.5085 228.062 39.5448 228.043 39.5691C228.032 39.5822 228.015 39.5893 227.999 39.5893H227.998ZM214.885 39.5459C214.875 39.5459 214.865 39.5428 214.855 39.5378C214.828 39.5216 214.819 39.4852 214.835 39.4579C214.913 39.3265 214.997 39.1972 215.085 39.0739C215.104 39.0476 215.14 39.0415 215.166 39.0607C215.192 39.0799 215.198 39.1163 215.179 39.1426C215.093 39.2639 215.011 39.3902 214.934 39.5186C214.923 39.5368 214.904 39.5469 214.884 39.5469L214.885 39.5459ZM227.293 39.0233C227.281 39.0233 227.269 39.0193 227.259 39.0122C227.139 38.9223 227.016 38.8333 226.894 38.7484C226.868 38.7302 226.861 38.6938 226.879 38.6676C226.897 38.6413 226.933 38.6342 226.959 38.6524C227.082 38.7383 227.205 38.8272 227.327 38.9182C227.353 38.9374 227.358 38.9738 227.339 39.0001C227.328 39.0152 227.31 39.0233 227.293 39.0233ZM215.409 38.807C215.396 38.807 215.383 38.802 215.372 38.7929C215.348 38.7717 215.344 38.7353 215.365 38.711C215.461 38.5948 215.565 38.4806 215.671 38.3714C215.694 38.3482 215.73 38.3482 215.753 38.3714C215.776 38.3937 215.776 38.4311 215.753 38.4543C215.649 38.5604 215.547 38.6726 215.452 38.7868C215.441 38.801 215.424 38.808 215.409 38.808V38.807ZM226.553 38.5069C226.542 38.5069 226.532 38.5038 226.522 38.4978C226.397 38.4169 226.268 38.3361 226.142 38.2592C226.115 38.2431 226.106 38.2067 226.122 38.1794C226.138 38.1521 226.173 38.142 226.201 38.1592C226.329 38.237 226.458 38.3179 226.585 38.3997C226.612 38.4169 226.62 38.4533 226.602 38.4806C226.591 38.4978 226.572 38.5079 226.553 38.5079V38.5069ZM216.041 38.1622C216.025 38.1622 216.01 38.1551 215.998 38.142C215.977 38.1177 215.98 38.0803 216.004 38.0601C216.117 37.9611 216.237 37.8651 216.359 37.7751C216.385 37.7559 216.421 37.762 216.44 37.7883C216.459 37.8145 216.453 37.8509 216.428 37.8701C216.308 37.9591 216.19 38.0531 216.079 38.1501C216.068 38.1592 216.055 38.1642 216.041 38.1642V38.1622ZM225.78 38.0419C225.771 38.0419 225.761 38.0399 225.752 38.0349C225.622 37.9621 225.488 37.8913 225.356 37.8236C225.328 37.8095 225.316 37.7741 225.33 37.7448C225.344 37.7155 225.379 37.7044 225.408 37.7185C225.541 37.7862 225.675 37.858 225.807 37.9308C225.835 37.9459 225.845 37.9813 225.83 38.0096C225.82 38.0288 225.8 38.0399 225.779 38.0399L225.78 38.0419ZM224.977 37.6326C224.969 37.6326 224.961 37.6306 224.953 37.6276C224.817 37.5649 224.678 37.5032 224.542 37.4466C224.513 37.4345 224.499 37.4001 224.511 37.3708C224.523 37.3405 224.557 37.3274 224.586 37.3395C224.724 37.3971 224.863 37.4588 225.001 37.5224C225.03 37.5356 225.042 37.5709 225.03 37.6003C225.02 37.6215 224.999 37.6346 224.977 37.6346V37.6326ZM216.765 37.6255C216.746 37.6255 216.727 37.6154 216.716 37.5982C216.699 37.571 216.708 37.5346 216.735 37.5184C216.862 37.4385 216.995 37.3627 217.13 37.292C217.158 37.2768 217.193 37.288 217.208 37.3173C217.222 37.3456 217.212 37.3809 217.183 37.3961C217.051 37.4658 216.921 37.5406 216.796 37.6185C216.787 37.6245 216.776 37.6276 216.766 37.6276L216.765 37.6255ZM224.145 37.2849C224.138 37.2849 224.132 37.2839 224.125 37.2809C223.985 37.2283 223.842 37.1788 223.703 37.1323C223.673 37.1222 223.656 37.0899 223.666 37.0585C223.676 37.0282 223.709 37.011 223.739 37.0211C223.88 37.0676 224.024 37.1182 224.165 37.1717C224.195 37.1828 224.21 37.2162 224.199 37.2465C224.19 37.2698 224.168 37.2849 224.145 37.2849ZM217.561 37.2051C217.539 37.2051 217.517 37.1919 217.508 37.1697C217.495 37.1404 217.508 37.106 217.538 37.0929C217.675 37.0322 217.818 36.9756 217.96 36.9251C217.99 36.915 218.023 36.9302 218.034 36.9605C218.045 36.9908 218.029 37.0242 217.999 37.0353C217.858 37.0858 217.72 37.1414 217.585 37.2C217.578 37.2031 217.57 37.2051 217.562 37.2051H217.561ZM223.29 37.0019C223.285 37.0019 223.28 37.0019 223.274 36.9999C223.131 36.9585 222.985 36.9201 222.842 36.8857C222.811 36.8786 222.792 36.8463 222.799 36.8149C222.806 36.7836 222.837 36.7644 222.869 36.7715C223.014 36.8069 223.161 36.8453 223.306 36.8867C223.337 36.8958 223.355 36.9281 223.346 36.9585C223.339 36.9837 223.316 37.0009 223.29 37.0009V37.0019ZM218.408 36.8998C218.383 36.8998 218.36 36.8827 218.352 36.8574C218.343 36.8261 218.361 36.7937 218.392 36.7856C218.535 36.7442 218.683 36.7068 218.831 36.6745C218.862 36.6674 218.893 36.6876 218.9 36.7189C218.907 36.7503 218.887 36.7816 218.856 36.7887C218.71 36.821 218.564 36.8574 218.424 36.8978C218.419 36.8988 218.413 36.8998 218.408 36.8998ZM222.416 36.7907C222.416 36.7907 222.409 36.7907 222.405 36.7897C222.258 36.7604 222.11 36.7351 221.965 36.7129C221.933 36.7078 221.912 36.6785 221.916 36.6462C221.921 36.6138 221.95 36.5916 221.982 36.5966C222.129 36.6189 222.279 36.6452 222.427 36.6745C222.458 36.6805 222.479 36.7108 222.473 36.7432C222.468 36.7715 222.444 36.7907 222.416 36.7907ZM219.285 36.7058C219.257 36.7058 219.232 36.6856 219.228 36.6563C219.223 36.6249 219.245 36.5946 219.276 36.5896C219.423 36.5663 219.575 36.5471 219.725 36.532C219.756 36.5289 219.785 36.5522 219.788 36.5845C219.791 36.6169 219.768 36.6452 219.736 36.6482C219.588 36.6633 219.439 36.6825 219.293 36.7058C219.29 36.7058 219.287 36.7058 219.284 36.7058H219.285ZM221.526 36.6563C221.526 36.6563 221.522 36.6563 221.52 36.6563C221.371 36.6411 221.221 36.629 221.075 36.6209C221.043 36.6189 221.019 36.5916 221.021 36.5592C221.023 36.5269 221.047 36.5037 221.082 36.5047C221.23 36.5127 221.382 36.5249 221.533 36.541C221.565 36.5441 221.588 36.5734 221.585 36.6047C221.582 36.635 221.557 36.6573 221.528 36.6573L221.526 36.6563ZM220.18 36.6148C220.149 36.6148 220.124 36.5906 220.122 36.5592C220.121 36.5269 220.145 36.4996 220.177 36.4986C220.307 36.4925 220.442 36.4895 220.575 36.4895H220.629C220.661 36.4895 220.687 36.5158 220.686 36.5481C220.686 36.5805 220.662 36.6108 220.628 36.6057H220.574C220.442 36.6057 220.31 36.6088 220.181 36.6148H220.178H220.18Z" fill="#076AAB"/>
<path d="M136.188 23.3391L136.325 22.4931L137.729 22.2192L140.645 24.2133L136.188 23.3391H136.188ZM136.421 22.5871L136.313 23.2512L140.141 24.0021L137.706 22.3375L136.421 22.5881V22.5871Z" fill="#076AAB"/>
<path d="M140.726 24.2962L136.507 21.25L132.391 20.9326L140.726 24.2962Z" fill="#88D1FF"/>
<path d="M137.863 21.1155L140.727 24.2962L139.131 19.2346L137.863 21.1155Z" fill="#88D1FF"/>
<path d="M137.861 21.1155L137.734 22.1373L140.724 24.2961L137.861 21.1155Z" fill="#076AAB"/>
<path d="M112.135 32.8357C112.094 32.8357 112.06 32.8033 112.058 32.7609C112.056 32.7184 112.089 32.6821 112.132 32.68C112.317 32.672 112.514 32.6467 112.714 32.6053C112.756 32.5972 112.796 32.6234 112.805 32.6659C112.814 32.7083 112.787 32.7488 112.745 32.7579C112.537 32.8013 112.332 32.8276 112.138 32.8357H112.135ZM111.538 32.8003C111.538 32.8003 111.529 32.8003 111.525 32.7993C111.314 32.7629 111.115 32.7013 110.934 32.6154C110.895 32.5972 110.879 32.5507 110.897 32.5123C110.915 32.4729 110.961 32.4567 110.999 32.4749C111.167 32.5547 111.352 32.6123 111.55 32.6467C111.592 32.6538 111.62 32.6942 111.613 32.7366C111.607 32.775 111.574 32.8013 111.537 32.8013L111.538 32.8003ZM113.308 32.5992C113.276 32.5992 113.245 32.578 113.235 32.5456C113.222 32.5052 113.244 32.4607 113.284 32.4476C113.47 32.3869 113.657 32.3182 113.843 32.2434C113.882 32.2283 113.927 32.2475 113.943 32.2869C113.959 32.3273 113.939 32.3718 113.9 32.388C113.711 32.4638 113.519 32.5335 113.331 32.5951C113.323 32.5982 113.315 32.5992 113.307 32.5992H113.308ZM110.471 32.2838C110.453 32.2838 110.434 32.2768 110.419 32.2626C110.269 32.1211 110.141 31.9544 110.037 31.7664C110.016 31.729 110.03 31.6815 110.067 31.6602C110.104 31.639 110.151 31.6532 110.172 31.6906C110.268 31.8634 110.386 32.018 110.524 32.1484C110.555 32.1777 110.557 32.2272 110.528 32.2586C110.513 32.2748 110.492 32.2828 110.472 32.2828L110.471 32.2838ZM114.423 32.1545C114.394 32.1545 114.366 32.1373 114.353 32.109C114.335 32.0696 114.352 32.0241 114.391 32.0059C114.568 31.923 114.747 31.8331 114.924 31.7381C114.962 31.7179 115.008 31.732 115.028 31.7704C115.048 31.8088 115.034 31.8553 114.996 31.8755C114.817 31.9715 114.635 32.0635 114.455 32.1474C114.445 32.1525 114.434 32.1545 114.423 32.1545ZM115.483 31.5875C115.457 31.5875 115.431 31.5743 115.417 31.5491C115.395 31.5117 115.407 31.4642 115.444 31.4419C115.612 31.3409 115.783 31.2327 115.949 31.1215C115.984 31.0983 116.032 31.1074 116.056 31.1438C116.079 31.1792 116.07 31.2277 116.034 31.2519C115.866 31.3641 115.693 31.4733 115.523 31.5764C115.511 31.5834 115.497 31.5875 115.484 31.5875H115.483ZM109.886 31.2449C109.853 31.2449 109.821 31.2216 109.812 31.1862C109.763 30.9932 109.733 30.787 109.723 30.5707C109.721 30.5283 109.754 30.4909 109.796 30.4888C109.84 30.4868 109.874 30.5202 109.876 30.5626C109.886 30.7678 109.914 30.9639 109.96 31.1468C109.971 31.1882 109.946 31.2307 109.904 31.2418C109.898 31.2438 109.891 31.2438 109.885 31.2438L109.886 31.2449ZM116.486 30.9204C116.462 30.9204 116.439 30.9093 116.424 30.8881C116.399 30.8537 116.407 30.8042 116.441 30.7789C116.6 30.6627 116.76 30.5404 116.917 30.4151C116.95 30.3888 116.999 30.3949 117.025 30.4282C117.051 30.4616 117.045 30.5111 117.012 30.5374C116.853 30.6637 116.691 30.787 116.53 30.9042C116.516 30.9144 116.501 30.9194 116.486 30.9194V30.9204ZM117.43 30.1705C117.408 30.1705 117.386 30.1614 117.371 30.1432C117.343 30.1108 117.347 30.0613 117.38 30.033C117.53 29.9047 117.681 29.7702 117.828 29.6338C117.859 29.6045 117.908 29.6075 117.937 29.6388C117.966 29.6702 117.963 29.7197 117.932 29.749C117.782 29.8865 117.631 30.0229 117.48 30.1523C117.466 30.1644 117.448 30.1705 117.43 30.1705ZM109.822 30.0391C109.822 30.0391 109.816 30.0391 109.813 30.0391C109.771 30.034 109.74 29.9956 109.745 29.9532C109.766 29.7571 109.802 29.5529 109.851 29.3468C109.861 29.3053 109.902 29.279 109.943 29.2891C109.984 29.2993 110.01 29.3407 110 29.3831C109.953 29.5833 109.918 29.7814 109.898 29.9714C109.894 30.0108 109.861 30.0411 109.823 30.0411L109.822 30.0391ZM118.316 29.3528C118.296 29.3528 118.277 29.3447 118.262 29.3296C118.232 29.2993 118.233 29.2497 118.263 29.2194C118.404 29.0799 118.545 28.9354 118.683 28.7899C118.712 28.7585 118.761 28.7575 118.792 28.7878C118.823 28.8172 118.824 28.8667 118.794 28.898C118.655 29.0446 118.512 29.1901 118.369 29.3316C118.354 29.3468 118.335 29.3538 118.315 29.3538L118.316 29.3528ZM110.094 28.8596C110.086 28.8596 110.077 28.8586 110.069 28.8556C110.029 28.8414 110.008 28.7969 110.022 28.7565C110.087 28.5695 110.162 28.3775 110.246 28.1865C110.263 28.1471 110.309 28.1299 110.348 28.1471C110.387 28.1642 110.404 28.2107 110.387 28.2501C110.304 28.4371 110.231 28.6251 110.167 28.8081C110.156 28.8404 110.126 28.8606 110.094 28.8606V28.8596ZM119.147 28.4765C119.129 28.4765 119.11 28.4705 119.095 28.4563C119.063 28.428 119.061 28.3785 119.089 28.3462C119.221 28.1976 119.354 28.045 119.483 27.8903C119.509 27.858 119.558 27.8529 119.591 27.8812C119.623 27.9085 119.628 27.9581 119.6 27.9914C119.471 28.1471 119.337 28.3017 119.204 28.4513C119.189 28.4685 119.168 28.4765 119.147 28.4765ZM110.58 27.7509C110.568 27.7509 110.555 27.7478 110.544 27.7418C110.506 27.7216 110.492 27.674 110.512 27.6367C110.604 27.4618 110.706 27.2839 110.815 27.107C110.837 27.0707 110.885 27.0595 110.921 27.0818C110.957 27.104 110.968 27.1525 110.946 27.1889C110.839 27.3628 110.739 27.5386 110.648 27.7104C110.634 27.7367 110.608 27.7519 110.58 27.7519V27.7509ZM119.922 27.5507C119.905 27.5507 119.888 27.5457 119.874 27.5336C119.841 27.5063 119.835 27.4578 119.862 27.4244C119.985 27.2677 120.107 27.107 120.227 26.9463C120.253 26.912 120.301 26.9049 120.335 26.9312C120.369 26.9565 120.376 27.006 120.35 27.0403C120.23 27.2021 120.106 27.3638 119.983 27.5214C119.968 27.5406 119.945 27.5507 119.923 27.5507H119.922ZM111.209 26.7179C111.194 26.7179 111.178 26.7139 111.165 26.7038C111.13 26.6795 111.122 26.631 111.146 26.5956C111.259 26.4329 111.379 26.2672 111.504 26.1034C111.53 26.0691 111.578 26.063 111.612 26.0893C111.646 26.1156 111.652 26.1641 111.626 26.1984C111.503 26.3601 111.384 26.5229 111.272 26.6846C111.257 26.7058 111.233 26.7179 111.209 26.7179ZM120.641 26.5805C120.626 26.5805 120.61 26.5754 120.597 26.5663C120.562 26.5411 120.554 26.4925 120.579 26.4582C120.694 26.2944 120.806 26.1267 120.917 25.9589C120.94 25.9235 120.988 25.9134 121.024 25.9377C121.059 25.9619 121.069 26.0094 121.045 26.0458C120.934 26.2146 120.819 26.3834 120.704 26.5481C120.69 26.5694 120.666 26.5815 120.642 26.5815L120.641 26.5805ZM111.942 25.7568C111.924 25.7568 111.907 25.7507 111.892 25.7386C111.86 25.7113 111.855 25.6617 111.883 25.6284C112.011 25.4758 112.145 25.3222 112.281 25.1705C112.31 25.1392 112.359 25.1372 112.39 25.1655C112.421 25.1948 112.423 25.2433 112.395 25.2757C112.26 25.4252 112.127 25.5779 112.001 25.7285C111.986 25.7466 111.964 25.7557 111.942 25.7557V25.7568ZM121.305 25.5688C121.292 25.5688 121.278 25.5647 121.265 25.5566C121.229 25.5334 121.218 25.4859 121.241 25.4495C121.346 25.2787 121.45 25.1038 121.551 24.931C121.572 24.8936 121.62 24.8815 121.656 24.9037C121.693 24.9249 121.705 24.9735 121.683 25.0098C121.582 25.1837 121.477 25.3595 121.37 25.5314C121.355 25.5546 121.33 25.5678 121.305 25.5678V25.5688ZM112.753 24.8623C112.733 24.8623 112.714 24.8552 112.699 24.84C112.669 24.8097 112.668 24.7602 112.699 24.7299C112.838 24.5884 112.982 24.4449 113.129 24.3034C113.16 24.2741 113.209 24.2751 113.238 24.3064C113.267 24.3377 113.266 24.3873 113.235 24.4166C113.089 24.556 112.945 24.6986 112.808 24.839C112.793 24.8542 112.773 24.8623 112.753 24.8623ZM121.913 24.5207C121.901 24.5207 121.889 24.5176 121.877 24.5106C121.84 24.4893 121.826 24.4428 121.847 24.4044C121.942 24.2276 122.037 24.0477 122.127 23.8688C122.146 23.8304 122.193 23.8152 122.231 23.8354C122.269 23.8546 122.284 23.9021 122.264 23.9405C122.173 24.1204 122.077 24.3024 121.98 24.4802C121.966 24.5065 121.94 24.5207 121.912 24.5207H121.913ZM113.623 24.0285C113.602 24.0285 113.581 24.0194 113.565 24.0022C113.537 23.9698 113.54 23.9213 113.571 23.892C113.719 23.7596 113.873 23.6252 114.028 23.4948C114.061 23.4675 114.108 23.4716 114.135 23.5049C114.162 23.5383 114.158 23.5868 114.125 23.6151C113.972 23.7455 113.82 23.8779 113.673 24.0103C113.658 24.0234 113.64 24.0295 113.622 24.0295L113.623 24.0285ZM122.462 23.4382C122.451 23.4382 122.44 23.4362 122.429 23.4301C122.391 23.4119 122.374 23.3654 122.393 23.326C122.479 23.1441 122.562 22.9591 122.641 22.7762C122.658 22.7368 122.704 22.7196 122.743 22.7368C122.782 22.754 122.8 22.8005 122.782 22.8399C122.702 23.0238 122.617 23.2108 122.531 23.3937C122.518 23.422 122.491 23.4382 122.462 23.4382ZM114.543 23.2492C114.52 23.2492 114.498 23.2391 114.483 23.2199C114.457 23.1865 114.462 23.137 114.496 23.1107C114.652 22.9854 114.812 22.8611 114.972 22.7388C115.006 22.7135 115.054 22.7196 115.08 22.754C115.106 22.7883 115.099 22.8368 115.065 22.8631C114.906 22.9844 114.746 23.1077 114.592 23.232C114.578 23.2431 114.561 23.2492 114.544 23.2492H114.543ZM115.502 22.5205C115.478 22.5205 115.454 22.5094 115.439 22.4882C115.414 22.4528 115.422 22.4043 115.457 22.38C115.617 22.2648 115.784 22.1475 115.951 22.0323C115.986 22.0081 116.034 22.0172 116.058 22.0525C116.082 22.0879 116.073 22.1364 116.038 22.1607C115.872 22.2749 115.707 22.3911 115.547 22.5063C115.533 22.5165 115.518 22.5205 115.502 22.5205ZM122.945 22.3264C122.935 22.3264 122.926 22.3244 122.916 22.3204C122.877 22.3042 122.857 22.2587 122.873 22.2193C122.948 22.0323 123.02 21.8423 123.089 21.6553C123.104 21.6149 123.147 21.5937 123.187 21.6088C123.227 21.624 123.247 21.6685 123.233 21.7089C123.164 21.8979 123.092 22.0889 123.017 22.2779C123.005 22.3082 122.976 22.3264 122.946 22.3264H122.945ZM116.494 21.8393C116.47 21.8393 116.445 21.8261 116.43 21.8039C116.407 21.7675 116.417 21.719 116.453 21.6968C116.62 21.5876 116.792 21.4795 116.964 21.3754C117 21.3531 117.048 21.3653 117.07 21.4017C117.091 21.438 117.08 21.4866 117.044 21.5088C116.874 21.6119 116.703 21.72 116.536 21.8282C116.523 21.8363 116.509 21.8403 116.495 21.8403L116.494 21.8393ZM117.522 21.2137C117.495 21.2137 117.469 21.1995 117.455 21.1742C117.434 21.1368 117.447 21.0893 117.484 21.0681C117.66 20.9681 117.837 20.87 118.012 20.777C118.05 20.7568 118.096 20.772 118.116 20.8094C118.136 20.8478 118.121 20.8943 118.084 20.9145C117.91 21.0075 117.733 21.1045 117.559 21.2036C117.547 21.2106 117.534 21.2137 117.521 21.2137H117.522ZM123.358 21.1874C123.35 21.1874 123.342 21.1864 123.334 21.1833C123.294 21.1702 123.272 21.1257 123.285 21.0853C123.347 20.8943 123.407 20.7002 123.463 20.5082C123.475 20.4668 123.518 20.4435 123.559 20.4556C123.6 20.4678 123.623 20.5112 123.611 20.5527C123.555 20.7467 123.494 20.9428 123.431 21.1348C123.42 21.1672 123.39 21.1884 123.358 21.1884V21.1874ZM118.583 20.6487C118.555 20.6487 118.527 20.6325 118.514 20.6052C118.495 20.5668 118.511 20.5203 118.549 20.5011C118.729 20.4122 118.912 20.3242 119.094 20.2414C119.133 20.2232 119.178 20.2414 119.196 20.2798C119.214 20.3192 119.196 20.3647 119.158 20.3829C118.978 20.4657 118.797 20.5517 118.618 20.6406C118.607 20.6456 118.596 20.6487 118.584 20.6487H118.583ZM136.61 20.4819C136.599 20.4819 136.587 20.4789 136.576 20.4738C136.574 20.4738 136.381 20.3768 136.031 20.2313C135.992 20.2151 135.973 20.1696 135.989 20.1292C136.005 20.0898 136.05 20.0706 136.09 20.0867C136.446 20.2353 136.637 20.3303 136.645 20.3344C136.683 20.3536 136.699 20.4 136.68 20.4385C136.667 20.4657 136.639 20.4819 136.611 20.4819H136.61ZM119.675 20.1484C119.645 20.1484 119.616 20.1302 119.604 20.1009C119.588 20.0615 119.606 20.016 119.645 19.9988C119.83 19.921 120.019 19.8442 120.204 19.7724C120.244 19.7572 120.288 19.7775 120.303 19.8169C120.318 19.8573 120.298 19.9018 120.259 19.9169C120.075 19.9887 119.888 20.0635 119.704 20.1413C119.694 20.1454 119.684 20.1474 119.674 20.1474L119.675 20.1484ZM123.695 20.022C123.689 20.022 123.682 20.022 123.676 20.02C123.635 20.0099 123.61 19.9675 123.62 19.925C123.67 19.7279 123.714 19.5298 123.755 19.3368C123.764 19.2943 123.805 19.2681 123.846 19.2772C123.888 19.2863 123.914 19.3277 123.905 19.3691C123.864 19.5642 123.817 19.7643 123.767 19.9634C123.758 19.9988 123.727 20.022 123.693 20.022H123.695ZM135.5 20.016C135.491 20.016 135.482 20.014 135.473 20.0109C135.29 19.9422 135.102 19.8745 134.91 19.8088C134.87 19.7946 134.848 19.7512 134.862 19.7097C134.876 19.6693 134.919 19.6471 134.96 19.6612C135.152 19.7269 135.344 19.7957 135.528 19.8654C135.568 19.8805 135.588 19.925 135.573 19.9654C135.561 19.9968 135.532 20.016 135.501 20.016H135.5ZM120.795 19.7148C120.763 19.7148 120.733 19.6946 120.722 19.6622C120.708 19.6218 120.729 19.5773 120.769 19.5632C120.959 19.4965 121.151 19.4318 121.34 19.3712C121.381 19.359 121.424 19.3813 121.437 19.4217C121.45 19.4631 121.427 19.5066 121.387 19.5197C121.199 19.5794 121.008 19.644 120.82 19.7097C120.812 19.7128 120.803 19.7138 120.795 19.7138V19.7148ZM134.364 19.6259C134.356 19.6259 134.349 19.6248 134.341 19.6228C134.152 19.5642 133.959 19.5066 133.767 19.452C133.726 19.4409 133.702 19.3974 133.714 19.356C133.725 19.3146 133.768 19.2903 133.809 19.3024C134.002 19.357 134.197 19.4146 134.387 19.4742C134.428 19.4864 134.45 19.5308 134.438 19.5713C134.428 19.6046 134.397 19.6259 134.364 19.6259ZM121.939 19.3499C121.905 19.3499 121.875 19.3277 121.866 19.2933C121.854 19.2519 121.878 19.2084 121.918 19.1973C122.11 19.1427 122.306 19.0902 122.501 19.0407C122.542 19.0306 122.583 19.0558 122.593 19.0973C122.603 19.1387 122.578 19.1811 122.537 19.1913C122.345 19.2398 122.15 19.2923 121.96 19.3469C121.953 19.3489 121.946 19.3499 121.939 19.3499ZM133.208 19.2984C133.202 19.2984 133.195 19.2984 133.189 19.2964C132.997 19.2479 132.801 19.2003 132.607 19.1559C132.566 19.1468 132.539 19.1043 132.549 19.0629C132.558 19.0215 132.6 18.9952 132.641 19.0043C132.836 19.0487 133.033 19.0962 133.227 19.1458C133.268 19.1559 133.293 19.1983 133.283 19.2408C133.274 19.2762 133.243 19.2994 133.208 19.2994V19.2984ZM123.103 19.0558C123.068 19.0558 123.036 19.0306 123.028 18.9942C123.019 18.9517 123.045 18.9103 123.087 18.9012C123.281 18.8577 123.48 18.8173 123.677 18.7799C123.717 18.7718 123.758 18.8001 123.766 18.8416C123.774 18.884 123.746 18.9244 123.706 18.9325C123.51 18.9699 123.313 19.0103 123.119 19.0528C123.113 19.0538 123.109 19.0548 123.104 19.0548L123.103 19.0558ZM132.038 19.0306C132.033 19.0306 132.028 19.0306 132.023 19.0285C131.827 18.9891 131.629 18.9517 131.435 18.9174C131.393 18.9103 131.365 18.8698 131.372 18.8274C131.379 18.785 131.419 18.7567 131.461 18.7637C131.656 18.7981 131.856 18.8355 132.053 18.8749C132.095 18.883 132.122 18.9244 132.113 18.9669C132.106 19.0043 132.074 19.0295 132.038 19.0295V19.0306ZM123.945 18.8345C123.945 18.8345 123.936 18.8345 123.932 18.8335C123.89 18.8264 123.862 18.786 123.869 18.7435C123.903 18.5434 123.933 18.3423 123.957 18.1462C123.962 18.1037 124.001 18.0734 124.043 18.0785C124.085 18.0835 124.115 18.1229 124.11 18.1654C124.085 18.3635 124.055 18.5666 124.021 18.7698C124.015 18.8082 123.982 18.8345 123.945 18.8345ZM124.282 18.8325C124.245 18.8325 124.212 18.8052 124.206 18.7668C124.199 18.7243 124.228 18.6849 124.27 18.6778C124.467 18.6465 124.668 18.6172 124.866 18.5919C124.909 18.5869 124.946 18.6172 124.951 18.6596C124.956 18.7021 124.926 18.7415 124.885 18.7465C124.688 18.7718 124.489 18.8001 124.293 18.8314C124.289 18.8314 124.285 18.8314 124.281 18.8314L124.282 18.8325ZM130.855 18.8244C130.855 18.8244 130.847 18.8244 130.844 18.8244C130.647 18.7951 130.447 18.7678 130.251 18.7435C130.209 18.7385 130.179 18.7001 130.184 18.6566C130.189 18.6141 130.228 18.5828 130.27 18.5889C130.467 18.6131 130.668 18.6404 130.867 18.6697C130.909 18.6758 130.937 18.7152 130.932 18.7577C130.926 18.7961 130.893 18.8244 130.856 18.8244H130.855ZM125.471 18.6788C125.432 18.6788 125.398 18.6485 125.394 18.6081C125.39 18.5656 125.421 18.5272 125.463 18.5232C125.66 18.504 125.862 18.4868 126.063 18.4726C126.105 18.4696 126.141 18.502 126.144 18.5454C126.147 18.5879 126.116 18.6253 126.073 18.6283C125.874 18.6424 125.673 18.6596 125.478 18.6788C125.475 18.6788 125.473 18.6788 125.47 18.6788H125.471ZM129.664 18.6788C129.664 18.6788 129.659 18.6788 129.657 18.6788C129.46 18.6596 129.259 18.6435 129.061 18.6293C129.019 18.6263 128.986 18.5889 128.989 18.5464C128.992 18.504 129.029 18.4726 129.071 18.4737C129.27 18.4878 129.472 18.504 129.671 18.5232C129.713 18.5272 129.743 18.5656 129.739 18.6081C129.735 18.6485 129.703 18.6788 129.663 18.6788H129.664ZM128.467 18.596H128.464C128.264 18.5879 128.063 18.5818 127.867 18.5788C127.824 18.5788 127.79 18.5424 127.791 18.4999C127.791 18.4575 127.826 18.4231 127.868 18.4231H127.869C128.067 18.4262 128.27 18.4312 128.471 18.4403C128.514 18.4423 128.546 18.4787 128.544 18.5212C128.542 18.5626 128.509 18.596 128.468 18.596H128.467ZM126.668 18.596C126.627 18.596 126.593 18.5636 126.591 18.5212C126.589 18.4777 126.622 18.4423 126.665 18.4403C126.863 18.4322 127.066 18.4262 127.267 18.4241C127.309 18.4221 127.343 18.4575 127.344 18.5009C127.344 18.5444 127.312 18.5788 127.269 18.5798C127.069 18.5828 126.868 18.5879 126.672 18.596H126.669H126.668ZM124.096 17.6307C124.096 17.6307 124.092 17.6307 124.09 17.6307C124.048 17.6277 124.016 17.5893 124.019 17.5468C124.035 17.3447 124.046 17.1426 124.052 16.9445C124.053 16.901 124.088 16.8677 124.131 16.8687C124.174 16.8697 124.207 16.9061 124.206 16.9485C124.2 17.1486 124.189 17.3548 124.173 17.559C124.17 17.5994 124.136 17.6307 124.096 17.6307ZM124.131 16.4179C124.089 16.4179 124.055 16.3845 124.054 16.3421C124.049 16.1389 124.038 15.9368 124.022 15.7407C124.018 15.6983 124.05 15.6599 124.092 15.6568C124.135 15.6528 124.172 15.6851 124.175 15.7276C124.191 15.9267 124.202 16.1329 124.207 16.338C124.208 16.3815 124.174 16.4169 124.132 16.4179H124.13H124.131ZM124.03 15.2081C123.992 15.2081 123.96 15.1798 123.954 15.1414C123.925 14.9443 123.89 14.7492 123.85 14.5612L123.847 14.5491C123.838 14.5067 123.865 14.4662 123.907 14.4571C123.948 14.448 123.989 14.4753 123.998 14.5178L124 14.5279C124.041 14.7199 124.077 14.919 124.106 15.1191C124.112 15.1616 124.083 15.201 124.041 15.2071C124.037 15.2071 124.033 15.2071 124.03 15.2071V15.2081ZM123.774 14.0225C123.741 14.0225 123.711 14.0003 123.701 13.9669C123.644 13.7719 123.58 13.5799 123.511 13.3979C123.496 13.3575 123.515 13.313 123.555 13.2969C123.595 13.2817 123.639 13.3009 123.655 13.3413C123.725 13.5273 123.79 13.7224 123.848 13.9225C123.86 13.9639 123.837 14.0074 123.796 14.0195C123.789 14.0215 123.781 14.0225 123.774 14.0225ZM123.341 12.8926C123.313 12.8926 123.286 12.8764 123.272 12.8491C123.182 12.6672 123.085 12.4923 122.981 12.3286C122.958 12.2922 122.968 12.2447 123.004 12.2215C123.04 12.1982 123.087 12.2083 123.109 12.2447C123.216 12.4135 123.317 12.5934 123.409 12.7794C123.428 12.8178 123.413 12.8643 123.374 12.8835C123.363 12.8895 123.351 12.8916 123.34 12.8916L123.341 12.8926ZM113.473 12.1709C113.452 12.1709 113.431 12.1618 113.415 12.1447C113.387 12.1123 113.389 12.0638 113.421 12.0345C113.565 11.9041 113.725 11.7737 113.894 11.6494C113.928 11.6241 113.977 11.6312 114.002 11.6666C114.027 11.701 114.02 11.7505 113.985 11.7758C113.82 11.898 113.664 12.0244 113.523 12.1517C113.508 12.1649 113.49 12.1719 113.473 12.1719V12.1709ZM122.693 11.8738C122.671 11.8738 122.649 11.8637 122.634 11.8455C122.508 11.6909 122.373 11.5443 122.231 11.4109C122.2 11.3816 122.198 11.3321 122.227 11.3007C122.256 11.2694 122.305 11.2674 122.336 11.2967C122.483 11.4351 122.622 11.5868 122.753 11.7464C122.78 11.7798 122.775 11.8283 122.743 11.8556C122.729 11.8677 122.711 11.8738 122.694 11.8738H122.693ZM114.438 11.4523C114.412 11.4523 114.387 11.4392 114.372 11.4149C114.35 11.3785 114.361 11.33 114.397 11.3078C114.566 11.2027 114.742 11.1016 114.924 11.0066C114.962 10.9864 115.008 11.0016 115.028 11.04C115.048 11.0784 115.033 11.1249 114.995 11.1451C114.817 11.2391 114.643 11.3381 114.478 11.4412C114.465 11.4493 114.452 11.4523 114.438 11.4523ZM121.819 11.0491C121.804 11.0491 121.788 11.044 121.775 11.0349C121.616 10.9207 121.446 10.8166 121.273 10.7236C121.235 10.7034 121.221 10.6569 121.24 10.6185C121.26 10.5801 121.305 10.5659 121.343 10.5851C121.524 10.6812 121.699 10.7893 121.864 10.9076C121.899 10.9328 121.906 10.9813 121.882 11.0157C121.867 11.0369 121.843 11.0491 121.819 11.0491ZM115.501 10.8924C115.471 10.8924 115.443 10.8752 115.43 10.8459C115.413 10.8065 115.43 10.761 115.47 10.7438C115.654 10.663 115.843 10.5862 116.032 10.5174C116.072 10.5033 116.116 10.5235 116.131 10.5639C116.145 10.6044 116.125 10.6488 116.085 10.664C115.899 10.7317 115.713 10.8065 115.532 10.8863C115.522 10.8904 115.511 10.8924 115.501 10.8924ZM120.759 10.4861C120.75 10.4861 120.741 10.4841 120.732 10.481C120.552 10.4133 120.361 10.3557 120.167 10.3082C120.126 10.2981 120.1 10.2567 120.11 10.2142C120.12 10.1728 120.161 10.1465 120.203 10.1566C120.403 10.2051 120.599 10.2648 120.785 10.3345C120.825 10.3497 120.845 10.3941 120.831 10.4346C120.82 10.4659 120.79 10.4851 120.759 10.4851V10.4861ZM116.63 10.48C116.597 10.48 116.566 10.4578 116.556 10.4234C116.544 10.382 116.568 10.3385 116.609 10.3274C116.804 10.2708 117.002 10.2203 117.196 10.1778C117.237 10.1687 117.279 10.195 117.287 10.2375C117.296 10.2799 117.269 10.3214 117.228 10.3294C117.037 10.3709 116.843 10.4204 116.651 10.476C116.644 10.478 116.637 10.479 116.63 10.479V10.48ZM117.803 10.2264C117.765 10.2264 117.732 10.1981 117.727 10.1596C117.721 10.1172 117.751 10.0778 117.793 10.0717C117.995 10.0434 118.198 10.0232 118.396 10.0111C118.439 10.008 118.475 10.0414 118.477 10.0838C118.479 10.1263 118.447 10.1637 118.405 10.1657C118.212 10.1768 118.013 10.197 117.814 10.2253C117.81 10.2253 117.807 10.2253 117.803 10.2253V10.2264ZM119.597 10.2031C119.597 10.2031 119.591 10.2031 119.587 10.2031C119.396 10.1788 119.198 10.1627 118.997 10.1576C118.955 10.1566 118.921 10.1202 118.922 10.0778C118.923 10.0343 118.958 10.001 119.001 10.002C119.207 10.008 119.41 10.0242 119.606 10.0485C119.648 10.0535 119.678 10.0929 119.673 10.1354C119.668 10.1748 119.635 10.2031 119.597 10.2031Z" fill="#076AAB"/>
<path d="M203.987 76.035C204.906 69.7727 182.111 61.1585 153.074 56.7963C124.037 52.4331 99.7535 53.9724 98.835 60.2347C98.809 60.4096 98.803 60.5864 98.814 60.7643L98.207 76.2088L200.005 91.5047L203.854 76.5474C203.916 76.3796 203.961 76.2098 203.986 76.035H203.987Z" fill="#076AAB"/>
<path d="M200.195 91.5956C199.306 97.6588 175.609 99.0586 147.498 94.8339C119.386 90.6101 97.1362 82.2961 98.0258 76.233C98.9143 70.1698 122.606 68.6557 150.716 72.8795C178.827 77.1032 201.084 85.5334 200.195 91.5956Z" fill="#005A96"/>
<path d="M193.192 95.0209C193.974 89.6915 174.576 82.3619 149.866 78.6486C125.156 74.9363 104.492 76.2461 103.711 81.5755C103.689 81.7241 103.684 81.8747 103.693 82.0263L103.176 95.1695L189.804 108.186L193.08 95.4575C193.132 95.315 193.171 95.1695 193.192 95.0209Z" fill="#076AAB"/>
<path d="M189.806 108.18C190.562 103.021 171.783 95.9256 147.861 92.3322C123.939 88.7387 103.934 90.0081 103.178 95.1673C102.422 100.327 121.201 107.422 145.123 111.016C169.044 114.609 189.05 113.34 189.806 108.18Z" fill="#005A96"/>
<path d="M181.237 112.71C181.858 108.472 166.434 102.644 146.786 99.6922C127.138 96.7399 110.707 97.782 110.085 102.02C110.068 102.138 110.064 102.257 110.071 102.378L109.66 112.828L178.543 123.178L181.147 113.057C181.189 112.943 181.219 112.828 181.236 112.71H181.237Z" fill="#076AAB"/>
<path d="M178.719 123.343C178.118 127.445 162.033 128.289 143.011 125.431C123.99 122.573 108.849 117.009 109.451 112.906C110.052 108.804 126.168 107.716 145.19 110.575C164.211 113.433 179.321 119.24 178.72 123.343H178.719Z" fill="#005A96"/>
<path d="M170.175 127.14C170.643 123.945 159.015 119.551 144.201 117.325C129.388 115.1 117 115.885 116.531 119.08C116.518 119.169 116.515 119.259 116.52 119.349L116.211 127.229L168.145 135.033L170.108 127.402C170.139 127.317 170.162 127.229 170.175 127.14Z" fill="#076AAB"/>
<path d="M168.323 135.16C167.869 138.253 155.695 138.885 141.353 136.731C127.012 134.576 115.539 130.392 115.994 127.3C116.447 124.207 128.654 123.375 142.996 125.53C157.337 127.685 168.776 132.067 168.323 135.16Z" fill="#005A96"/>
<path d="M159.736 133.763C160.043 131.671 152.428 128.794 142.728 127.337C133.028 125.88 124.917 126.394 124.61 128.487C124.303 130.579 131.918 133.456 141.618 134.913C151.318 136.37 159.43 135.855 159.736 133.763Z" fill="white"/>
</g>
<defs>
<radialGradient id="paint0_radial_5583_4884" cx="0" cy="0" r="1" gradientUnits="userSpaceOnUse" gradientTransform="translate(164 74) rotate(90) scale(74 164)">
<stop stop-color="white"/>
<stop offset="0.5" stop-color="#F4FBFF"/>
<stop offset="1" stop-color="#EDF8FF"/>
</radialGradient>
<clipPath id="clip0_5583_4884">
<rect width="133" height="128" fill="white" transform="translate(98 10)"/>
</clipPath>
</defs>
</svg>
