<svg width="328" height="148" viewBox="0 0 328 148" fill="none" xmlns="http://www.w3.org/2000/svg">
<rect width="328" height="148" rx="74" fill="url(#paint0_radial_5583_4772)"/>
<rect x="107" y="27" width="115" height="93" rx="4" fill="#076AAB"/>
<rect x="115" y="34" width="99" height="44" rx="4" fill="white"/>
<path d="M165.5 49.125C163.76 49.125 162.09 48.4336 160.86 47.2029C159.629 45.9722 158.938 44.303 158.938 42.5625C158.938 40.822 159.629 39.1528 160.86 37.9221C162.09 36.6914 163.76 36 165.5 36C167.24 36 168.91 36.6914 170.14 37.9221C171.371 39.1528 172.063 40.822 172.063 42.5625C172.063 43.4243 171.893 44.2777 171.563 45.0739C171.233 45.8701 170.75 46.5935 170.14 47.2029C169.531 47.8123 168.808 48.2957 168.011 48.6255C167.215 48.9553 166.362 49.125 165.5 49.125ZM165.5 24.1875C160.627 24.1875 155.953 26.1234 152.507 29.5694C149.061 33.0154 147.125 37.6891 147.125 42.5625C147.125 56.3438 165.5 76.6875 165.5 76.6875C165.5 76.6875 183.875 56.3438 183.875 42.5625C183.875 37.6891 181.939 33.0154 178.493 29.5694C175.047 26.1234 170.373 24.1875 165.5 24.1875Z" fill="#88D1FF"/>
<rect x="122" y="90" width="66" height="6" rx="3" fill="#88D1FF"/>
<rect x="122" y="100" width="45" height="6" rx="3" fill="#88D1FF"/>
<circle cx="277" cy="16" r="16" fill="#88D1FF"/>
<path d="M275.771 16L269 9.2288L270.229 8L277 14.7711L283.771 8L285 9.2288L278.229 16L285 22.7711L283.771 24L277 17.2288L270.229 24L269 22.7711L275.771 16Z" fill="#076AAB"/>
<defs>
<radialGradient id="paint0_radial_5583_4772" cx="0" cy="0" r="1" gradientUnits="userSpaceOnUse" gradientTransform="translate(164 74) rotate(90) scale(74 164)">
<stop stop-color="white"/>
<stop offset="0.5" stop-color="#F4FBFF"/>
<stop offset="1" stop-color="#EDF8FF"/>
</radialGradient>
</defs>
</svg>
