<svg width="96" height="96" viewBox="0 0 96 96" fill="none" xmlns="http://www.w3.org/2000/svg">
<rect width="96" height="96" rx="24" fill="url(#paint0_radial_5447_10327)"/>
<path fill-rule="evenodd" clip-rule="evenodd" d="M50.9824 43.1382C50.4265 45.167 50.424 47.4691 50.9912 49.4502C52.8672 56.0014 60.105 59.758 70.8501 59.7539C71.7075 59.7535 72.3984 60.461 72.3984 61.3184V67.5835C72.3984 68.4483 71.6974 69.1494 70.8325 69.1494H25.9644C25.0995 69.1494 24.3984 68.4483 24.3984 67.5835V59.3408C24.5772 45.5263 30.6861 35.9973 38.8286 30.9844L50.9824 43.1382ZM42.1685 43.5776C36.5796 49.4786 35.0022 58.4165 39.4365 66.0176H46.9263C40.2261 61.1131 38.1579 51.302 42.1685 43.5776Z" fill="#076AAB"/>
<path d="M53.6333 26.8511C63.966 26.9444 71.1506 33.1783 71.106 42.0122C71.0754 47.927 66.7462 53.0205 64.4146 53.5303C63.4055 53.7476 62.4957 53.3243 62.0869 52.4478C61.7291 51.6776 61.7687 50.6273 61.835 48.8867C62.0146 44.2082 61.8912 38.2104 56.5205 37.8564C53.6176 37.9982 51.7589 40.3024 50.9819 43.1401L38.8281 30.9863C43.2851 28.2421 48.3505 26.8496 53.3872 26.8496C53.4705 26.8496 53.5509 26.8505 53.6333 26.8511Z" fill="#8BD500"/>
<defs>
<radialGradient id="paint0_radial_5447_10327" cx="0" cy="0" r="1" gradientUnits="userSpaceOnUse" gradientTransform="translate(48 48) rotate(90) scale(48)">
<stop stop-color="white"/>
<stop offset="0.33" stop-color="#F4FBFF"/>
<stop offset="0.66" stop-color="#EDF8FF"/>
<stop offset="1" stop-color="#DEF2FF"/>
</radialGradient>
</defs>
</svg>
