<svg width="96" height="96" viewBox="0 0 96 96" fill="none" xmlns="http://www.w3.org/2000/svg">
<rect width="96" height="96" rx="24" fill="url(#paint0_radial_5447_10301)"/>
<g clip-path="url(#clip0_5447_10301)">
<path d="M62.1011 25.0547C62.5246 25.2238 62.9439 25.4122 63.3565 25.6216L63.9395 25.9175L54.7696 35.0918C53.2077 36.6537 53.2078 39.1856 54.7696 40.7476C56.3315 42.3095 58.8633 42.3095 60.4253 40.7476L69.6216 31.5513L69.9131 32.1152C71.0291 34.2672 71.5962 36.584 71.5962 39C71.5961 47.2718 64.8679 53.9997 56.5962 54C54.7262 54 52.9092 53.6585 51.1792 52.9805L33.9175 70.2422C32.7476 71.412 31.2097 71.9956 29.6739 71.9956C28.1379 71.9956 26.6016 71.4121 25.4317 70.2422C23.0957 67.9022 23.0957 64.0978 25.4317 61.7578L42.6553 44.5312C42.6524 44.5239 42.6494 44.5166 42.6465 44.5093L62.1011 25.0547Z" fill="#076AAB"/>
<path d="M56.5898 23.9985C58.4935 23.9985 60.3417 24.3527 62.0991 25.0547L42.6431 44.5107C41.9428 42.7553 41.5899 40.9085 41.5898 38.9985C41.5898 30.7267 48.3181 23.9988 56.5898 23.9985Z" fill="#8BD500"/>
</g>
<defs>
<radialGradient id="paint0_radial_5447_10301" cx="0" cy="0" r="1" gradientUnits="userSpaceOnUse" gradientTransform="translate(48 48) rotate(90) scale(48)">
<stop stop-color="white"/>
<stop offset="0.33" stop-color="#F4FBFF"/>
<stop offset="0.66" stop-color="#EDF8FF"/>
<stop offset="1" stop-color="#DEF2FF"/>
</radialGradient>
<clipPath id="clip0_5447_10301">
<rect width="48" height="48" fill="white" transform="translate(23.5977 24)"/>
</clipPath>
</defs>
</svg>
