<svg width="96" height="96" viewBox="0 0 96 96" fill="none" xmlns="http://www.w3.org/2000/svg">
<rect width="96" height="96" rx="24" fill="url(#paint0_radial_5447_10280)"/>
<g clip-path="url(#clip0_5447_10280)">
<path d="M30.5072 48.3821C32.0208 48.029 33.5814 47.9217 35.1292 48.0641C38.0633 45.4744 41.8399 44.0414 45.7535 44.033C49.667 44.0245 53.4498 45.4411 56.3952 48.0181C59.8581 48.1727 63.1429 49.5965 65.6232 52.0181C66.4299 52.0795 67.2278 52.227 68.0032 52.4581C69.0675 52.781 70.0755 53.2668 70.9912 53.8981C71.5732 52.5388 71.8457 51.0671 71.7888 49.5895C71.732 48.1119 71.3473 46.6654 70.6625 45.3549C69.9777 44.0443 69.0101 42.9024 67.8296 42.0119C66.6491 41.1214 65.2854 40.5046 63.8372 40.2061C62.247 39.8633 60.596 39.9273 59.0372 40.3921C57.7937 38.8977 56.2063 37.7273 54.4112 36.9812C52.616 36.2351 50.6666 35.9357 48.7303 36.1085C46.7939 36.2814 44.9284 36.9214 43.2938 37.9737C41.6592 39.026 40.3042 40.4591 39.3452 42.1501C38.3065 41.9474 37.238 41.9524 36.2013 42.165C35.1646 42.3775 34.1803 42.7933 33.3052 43.3883C32.4301 43.9834 31.6815 44.7459 31.1028 45.6319C30.524 46.5178 30.1265 47.5097 29.9332 48.5501C30.1332 48.5061 30.3132 48.4281 30.5072 48.3821ZM26.6812 45.5641C27.5344 43.4062 28.996 41.5427 30.8885 40.1999C32.7809 38.8571 35.0226 38.0929 37.3412 38.0001C38.7014 36.3161 40.3886 34.9251 42.3011 33.9109C44.2136 32.8967 46.3116 32.2804 48.4688 32.0991C50.6259 31.9178 52.7974 32.1753 54.8523 32.8561C56.9072 33.5369 58.8029 34.6268 60.4252 36.0601C61.8414 35.9175 63.2712 35.9965 64.6632 36.2941C66.4826 36.6849 68.2066 37.4327 69.7352 38.4941L69.7452 38.4761L69.7772 38.4601C69.8986 36.8762 69.387 35.3087 68.3545 34.1015C67.3219 32.8942 65.8528 32.1457 64.2692 32.0201C63.1454 30.3391 61.4898 29.0842 59.5677 28.4564C57.6457 27.8287 55.5685 27.8645 53.6692 28.5581C52.5428 27.0342 51.0429 25.8261 49.3141 25.05C47.5853 24.2739 45.6858 23.9561 43.7986 24.1271C41.9113 24.2981 40.0999 24.9522 38.5387 26.0263C36.9776 27.1005 35.7193 28.5586 34.8852 30.2601C33.4688 29.9091 31.9876 29.9132 30.5732 30.2721C29.0187 30.685 27.6026 31.5052 26.471 32.6481C25.3394 33.791 24.5333 35.2152 24.1358 36.7737C23.7383 38.3321 23.7639 39.9684 24.21 41.5137C24.656 43.0589 25.5063 44.4572 26.6732 45.5641H26.6812Z" fill="#8BD500"/>
<path d="M55.7942 72.0006C54.132 72.0061 52.4951 71.5934 51.0342 70.8006C49.2125 71.6611 47.2066 72.0583 45.1944 71.9572C43.1823 71.856 41.2263 71.2595 39.5002 70.2206C37.829 71.3493 35.8571 71.9497 33.8405 71.9436C31.8239 71.9376 29.8556 71.3255 28.1912 70.1868C26.5268 69.0481 25.2432 67.4354 24.5069 65.558C23.7706 63.6806 23.6156 61.6251 24.0622 59.6586C24.4802 57.8662 25.39 56.2259 26.6891 54.9222C27.9882 53.6185 29.6253 52.7029 31.4162 52.2786C33.0994 51.876 34.8576 51.9097 36.5242 52.3766C37.6354 51.0483 39.019 49.9743 40.5813 49.2273C42.1437 48.4803 43.8483 48.0778 45.5798 48.0468C47.3113 48.0159 49.0292 48.3574 50.6172 49.0482C52.2052 49.7389 53.6263 50.7628 54.7842 52.0506C56.5127 51.8804 58.2558 52.1607 59.8438 52.8641C61.4318 53.5676 62.8107 54.6701 63.8462 56.0646C64.857 55.927 65.8855 56.0081 66.8622 56.3026C67.9972 56.6424 69.0255 57.2691 69.8477 58.1221C70.6699 58.9752 71.2584 60.0258 71.5562 61.1726C71.8935 62.416 71.881 63.7284 71.5203 64.9653C71.1595 66.2021 70.4644 67.3154 69.5114 68.1825C68.5585 69.0496 67.3847 69.6369 66.1194 69.8797C64.8541 70.1225 63.5464 70.0114 62.3402 69.5586C60.5241 71.1353 58.1993 72.0026 55.7942 72.0006Z" fill="#076AAB"/>
</g>
<defs>
<radialGradient id="paint0_radial_5447_10280" cx="0" cy="0" r="1" gradientUnits="userSpaceOnUse" gradientTransform="translate(48 48) rotate(90) scale(48)">
<stop stop-color="white"/>
<stop offset="0.33" stop-color="#F4FBFF"/>
<stop offset="0.66" stop-color="#EDF8FF"/>
<stop offset="1" stop-color="#DEF2FF"/>
</radialGradient>
<clipPath id="clip0_5447_10280">
<rect width="48" height="48" fill="white" transform="translate(23.7969 24)"/>
</clipPath>
</defs>
</svg>
