<svg width="96" height="96" viewBox="0 0 96 96" fill="none" xmlns="http://www.w3.org/2000/svg">
<rect width="96" height="96" rx="24" fill="url(#paint0_radial_5447_10266)"/>
<path d="M52.8802 40H57.9944C59.0845 39.9999 60.1541 40.2974 61.0882 40.8594C62.022 41.4213 62.7857 42.2265 63.2962 43.1895C63.8067 44.1525 64.0447 45.2368 63.9856 46.3252C63.9265 47.4137 63.5722 48.466 62.9603 49.3682L50.1604 69.9678C49.7648 70.5873 49.2202 71.0982 48.5765 71.4531C47.9326 71.8081 47.2092 71.9962 46.4739 72C45.8189 71.9976 45.1721 71.8531 44.5784 71.5762C43.6084 71.1442 42.8289 70.3727 42.387 69.4072C41.9453 68.4418 41.871 67.3483 42.178 66.332L45.3001 56H37.9446C37.0075 56.0011 36.0829 55.7827 35.2454 55.3623C34.408 54.9419 33.6803 54.3312 33.1214 53.5791C32.5624 52.8269 32.1876 51.9535 32.0267 51.0303C31.8657 50.1071 31.9232 49.1587 32.1946 48.2617L32.4007 47.5771L54.9114 34.5811L52.8802 40Z" fill="#076AAB"/>
<path d="M51.3848 24.0001C52.2243 24.0008 53.0514 24.2051 53.7949 24.5948C54.5383 24.9846 55.1762 25.5485 55.6543 26.2384C56.1324 26.9283 56.4371 27.7238 56.541 28.5567C56.6449 29.3898 56.5451 30.2363 56.251 31.0226L54.916 34.5802L32.4062 47.5763L38.2471 28.2618C38.6157 27.0251 39.3753 25.9413 40.4121 25.173C41.4492 24.4045 42.7082 23.9926 43.999 24.0001H51.3848Z" fill="#8BD500"/>
<defs>
<radialGradient id="paint0_radial_5447_10266" cx="0" cy="0" r="1" gradientUnits="userSpaceOnUse" gradientTransform="translate(48 48) rotate(90) scale(48)">
<stop stop-color="white"/>
<stop offset="0.33" stop-color="#F4FBFF"/>
<stop offset="0.66" stop-color="#EDF8FF"/>
<stop offset="1" stop-color="#DEF2FF"/>
</radialGradient>
</defs>
</svg>
