<svg width="328" height="148" viewBox="0 0 328 148" fill="none" xmlns="http://www.w3.org/2000/svg">
<rect width="328" height="148" rx="74" fill="url(#paint0_radial_5583_4834)"/>
<circle cx="164" cy="43" r="16" fill="#88D1FF"/>
<path d="M162.771 43L156 36.2288L157.229 35L164 41.7711L170.771 35L172 36.2288L165.229 43L172 49.7711L170.771 51L164 44.2288L157.229 51L156 49.7711L162.771 43Z" fill="#076AAB"/>
<mask id="path-4-inside-1_5583_4834" fill="white">
<path d="M44 73H284V121H44V73Z"/>
</mask>
<path d="M44 73V76H284V73V70H44V73Z" fill="#076AAB" mask="url(#path-4-inside-1_5583_4834)"/>
<rect x="44" y="73" width="48" height="48" rx="24" fill="white" fill-opacity="0.08"/>
<path d="M69 94H73.5L73 96H69V105H67V96H63V94H67V92.1278C67 90.3447 67.1857 89.6982 67.5343 89.0463C67.8829 88.3945 68.3945 87.8829 69.0463 87.5343C69.6982 87.1857 70.3447 87 72.1278 87C72.6498 87 73.1072 87.05 73.5 87.15V89H72.1278C70.8041 89 70.401 89.0778 69.9895 89.2979C69.6862 89.4601 69.4601 89.6862 69.2979 89.9895C69.0778 90.401 69 90.8041 69 92.1278V94Z" fill="#076AAB"/>
<rect x="92" y="73" width="48" height="48" rx="24" fill="white" fill-opacity="0.08"/>
<path d="M114.488 99.651L119.25 106H126.25L118.392 95.5223L124.931 88H122.281L117.164 93.8858L112.75 88H105.75L113.261 98.0145L106.319 106H108.969L114.488 99.651ZM120.25 104L109.75 90H111.75L122.25 104H120.25Z" fill="#076AAB"/>
<rect x="140" y="73" width="48" height="48" rx="24" fill="white" fill-opacity="0.08"/>
<path d="M164 94.55C164.917 93.6133 166.111 93 167.5 93C170.538 93 173 95.4624 173 98.5V106H171V98.5C171 96.567 169.433 95 167.5 95C165.567 95 164 96.567 164 98.5V106H162V93.5H164V94.55ZM157 91.5C156.172 91.5 155.5 90.8284 155.5 90C155.5 89.1716 156.172 88.5 157 88.5C157.828 88.5 158.5 89.1716 158.5 90C158.5 90.8284 157.828 91.5 157 91.5ZM156 93.5H158V106H156V93.5Z" fill="#076AAB"/>
<rect x="188" y="73" width="48" height="48" rx="24" fill="white" fill-opacity="0.08"/>
<path d="M212 94C210.343 94 209 95.3431 209 97C209 98.6573 210.343 100 212 100C213.657 100 215 98.6569 215 97C215 95.3427 213.657 94 212 94ZM212 92C214.76 92 217 94.2371 217 97C217 99.7605 214.763 102 212 102C209.24 102 207 99.7629 207 97C207 94.2395 209.237 92 212 92ZM218.5 91.7491C218.5 92.4393 217.939 92.9992 217.25 92.9992C216.56 92.9992 216 92.4384 216 91.7491C216 91.0599 216.561 90.5 217.25 90.5C217.938 90.4991 218.5 91.0599 218.5 91.7491ZM212 89C209.526 89 209.122 89.0065 207.971 89.0578C207.187 89.0946 206.662 89.2001 206.173 89.3897C205.739 89.558 205.426 89.759 205.093 90.0925C204.758 90.4274 204.557 90.7396 204.389 91.1738C204.199 91.6633 204.094 92.1881 204.058 92.9711C204.006 94.0752 204 94.4611 204 97C204 99.4745 204.007 99.8778 204.058 101.029C204.095 101.812 204.2 102.339 204.389 102.826C204.558 103.261 204.76 103.574 205.091 103.906C205.428 104.242 205.741 104.443 206.171 104.609C206.665 104.8 207.19 104.906 207.971 104.942C209.075 104.994 209.461 105 212 105C214.475 105 214.878 104.993 216.029 104.942C216.811 104.906 217.338 104.8 217.826 104.611C218.259 104.442 218.574 104.24 218.906 103.909C219.243 103.572 219.444 103.259 219.61 102.828C219.8 102.336 219.906 101.81 219.942 101.029C219.994 99.9248 220 99.5389 220 97C220 94.5255 219.993 94.1222 219.942 92.9714C219.905 92.1891 219.8 91.6615 219.61 91.1732C219.442 90.7404 219.241 90.4263 218.907 90.0925C218.572 89.7571 218.261 89.5569 217.826 89.3894C217.337 89.1995 216.811 89.094 216.029 89.0578C214.925 89.006 214.539 89 212 89ZM212 87C214.717 87 215.056 87.01 216.123 87.06C217.187 87.1092 217.913 87.2775 218.55 87.525C219.209 87.7792 219.766 88.1225 220.322 88.6783C220.877 89.2342 221.22 89.7925 221.475 90.45C221.722 91.0867 221.89 91.8133 221.94 92.8775C221.988 93.9442 222 94.2833 222 97C222 99.7167 221.99 100.056 221.94 101.122C221.891 102.187 221.722 102.912 221.475 103.55C221.221 104.209 220.877 104.766 220.322 105.322C219.766 105.877 219.207 106.22 218.55 106.475C217.913 106.722 217.187 106.89 216.123 106.94C215.056 106.988 214.717 107 212 107C209.283 107 208.944 106.99 207.878 106.94C206.813 106.891 206.088 106.722 205.45 106.475C204.792 106.221 204.234 105.877 203.678 105.322C203.123 104.766 202.78 104.207 202.525 103.55C202.278 102.912 202.11 102.187 202.06 101.122C202.013 100.056 202 99.7167 202 97C202 94.2833 202.01 93.9442 202.06 92.8775C202.109 91.8125 202.278 91.0875 202.525 90.45C202.779 89.7917 203.123 89.2342 203.678 88.6783C204.234 88.1225 204.793 87.78 205.45 87.525C206.088 87.2775 206.812 87.11 207.878 87.06C208.944 87.0125 209.283 87 212 87Z" fill="#076AAB"/>
<rect x="236" y="73" width="48" height="48" rx="24" fill="white" fill-opacity="0.08"/>
<path d="M256.491 104.191C256.514 103.855 256.562 103.52 256.634 103.19C256.697 102.895 256.888 102.06 257.168 100.85L257.175 100.819C257.298 100.287 257.43 99.7192 257.562 99.1525C257.641 98.8124 257.703 98.5484 257.743 98.4602C257.549 98.0123 257.452 97.5263 257.459 97.0373C257.459 95.6999 258.215 94.6636 259.195 94.6636C259.555 94.6581 259.899 94.8139 260.137 95.09C260.375 95.3655 260.485 95.7335 260.439 96.086C260.439 96.5385 260.354 96.8844 259.986 98.1212C259.915 98.3587 259.866 98.5254 259.821 98.692C259.769 98.8799 259.725 99.0503 259.688 99.2136C259.592 99.6003 259.68 100.011 259.925 100.319C260.17 100.627 260.541 100.797 260.931 100.776C262.423 100.776 263.531 98.7911 263.531 96.2277C263.531 94.258 262.24 92.9542 260.099 92.9542C259.021 92.9113 257.974 93.3252 257.2 94.0999C256.426 94.8751 255.994 95.9437 256.005 97.0614C255.981 97.6633 256.17 98.2536 256.517 98.7053C256.698 98.8441 256.768 99.0885 256.692 99.2941C256.651 99.4632 256.552 99.8473 256.516 99.9755C256.494 100.103 256.414 100.213 256.3 100.271C256.186 100.33 256.051 100.33 255.945 100.274C254.784 99.7954 254.149 98.4963 254.149 96.8349C254.149 93.8491 256.64 91.2497 260.341 91.2497C263.476 91.2497 265.822 93.5786 265.822 96.3896C265.822 99.922 263.89 102.494 261.133 102.494C260.338 102.52 259.583 102.162 259.086 101.535L259.043 101.712C258.949 102.099 258.902 102.293 258.836 102.564L258.834 102.572C258.688 103.172 258.586 103.588 258.546 103.745C258.44 104.1 258.306 104.448 258.146 104.784C258.741 104.925 259.362 105 260 105C264.418 105 268 101.418 268 97C268 92.5817 264.418 89 260 89C255.582 89 252 92.5817 252 97C252 100.159 253.831 102.891 256.491 104.191ZM260 107C254.477 107 250 102.523 250 97C250 91.4771 254.477 87 260 87C265.523 87 270 91.4771 270 97C270 102.523 265.523 107 260 107Z" fill="#076AAB"/>
<defs>
<radialGradient id="paint0_radial_5583_4834" cx="0" cy="0" r="1" gradientUnits="userSpaceOnUse" gradientTransform="translate(164 74) rotate(90) scale(74 164)">
<stop stop-color="white"/>
<stop offset="0.5" stop-color="#F4FBFF"/>
<stop offset="1" stop-color="#EDF8FF"/>
</radialGradient>
</defs>
</svg>
