<svg width="96" height="96" viewBox="0 0 96 96" fill="none" xmlns="http://www.w3.org/2000/svg">
<rect width="96" height="96" rx="24" fill="url(#paint0_radial_5447_10258)"/>
<path d="M55.6914 60.5077C55.6914 57.5077 53.6294 53.4077 49.8914 48.9617C49.6845 48.7149 49.4254 48.5171 49.1328 48.3826C48.8402 48.248 48.5214 48.1801 48.1994 48.1837C47.875 48.1822 47.5542 48.2514 47.2592 48.3865C46.9643 48.5215 46.7023 48.7192 46.4914 48.9657C42.3994 53.7597 40.3994 57.9997 40.7454 61.2497C40.8816 62.2773 41.2339 63.2644 41.7793 64.1458C42.3247 65.0273 43.0507 65.7832 43.9094 66.3637C45.1242 67.3598 46.6298 67.934 48.1994 67.9997C50.1858 67.9976 52.0901 67.2076 53.4947 65.803C54.8993 64.3985 55.6893 62.4941 55.6914 60.5077Z" fill="#8BD500"/>
<path d="M57.4563 29.7997C55.8843 28.4637 54.2343 27.0637 52.5543 25.5357C51.9173 24.9573 51.1616 24.5252 50.34 24.2696C49.5185 24.0139 48.651 23.9409 47.7983 24.0557C46.9719 24.1651 46.1796 24.4547 45.4773 24.904C44.7751 25.3532 44.1801 25.9512 43.7343 26.6557C41.3511 30.6393 39.6656 35.0007 38.7503 39.5517C38.3923 39.0332 38.074 38.4883 37.7983 37.9217C37.5152 37.3252 37.0889 36.8082 36.5574 36.4165C36.0259 36.0249 35.4058 35.7709 34.7522 35.6773C34.0987 35.5836 33.4322 35.6531 32.8121 35.8797C32.1919 36.1063 31.6375 36.4828 31.1983 36.9757C27.8449 40.4045 25.9861 45.0218 26.0283 49.8177C25.982 54.7166 27.5752 59.4902 30.5546 63.3792C33.5339 67.2683 37.7283 70.0492 42.4703 71.2797C44.286 71.7365 46.1501 71.9729 48.0223 71.9837C45.6298 71.8945 43.3302 71.0344 41.4663 69.5317C40.1751 68.623 39.0895 67.4529 38.2798 66.0974C37.4701 64.7419 36.9544 63.2313 36.7663 61.6637C36.3063 57.2437 38.5523 52.0977 43.4423 46.3697C44.029 45.682 44.7582 45.1303 45.5795 44.7528C46.4008 44.3753 47.2944 44.1811 48.1983 44.1837H48.2183C49.1196 44.1844 50.0098 44.3816 50.8271 44.7616C51.6443 45.1415 52.3689 45.6951 52.9503 46.3837C56.0263 50.0377 59.6963 55.4537 59.6963 60.5057C59.6919 63.4171 58.5832 66.2184 56.5939 68.3443C54.6047 70.4701 51.883 71.7622 48.9783 71.9597C54.7216 71.7747 60.1673 69.3611 64.1619 65.2303C68.1564 61.0995 70.386 55.576 70.3783 49.8297C70.3683 40.7697 64.3843 35.6897 57.4563 29.7997Z" fill="#076AAB"/>
<defs>
<radialGradient id="paint0_radial_5447_10258" cx="0" cy="0" r="1" gradientUnits="userSpaceOnUse" gradientTransform="translate(48 48) rotate(90) scale(48)">
<stop stop-color="white"/>
<stop offset="0.33" stop-color="#F4FBFF"/>
<stop offset="0.66" stop-color="#EDF8FF"/>
<stop offset="1" stop-color="#DEF2FF"/>
</radialGradient>
</defs>
</svg>
