<svg width="96" height="96" viewBox="0 0 96 96" fill="none" xmlns="http://www.w3.org/2000/svg">
<path d="M0 24C0 10.7452 10.7452 0 24 0H72C85.2548 0 96 10.7452 96 24V72C96 85.2548 85.2548 96 72 96H24C10.7452 96 0 85.2548 0 72V24Z" fill="url(#paint0_radial_5447_10335)"/>
<g clip-path="url(#clip0_5447_10335)">
<path d="M62.1992 24H54.1992C48.6852 24 44.1992 28.486 44.1992 34V36.612C45.8372 37.102 47.4112 37.866 48.8232 38.97L54.8272 43.672C58.2412 46.344 60.1992 50.364 60.1992 54.696V60C60.1992 58.894 61.0932 58 62.1992 58H64.1992C65.3052 58 66.1992 58.894 66.1992 60C66.1992 61.106 65.3052 62 64.1992 62H62.1992C61.0932 62 60.1992 61.106 60.1992 60V63C60.1992 66.492 58.8072 69.662 56.5572 72H62.1992C67.7132 72 72.1992 67.514 72.1992 62V34C72.1992 28.486 67.7132 24 62.1992 24ZM54.1992 38H52.1992C51.0932 38 50.1992 37.106 50.1992 36C50.1992 34.894 51.0932 34 52.1992 34H54.1992C55.3052 34 56.1992 34.894 56.1992 36C56.1992 37.106 55.3052 38 54.1992 38ZM64.1992 54H62.1992C61.0932 54 60.1992 53.106 60.1992 52C60.1992 50.894 61.0932 50 62.1992 50H64.1992C65.3052 50 66.1992 50.894 66.1992 52C66.1992 53.106 65.3052 54 64.1992 54ZM64.1992 46H62.1992C61.0932 46 60.1992 45.106 60.1992 44C60.1992 42.894 61.0932 42 62.1992 42H64.1992C65.3052 42 66.1992 42.894 66.1992 44C66.1992 45.106 65.3052 46 64.1992 46ZM64.1992 38H62.1992C61.0932 38 60.1992 37.106 60.1992 36C60.1992 34.894 61.0932 34 62.1992 34H64.1992C65.3052 34 66.1992 34.894 66.1992 36C66.1992 37.106 65.3052 38 64.1992 38Z" fill="#076AAB"/>
<path d="M52.3612 46.8199L46.3612 42.1219C42.7332 39.2859 37.6652 39.2839 34.0372 42.1219L28.0372 46.8179C25.5972 48.7279 24.1992 51.5979 24.1992 54.6939V62.9979C24.1992 67.9599 28.2372 71.9979 33.1992 71.9979H47.1992C52.1612 71.9979 56.1992 67.9599 56.1992 62.9979V54.6939C56.1992 51.5979 54.8012 48.7319 52.3612 46.8199ZM44.1992 59.9999C44.1992 61.1039 43.3032 61.9999 42.1992 61.9999H38.1992C37.0952 61.9999 36.1992 61.1039 36.1992 59.9999V55.9999C36.1992 54.8959 37.0952 53.9999 38.1992 53.9999H42.1992C43.3032 53.9999 44.1992 54.8959 44.1992 55.9999V59.9999Z" fill="#8BD500"/>
</g>
<defs>
<radialGradient id="paint0_radial_5447_10335" cx="0" cy="0" r="1" gradientUnits="userSpaceOnUse" gradientTransform="translate(48 48) rotate(90) scale(48)">
<stop stop-color="white"/>
<stop offset="0.33" stop-color="#F4FBFF"/>
<stop offset="0.66" stop-color="#EDF8FF"/>
<stop offset="1" stop-color="#DEF2FF"/>
</radialGradient>
<clipPath id="clip0_5447_10335">
<rect width="48" height="48" fill="white" transform="translate(24.1992 24)"/>
</clipPath>
</defs>
</svg>
