<svg width="328" height="148" viewBox="0 0 328 148" fill="none" xmlns="http://www.w3.org/2000/svg">
<rect width="328" height="148" rx="74" fill="url(#paint0_radial_5583_4736)"/>
<path d="M100.855 34H228.145C231.201 34 234 37.1049 234 41.375V61.625C234 65.8969 231.203 69 228.145 69H100.855C97.7975 69 95 65.8969 95 61.625V41.375C95 37.1031 97.7975 34 100.855 34Z" stroke="#076AAB" stroke-width="2"/>
<path d="M131.88 52.77C131.907 52.99 131.983 53.18 132.11 53.34C132.237 53.5 132.4 53.6233 132.6 53.71C132.807 53.7967 133.037 53.84 133.29 53.84C133.63 53.84 133.917 53.7833 134.15 53.67C134.383 53.55 134.5 53.3633 134.5 53.11C134.5 52.93 134.427 52.7867 134.28 52.68C134.133 52.5733 133.937 52.4867 133.69 52.42C133.45 52.3533 133.187 52.2867 132.9 52.22C132.613 52.1533 132.323 52.0733 132.03 51.98C131.743 51.88 131.477 51.7467 131.23 51.58C130.99 51.4133 130.797 51.1967 130.65 50.93C130.503 50.6567 130.43 50.3133 130.43 49.9C130.43 49.5 130.547 49.1467 130.78 48.84C131.02 48.5267 131.347 48.2833 131.76 48.11C132.18 47.93 132.657 47.84 133.19 47.84C133.71 47.84 134.173 47.9433 134.58 48.15C134.987 48.3567 135.307 48.64 135.54 49C135.78 49.36 135.9 49.7667 135.9 50.22H134.38C134.353 49.8867 134.237 49.6267 134.03 49.44C133.83 49.2533 133.533 49.16 133.14 49.16C132.753 49.16 132.457 49.23 132.25 49.37C132.043 49.51 131.94 49.6867 131.94 49.9C131.94 50.1 132.013 50.2567 132.16 50.37C132.307 50.4833 132.5 50.5767 132.74 50.65C132.987 50.7233 133.253 50.7933 133.54 50.86C133.833 50.92 134.123 50.9967 134.41 51.09C134.697 51.1833 134.96 51.31 135.2 51.47C135.447 51.63 135.643 51.8433 135.79 52.11C135.937 52.37 136.01 52.7033 136.01 53.11C136.01 53.7567 135.767 54.26 135.28 54.62C134.793 54.98 134.11 55.16 133.23 55.16C132.69 55.16 132.207 55.0567 131.78 54.85C131.353 54.6433 131.013 54.36 130.76 54C130.507 53.64 130.37 53.23 130.35 52.77H131.88ZM139.428 55.16C138.855 55.16 138.352 55.0367 137.918 54.79C137.492 54.5367 137.158 54.1867 136.918 53.74C136.685 53.2933 136.568 52.7833 136.568 52.21C136.568 51.63 136.685 51.1167 136.918 50.67C137.158 50.2233 137.492 49.8733 137.918 49.62C138.352 49.3667 138.855 49.24 139.428 49.24C139.808 49.24 140.168 49.3167 140.508 49.47C140.848 49.6233 141.142 49.8467 141.388 50.14C141.635 50.4333 141.815 50.7933 141.928 51.22C142.042 51.6467 142.058 52.1333 141.978 52.68H137.378V51.52H141.008L140.548 51.79C140.582 51.5967 140.562 51.4033 140.488 51.21C140.422 51.01 140.302 50.8467 140.128 50.72C139.955 50.5867 139.722 50.52 139.428 50.52C139.088 50.52 138.815 50.5967 138.608 50.75C138.402 50.8967 138.252 51.1 138.158 51.36C138.072 51.6133 138.028 51.8967 138.028 52.21C138.028 52.5167 138.072 52.7967 138.158 53.05C138.252 53.3033 138.402 53.5067 138.608 53.66C138.815 53.8067 139.088 53.88 139.428 53.88C139.702 53.88 139.928 53.8167 140.108 53.69C140.288 53.5633 140.415 53.4067 140.488 53.22H141.998C141.918 53.6067 141.762 53.9467 141.528 54.24C141.295 54.5267 140.998 54.7533 140.638 54.92C140.285 55.08 139.882 55.16 139.428 55.16ZM146.156 51.8H147.586V55H146.156V51.8ZM145.166 49.24C145.959 49.24 146.559 49.47 146.966 49.93C147.379 50.39 147.586 51.0133 147.586 51.8H146.156C146.156 51.56 146.132 51.3433 146.086 51.15C146.039 50.95 145.942 50.79 145.796 50.67C145.656 50.55 145.446 50.49 145.166 50.49C144.812 50.49 144.546 50.58 144.366 50.76C144.192 50.9333 144.106 51.1367 144.106 51.37H142.616C142.616 50.99 142.716 50.64 142.916 50.32C143.116 49.9933 143.406 49.7333 143.786 49.54C144.166 49.34 144.626 49.24 145.166 49.24ZM146.296 51.48L146.506 52.43C145.719 52.3967 145.152 52.4733 144.806 52.66C144.466 52.84 144.296 53.0633 144.296 53.33C144.296 53.51 144.362 53.6433 144.496 53.73C144.636 53.8167 144.796 53.86 144.976 53.86C145.149 53.86 145.326 53.8333 145.506 53.78C145.692 53.7267 145.846 53.6233 145.966 53.47C146.092 53.3167 146.156 53.09 146.156 52.79L146.426 53.23C146.426 53.6033 146.356 53.9367 146.216 54.23C146.076 54.5167 145.876 54.7433 145.616 54.91C145.362 55.0767 145.056 55.16 144.696 55.16C144.329 55.16 144.002 55.0933 143.716 54.96C143.436 54.82 143.212 54.62 143.046 54.36C142.886 54.1 142.806 53.7833 142.806 53.41C142.806 53.05 142.876 52.7533 143.016 52.52C143.162 52.2867 143.356 52.1033 143.596 51.97C143.842 51.83 144.116 51.7267 144.416 51.66C144.722 51.5933 145.036 51.55 145.356 51.53C145.682 51.5033 145.996 51.4867 146.296 51.48ZM148.487 49.4H149.917V55H148.487V49.4ZM149.917 52.26L149.767 51.23C149.767 51.0567 149.784 50.8567 149.817 50.63C149.851 50.4033 149.927 50.1867 150.047 49.98C150.174 49.7667 150.367 49.59 150.627 49.45C150.887 49.31 151.241 49.24 151.687 49.24V50.64C151.294 50.64 150.964 50.6833 150.697 50.77C150.437 50.8567 150.241 51.0167 150.107 51.25C149.981 51.4767 149.917 51.8133 149.917 52.26ZM157.342 52.65C157.342 53.13 157.232 53.56 157.012 53.94C156.792 54.32 156.485 54.62 156.092 54.84C155.698 55.0533 155.238 55.16 154.712 55.16C154.138 55.16 153.635 55.0367 153.202 54.79C152.775 54.5367 152.442 54.1867 152.202 53.74C151.968 53.2933 151.852 52.7833 151.852 52.21C151.852 51.63 151.968 51.1167 152.202 50.67C152.442 50.2233 152.775 49.8733 153.202 49.62C153.635 49.3667 154.138 49.24 154.712 49.24C155.218 49.24 155.668 49.3533 156.062 49.58C156.455 49.8 156.762 50.09 156.982 50.45C157.208 50.8033 157.322 51.1867 157.322 51.6H155.812C155.812 51.42 155.775 51.25 155.702 51.09C155.628 50.93 155.512 50.8 155.352 50.7C155.192 50.5933 154.978 50.54 154.712 50.54C154.372 50.54 154.098 50.6133 153.892 50.76C153.685 50.9067 153.535 51.1067 153.442 51.36C153.355 51.6133 153.312 51.8967 153.312 52.21C153.312 52.5167 153.355 52.7967 153.442 53.05C153.535 53.2967 153.685 53.4933 153.892 53.64C154.098 53.7867 154.372 53.86 154.712 53.86C154.978 53.86 155.195 53.8033 155.362 53.69C155.528 53.5767 155.652 53.43 155.732 53.25C155.812 53.0633 155.852 52.8633 155.852 52.65H157.342ZM158.068 47.5H159.498V55H158.068V47.5ZM159.498 52.26L159.338 51.11C159.338 50.9367 159.361 50.7433 159.408 50.53C159.461 50.3167 159.555 50.1133 159.688 49.92C159.828 49.72 160.025 49.5567 160.278 49.43C160.531 49.3033 160.861 49.24 161.268 49.24C161.628 49.24 161.948 49.3133 162.228 49.46C162.508 49.6067 162.728 49.85 162.888 50.19C163.048 50.5233 163.128 50.9767 163.128 51.55V55H161.698V51.68C161.698 51.46 161.681 51.26 161.648 51.08C161.615 50.8933 161.538 50.7467 161.418 50.64C161.305 50.5333 161.121 50.48 160.868 50.48C160.668 50.48 160.461 50.5367 160.248 50.65C160.035 50.7633 159.855 50.95 159.708 51.21C159.568 51.4633 159.498 51.8133 159.498 52.26Z" fill="#076AAB"/>
<path d="M113.367 46C111.168 46 109.387 47.7817 109.387 49.9789C109.387 52.177 111.168 53.9587 113.367 53.9587C115.565 53.9587 117.346 52.177 117.346 49.9789C117.346 47.7809 115.565 46 113.367 46Z" fill="#076AAB" stroke="#076AAB" stroke-width="2" stroke-miterlimit="10"/>
<path d="M107 56.449L110.741 52.9666" stroke="#076AAB" stroke-width="2" stroke-miterlimit="10" stroke-linecap="round" stroke-linejoin="round"/>
<rect x="94" y="71" width="141" height="45" rx="4" fill="#076AAB"/>
<rect x="110" y="84" width="82" height="8" rx="4" fill="#88D1FF"/>
<rect x="110" y="96" width="42" height="8" rx="4" fill="#88D1FF"/>
<defs>
<radialGradient id="paint0_radial_5583_4736" cx="0" cy="0" r="1" gradientUnits="userSpaceOnUse" gradientTransform="translate(164 74) rotate(90) scale(74 164)">
<stop stop-color="white"/>
<stop offset="0.5" stop-color="#F4FBFF"/>
<stop offset="1" stop-color="#EDF8FF"/>
</radialGradient>
</defs>
</svg>
