<svg width="20" height="20" viewBox="0 0 20 20" fill="none" xmlns="http://www.w3.org/2000/svg">
<path d="M9.16797 14.5833C9.16902 13.522 9.48182 12.4844 10.0675 11.5994C10.6532 10.7143 11.486 10.0208 12.4625 9.60502C13.439 9.18922 14.5161 9.06944 15.56 9.26055C16.604 9.45167 17.5688 9.94525 18.3346 10.68V2.5C18.3346 1.83696 18.0712 1.20107 17.6024 0.732233C17.1336 0.263392 16.4977 0 15.8346 0L5.83464 0C4.72997 0.00132321 3.67093 0.440735 2.88982 1.22185C2.1087 2.00296 1.66929 3.062 1.66797 4.16667V15.8333C1.66929 16.938 2.1087 17.997 2.88982 18.7782C3.67093 19.5593 4.72997 19.9987 5.83464 20H14.5846C13.148 20 11.7703 19.4293 10.7545 18.4135C9.73865 17.3977 9.16797 16.0199 9.16797 14.5833ZM5.83464 5.83333C5.83464 5.61232 5.92243 5.40036 6.07871 5.24408C6.23499 5.0878 6.44696 5 6.66797 5H13.3346C13.5556 5 13.7676 5.0878 13.9239 5.24408C14.0802 5.40036 14.168 5.61232 14.168 5.83333C14.168 6.05435 14.0802 6.26631 13.9239 6.42259C13.7676 6.57887 13.5556 6.66667 13.3346 6.66667H6.66797C6.44696 6.66667 6.23499 6.57887 6.07871 6.42259C5.92243 6.26631 5.83464 6.05435 5.83464 5.83333Z" fill="#076AAB"/>
<path d="M19.7545 19.756C19.5983 19.9122 19.3863 20 19.1654 20C18.9444 20 18.7325 19.9122 18.5762 19.756L16.5704 17.7502C15.9763 18.1293 15.2867 18.3316 14.582 18.3335C13.8404 18.3335 13.1153 18.1136 12.4986 17.7015C11.882 17.2895 11.4013 16.7038 11.1175 16.0186C10.8337 15.3333 10.7594 14.5793 10.9041 13.8519C11.0488 13.1245 11.4059 12.4563 11.9304 11.9318C12.4548 11.4074 13.123 11.0502 13.8504 10.9056C14.5779 10.7609 15.3319 10.8351 16.0171 11.1189C16.7023 11.4028 17.288 11.8834 17.7 12.5001C18.1121 13.1168 18.332 13.8418 18.332 14.5835C18.3302 15.2882 18.1278 15.9778 17.7487 16.5718L19.7545 18.5777C19.9108 18.7339 19.9985 18.9459 19.9985 19.1668C19.9985 19.3878 19.9108 19.5997 19.7545 19.756Z" fill="#8BD500"/>
</svg>
