<svg width="96" height="96" viewBox="0 0 96 96" fill="none" xmlns="http://www.w3.org/2000/svg">
<path d="M0 24C0 10.7452 10.7452 0 24 0H72C85.2548 0 96 10.7452 96 24V72C96 85.2548 85.2548 96 72 96H24C10.7452 96 0 85.2548 0 72V24Z" fill="url(#paint0_radial_5447_10108)"/>
<g clip-path="url(#clip0_5447_10108)">
<path d="M60.1006 28.0327C60.876 28.6095 61.6136 29.2455 62.3052 29.937C66.0471 33.6789 68.1523 38.753 68.1587 44.0449C68.1583 49.185 64.1783 57.2291 56.3286 67.9526C55.3941 69.2328 54.1703 70.2742 52.7573 70.9922C51.3442 71.7102 49.7809 72.085 48.1958 72.085C46.611 72.0849 45.0486 71.7101 43.6357 70.9922C42.2228 70.2742 40.9989 69.2328 40.0645 67.9526C33.2824 58.6875 29.3908 51.4221 28.457 46.3022L43.0571 37.8735C42.879 38.023 42.7054 38.1784 42.54 38.3438C41.4212 39.4626 40.6588 40.8876 40.3501 42.4395C40.0414 43.9911 40.2003 45.5993 40.8057 47.061C41.4111 48.5226 42.4361 49.7723 43.7515 50.6514C45.0669 51.5303 46.6138 52.0004 48.1958 52.0005C50.3175 52.0005 52.3527 51.157 53.853 49.6567C55.3533 48.1565 56.1968 46.1212 56.1968 43.9995C56.1966 42.4175 55.7266 40.8706 54.8477 39.5552C53.9686 38.2399 52.7189 37.2148 51.2573 36.6094C49.7957 36.004 48.1874 35.8452 46.6357 36.1538C46.2399 36.2325 45.8519 36.34 45.4756 36.4761L60.1006 28.0327Z" fill="#076AAB"/>
<path d="M48.1997 24.0835C52.5139 24.0882 56.6836 25.4884 60.1045 28.0327L45.4795 36.4761C44.5983 36.7947 43.7809 37.2697 43.061 37.8735L28.4609 46.3022C28.314 45.4964 28.2383 44.744 28.2383 44.0449C28.2446 38.753 30.3497 33.6789 34.0918 29.937C37.8339 26.1952 42.9078 24.0895 48.1997 24.0835Z" fill="#8BD500"/>
</g>
<defs>
<radialGradient id="paint0_radial_5447_10108" cx="0" cy="0" r="1" gradientUnits="userSpaceOnUse" gradientTransform="translate(48 48) rotate(90) scale(48)">
<stop stop-color="white"/>
<stop offset="0.33" stop-color="#F4FBFF"/>
<stop offset="0.66" stop-color="#EDF8FF"/>
<stop offset="1" stop-color="#DEF2FF"/>
</radialGradient>
<clipPath id="clip0_5447_10108">
<rect width="48" height="48" fill="white" transform="translate(24.1992 24)"/>
</clipPath>
</defs>
</svg>
