<svg width="48" height="48" viewBox="0 0 48 48" fill="none" xmlns="http://www.w3.org/2000/svg">
<path d="M0 16C0 7.16344 7.16344 0 16 0H32C40.8366 0 48 7.16344 48 16V32C48 40.8366 40.8366 48 32 48H16C7.16344 48 0 40.8366 0 32V16Z" fill="#2A8FD2" fill-opacity="0.24"/>
<path d="M18 20H15C14.2044 20 13.4413 20.3161 12.8787 20.8787C12.3161 21.4413 12 22.2044 12 23V31C12 31.7957 12.3161 32.5587 12.8787 33.1213C13.4413 33.6839 14.2044 34 15 34H18V20Z" fill="#BFFB4F"/>
<path d="M26 20L26.555 16.672C26.6511 16.176 26.579 15.6622 26.35 15.2119C26.1211 14.7615 25.7484 14.4005 25.291 14.186C24.7665 13.957 24.1743 13.9368 23.6354 14.1295C23.0965 14.3222 22.6514 14.7133 22.391 15.223L20 20V34H34L36 23V20H26Z" fill="#2A8FD2"/>
</svg>
