<svg width="96" height="96" viewBox="0 0 96 96" fill="none" xmlns="http://www.w3.org/2000/svg">
<path d="M0 24C0 10.7452 10.7452 0 24 0H72C85.2548 0 96 10.7452 96 24V72C96 85.2548 85.2548 96 72 96H24C10.7452 96 0 85.2548 0 72V24Z" fill="url(#paint0_radial_5822_12817)"/>
<path d="M68.9243 29.4455C68.9243 29.4455 66.5941 27.1145 64.7715 25.2921C63.0485 23.5695 60.2454 23.5692 58.5225 25.2921L36.5234 47.2929L47.4376 58.2068C48.6133 59.3826 49.297 60.8661 49.4922 62.4004L53.8621 58.0292C54.1258 57.7655 54.274 57.4079 54.274 57.0349V53.9225H55.8801C56.6567 53.9225 57.2863 53.2929 57.2863 52.5163V49.4038H58.8926C59.6692 49.4038 60.2988 48.7741 60.2988 47.9975V44.8851H61.9049C62.6816 44.8851 63.3112 44.2555 63.3112 43.4789V40.3665H64.9174C65.694 40.3665 66.3237 39.7368 66.3237 38.9602V35.8479H67.9298C68.7064 35.8479 69.336 35.2183 69.336 34.4416V30.4396C69.336 30.0668 69.1879 29.7092 68.9243 29.4455Z" fill="#076AAB"/>
<path d="M34.532 49.2812L27.1475 56.6658C25.4248 58.3888 25.4248 61.1919 27.1477 62.9149L34.9369 70.7043C36.6624 72.4297 39.4574 72.4329 41.1859 70.7044L45.4463 66.4442C45.4463 66.4442 45.4464 66.4442 45.4464 66.4441C47.1692 64.7214 47.1692 61.9181 45.4463 60.1951C41.9858 56.735 34.532 49.2812 34.532 49.2812ZM39.0563 64.3139C38.5072 64.8632 37.6167 64.8632 37.0677 64.3141L33.5379 60.7848C32.9887 60.2357 32.9886 59.3453 33.5377 58.796C34.0868 58.2468 34.9772 58.2468 35.5263 58.7958L39.0561 62.3252C39.6053 62.8743 39.6054 63.7647 39.0563 64.3139Z" fill="#8BD500"/>
<defs>
<radialGradient id="paint0_radial_5822_12817" cx="0" cy="0" r="1" gradientUnits="userSpaceOnUse" gradientTransform="translate(48 48) rotate(90) scale(48)">
<stop stop-color="white"/>
<stop offset="0.33" stop-color="#F4FBFF"/>
<stop offset="0.66" stop-color="#EDF8FF"/>
<stop offset="1" stop-color="#DEF2FF"/>
</radialGradient>
</defs>
</svg>
