<svg width="96" height="96" viewBox="0 0 96 96" fill="none" xmlns="http://www.w3.org/2000/svg">
<path d="M0 24C0 10.7452 10.7452 0 24 0H72C85.2548 0 96 10.7452 96 24V72C96 85.2548 85.2548 96 72 96H24C10.7452 96 0 85.2548 0 72V24Z" fill="url(#paint0_radial_5822_12798)"/>
<g clip-path="url(#clip0_5822_12798)">
<path d="M44.0253 38.4002H38.0386L43.0572 46.7653C43.281 47.1383 43.3996 47.5655 43.3996 48.0004C43.3996 53.3022 39.1013 57.6005 33.7994 57.6006C28.4975 57.6006 24.1992 53.3022 24.1992 48.0004C24.1992 47.5655 24.3178 47.1383 24.5416 46.7653L31.741 34.7653C32.1747 34.0425 32.9564 33.6006 33.7994 33.6006H44.0253V38.4002Z" fill="#8BD500"/>
<path d="M48.1992 24C49.5247 24 50.5989 25.0744 50.599 26.3998V31.8424C51.3277 32.2639 51.9354 32.8715 52.3568 33.6002H62.599C63.4421 33.6002 64.2237 34.0421 64.6574 34.7649L71.8568 46.7649C72.0805 47.1379 72.1992 47.5651 72.1992 48C72.1992 53.3018 67.9009 57.6002 62.599 57.6002C57.2973 57.6001 52.9988 53.3018 52.9988 48C52.9988 47.5651 53.1175 47.1379 53.3412 46.7649L58.3599 38.3998H52.3568C51.9354 39.1285 51.3277 39.7361 50.599 40.1576V67.2004H57.7994C59.1248 67.2005 60.1992 68.2747 60.1992 69.6002C60.1991 70.9256 59.1248 71.9999 57.7994 72H38.599C37.2737 71.9999 36.1993 70.9256 36.1992 69.6002C36.1992 68.2747 37.2736 67.2005 38.599 67.2004H45.7994V40.1576C45.0708 39.7361 44.463 39.1285 44.0416 38.3998H44.0253V33.6002H44.0416C44.463 32.8715 45.0708 32.2639 45.7994 31.8424V26.3998C45.7995 25.0744 46.8738 24 48.1992 24Z" fill="#076AAB"/>
</g>
<defs>
<radialGradient id="paint0_radial_5822_12798" cx="0" cy="0" r="1" gradientUnits="userSpaceOnUse" gradientTransform="translate(48 48) rotate(90) scale(48)">
<stop stop-color="white"/>
<stop offset="0.33" stop-color="#F4FBFF"/>
<stop offset="0.66" stop-color="#EDF8FF"/>
<stop offset="1" stop-color="#DEF2FF"/>
</radialGradient>
<clipPath id="clip0_5822_12798">
<rect width="48" height="48" fill="white" transform="translate(24.1992 24)"/>
</clipPath>
</defs>
</svg>
