<svg width="96" height="96" viewBox="0 0 96 96" fill="none" xmlns="http://www.w3.org/2000/svg">
<path d="M0 24C0 10.7452 10.7452 0 24 0H72C85.2548 0 96 10.7452 96 24V72C96 85.2548 85.2548 96 72 96H24C10.7452 96 0 85.2548 0 72V24Z" fill="url(#paint0_radial_5822_12792)"/>
<g clip-path="url(#clip0_5822_12792)">
<path d="M48.3951 26.6061C50.3875 25.3413 55.6002 22.7039 61.9386 24.7567C65.2766 25.8381 67.9384 28.6506 69.2422 32.4733C70.9563 37.4997 70.0973 43.2991 66.9431 47.9867C64.8261 51.1326 63.4445 54.677 62.9487 58.2366C62.9211 58.4344 62.8946 58.6365 62.8683 58.8427C62.39 62.5904 61.6856 65.5989 60.7746 67.7835C59.6829 70.4014 58.2736 71.8151 56.5871 71.9855C56.4914 71.9952 56.3964 72 56.3025 72C54.6421 72 53.2553 70.4957 52.1763 67.5224C51.3792 65.3253 50.7502 62.381 50.4062 59.2322C50.2139 57.472 49.7644 56.0464 49.106 55.1105C48.8712 54.7769 48.5305 54.7411 48.3951 54.7411C48.2596 54.7411 47.92 54.7774 47.6853 55.1105C47.0268 56.0464 46.5762 57.4719 46.3839 59.2322C46.04 62.381 45.4122 65.3253 44.615 67.5224C43.4749 70.6643 41.9907 72.1658 40.2031 71.9855C38.5167 71.8151 37.1084 70.4012 36.0167 67.7835C35.1057 65.5989 34.4013 62.5902 33.923 58.8427C33.8956 58.6286 33.8668 58.4193 33.8382 58.2143C33.3415 54.6608 31.9646 51.1274 29.8549 47.9967C29.4518 47.3985 29.0856 46.7824 28.7578 46.1518L48.3382 26.5715C48.3572 26.5834 48.3766 26.5943 48.3951 26.6061Z" fill="#076AAB"/>
<path d="M34.8545 24.7567C41.1345 22.7226 46.3096 25.2937 48.3422 26.5714L28.7618 46.1529C26.5205 41.8419 26.0537 36.866 27.5487 32.4777C28.8518 28.6528 31.515 25.8385 34.8545 24.7567Z" fill="#8BD500"/>
</g>
<defs>
<radialGradient id="paint0_radial_5822_12792" cx="0" cy="0" r="1" gradientUnits="userSpaceOnUse" gradientTransform="translate(48 48) rotate(90) scale(48)">
<stop stop-color="white"/>
<stop offset="0.33" stop-color="#F4FBFF"/>
<stop offset="0.66" stop-color="#EDF8FF"/>
<stop offset="1" stop-color="#DEF2FF"/>
</radialGradient>
<clipPath id="clip0_5822_12792">
<rect width="48" height="48" fill="white" transform="translate(24.3984 24)"/>
</clipPath>
</defs>
</svg>
