<svg width="96" height="96" viewBox="0 0 96 96" fill="none" xmlns="http://www.w3.org/2000/svg">
<path d="M0 24C0 10.7452 10.7452 0 24 0H72C85.2548 0 96 10.7452 96 24V72C96 85.2548 85.2548 96 72 96H24C10.7452 96 0 85.2548 0 72V24Z" fill="url(#paint0_radial_5822_12804)"/>
<g clip-path="url(#clip0_5822_12804)">
<path d="M35.6221 39.1749L31.3804 40.4184C28.5933 41.2365 26.2812 43.1936 25.0138 45.8073C23.7675 48.3856 23.6658 51.3697 24.7336 54.0268C24.7479 54.0636 24.7663 54.0984 24.7807 54.1353L28.2983 53.5605C31.6139 52.697 34.6457 50.9809 37.0925 48.5827C37.9 47.792 39.1957 47.8058 39.9864 48.6133C40.777 49.4209 40.7633 50.7166 39.9557 51.5073C36.9442 54.4468 33.2079 56.5362 29.1266 57.563L26.7297 57.9597C28.1089 60.2012 29.8189 62.2215 31.8017 63.9521L36.0003 62.3937L38.8636 60.9621C41.8152 59.4788 44.3422 57.2707 46.2077 54.5444L47.2692 52.988C47.8795 52.0376 49.1446 51.7618 50.0951 52.372C51.0455 52.9823 51.3214 54.2474 50.7112 55.1979C50.6909 55.2295 50.6698 55.2604 50.6478 55.2908L49.5884 56.8472C47.3317 60.1495 44.2724 62.8238 40.6981 64.6188L37.5281 66.1998L35.804 66.8379C39.959 69.2602 44.6847 70.531 49.4942 70.5191H51.384C51.8068 70.5188 52.2193 70.3889 52.5661 70.1469C56.8974 67.2031 60.4844 63.2918 63.0434 58.7227L40.7676 36.8516C39.1423 37.8113 37.4168 38.5903 35.6221 39.1749Z" fill="#076AAB"/>
<path d="M71.3982 26.0856C70.5898 25.2801 69.2821 25.2801 68.4736 26.0856L58.7305 35.8287L58.076 35.1886C54.514 31.7095 48.966 31.2962 44.9277 34.209C44.7396 34.3439 44.5535 34.4564 44.3633 34.5874L64.87 54.7198C65.5226 52.953 66.002 51.1269 66.3016 49.2674C66.8162 45.9804 65.709 42.6476 63.33 40.3219L61.6938 38.7185L71.4023 29.0101C72.2068 28.2006 72.2049 26.8929 71.3982 26.0856Z" fill="#8BD500"/>
</g>
<defs>
<radialGradient id="paint0_radial_5822_12804" cx="0" cy="0" r="1" gradientUnits="userSpaceOnUse" gradientTransform="translate(48 48) rotate(90) scale(48)">
<stop stop-color="white"/>
<stop offset="0.33" stop-color="#F4FBFF"/>
<stop offset="0.66" stop-color="#EDF8FF"/>
<stop offset="1" stop-color="#DEF2FF"/>
</radialGradient>
<clipPath id="clip0_5822_12804">
<rect width="48" height="48" fill="white" transform="translate(24 24)"/>
</clipPath>
</defs>
</svg>
