<svg width="20" height="20" viewBox="0 0 20 20" fill="none" xmlns="http://www.w3.org/2000/svg">
<g clip-path="url(#clip0_5606_2521)">
<path d="M17.0258 11.6017C16.4608 12.185 15.6883 12.5067 14.89 12.5067C13.7925 12.51 12.7617 11.8917 12.2575 10.9167C11.8233 10.0908 11.7992 9.13167 12.1908 8.285L12.4008 7.85917C12.0483 7.64417 11.7358 7.35917 11.4792 7.01333C10.8558 6.17417 10.6717 5.11917 10.9742 4.11917C10.9742 4.11917 12.4125 0.3875 12.4425 0.318333C12.1892 0.3825 11.955 0.45 11.7375 0.5125C11.1192 0.691667 10.6308 0.833333 10 0.833333C9.36917 0.833333 8.88083 0.691667 8.2625 0.5125C7.475 0.284167 6.49417 0 5 0C1.045 0 0 3.27083 0 5C0 10.3692 2.79583 15.655 4.80667 19.0708C5.1475 19.65 5.76583 20 6.43833 20C7.485 20 8.33333 19.1517 8.33333 18.105V12.5892C8.33333 11.7592 8.90083 10.9892 9.72 10.8558C10.7642 10.6858 11.6667 11.4875 11.6667 12.5V18.105C11.6667 19.1517 12.515 20 13.5617 20C14.2333 20 14.8525 19.65 15.1933 19.0708C16.7617 16.4067 18.8008 12.605 19.6258 8.515L17.0258 11.6017Z" fill="#2A8FD2"/>
<path d="M19.7348 5.79833L15.8281 10.4417C15.5281 10.7517 15.0939 10.8933 14.6689 10.8208C13.8206 10.6758 13.3423 9.765 13.7031 8.98417L14.8506 6.66667H14.1031C13.5914 6.66667 13.1223 6.43083 12.8173 6.02C12.5123 5.60917 12.4214 5.09167 12.5698 4.60167L13.9081 1.1225C14.1398 0.450833 14.7723 0 15.4831 0H17.0839C17.9473 0 18.5514 0.855 18.2614 1.66917L17.5006 3.33333H18.4123C18.9981 3.33333 19.5348 3.65417 19.8114 4.17083C20.0881 4.68667 20.0589 5.31083 19.7348 5.79833Z" fill="#BFFB4F"/>
</g>
<defs>
<clipPath id="clip0_5606_2521">
<rect width="20" height="20" fill="white"/>
</clipPath>
</defs>
</svg>
