<svg width="20" height="20" viewBox="0 0 20 20" fill="none" xmlns="http://www.w3.org/2000/svg">
<g clip-path="url(#clip0_5606_2526)">
<path d="M7.25 14.9998H2.5C1.25583 14.9998 0 14.0548 0 11.9448V7.74485C0.0175226 5.82999 0.734522 3.9876 2.01598 2.56463C3.29744 1.14166 5.05493 0.23629 6.9575 0.0190131C8.03113 -0.058925 9.10897 0.0951644 10.1178 0.470811C11.1265 0.846457 12.0426 1.43486 12.8038 2.19603C13.565 2.9572 14.1534 3.87331 14.529 4.88209C14.9047 5.89088 15.0588 6.96871 14.9808 8.04235C14.7633 9.94569 13.8571 11.7038 12.4332 12.9853C11.0092 14.2668 9.16567 14.9834 7.25 14.9998Z" fill="#2A8FD2"/>
<path d="M16.667 7.56665H16.657C16.657 7.76415 16.657 7.96165 16.647 8.15998C16.3253 12.6667 12.2061 16.4817 7.57031 16.6508V16.6633C8.15415 17.6759 8.99395 18.5172 10.0055 19.1028C11.0171 19.6885 12.1648 19.9979 13.3336 20H17.5003C18.1634 20 18.7992 19.7366 19.2681 19.2678C19.7369 18.7989 20.0003 18.163 20.0003 17.5V13.3333C19.9991 12.1642 19.6905 11.016 19.1054 10.0039C18.5204 8.9917 17.6794 8.15119 16.667 7.56665Z" fill="#BFFB4F"/>
</g>
<defs>
<clipPath id="clip0_5606_2526">
<rect width="20" height="20" fill="white"/>
</clipPath>
</defs>
</svg>
