<svg width="20" height="20" viewBox="0 0 20 20" fill="none" xmlns="http://www.w3.org/2000/svg">
<g clip-path="url(#clip0_5606_2531)">
<path d="M4.84252 6.32273L3.07518 6.84085C1.91388 7.18173 0.950502 7.9972 0.422437 9.08624C-0.0968802 10.1605 -0.139261 11.4039 0.305679 12.511C0.311631 12.5264 0.3193 12.5409 0.325292 12.5562L1.79097 12.3167C3.17245 11.9569 4.43569 11.2419 5.45519 10.2426C5.79168 9.91321 6.33153 9.91892 6.66099 10.2554C6.99041 10.5919 6.9847 11.1318 6.64821 11.4612C5.39344 12.686 3.8366 13.5566 2.13609 13.9844L1.13736 14.1498C1.71204 15.0837 2.42453 15.9255 3.2507 16.6466L5.00014 15.9972L6.19316 15.4007C7.42301 14.7827 8.47591 13.8626 9.25322 12.7267L9.69549 12.0782C9.94978 11.6822 10.4769 11.5673 10.873 11.8215C11.269 12.0758 11.3839 12.6029 11.1297 12.999C11.1212 13.0121 11.1124 13.025 11.1032 13.0377L10.6618 13.6862C9.72153 15.0622 8.44683 16.1765 6.95754 16.9244L5.6367 17.5831L4.91834 17.849C6.64957 18.8583 8.61863 19.3878 10.6226 19.3828H11.41C11.5862 19.3827 11.7581 19.3286 11.9025 19.2277C13.7073 18.0012 15.2018 16.3715 16.2681 14.4676L6.9865 5.35468C6.30928 5.75456 5.59032 6.07915 4.84252 6.32273Z" fill="#2A8FD2"/>
<path d="M19.7489 0.868988C19.4121 0.533335 18.8672 0.533335 18.5304 0.868988L14.4707 4.92862L14.198 4.66191C12.7138 3.21229 10.4022 3.04005 8.71957 4.25372C8.64116 4.30996 8.56362 4.35681 8.48438 4.41138L17.0288 12.7999C17.3007 12.0637 17.5005 11.3029 17.6253 10.5281C17.8398 9.15849 17.3784 7.76982 16.3872 6.80077L15.7054 6.1327L19.7507 2.08753C20.0858 1.75024 20.0851 1.20536 19.7489 0.868988Z" fill="#BFFB4F"/>
</g>
<defs>
<clipPath id="clip0_5606_2531">
<rect width="20" height="20" fill="white"/>
</clipPath>
</defs>
</svg>
