<svg width="20" height="20" viewBox="0 0 20 20" fill="none" xmlns="http://www.w3.org/2000/svg">
<g clip-path="url(#clip0_5606_2542)">
<path d="M18.8871 2.26896C18.8871 2.26896 17.9162 1.29771 17.1568 0.538379C16.4388 -0.179355 15.2709 -0.179512 14.553 0.538379L5.38672 9.70537L9.9343 14.2528C10.4242 14.7428 10.709 15.3609 10.7904 16.0002L12.6112 14.1788C12.7211 14.069 12.7828 13.9199 12.7828 13.7646V12.4677H13.452C13.7756 12.4677 14.0379 12.2054 14.0379 11.8818V10.5849H14.7072C15.0308 10.5849 15.2931 10.3226 15.2931 9.99897V8.70213H15.9623C16.2859 8.70213 16.5483 8.43979 16.5483 8.11619V6.81936H17.2175C17.5411 6.81936 17.8035 6.55701 17.8035 6.23342V4.93662H18.4727C18.7963 4.93662 19.0586 4.67428 19.0586 4.35068V2.68318C19.0586 2.52783 18.9969 2.37885 18.8871 2.26896Z" fill="#2A8FD2"/>
<path d="M4.55663 10.534L1.47976 13.6109C0.761943 14.3288 0.761943 15.4968 1.47983 16.2147L4.72534 19.4603C5.44429 20.1792 6.6089 20.1806 7.32909 19.4604L9.10425 17.6852C9.10425 17.6852 9.10429 17.6852 9.10429 17.6852C9.82214 16.9674 9.82214 15.7994 9.10425 15.0814C7.66237 13.6398 4.55663 10.534 4.55663 10.534ZM6.44175 16.7976C6.21296 17.0265 5.8419 17.0265 5.61315 16.7977L4.14241 15.3272C3.91358 15.0984 3.91355 14.7274 4.14233 14.4985C4.37112 14.2697 4.74214 14.2697 4.97093 14.4984L6.44167 15.969C6.6705 16.1978 6.67054 16.5688 6.44175 16.7976Z" fill="#BFFB4F"/>
</g>
<defs>
<clipPath id="clip0_5606_2542">
<rect width="20" height="20" fill="white"/>
</clipPath>
</defs>
</svg>
