<svg width="168" height="32" viewBox="0 0 168 32" fill="none" xmlns="http://www.w3.org/2000/svg">
<rect width="32" height="32" rx="12" fill="#076AAB"/>
<path d="M16 5L18.3607 12.6393H26L19.8197 17.3607L22.1803 25L16 20.2786L9.81966 25L12.1803 17.3607L6 12.6393H13.6393L16 5Z" fill="white"/>
<path d="M34 12C34 5.37258 39.3726 0 46 0H54C60.6274 0 66 5.37258 66 12V20C66 26.6274 60.6274 32 54 32H46C39.3726 32 34 26.6274 34 20V12Z" fill="#076AAB"/>
<path d="M50 5L52.3607 12.6393H60L53.8197 17.3607L56.1803 25L50 20.2786L43.8197 25L46.1803 17.3607L40 12.6393H47.6393L50 5Z" fill="white"/>
<path d="M68 12C68 5.37258 73.3726 0 80 0H88C94.6274 0 100 5.37258 100 12V20C100 26.6274 94.6274 32 88 32H80C73.3726 32 68 26.6274 68 20V12Z" fill="#076AAB"/>
<path d="M84 5L86.3607 12.6393H94L87.8197 17.3607L90.1803 25L84 20.2786L77.8197 25L80.1803 17.3607L74 12.6393H81.6393L84 5Z" fill="white"/>
<path d="M102 12C102 5.37258 107.373 0 114 0H122C128.627 0 134 5.37258 134 12V20C134 26.6274 128.627 32 122 32H114C107.373 32 102 26.6274 102 20V12Z" fill="#076AAB"/>
<path d="M118 5L120.361 12.6393H128L121.82 17.3607L124.18 25L118 20.2786L111.82 25L114.18 17.3607L108 12.6393H115.639L118 5Z" fill="white"/>
<path d="M136 12C136 5.37258 141.373 0 148 0H156C162.627 0 168 5.37258 168 12V20C168 26.6274 162.627 32 156 32H148C141.373 32 136 26.6274 136 20V12Z" fill="#076AAB"/>
<path d="M152 5L154.361 12.6393H162L155.82 17.3607L158.18 25L152 20.2786L145.82 25L148.18 17.3607L142 12.6393H149.639L152 5Z" fill="white"/>
</svg>
