<svg width="96" height="96" viewBox="0 0 96 96" fill="none" xmlns="http://www.w3.org/2000/svg">
<rect width="96" height="96" rx="24" fill="#2A8FD2" fill-opacity="0.24"/>
<path d="M67.7062 27.4939C67.8737 27.4823 68.0417 27.5051 68.2 27.5609C68.3583 27.6167 68.5035 27.7042 68.6266 27.8182C69.075 28.2334 69.1454 28.8944 68.9282 29.2279C68.9241 29.234 68.9202 29.2402 68.9164 29.2464L55.8734 50.252L52.2109 44.4712L66.8137 27.9724C66.8225 27.9625 66.8311 27.9524 66.8394 27.9422C66.9457 27.8123 67.0773 27.7055 67.2264 27.6284C67.3755 27.5513 67.5388 27.5055 67.7062 27.4939Z" fill="#2A8FD2"/>
<path d="M55.8735 50.2404L45.7669 66.5171C44.9883 67.7069 43.7671 68.4305 42.4144 68.5032C41.7819 68.5395 41.1499 68.4243 40.5709 68.1673C39.9919 67.9103 39.4825 67.5188 39.0852 67.0254L27.9409 53.3736C27.4182 52.731 27.088 51.9535 26.9887 51.131C26.8894 50.3086 27.0249 49.4748 27.3796 48.7262C27.7344 47.9776 28.2939 47.3448 28.9933 46.9008C29.6928 46.4569 30.5036 46.2201 31.332 46.2178C32.4237 46.2186 33.4755 46.6282 34.2802 47.3658L42.0285 54.4169C42.1276 54.5071 42.2437 54.5767 42.37 54.6217C42.4963 54.6666 42.6303 54.686 42.7641 54.6788C42.898 54.6716 43.0291 54.6378 43.1498 54.5795C43.2704 54.5211 43.3783 54.4394 43.4672 54.3391L52.211 44.4597L55.8735 50.2404Z" fill="#BFFB4F"/>
</svg>
