<svg width="34" height="34" viewBox="0 0 34 34" fill="none" xmlns="http://www.w3.org/2000/svg">
<rect width="34" height="34" rx="8" fill="#0FD03B"/>
<path d="M25.8734 7.17259C22.6259 5.65505 18.9427 6.76531 16.9913 9.47635C15.6402 7.60288 13.4693 6.4873 11.1779 6.4873C10.1898 6.4873 9.18227 6.69271 8.21012 7.13009C5.15556 8.50774 3.4397 11.9483 4.16571 15.2189C4.47914 16.6338 5.18036 17.8219 6.10823 18.748L16.1343 28.7918C16.6106 29.2681 17.3826 29.2681 17.859 28.7918L27.885 18.748C28.9262 17.7104 29.6806 16.3416 29.9249 14.6948C30.3836 11.603 28.7049 8.49357 25.8734 7.17082V7.17259ZM7.32297 17.5315C6.74748 16.9578 6.31895 16.2885 6.04626 15.5394C5.5469 14.1689 5.61242 12.685 6.22864 11.3622C6.84487 10.0394 7.94097 9.0372 9.31153 8.53784C9.91536 8.31827 10.544 8.20671 11.1797 8.20671C13.2603 8.20671 15.1426 9.40906 16.0581 11.2418C15.6933 12.2547 15.5782 13.2959 15.6668 14.3017L16.7664 26.9909L7.32297 17.5315ZM25.367 14.0626C25.0695 15.8883 23.065 16.8232 21.4731 15.8776C20.5895 15.3517 20.0954 14.2946 20.2619 13.2799C20.5594 11.4543 22.5657 10.5193 24.1558 11.4649C25.0394 11.9908 25.5334 13.0497 25.367 14.0626Z" fill="#03036A"/>
</svg>
