<svg width="34" height="34" viewBox="0 0 34 34" fill="none" xmlns="http://www.w3.org/2000/svg">
<g clip-path="url(#clip0_5257_2493)">
<path fill-rule="evenodd" clip-rule="evenodd" d="M23.3494 20.4557L23.3495 20.4555L23.3437 20.4531C23.264 20.4188 23.1832 20.3867 23.1009 20.3573L14.7881 17.076L14.7874 17.0771C14.5598 16.9766 14.3085 16.9197 14.0434 16.9197C13.0298 16.9197 12.2081 17.7359 12.2081 18.7427C12.2081 19.1588 12.3501 19.5412 12.5864 19.848L12.5853 19.8492L12.5997 19.8656C12.6417 19.9189 12.686 19.9703 12.7337 20.0185L18.6936 26.8195L18.6938 26.8193C19.4369 27.6518 20.5212 28.1773 21.7294 28.1773C23.9694 28.1773 25.7852 26.3737 25.7852 24.1489C25.7852 22.4963 24.7829 21.0769 23.3494 20.4557ZM20.6113 6.74392C22.4963 6.15479 24.5272 7.12776 25.1476 8.91684C25.7683 10.7058 24.7434 12.6336 22.8583 13.2228C20.9737 13.8116 18.9427 12.8387 18.322 11.0497C17.7017 9.26058 18.7266 7.33279 20.6113 6.74392ZM33.6577 8.92814C33.3836 8.54269 32.9852 8.29581 32.5525 8.18708L32.5522 8.18072L30.9271 7.75558C30.9035 7.67959 30.8881 7.60267 30.8626 7.52676C29.1752 2.54706 23.6523 -0.160793 18.5265 1.47864C15.8712 2.32774 13.8519 4.18073 12.7486 6.45835L9.81217 11.1158L2.84256 8.37078L2.83795 8.37587C2.39898 8.19794 1.89823 8.15884 1.41113 8.31455C0.334638 8.65904 -0.250919 9.7859 0.103419 10.832C0.155379 10.9848 0.229011 11.1241 0.31237 11.255L0.300254 11.2689L7.57182 20.8772C7.57838 20.8858 7.58163 20.8954 7.5882 20.9039C7.59468 20.9129 7.60321 20.9198 7.61012 20.9287L12.8125 28.2075C15.0857 32.2599 20.0038 34.6988 24.7514 33.1803C29.8768 31.5412 32.6644 26.1754 30.9768 21.1957C30.4515 19.6458 29.5542 18.3165 28.4132 17.2694C29.8516 15.8981 30.8277 14.1288 31.1924 12.2087L32.7642 11.7555L32.7632 11.7384C32.9025 11.6859 33.0388 11.6223 33.1671 11.5363C34.0437 10.9477 34.2636 9.78013 33.6577 8.92814Z" fill="#1976D2"/>
</g>
<defs>
<clipPath id="clip0_5257_2493">
<rect width="34" height="34" fill="white"/>
</clipPath>
</defs>
</svg>
