<svg width="34" height="34" viewBox="0 0 34 34" fill="none" xmlns="http://www.w3.org/2000/svg">
<g clip-path="url(#clip0_5257_2435)">
<path d="M2.88575 9.43164H30.2784C30.9287 9.43164 31.4572 9.96013 31.4572 10.6104V30.4991C31.4572 31.1493 30.9287 31.6778 30.2784 31.6778H2.88575C2.23552 31.6778 1.70703 31.1493 1.70703 30.4991V10.6104C1.70703 9.95736 2.23552 9.43164 2.88575 9.43164Z" fill="#4989F5"/>
<path d="M29.9355 9.2627H3.19857C2.37126 9.2627 1.72656 15.6737 1.72656 16.501L16.3692 31.6749H29.9383C30.7684 31.6721 31.4407 30.9998 31.4435 30.1697V10.7679C31.438 9.93783 30.7656 9.26546 29.9355 9.2627Z" fill="#437EE6"/>
<path d="M8.5 13.1563H17V2H9.77279L8.5 13.1563Z" fill="#3C4BA6"/>
<path d="M25.5 13.1563H17V2H24.2272L25.5 13.1563ZM31.4573 4.11394L31.4683 4.15268C31.4656 4.13884 31.46 4.12778 31.4573 4.11394Z" fill="#7BABF7"/>
<path d="M31.4696 4.15268L31.4585 4.11394C31.1901 2.87989 30.0972 2 28.8355 2H24.2285L25.5013 13.1563H34.0013L31.4696 4.15268Z" fill="#3F51B5"/>
<path d="M2.5415 4.11328L2.5332 4.15202C2.5332 4.13818 2.53874 4.12712 2.5415 4.11328Z" fill="#7BABF7"/>
<path d="M2.53175 4.15268L2.54282 4.11394C2.81398 2.87989 3.90415 2 5.16864 2H9.77283L8.50004 13.1563H0L2.53175 4.15268Z" fill="#7BABF7"/>
<path fill-rule="evenodd" clip-rule="evenodd" d="M8.51794 13.1533C8.51794 15.4997 6.61705 17.4006 4.27069 17.4006C1.92432 17.4006 0.0234375 15.4997 0.0234375 13.1533H8.51794Z" fill="#709BE0"/>
<path fill-rule="evenodd" clip-rule="evenodd" d="M17.0121 13.1533C17.0121 15.4997 15.1112 17.4006 12.7648 17.4006C10.4185 17.4006 8.51758 15.4997 8.51758 13.1533H17.0121Z" fill="#3C4BA6"/>
<path fill-rule="evenodd" clip-rule="evenodd" d="M25.5043 13.1533C25.5043 15.4997 23.6034 17.4006 21.257 17.4006C18.9107 17.4006 17.0098 15.4997 17.0098 13.1533H25.5043Z" fill="#709BE0"/>
<path fill-rule="evenodd" clip-rule="evenodd" d="M34.0004 13.1533C34.0004 15.4997 32.0995 17.4006 29.7531 17.4006C27.4067 17.4006 25.5059 15.4997 25.5059 13.1533H34.0004Z" fill="#3C4BA6"/>
<path d="M29.7525 24.6612C29.7386 24.4592 29.7137 24.2738 29.6777 24.0386H25.0431C25.0431 24.6861 25.0431 25.3944 25.0404 26.0419H27.7243C27.6081 26.6533 27.2539 27.1929 26.742 27.5415C26.2274 27.8902 26.742 27.5305 26.7393 27.5305C26.41 27.7463 26.0392 27.8902 25.6519 27.9538C25.4637 27.987 25.27 28.0064 25.0763 28.0064C24.8743 28.0064 24.6724 27.987 24.4759 27.9483C24.083 27.868 23.7095 27.7048 23.3802 27.4724C22.896 27.1293 22.5197 26.6478 22.3039 26.0944C22.2873 26.0502 22.2707 26.0087 22.2568 25.9644V25.9588L22.2624 25.9561C22.1572 25.649 22.1046 25.3225 22.1046 24.9987C22.1046 24.675 22.1572 24.3513 22.2624 24.0441C22.409 23.6097 22.6553 23.2113 22.9762 22.8848C23.7288 22.1045 24.855 21.8112 25.8953 22.1239C26.2938 22.2456 26.6563 22.4614 26.9578 22.7492L27.8626 21.8444C28.0231 21.6839 28.1891 21.5262 28.3413 21.3602C27.882 20.9313 27.3425 20.5965 26.7559 20.3779C26.2108 20.1815 25.6352 20.0791 25.057 20.0791C24.5063 20.0791 23.9585 20.1704 23.4383 20.3475C23.3996 20.3613 23.3636 20.3724 23.3276 20.3862C22.1655 20.8234 21.2109 21.6812 20.6492 22.7879C20.4528 23.1781 20.3061 23.5959 20.2204 24.0275C19.7085 26.5759 21.2635 29.0855 23.7731 29.7606C24.5949 29.9792 25.4665 29.9737 26.2938 29.7883C27.0436 29.6195 27.7409 29.257 28.3109 28.7396C28.9058 28.1918 29.3346 27.4613 29.556 26.6866C29.6999 26.1774 29.7746 25.6489 29.7746 25.1205C29.7718 24.9683 29.7635 24.8133 29.7525 24.6612Z" fill="white"/>
</g>
<defs>
<clipPath id="clip0_5257_2435">
<rect width="34" height="34" fill="white"/>
</clipPath>
</defs>
</svg>
