<svg width="34" height="34" viewBox="0 0 34 34" fill="none" xmlns="http://www.w3.org/2000/svg">
<path d="M23.25 4.05681V29.5568C23.25 32.4123 25.218 34 27.3068 34C29.2386 34 31.3636 32.6477 31.3636 29.5568V4.24999C31.3636 1.63601 29.4318 0 27.3068 0C25.1818 0 23.25 1.80504 23.25 4.05681Z" fill="#F8AB00"/>
<path d="M12.625 17.0002V29.557C12.625 32.4125 14.593 34.0002 16.6818 34.0002C18.6136 34.0002 20.7386 32.6479 20.7386 29.557V17.1934C20.7386 14.5794 18.8068 12.9434 16.6818 12.9434C14.5568 12.9434 12.625 14.7484 12.625 17.0002Z" fill="#E37300"/>
<path d="M10.1136 29.9426C10.1136 32.1823 8.29652 33.9994 6.05682 33.9994C3.81712 33.9994 2 32.1823 2 29.9426C2 27.7029 3.81712 25.8857 6.05682 25.8857C8.29652 25.8857 10.1136 27.7029 10.1136 29.9426Z" fill="#E37300"/>
</svg>
