<svg width="34" height="34" viewBox="0 0 34 34" fill="none" xmlns="http://www.w3.org/2000/svg">
<path fill-rule="evenodd" clip-rule="evenodd" d="M17 33.0942C25.8361 33.0942 33 25.9072 33 17.0403C33 8.17336 25.8361 0.986328 17 0.986328C8.16391 0.986328 1 8.17336 1 17.0403C1 25.9072 8.16391 33.0942 17 33.0942ZM14.4519 6.86207C14.3516 6.70038 14.1996 6.57729 14.0206 6.51272C13.8416 6.44816 13.646 6.4459 13.4656 6.50632C13.0459 6.65499 12.6358 6.82957 12.2378 7.02903C12.0677 7.11952 11.9319 7.26311 11.851 7.43792C11.77 7.61273 11.7485 7.8092 11.7895 7.99741L12.0644 9.38961C12.0962 9.56559 12.0804 9.74691 12.0185 9.91471C11.9566 10.0825 11.851 10.2307 11.7125 10.3439C11.2697 10.713 10.8664 11.127 10.5091 11.5794C10.4026 11.72 10.2592 11.8284 10.0948 11.8926C9.93047 11.9567 9.75157 11.9741 9.57794 11.9428L8.21785 11.6667C8.03145 11.6268 7.83705 11.6507 7.66586 11.7345C7.49466 11.8184 7.35661 11.9573 7.27388 12.129C7.07944 12.5378 6.91045 12.9581 6.76786 13.3877C6.70828 13.5712 6.71029 13.7691 6.77358 13.9513C6.83688 14.1336 6.95799 14.2901 7.11848 14.3972L8.27436 15.1832C8.57103 15.3861 8.72001 15.7483 8.68405 16.1117C8.62626 16.6974 8.62884 17.2817 8.68791 17.8584C8.7093 18.0356 8.68281 18.2153 8.61121 18.3789C8.53961 18.5424 8.42552 18.6837 8.28078 18.7882L7.12747 19.5781C6.96733 19.6857 6.84669 19.8426 6.78387 20.0251C6.72105 20.2075 6.71949 20.4054 6.77942 20.5888C6.92455 21.0178 7.09536 21.4365 7.29057 21.8449C7.37378 22.0164 7.5122 22.155 7.68363 22.2384C7.85506 22.3218 8.04953 22.3451 8.23583 22.3047L9.59721 22.0234C9.77048 21.9916 9.94919 22.0083 10.1135 22.0718C10.2779 22.1352 10.4215 22.243 10.5283 22.383C10.8854 22.8325 11.2886 23.2461 11.7343 23.616C11.8733 23.7286 11.9796 23.8764 12.0421 24.0439C12.1047 24.2115 12.1212 24.3928 12.0901 24.5689L11.8204 25.9624C11.78 26.1507 11.8024 26.347 11.884 26.5213C11.9656 26.6957 12.102 26.8386 12.2724 26.9282C12.6708 27.1268 13.0814 27.3001 13.5015 27.4471C14.1103 27.6603 14.9631 26.8948 15.5937 26.3284C15.7499 26.1908 15.8755 26.022 15.9624 25.8329C16.0493 25.6437 16.0957 25.4385 16.0984 25.2304V22.8942C16.0984 22.8685 16.0997 22.8441 16.1023 22.8197C14.2387 22.365 12.8542 20.6492 12.8542 18.602V16.1284C12.8542 15.9396 13.0032 15.7881 13.1869 15.7881H14.3402V13.353C14.3388 13.1936 14.4006 13.0401 14.512 12.926C14.6234 12.812 14.7754 12.7466 14.9348 12.7442C15.2636 12.7442 15.5295 13.0178 15.5295 13.353V15.7881H18.6503V13.353C18.6503 13.0178 18.9162 12.7442 19.245 12.7442C19.5738 12.7442 19.8396 13.0178 19.8396 13.353V15.7881H20.9929C21.1766 15.7881 21.3256 15.9396 21.3256 16.1284V18.602C21.3256 20.7134 19.8525 22.4729 17.9003 22.8595L17.9016 22.8942V25.2137C17.9016 25.6452 18.0981 26.0485 18.4192 26.3284C19.06 26.8897 19.9282 27.6487 20.5344 27.433C20.9531 27.2853 21.3628 27.1106 21.7622 26.9102C21.9322 26.82 22.068 26.6766 22.1489 26.502C22.2298 26.3274 22.2514 26.1312 22.2105 25.9431L21.9356 24.5497C21.904 24.3739 21.92 24.1928 21.9818 24.0253C22.0437 23.8577 22.1492 23.7098 22.2875 23.5967C22.7255 23.2307 23.1288 22.8184 23.4909 22.3612C23.5973 22.2203 23.7406 22.1117 23.905 22.0473C24.0693 21.9829 24.2483 21.9653 24.4221 21.9964L25.7822 22.2726C26.1649 22.3496 26.5553 22.1698 26.7261 21.8102C26.9206 21.4015 27.0896 20.9812 27.2321 20.5516C27.2914 20.3683 27.2893 20.1706 27.226 19.9887C27.1627 19.8067 27.0417 19.6504 26.8815 19.5434L25.7256 18.7574C25.5802 18.6534 25.4655 18.5122 25.3934 18.3486C25.3213 18.185 25.2946 18.005 25.3159 17.8276C25.3731 17.2471 25.3719 16.6624 25.3121 16.0822C25.2907 15.9049 25.3172 15.7252 25.3888 15.5617C25.4604 15.3982 25.5745 15.2568 25.7192 15.1523L26.8725 14.3612C27.0323 14.2536 27.1527 14.0968 27.2153 13.9146C27.2778 13.7324 27.2793 13.5348 27.2193 13.3517C27.0748 12.9225 26.9041 12.5026 26.7081 12.0944C26.6251 11.923 26.4869 11.7847 26.3156 11.7015C26.1444 11.6183 25.9501 11.5952 25.7642 11.6359L24.4028 11.9159C24.2295 11.9477 24.0508 11.931 23.8865 11.8675C23.7221 11.804 23.5785 11.6963 23.4717 11.5562C23.1128 11.1052 22.7087 10.6921 22.2657 10.3233C22.1266 10.2111 22.0202 10.0635 21.9576 9.89613C21.8951 9.72872 21.8786 9.54757 21.9099 9.37162L22.1796 7.97814C22.22 7.78988 22.1976 7.59359 22.116 7.41922C22.0344 7.24484 21.898 7.10195 21.7276 7.01234C21.3287 6.81474 20.9183 6.64147 20.4985 6.49347C20.3178 6.43373 20.1222 6.43674 19.9434 6.50201C19.7646 6.56727 19.6131 6.69097 19.5134 6.85308L18.7454 8.03465C18.6477 8.18186 18.5111 8.29913 18.3509 8.37349C18.1906 8.44784 18.0129 8.47637 17.8374 8.45591C17.2708 8.39692 16.6995 8.39778 16.1331 8.45848C15.9581 8.47977 15.7806 8.45216 15.6203 8.37871C15.46 8.30525 15.3232 8.18883 15.2251 8.04236L14.4519 6.86207Z" fill="#005AE0"/>
</svg>
