<svg width="34" height="34" viewBox="0 0 34 34" fill="none" xmlns="http://www.w3.org/2000/svg">
<g clip-path="url(#clip0_5257_2533)">
<path d="M26 0H8C3.58172 0 0 3.58172 0 8V26C0 30.4183 3.58172 34 8 34H26C30.4183 34 34 30.4183 34 26V8C34 3.58172 30.4183 0 26 0Z" fill="#3A57FC"/>
<path d="M18.4869 8.09863H9.08598V12.033H18.4869V14.1857L14.7191 14.5569C9.30979 15.0766 7.59375 16.3757 7.59375 20.3471V21.3863C7.59375 24.4299 9.79483 26.0259 12.5181 26.0259C13.7492 26.0259 15.0921 25.729 16.4352 25.0237L18.487 23.9845V25.8033H22.4414V12.033L18.4869 8.09863ZM18.4869 20.1244L15.9502 21.4235C14.9802 21.9802 13.973 22.2772 13.1896 22.2772C12.2197 22.2772 11.5481 21.9431 11.5481 20.7182V19.9016C11.6228 18.6026 12.4807 18.2685 15.3906 17.9716L18.4869 17.6375V20.1243V20.1244Z" fill="white"/>
<path d="M22.4426 8.09863H18.4883V12.033H22.4426V8.09863Z" fill="#FF8D00"/>
<path d="M26.3958 12.0322H22.4414V25.8028H26.3958V12.0322Z" fill="#FF8D00"/>
</g>
<defs>
<clipPath id="clip0_5257_2533">
<rect width="34" height="34" fill="white"/>
</clipPath>
</defs>
</svg>
