<svg width="34" height="34" viewBox="0 0 34 34" fill="none" xmlns="http://www.w3.org/2000/svg">
<path d="M31.96 17.3545C31.96 16.2495 31.8608 15.187 31.6767 14.167H17V20.202H25.3867C25.0183 22.1428 23.9133 23.7862 22.2558 24.8912V28.8153H27.3133C30.26 26.0953 31.96 22.1003 31.96 17.3545Z" fill="#4285F4"/>
<path d="M16.9996 32.5829C21.2071 32.5829 24.7346 31.1946 27.3129 28.8146L22.2554 24.8904C20.8671 25.8254 19.0962 26.3921 16.9996 26.3921C12.9479 26.3921 9.50539 23.6579 8.27289 19.9746H3.08789V23.9979C5.65206 29.0838 10.9079 32.5829 16.9996 32.5829Z" fill="#34A853"/>
<path d="M8.27268 19.9606C7.96102 19.0256 7.77685 18.034 7.77685 16.9998C7.77685 15.9656 7.96102 14.974 8.27268 14.039V10.0156H3.08768C2.02518 12.1123 1.41602 14.4781 1.41602 16.9998C1.41602 19.5215 2.02518 21.8873 3.08768 23.984L7.12518 20.839L8.27268 19.9606Z" fill="#FBBC05"/>
<path d="M16.9996 7.62199C19.2946 7.62199 21.3346 8.41533 22.9637 9.94533L27.4262 5.48283C24.7204 2.96116 21.2071 1.41699 16.9996 1.41699C10.9079 1.41699 5.65206 4.91616 3.08789 10.0162L8.27289 14.0395C9.50539 10.3562 12.9479 7.62199 16.9996 7.62199Z" fill="#EA4335"/>
</svg>
