<svg width="34" height="34" viewBox="0 0 34 34" fill="none" xmlns="http://www.w3.org/2000/svg">
<mask id="mask0_5257_2512" style="mask-type:luminance" maskUnits="userSpaceOnUse" x="1" y="1" width="32" height="32">
<path d="M32.7718 1.20312H1.28711V32.6878H32.7718V1.20312Z" fill="white"/>
</mask>
<g mask="url(#mask0_5257_2512)">
<mask id="mask1_5257_2512" style="mask-type:luminance" maskUnits="userSpaceOnUse" x="1" y="0" width="32" height="34">
<path d="M32.4024 0.68457H1.65625V33.2056H32.4024V0.68457Z" fill="white"/>
</mask>
<g mask="url(#mask1_5257_2512)">
<path d="M15.223 31.3556C13.6937 31.3658 12.1644 31.4121 10.6636 31.0082C7.51044 30.1595 5.15492 28.2528 3.408 25.5478C2.218 23.705 1.68896 21.6588 1.67332 19.4788C1.657 17.1566 1.6502 14.8337 1.67196 12.5115C1.70324 9.15091 3.0646 6.37515 5.45752 4.06655C7.1616 2.42231 9.1472 1.31187 11.4918 0.881432C12.1569 0.758352 12.8321 0.694432 13.5087 0.691712C15.8629 0.684912 18.2164 0.684912 20.5705 0.691032C23.6999 0.700552 26.4015 1.78243 28.6768 3.93531C30.7624 5.90663 32.0108 8.29411 32.3298 11.1528C32.3774 11.5874 32.4005 12.0246 32.4005 12.4618C32.4066 15.3464 32.4073 18.2316 32.4032 21.1162C32.4025 23.0794 30.9541 24.5318 28.9876 24.5359C26.6858 24.5407 24.384 24.5346 22.0822 24.54C21.7483 24.5407 21.4232 24.4346 21.0873 24.4754C20.6977 24.2211 20.3101 23.964 19.9184 23.7138C19.8069 23.6424 19.6702 23.607 19.6124 23.4697C19.2513 22.7938 18.9324 22.1008 18.8148 21.327C18.6801 21.769 18.5944 22.2171 18.3632 22.6156C17.6771 22.1287 17.025 21.5963 16.4096 21.0224C16.4647 20.9979 16.5184 20.97 16.5748 20.9489C17.741 20.5137 18.4612 19.6807 18.7243 18.4737C18.8807 17.7563 18.7821 17.0219 18.7821 16.295C19.2187 15.2872 19.6845 14.2931 20.2162 13.3309C20.3196 13.1384 20.4502 12.9616 20.6045 12.8073C21.022 12.4 21.547 12.4435 21.8829 12.9202C22.023 13.1255 22.1345 13.3492 22.2134 13.5845C22.14 13.6342 22.1529 13.711 22.1529 13.7824C22.1542 15.6769 22.1427 17.5714 22.1624 19.4658C22.174 20.6184 22.7322 21.1434 23.8971 21.1509C25.0109 21.1584 26.1248 21.1563 27.2386 21.1529C28.3878 21.1495 28.9651 20.577 28.9726 19.4223C28.9794 18.371 28.9726 17.3198 28.9719 16.2685C29.571 15.9564 30.2204 15.751 30.8895 15.6626C31.0364 15.6442 31.15 15.615 31.1969 15.4559C31.2798 15.175 31.2819 14.9037 31.1255 14.6446C30.9106 14.291 30.5835 14.2285 30.2415 14.4624C29.86 14.7228 29.4479 14.9132 28.9821 14.9676L28.9651 13.1616C29.0297 13.0317 29.1657 12.9861 29.2725 12.9072C29.5724 12.6862 29.6261 12.3864 29.4187 12.0722C29.2963 11.8866 29.112 11.8029 28.91 11.7438C28.8434 10.6551 28.5061 9.64663 28.0043 8.68715C27.5412 7.80247 26.8993 7.05379 26.2104 6.34183C26.5001 5.30687 26.1581 4.77511 25.0844 4.59559C24.9626 4.57043 24.8396 4.55207 24.7158 4.54051C23.8515 4.49291 23.0852 4.24131 22.5378 3.51779C22.4908 3.46203 22.4392 3.41035 22.3834 3.36411C22.0896 3.09007 21.751 3.00507 21.3498 3.06355C20.7038 3.15807 20.3339 3.57423 20.0435 4.10259L14.2921 4.09239C14.2744 3.82515 14.3356 3.55995 14.2948 3.28999C14.2486 2.98127 14.0656 2.85683 13.6978 2.92075C13.3523 2.98059 13.2245 3.16351 13.3122 3.48039C13.3666 3.67827 13.4285 3.87411 13.487 4.07131L13.0796 4.10463C12.6764 3.26891 12.301 2.42707 12.3357 1.46555C12.3466 1.16703 12.0569 0.959632 11.7026 0.984792C11.33 1.01131 10.9839 1.31731 11.0267 1.58931C11.0396 1.64983 11.0675 1.70627 11.107 1.75319C11.6251 2.41687 11.8774 3.19683 12.0855 3.99515C12.1066 4.07539 12.1861 4.18759 12.0855 4.25219C12.0345 4.28755 11.974 4.30863 11.9114 4.31135C11.8488 4.31407 11.787 4.29979 11.7326 4.26919C11.5517 4.16379 11.398 4.01827 11.2824 3.84351C11.0818 3.55179 10.8887 3.25531 10.6935 2.96019C10.5521 2.72899 10.3814 2.51751 10.1862 2.32915C10.1006 2.24347 9.99041 2.18771 9.87073 2.16935C9.75105 2.15099 9.62864 2.17207 9.52188 2.22851C9.27572 2.34071 9.17169 2.54471 9.16965 2.80379C9.16761 3.17099 9.39745 3.46747 9.77281 3.58715C9.85917 3.61435 9.97884 3.59463 10.0101 3.70411C10.1182 4.07811 10.4249 4.31815 10.6235 4.63027C10.5568 4.73703 10.4351 4.75199 10.3345 4.80027C8.3516 5.75159 6.75768 7.10479 5.84172 9.15499C5.35892 10.2355 5.16852 11.3779 5.14472 12.553C4.6966 12.2891 4.30764 11.9423 3.88536 11.6424C3.66232 11.484 3.43996 11.4758 3.22372 11.6377C2.98912 11.8131 2.92656 12.0566 3.00476 12.3313C3.08024 12.5985 3.21284 12.8066 3.54128 12.7923C4.26004 12.761 4.7374 13.1772 5.16512 13.6811C5.159 13.949 5.15288 14.2162 5.14608 14.4842C4.87272 14.4638 4.62996 14.338 4.37496 14.2543C4.07984 14.1578 3.7922 14.0354 3.47464 14.0272C3.1088 14.0184 2.94016 14.1727 2.91704 14.5358C2.88304 15.0581 2.96124 15.1696 3.37808 15.2152C3.97512 15.2804 4.5742 15.3382 5.16036 15.479C5.15968 16.8533 5.15968 18.2282 5.159 19.6032C5.16444 20.4471 5.30112 21.2855 5.5636 22.0872C6.00628 23.4697 6.84064 24.5958 7.85996 25.6049C9.2016 26.9336 10.7908 27.734 12.6791 27.9223C13.6767 28.0223 14.6763 27.9522 15.6752 27.9713C16.445 27.9862 17.2147 27.9869 17.9852 27.9944C17.9736 28.0787 17.8961 28.1046 17.8437 28.1522C16.8224 29.0994 15.748 30.0024 15.223 31.3556Z" fill="#72B52D"/>
<path d="M13.4879 4.06918C13.4294 3.87266 13.3676 3.67614 13.3132 3.47826C13.2254 3.16138 13.3533 2.97846 13.6987 2.91862C14.0666 2.8547 14.2495 2.97982 14.2958 3.28786C14.3366 3.55782 14.2754 3.82302 14.293 4.09026C14.2087 4.68594 14.0605 5.27414 14.0965 5.88342C14.1298 6.4587 14.3502 6.90478 14.9275 7.11354C15.1648 7.19514 15.3722 7.34678 15.5211 7.54874C15.517 7.7031 15.6789 7.8663 15.4973 8.01114C15.311 8.16006 15.126 8.09206 14.9411 8.00774C14.8846 7.9819 14.8316 7.94586 14.7731 7.92546C14.6942 7.89758 14.6058 7.87718 14.5324 7.92886C14.4365 7.9955 14.5086 8.0805 14.529 8.15462C14.6528 8.60138 14.9785 8.89242 15.3185 9.1719C15.4307 9.26438 15.4565 9.16918 15.4966 9.0971C15.7843 8.57962 16.0726 8.06214 16.3602 7.54466C16.5377 7.34202 16.7091 7.13258 16.894 6.93742C17.4034 6.39886 18.065 6.07994 18.6906 5.7107C19.3325 5.33262 19.8017 4.81242 20.0431 4.10046C20.3328 3.57142 20.7034 3.15594 21.3494 3.06142C21.7506 3.00294 22.0892 3.08794 22.383 3.36198C22.4388 3.4089 22.4904 3.46058 22.5374 3.51566C23.0841 4.23918 23.8511 4.4901 24.7154 4.53838C24.8392 4.54994 24.9622 4.5683 25.084 4.59346C26.157 4.77298 26.4997 5.30474 26.21 6.3397C26.021 6.6117 25.8462 6.89458 25.6402 7.15366C24.7691 8.24778 23.8164 9.26166 22.6795 10.0885C22.5734 10.1654 22.4646 10.2259 22.4687 10.3993C22.4898 11.4003 22.6577 12.3659 23.1643 13.2424C23.6696 14.1169 24.3904 14.6663 25.4525 14.6663C25.6681 14.6663 25.7619 14.6037 25.8007 14.3807C25.8816 13.9183 25.7898 13.4688 25.7476 13.0146C25.7354 12.8833 25.6749 12.7439 25.7653 12.6229C25.8932 12.4509 26.3787 12.3835 26.6153 12.4978C26.8914 12.6317 26.939 12.8459 26.8424 13.1207C26.7799 13.2961 26.7282 13.4756 26.6874 13.6579C26.6344 13.8605 26.6412 14.0733 26.7064 14.2726C26.7751 14.465 26.8418 14.5113 27.0274 14.3651C27.7332 13.8068 28.0868 13.0506 28.2929 12.2033C28.4085 11.728 28.4105 11.7273 28.9096 11.7423C29.1116 11.8015 29.2959 11.8858 29.4183 12.0707C29.625 12.3842 29.5713 12.6848 29.2721 12.9058C29.1653 12.9847 29.03 13.0302 28.9647 13.1601C28.7893 13.2601 28.7356 13.4443 28.658 13.6096C28.4438 14.0679 28.3622 14.5697 28.1739 15.0607C28.4622 15.0661 28.726 15.06 28.981 14.9662C29.4468 14.9125 29.8589 14.7221 30.2404 14.4616C30.5831 14.2277 30.9102 14.2903 31.1244 14.6439C31.2815 14.9023 31.2788 15.1736 31.1958 15.4551C31.1489 15.6142 31.0353 15.6428 30.8884 15.6618C30.2186 15.7509 29.5699 15.9563 28.9708 16.2677C28.7322 16.3663 28.4914 16.4608 28.2555 16.5649C27.553 16.8736 26.8438 17.1435 26.0754 17.2653C24.9242 17.4475 23.0236 16.4561 22.7148 15.245C22.572 14.6847 22.381 14.1373 22.2116 13.5837C22.1328 13.3485 22.0212 13.1247 21.8812 12.9194C21.5452 12.442 21.0203 12.3992 20.6021 12.8065C20.4477 12.9609 20.3165 13.1377 20.2138 13.3301C19.682 14.2916 19.2162 15.2858 18.7797 16.2942C18.2867 17.3958 17.5366 18.3138 16.7206 19.1856C16.4901 19.4256 16.3004 19.7017 16.159 20.0029C15.8115 20.7679 15.8176 20.5388 16.4078 21.0223C17.0232 21.5962 17.6754 22.1286 18.3615 22.6155C18.7525 22.9371 19.1285 23.2812 19.6106 23.4703C19.6684 23.6076 19.8051 23.643 19.9166 23.7144C20.3083 23.9653 20.6966 24.2217 21.0856 24.476C21.2957 24.6739 21.5201 24.8588 21.7132 25.0723C22.3068 25.7299 22.3402 26.552 21.8104 27.2626C21.6309 27.5047 21.4276 27.7277 21.2025 27.9277C21.1359 27.9909 21.0665 28.0521 21.0033 28.1187C20.5518 28.5941 20.0411 29.0116 19.6242 29.5202C19.5392 29.6236 19.4209 29.7365 19.4685 29.8786C19.5957 30.2886 19.8527 30.647 20.2009 30.8979C20.2342 30.9244 20.2764 30.938 20.3185 30.9367C20.3614 30.9353 20.4022 30.919 20.4334 30.8904C20.4994 30.8306 20.46 30.7558 20.4402 30.6871C20.375 30.46 20.1771 30.3471 20.0207 30.1968C19.9092 30.0901 19.7575 29.9629 19.8364 29.8045C19.8833 29.6984 19.9568 29.6073 20.0499 29.5386C20.1431 29.4706 20.2526 29.4277 20.3675 29.4148C20.5905 29.3924 20.6483 29.561 20.7109 29.7133C20.821 29.9819 20.9101 30.2601 21.0271 30.5259C21.1447 30.7925 21.3494 30.8455 21.62 30.7422C21.9301 30.6239 22.0437 30.3947 22.0416 30.0853C22.0396 29.763 22.0192 29.4393 22.0342 29.1177C22.0484 28.8205 22.3177 28.5458 22.5428 28.5907C22.8454 28.6512 22.8733 28.898 22.8665 29.1496C22.8617 29.3366 22.8366 29.5243 22.8434 29.7106C22.8529 29.9887 22.9766 30.0805 23.25 30.0323C23.5723 29.9751 23.7491 29.7575 23.8613 29.4699C24.047 28.9932 24.1082 28.4839 24.2428 27.9943C24.3788 27.793 24.4822 27.5618 24.7453 27.485C25.1411 27.3701 25.3804 27.5067 25.596 27.9766C25.5974 28.2595 25.5096 28.5349 25.3451 28.7647C25.1492 29.0578 24.9384 29.3421 24.7304 29.6263C24.4665 29.986 24.1768 30.3335 24.03 30.7612C23.9654 30.9503 23.809 31.1522 23.998 31.3623C24.0626 31.4249 24.1456 31.4664 24.2346 31.48C24.6923 31.5833 25.1295 31.4929 25.5654 31.3657L25.6552 31.3501C25.8911 31.3147 26.1278 31.2862 26.3617 31.2427C26.5827 31.2019 26.7248 31.276 26.786 31.4929C26.8336 31.6296 26.869 31.7697 26.8928 31.9125C26.9342 32.3062 26.8173 32.4531 26.427 32.5306C25.8918 32.6367 25.3498 32.6339 24.8113 32.5972C23.9286 32.5353 23.0433 32.6543 22.2082 32.9467C21.3181 33.2534 20.358 33.2929 19.4461 33.0617C18.4111 32.8135 17.3503 32.7747 16.2977 32.6652C16.1324 32.6482 15.9692 32.6176 15.8094 32.5748C15.2056 32.4129 15.0614 32.1613 15.2002 31.5419C15.2104 31.4807 15.2172 31.4195 15.2199 31.3576C15.7455 30.0051 16.8192 29.1013 17.842 28.1555C17.8936 28.1072 17.9718 28.082 17.9834 27.9977C18.626 27.4897 19.2156 26.9179 19.7432 26.2909C19.8541 26.1603 19.7786 26.1311 19.6623 26.0821C18.373 25.5422 17.0858 24.9989 15.7992 24.4522C15.0594 24.0734 14.3644 23.6178 13.6464 23.2017C13.1602 22.9195 12.6604 22.6638 12.1123 22.5203C11.5846 22.3816 11.0542 22.3115 10.5184 22.4856C10.4245 22.4713 10.3286 22.4924 10.2498 22.5455C10.0356 22.6611 9.95396 22.6019 9.91656 22.3673C9.84584 21.9226 9.66904 21.5125 9.4494 21.1202C9.07404 20.4497 8.70072 19.7779 8.32944 19.1053C7.70792 17.9738 7.06668 16.8586 6.14528 15.9311C5.86444 15.6482 5.55368 15.4877 5.1586 15.483C4.57244 15.3422 3.97404 15.2844 3.37632 15.2191C2.95948 15.1736 2.88128 15.0621 2.91528 14.5398C2.93908 14.1767 3.10772 14.0223 3.47288 14.0312C3.78976 14.0387 4.07808 14.1611 4.3732 14.2583C4.6282 14.3419 4.87096 14.4671 5.14432 14.4881C5.37756 14.5929 5.61284 14.599 5.89572 14.5031C5.63256 14.2223 5.44284 13.9163 5.16268 13.6851C4.73496 13.1812 4.2576 12.765 3.53884 12.7963C3.2104 12.8106 3.0778 12.6025 3.00232 12.3353C2.9248 12.0605 2.98668 11.8171 3.22128 11.6417C3.4382 11.4798 3.65988 11.4873 3.88292 11.6464C4.3052 11.947 4.69416 12.2931 5.14228 12.5569C5.7774 13.0826 6.44856 13.5647 7.14964 13.9992C7.17616 13.7857 7.0796 13.6504 6.9912 13.5123C6.88444 13.3471 6.72396 13.224 6.63624 13.0418C6.4982 12.7555 6.67908 12.5977 6.86608 12.4447C7.05172 12.2931 7.18568 12.4067 7.31964 12.5399C7.58552 12.8058 7.71064 13.1472 7.83644 13.4865C8.04112 14.0387 8.19956 14.6092 8.48176 15.1307C8.58648 15.2837 8.664 15.4653 8.88704 15.5367C8.9156 15.2123 8.94144 14.9145 8.96864 14.6167C9.00468 14.2216 9.06724 13.834 9.32088 13.5083C9.58948 13.1635 9.97776 13.0214 10.381 12.9989C10.6564 12.984 10.7808 13.29 10.9406 13.4838C11.0644 13.6368 11.1759 13.8 11.2732 13.9713C11.4901 14.3467 11.6961 14.7282 11.9062 15.1076C12.1701 15.7604 12.5148 16.3779 12.9337 16.9443C13.1942 15.1192 13.6906 13.443 14.2604 11.7865C14.4046 11.3669 14.4025 11.3663 13.9721 11.2105C13.356 10.7828 13.0201 10.1613 12.7882 9.47313C12.6468 9.05222 12.5244 8.6245 12.3938 8.20018C12.2218 7.38078 12.0001 6.57566 11.6444 5.81542C11.4166 5.32854 11.0508 4.95046 10.6204 4.6329C10.4225 4.3201 10.1158 4.08074 10.0077 3.70674C9.97572 3.59658 9.85672 3.61698 9.77036 3.58978C9.39432 3.4701 9.16516 3.17362 9.1672 2.80642C9.16856 2.54666 9.27328 2.34334 9.51944 2.23114C9.6262 2.1747 9.7486 2.15362 9.86828 2.17198C9.98796 2.19034 10.0988 2.2461 10.1838 2.33178C10.379 2.52014 10.5496 2.73162 10.6911 2.96282C10.8862 3.25794 11.0794 3.5551 11.28 3.84614C11.3956 4.0209 11.5492 4.16642 11.7301 4.27182C11.7845 4.30242 11.8464 4.3167 11.909 4.31398C11.9715 4.31126 12.0314 4.29018 12.083 4.25482C12.1837 4.19022 12.1041 4.07802 12.083 3.99778C11.875 3.19946 11.6227 2.4195 11.1045 1.75582C11.0651 1.70822 11.0372 1.65178 11.0243 1.59194C10.9814 1.31994 11.3276 1.01394 11.7002 0.987416C12.0545 0.962256 12.3442 1.16966 12.3333 1.46818C12.2979 2.4297 12.674 3.27154 13.0772 4.10726C13.171 4.34798 13.2656 4.5887 13.3771 4.87566C13.5756 4.58258 13.6158 4.33642 13.4879 4.06918ZM18.9116 31.3508C18.9878 31.3433 19.0626 31.3311 19.1367 31.3127C19.4563 31.2216 19.4828 31.1155 19.2523 30.868C19.1938 30.802 19.1224 30.749 19.0428 30.7109C18.9633 30.6728 18.8769 30.6511 18.7885 30.6463C18.7008 30.6415 18.6124 30.6551 18.5294 30.6851C18.4465 30.715 18.3703 30.7612 18.305 30.8204C18.0888 31.0149 18.1072 31.1196 18.3812 31.2352C18.5492 31.3086 18.7294 31.3474 18.9116 31.3508Z" fill="#010201"/>
<path d="M24.2449 27.9914C24.1102 28.4817 24.0483 28.9904 23.8634 29.467C23.7512 29.7547 23.5744 29.973 23.2521 30.0294C22.978 30.0777 22.8549 29.9859 22.8447 29.7078C22.8379 29.5214 22.8638 29.3338 22.8679 29.1468C22.874 28.8958 22.8468 28.6483 22.5442 28.5878C22.3184 28.5429 22.0491 28.8176 22.0355 29.1148C22.0206 29.4364 22.0403 29.7601 22.043 30.0824C22.0451 30.3918 21.9315 30.621 21.6214 30.7393C21.3508 30.842 21.1454 30.7896 21.0285 30.5231C20.9115 30.2572 20.8224 29.9798 20.7123 29.7105C20.6497 29.5582 20.5919 29.3895 20.3689 29.412C20.2539 29.4249 20.1445 29.4677 20.0513 29.5357C19.9581 29.6044 19.8847 29.6955 19.8378 29.8016C19.7589 29.96 19.9105 30.0872 20.0221 30.194C20.1785 30.3442 20.3763 30.4571 20.4416 30.6842C20.4613 30.7529 20.5008 30.8277 20.4348 30.8876C20.4029 30.9161 20.3621 30.9324 20.3199 30.9338C20.2771 30.9352 20.2356 30.9216 20.2023 30.895C19.8541 30.6434 19.5971 30.2858 19.4699 29.8757C19.4223 29.7336 19.5406 29.6214 19.6256 29.5174C20.0425 29.0087 20.5531 28.5912 21.0047 28.1159C21.0679 28.0492 21.1373 27.988 21.2039 27.9248C21.3154 28.0098 21.4446 27.969 21.565 27.9704C22.4578 27.9812 23.3513 27.9853 24.2449 27.9914Z" fill="#72B52D"/>
<path d="M24.0004 31.3594C23.8114 31.1499 23.9678 30.9473 24.0324 30.7582C24.1793 30.3305 24.469 29.9837 24.7328 29.6233C24.9416 29.3391 25.1517 29.0548 25.3475 28.7618C25.5121 28.5319 25.5998 28.2558 25.5984 27.9736C25.7086 28.0498 25.6583 28.1647 25.659 28.2599C25.6624 29.2888 25.6596 30.3176 25.6583 31.3464C25.6284 31.3519 25.5984 31.3566 25.5685 31.3621C25.0463 31.3621 24.5234 31.3607 24.0004 31.3594Z" fill="#72B52D"/>
<path d="M8.48633 15.1271C8.61077 14.9136 8.53937 14.6811 8.54005 14.4601C8.54413 13.2116 8.77533 12.0195 9.42677 10.9397C10.1503 9.74087 11.1023 8.78071 12.3984 8.19727C12.5289 8.62159 12.6513 9.04931 12.7928 9.47023C13.0246 10.1584 13.3599 10.7799 13.9766 11.2076C12.9832 11.7455 12.3521 12.5642 12.057 13.6536C11.9278 14.1316 11.9577 14.6205 11.9108 15.104C11.7007 14.7246 11.4946 14.3431 11.2777 13.9677C11.1805 13.7964 11.0696 13.6332 10.9452 13.4802C10.7854 13.2864 10.6603 12.9804 10.3856 12.9953C9.98233 13.0178 9.59405 13.1599 9.32545 13.5047C9.07181 13.8304 9.00925 14.218 8.97321 14.6131C8.94601 14.9109 8.92017 15.2087 8.89161 15.5331C8.66857 15.4617 8.59105 15.2801 8.48633 15.1271Z" fill="#72B52D"/>
<path d="M15.8017 24.4493C13.6597 24.8192 11.9617 23.9971 10.5215 22.4821C11.0566 22.308 11.587 22.378 12.1147 22.5167C12.6628 22.6609 13.1626 22.9166 13.6488 23.1981C14.3669 23.6149 15.0625 24.0705 15.8017 24.4493Z" fill="#72B52D"/>
<path d="M15.5207 7.54898C15.7995 7.51634 16.081 7.51498 16.3605 7.5449C16.0729 8.06238 15.7846 8.57986 15.4969 9.09734C15.4568 9.16942 15.431 9.26462 15.3188 9.17214C14.9788 8.89198 14.6524 8.60162 14.5293 8.15486C14.5089 8.08074 14.4375 7.99642 14.5327 7.9291C14.6068 7.87742 14.6945 7.89782 14.7734 7.9257C14.8319 7.9461 14.8842 7.98214 14.9414 8.00798C15.1256 8.09298 15.3113 8.1603 15.4976 8.01138C15.6785 7.86654 15.5166 7.70334 15.5207 7.54898Z" fill="#72B52D"/>
<path d="M18.9122 31.351C18.73 31.3476 18.5498 31.3089 18.3818 31.2361C18.1078 31.1205 18.0894 31.0158 18.3057 30.8213C18.371 30.7615 18.4471 30.7159 18.5301 30.686C18.613 30.6561 18.7014 30.6431 18.7892 30.6472C18.8769 30.652 18.9639 30.6737 19.0435 30.7118C19.123 30.7499 19.1944 30.8036 19.2529 30.8689C19.4834 31.1157 19.4569 31.2225 19.1373 31.3136C19.0639 31.3313 18.9884 31.3435 18.9122 31.351Z" fill="#72B52D"/>
</g>
</g>
</svg>
