<svg width="34" height="34" viewBox="0 0 34 34" fill="none" xmlns="http://www.w3.org/2000/svg">
<g clip-path="url(#clip0_5257_2474)">
<path d="M7.38735 28.3159L2.38846 33.3159C2.00507 33.6972 1.37703 33.6972 0.993644 33.3159L0.684391 33.0066C0.30312 32.6232 0.30312 31.9963 0.684391 31.6129L5.68328 26.6129C6.06667 26.2306 6.69577 26.2306 7.07916 26.6129L7.38735 26.9211C7.57269 27.1054 7.67648 27.3575 7.67648 27.6191C7.67648 27.8796 7.57269 28.1316 7.38735 28.3159Z" fill="#FBBC04"/>
<path d="M20.8047 30.4055H27.2047C30.7135 30.4055 33.6016 27.5174 33.6016 24.0087V24.0065V6.79532C33.6016 3.28657 30.7135 0.398438 27.2047 0.398438H27.2016C23.6928 0.398438 20.8047 3.28657 20.8047 6.79532V30.4055Z" fill="#4285F4"/>
<path d="M10.2133 30.4053H10.2175C13.7263 30.4053 16.6144 27.5172 16.6144 24.0085V24.0053C16.6144 20.4965 13.7263 17.6084 10.2175 17.6084H10.2133C6.70454 17.6084 3.81641 20.4965 3.81641 24.0053V24.0085C3.81641 27.5172 6.70454 30.4053 10.2133 30.4053Z" fill="#FBBC04"/>
<path d="M25.2745 30.4054H19.0375C15.5288 30.4054 12.6406 27.5172 12.6406 24.0085V24.0064V15.6226V15.6205C12.6406 12.1118 15.5288 9.22363 19.0375 9.22363H19.0407C22.5494 9.22363 25.4376 12.1118 25.4376 15.6205V15.6226V30.2423C25.4376 30.3312 25.3634 30.4054 25.2745 30.4054Z" fill="#34A853"/>
<path d="M25.4382 30.2424V15.6228C25.4382 12.777 23.5392 10.2574 20.8047 9.47266V30.4055H25.274H25.2751C25.3641 30.4055 25.4382 30.3314 25.4382 30.2424Z" fill="#1967D2"/>
<path d="M16.6122 24.1303C16.6122 21.5387 15.0384 19.1928 12.6406 18.21V24.1303C12.6406 25.9519 13.4032 27.5966 14.6264 28.7616C15.8952 27.5564 16.6143 25.8799 16.6122 24.1303Z" fill="#EA4335"/>
</g>
<defs>
<clipPath id="clip0_5257_2474">
<rect width="34" height="34" fill="white"/>
</clipPath>
</defs>
</svg>
