<svg width="34" height="34" viewBox="0 0 34 34" fill="none" xmlns="http://www.w3.org/2000/svg">
<rect width="34" height="34" rx="8" fill="#0A0B09"/>
<path d="M17 3C9.26811 3 3 9.26811 3 17C3 24.7319 9.26811 31 17 31C24.7319 31 31 24.7319 31 17C31 9.26811 24.7319 3 17 3ZM17 29.88C9.88644 29.88 4.12 24.1136 4.12 17C4.12 9.88644 9.88644 4.12 17 4.12C24.1136 4.12 29.88 9.88644 29.88 17C29.88 24.1136 24.1136 29.88 17 29.88Z" fill="white"/>
<path d="M17.4212 18.5403H19.9412V23.5803H21.0612V18.5403H23.5812V17.4203H17.4212V18.5403ZM15.9291 17.2803L13.5012 19.7085L11.0734 17.2803L10.2812 18.0724L12.7095 20.5003L10.2812 22.9281L11.0734 23.7203L13.5012 21.2921L15.9291 23.7203L16.7212 22.9281L14.293 20.5003L16.7212 18.0724L15.9291 17.2803ZM20.4312 16.5803C22.1707 16.5803 23.5812 15.1698 23.5812 13.4303H22.4612C22.4612 14.5514 21.5524 15.4603 20.4312 15.4603C20.1112 15.4603 19.8086 15.386 19.5395 15.2542L22.2551 12.5386L23.0749 11.7188C22.5134 10.8535 21.5396 10.2807 20.4312 10.2807C18.6914 10.2807 17.2812 11.6912 17.2812 13.4307C17.2812 15.1702 18.6914 16.5803 20.4312 16.5803ZM20.4312 11.4003C20.8248 11.4003 21.1919 11.5127 21.503 11.7067L18.7077 14.5021C18.5136 14.1909 18.4016 13.8238 18.4016 13.4303C18.4012 12.3091 19.3101 11.4003 20.4312 11.4003ZM13.5012 13.0951L11.1391 10.2803L10.2812 11.0001L12.9413 14.1703V16.5803H14.0612V14.1703L16.7212 11.0001L15.8634 10.2803L13.5012 13.0951Z" fill="white"/>
</svg>
