<svg width="96" height="96" viewBox="0 0 96 96" fill="none" xmlns="http://www.w3.org/2000/svg">
<path d="M0 24C0 10.7452 10.7452 0 24 0H72C85.2548 0 96 10.7452 96 24V72C96 85.2548 85.2548 96 72 96H24C10.7452 96 0 85.2548 0 72V24Z" fill="url(#paint0_radial_5579_3330)"/>
<g clip-path="url(#clip0_5579_3330)">
<path d="M59.1976 42C57.4176 42 55.6775 41.4722 54.1975 40.4832C52.7175 39.4943 51.5639 38.0887 50.8827 36.4442C50.2015 34.7996 50.0233 32.99 50.3706 31.2442C50.7178 29.4984 51.575 27.8947 52.8337 26.636C54.0923 25.3774 55.696 24.5202 57.4418 24.1729C59.1876 23.8257 60.9972 24.0039 62.6418 24.6851C64.2863 25.3663 65.6919 26.5198 66.6809 27.9999C67.6698 29.4799 68.1976 31.22 68.1976 33C68.195 35.3861 67.2459 37.6738 65.5587 39.361C63.8714 41.0483 61.5838 41.9974 59.1976 42ZM56.3556 46.042C54.4929 46.2919 52.7018 46.9238 51.0946 47.8981C49.4874 48.8724 48.0988 50.1681 47.0156 51.704C51.4974 53.7393 55.0189 57.4285 56.8436 62H70.1976C70.7281 62 71.2368 61.7893 71.6118 61.4142C71.9869 61.0392 72.1976 60.5304 72.1976 60V59.924C72.1956 57.9304 71.7682 55.9602 70.9442 54.1449C70.1201 52.3296 68.9182 50.711 67.4189 49.3971C65.9195 48.0832 64.1571 47.1043 62.2493 46.5258C60.3415 45.9472 58.3322 45.7823 56.3556 46.042Z" fill="#8BD500"/>
<path d="M39.1992 50C37.4192 50 35.6791 49.4722 34.1991 48.4832C32.719 47.4943 31.5655 46.0887 30.8843 44.4442C30.2031 42.7996 30.0249 40.99 30.3722 39.2442C30.7194 37.4984 31.5766 35.8947 32.8353 34.636C34.0939 33.3774 35.6976 32.5202 37.4434 32.1729C39.1892 31.8257 40.9988 32.0039 42.6434 32.6851C44.2879 33.3663 45.6935 34.5198 46.6824 35.9999C47.6714 37.4799 48.1992 39.22 48.1992 41C48.1966 43.3861 47.2475 45.6738 45.5603 47.361C43.873 49.0483 41.5854 49.9974 39.1992 50ZM52.1992 72H26.1992C25.6688 72 25.1601 71.7893 24.785 71.4142C24.4099 71.0392 24.1992 70.5304 24.1992 70V69C24.1992 65.0218 25.7796 61.2065 28.5926 58.3934C31.4057 55.5804 35.221 54 39.1992 54C43.1775 54 46.9928 55.5804 49.8058 58.3934C52.6189 61.2065 54.1992 65.0218 54.1992 69V70C54.1992 70.5304 53.9885 71.0392 53.6134 71.4142C53.2384 71.7893 52.7297 72 52.1992 72Z" fill="#076AAB"/>
</g>
<defs>
<radialGradient id="paint0_radial_5579_3330" cx="0" cy="0" r="1" gradientUnits="userSpaceOnUse" gradientTransform="translate(48 48) rotate(90) scale(48)">
<stop stop-color="white"/>
<stop offset="0.33" stop-color="#F4FBFF"/>
<stop offset="0.66" stop-color="#EDF8FF"/>
<stop offset="1" stop-color="#DEF2FF"/>
</radialGradient>
<clipPath id="clip0_5579_3330">
<rect width="48" height="48" fill="white" transform="translate(24.1992 24)"/>
</clipPath>
</defs>
</svg>
