<svg width="96" height="96" viewBox="0 0 96 96" fill="none" xmlns="http://www.w3.org/2000/svg">
<rect width="96" height="96" rx="24" fill="url(#paint0_radial_5822_12077)"/>
<g clip-path="url(#clip0_5822_12077)">
<path d="M40 48C33.382 48 28 42.618 28 36C28 29.382 33.382 24 40 24C46.618 24 52 29.382 52 36C52 42.618 46.618 48 40 48ZM46 59.042V54.958C46 53.838 45.254 52.844 44.172 52.552C42.26 52.034 40.206 51.864 38.084 52.112C29.942 53.066 24 60.334 24 68.532V70C24 71.104 24.896 72 26 72H52.996C49.618 69.282 46 64.984 46 59.042Z" fill="#076AAB"/>
<path d="M61.002 72.0005C60.696 72.0005 60.388 71.9305 60.108 71.7905L59.706 71.5885C57.428 70.4505 50 66.1805 50 59.0445V52.8745C50 50.2845 51.652 47.9965 54.11 47.1785L60.372 45.1025C60.778 44.9685 61.224 44.9685 61.63 45.1025L67.89 47.1785C70.348 47.9945 72.002 50.2845 72.002 52.8745V59.0445C72.002 67.1085 64.474 70.7605 62.168 71.6885L61.75 71.8565C61.51 71.9525 61.256 72.0005 61.004 72.0005H61.002Z" fill="#8BD500"/>
</g>
<defs>
<radialGradient id="paint0_radial_5822_12077" cx="0" cy="0" r="1" gradientUnits="userSpaceOnUse" gradientTransform="translate(48 48) rotate(90) scale(48)">
<stop stop-color="white"/>
<stop offset="0.33" stop-color="#F4FBFF"/>
<stop offset="0.66" stop-color="#EDF8FF"/>
<stop offset="1" stop-color="#DEF2FF"/>
</radialGradient>
<clipPath id="clip0_5822_12077">
<rect width="48" height="48" fill="white" transform="translate(24 24)"/>
</clipPath>
</defs>
</svg>
