<svg width="96" height="96" viewBox="0 0 96 96" fill="none" xmlns="http://www.w3.org/2000/svg">
<rect width="96" height="96" rx="24" fill="url(#paint0_radial_5822_12069)"/>
<g clip-path="url(#clip0_5822_12069)">
<path d="M59.9014 28.0332C60.6768 28.61 61.4144 29.246 62.106 29.9375C65.8479 33.6794 67.9531 38.7535 67.9595 44.0454C67.9591 49.1854 63.979 57.2296 56.1294 67.9531C55.1949 69.2333 53.9711 70.2747 52.5581 70.9927C51.145 71.7107 49.5816 72.0854 47.9966 72.0854C46.4118 72.0854 44.8494 71.7106 43.4365 70.9927C42.0235 70.2747 40.7997 69.2332 39.8652 67.9531C33.0831 58.688 29.1916 51.4225 28.2578 46.3027L42.8579 37.874C42.6798 38.0234 42.5061 38.1789 42.3408 38.3442C41.222 39.463 40.4596 40.8881 40.1509 42.4399C39.8422 43.9916 40.0011 45.5998 40.6064 47.0615C41.2119 48.5231 42.2369 49.7728 43.5522 50.6519C44.8677 51.5308 46.4145 52.0009 47.9966 52.001C50.1183 52.001 52.1535 51.1575 53.6538 49.6572C55.1541 48.1569 55.9976 46.1217 55.9976 44C55.9974 42.418 55.5274 40.8711 54.6484 39.5557C53.7694 38.2403 52.5197 37.2153 51.0581 36.6099C49.5964 36.0045 47.9882 35.8457 46.4365 36.1543C46.0407 36.233 45.6527 36.3405 45.2764 36.4766L59.9014 28.0332Z" fill="#076AAB"/>
<path d="M48.0005 24.084C52.3147 24.0887 56.4844 25.4889 59.9053 28.0332L45.2803 36.4766C44.3991 36.7952 43.5817 37.2701 42.8618 37.874L28.2617 46.3027C28.1147 45.4968 28.0391 44.7445 28.0391 44.0454C28.0454 38.7535 30.1505 33.6794 33.8926 29.9375C37.6347 26.1957 42.7086 24.09 48.0005 24.084Z" fill="#8BD500"/>
</g>
<defs>
<radialGradient id="paint0_radial_5822_12069" cx="0" cy="0" r="1" gradientUnits="userSpaceOnUse" gradientTransform="translate(48 48) rotate(90) scale(48)">
<stop stop-color="white"/>
<stop offset="0.33" stop-color="#F4FBFF"/>
<stop offset="0.66" stop-color="#EDF8FF"/>
<stop offset="1" stop-color="#DEF2FF"/>
</radialGradient>
<clipPath id="clip0_5822_12069">
<rect width="48" height="48" fill="white" transform="translate(24 24)"/>
</clipPath>
</defs>
</svg>
