<svg width="700" height="480" viewBox="0 0 700 480" fill="none" xmlns="http://www.w3.org/2000/svg">
<path d="M683.701 117.787C647.701 53.8493 558.905 20.8525 487.092 14.0658C382.225 4.15542 273.088 31.0125 176.662 70.8677C78.702 111.356 -27.6561 202.113 6.53667 322.109C37.8361 431.951 143.189 468.695 249.55 467.27C388.873 465.403 532.227 424.797 629.674 324.076C661.082 291.613 693.245 243.544 698.844 198.712C702.728 167.614 696.608 140.712 683.701 117.787Z" fill="#00243B"/>
<path d="M501.85 317.366L386.371 329.526C381.072 330.084 376.457 325.927 376.457 320.596V97.8577C376.457 93.2626 379.925 89.409 384.493 88.9279L499.971 76.7681C505.27 76.21 509.885 80.3669 509.885 85.6975V308.436C509.885 313.031 506.418 316.885 501.85 317.366Z" fill="#05314D"/>
<path d="M443.231 163.061C451.87 151.042 450.128 135.007 439.34 127.246C428.552 119.486 412.804 122.938 404.165 134.958C395.526 146.977 397.269 163.012 408.056 170.772C418.844 178.533 434.592 175.08 443.231 163.061Z" fill="#076AAB"/>
<path d="M434.059 147.944C434.059 153.831 429.425 159.091 423.709 159.693C417.993 160.295 413.359 156.011 413.359 150.124C413.359 144.238 417.993 138.978 423.709 138.376C429.425 137.774 434.059 142.058 434.059 147.944Z" fill="#05314D"/>
<path d="M457.039 125.969C465.467 125.081 473.895 124.194 482.324 123.306C483.409 123.192 483.42 121.477 482.324 121.592C473.895 122.48 465.467 123.367 457.039 124.255C455.954 124.369 455.942 126.084 457.039 125.969Z" fill="#076AAB"/>
<path d="M404.021 197.634C424.376 195.491 444.731 193.347 465.087 191.204C470.831 190.599 476.576 189.994 482.321 189.389C483.406 189.275 483.418 187.56 482.321 187.675C461.966 189.819 441.611 191.962 421.256 194.106C415.511 194.71 409.766 195.315 404.021 195.92C402.936 196.035 402.925 197.75 404.021 197.634Z" fill="#076AAB"/>
<path d="M482.322 203.514C467.229 205.104 452.137 206.693 437.045 208.282C435.96 208.396 435.948 210.111 437.045 209.996C452.137 208.406 467.229 206.817 482.322 205.228C483.407 205.114 483.418 203.399 482.322 203.514Z" fill="#076AAB"/>
<path d="M422.554 209.808C416.375 210.459 410.196 211.11 404.017 211.76C402.932 211.875 402.921 213.589 404.017 213.474C410.196 212.824 416.375 212.173 422.554 211.522C423.639 211.408 423.651 209.693 422.554 209.808Z" fill="#076AAB"/>
<path d="M404.021 229.327C424.376 227.184 444.731 225.041 465.087 222.897C470.831 222.292 476.576 221.687 482.321 221.082C483.406 220.968 483.418 219.253 482.321 219.369C461.966 221.512 441.611 223.655 421.256 225.799C415.511 226.404 409.766 227.009 404.021 227.614C402.936 227.728 402.925 229.443 404.021 229.327Z" fill="#076AAB"/>
<path d="M482.323 235.206C477.399 235.724 472.476 236.243 467.553 236.762C466.468 236.876 466.456 238.591 467.553 238.476C472.476 237.957 477.399 237.438 482.323 236.92C483.408 236.805 483.419 235.09 482.323 235.206Z" fill="#076AAB"/>
<path d="M453.061 238.285C436.713 240.006 420.365 241.728 404.017 243.449C402.932 243.564 402.921 245.278 404.017 245.163C420.365 243.442 436.713 241.72 453.061 239.999C454.146 239.884 454.158 238.169 453.061 238.285Z" fill="#076AAB"/>
<path d="M404.021 261.006C424.376 258.863 444.731 256.719 465.087 254.576C470.831 253.971 476.576 253.366 482.321 252.761C483.406 252.647 483.418 250.932 482.321 251.048C461.966 253.191 441.611 255.334 421.256 257.478C415.511 258.082 409.766 258.688 404.021 259.292C402.936 259.407 402.925 261.121 404.021 261.006Z" fill="#076AAB"/>
<path d="M482.322 266.893C469.648 268.228 456.973 269.562 444.299 270.897C443.213 271.011 443.202 272.726 444.299 272.611C456.973 271.276 469.647 269.942 482.322 268.607C483.407 268.493 483.418 266.778 482.322 266.893Z" fill="#076AAB"/>
<path d="M429.799 272.423C421.205 273.327 412.611 274.232 404.017 275.137C402.932 275.252 402.921 276.966 404.017 276.851C412.611 275.946 421.205 275.041 429.799 274.136C430.884 274.022 430.896 272.307 429.799 272.423Z" fill="#076AAB"/>
<path d="M404.021 292.687C418.456 291.168 432.891 289.648 447.326 288.127C452.232 287.611 457.139 287.094 462.045 286.578C463.13 286.463 463.142 284.749 462.045 284.864C447.611 286.384 433.176 287.904 418.741 289.424C413.835 289.94 408.928 290.457 404.021 290.974C402.936 291.088 402.925 292.803 404.021 292.687Z" fill="#076AAB"/>
<path d="M457.039 138.532C461.98 138.012 466.92 137.491 471.861 136.971C472.946 136.856 472.958 135.141 471.861 135.257C466.92 135.777 461.98 136.297 457.039 136.818C455.954 136.932 455.942 138.647 457.039 138.532Z" fill="#076AAB"/>
<path d="M509.885 97.9278L376.457 111.978V97.8577C376.457 93.2626 379.925 89.409 384.493 88.9279L499.971 76.7681C505.27 76.21 509.885 80.3669 509.885 85.6975V97.9278Z" fill="#023759"/>
<path d="M486.245 90.6164C486.245 93.341 484.1 95.7759 481.455 96.0544C478.809 96.3329 476.664 94.3501 476.664 91.6252C476.664 88.9006 478.809 86.4657 481.455 86.1872C484.1 85.9087 486.245 87.8918 486.245 90.6164Z" fill="#FF6259"/>
<path d="M500.523 89.1135C500.523 91.8384 498.378 94.2729 495.732 94.5515C493.086 94.83 490.941 92.8469 490.941 90.1223C490.941 87.3974 493.086 84.9628 495.732 84.6843C498.378 84.4058 500.523 86.3889 500.523 89.1135Z" fill="#076AAB"/>
<path d="M331.449 165.593L169.178 182.68C163.879 183.238 159.264 179.081 159.264 173.75V44.7743C159.264 40.1792 162.731 36.3255 167.299 35.8445L329.57 18.7573C334.869 18.1992 339.484 22.3562 339.484 27.6871V156.663C339.484 161.258 336.016 165.112 331.449 165.593Z" fill="#05314D"/>
<path d="M339.484 37.8635L159.264 56.8407V44.7743C159.264 40.1792 162.731 36.3255 167.299 35.8445L329.57 18.7573C334.869 18.1992 339.484 22.3562 339.484 27.6871V37.8635Z" fill="#044976"/>
<path d="M313.708 31.8909C313.708 34.4966 311.657 36.8248 309.126 37.0911C306.596 37.3578 304.545 35.4615 304.545 32.8554C304.545 30.2494 306.596 27.9211 309.126 27.6548C311.657 27.3885 313.708 29.2852 313.708 31.8909Z" fill="#FF6259"/>
<path d="M328.343 30.078C328.343 32.6837 326.291 35.012 323.761 35.2786C321.231 35.545 319.18 33.6486 319.18 31.0429C319.18 28.4372 321.231 26.109 323.761 25.8423C326.291 25.576 328.343 27.4723 328.343 30.078Z" fill="#076AAB"/>
<path d="M211.865 103.401L188.142 105.899C186.022 106.122 184.176 104.459 184.176 102.327V77.7239C184.176 75.8858 185.563 74.3443 187.39 74.1519L211.114 71.6539C213.233 71.4308 215.079 73.0936 215.079 75.2259V99.8286C215.08 101.667 213.693 103.208 211.865 103.401Z" fill="#076AAB"/>
<path d="M229.767 84.8486C251.817 82.5267 273.867 80.2051 295.917 77.8831C302.136 77.2281 308.355 76.5734 314.575 75.9184C315.66 75.8041 315.671 74.0894 314.575 74.2048C292.525 76.5264 270.475 78.8483 248.425 81.1703C242.206 81.8253 235.986 82.4803 229.767 83.1349C228.682 83.2493 228.671 84.964 229.767 84.8486Z" fill="#076AAB"/>
<path d="M229.767 98.0283C251.817 95.7067 273.867 93.3847 295.917 91.0628C302.136 90.4078 308.355 89.7531 314.575 89.0981C315.66 88.9838 315.671 87.2691 314.575 87.3845C292.525 89.7061 270.475 92.028 248.425 94.35C242.206 95.0046 235.986 95.6596 229.767 96.3146C228.682 96.429 228.671 98.1437 229.767 98.0283Z" fill="#076AAB"/>
<path d="M229.767 71.6845C251.817 69.3626 273.867 67.0406 295.917 64.719C302.136 64.064 308.355 63.4094 314.575 62.7544C315.66 62.6404 315.671 60.9253 314.575 61.0407C292.525 63.3627 270.475 65.6843 248.425 68.0062C242.206 68.6612 235.986 69.3162 229.767 69.9709C228.682 70.0852 228.671 71.8003 229.767 71.6845Z" fill="#076AAB"/>
<path d="M229.767 111.189C251.817 108.867 273.867 106.546 295.917 104.224C302.136 103.569 308.355 102.914 314.575 102.259C315.66 102.145 315.671 100.43 314.575 100.546C292.525 102.868 270.475 105.19 248.425 107.511C242.206 108.166 235.986 108.821 229.767 109.476C228.682 109.59 228.671 111.305 229.767 111.189Z" fill="#076AAB"/>
<path d="M229.767 124.353C251.817 122.032 273.867 119.71 295.917 117.388C302.136 116.733 308.355 116.078 314.575 115.423C315.66 115.309 315.671 113.594 314.575 113.71C292.525 116.032 270.475 118.354 248.425 120.675C242.206 121.33 235.986 121.985 229.767 122.64C228.682 122.754 228.671 124.469 229.767 124.353Z" fill="#076AAB"/>
<path d="M196.846 138.988L199.678 144.598L206.009 144.879C207.094 144.927 207.528 146.255 206.743 147.126L202.161 152.207L203.243 158.587C203.428 159.681 202.293 160.65 201.322 160.226L195.659 157.756L189.997 161.419C189.026 162.046 187.891 161.317 188.076 160.184L189.158 153.576L184.577 149.46C183.791 148.754 184.225 147.335 185.31 147.058L191.642 145.444L194.473 139.238C194.958 138.174 196.361 138.026 196.846 138.988Z" fill="#FFC400"/>
<path d="M226.105 135.903L228.936 141.513L235.267 141.794C236.353 141.842 236.786 143.17 236.001 144.041L231.42 149.123L232.501 155.503C232.686 156.596 231.552 157.565 230.581 157.142L224.918 154.672L219.255 158.334C218.284 158.962 217.149 158.232 217.335 157.099L218.416 150.492L213.835 146.375C213.049 145.67 213.483 144.25 214.568 143.973L220.899 142.359L223.731 136.153C224.217 135.088 225.619 134.941 226.105 135.903Z" fill="#FFC400"/>
<path d="M255.364 132.822L258.195 138.432L264.527 138.713C265.612 138.761 266.045 140.089 265.26 140.96L260.679 146.041L261.76 152.421C261.945 153.515 260.811 154.484 259.84 154.06L254.177 151.59L248.514 155.253C247.543 155.881 246.409 155.151 246.594 154.018L247.676 147.411L243.094 143.294C242.309 142.589 242.742 141.169 243.828 140.892L250.159 139.278L252.99 133.072C253.476 132.007 254.879 131.86 255.364 132.822Z" fill="#FFC400"/>
<path d="M663.926 338.912L535.399 352.446C530.1 353.004 525.484 348.847 525.484 343.516V153.114L671.962 137.69V329.982C671.961 334.577 668.494 338.431 663.926 338.912Z" fill="#05314D"/>
<path d="M672.853 139.057L525.484 152.965V138.988C525.484 134.439 529.315 130.624 534.359 130.148L661.903 118.111C667.756 117.559 672.853 121.674 672.853 126.95V139.057Z" fill="#023759"/>
<path d="M577.573 324.643L561.177 326.369C559.004 326.598 557.111 324.894 557.111 322.708V223.04C557.111 221.155 558.533 219.575 560.406 219.378L576.802 217.652C578.975 217.422 580.868 219.127 580.868 221.313V320.981C580.868 322.866 579.446 324.446 577.573 324.643Z" fill="#076AAB"/>
<path d="M611.563 321.062L595.167 322.788C592.994 323.017 591.102 321.312 591.102 319.127V195.308C591.102 193.424 592.524 191.844 594.396 191.647L610.792 189.92C612.965 189.691 614.858 191.396 614.858 193.582V317.4C614.858 319.284 613.436 320.864 611.563 321.062Z" fill="#076AAB"/>
<path d="M645.553 317.487L629.157 319.214C626.984 319.442 625.092 317.738 625.092 315.552V169.955C625.092 168.071 626.514 166.49 628.387 166.293L644.783 164.566C646.956 164.338 648.848 166.042 648.848 168.228V313.825C648.848 315.71 647.426 317.29 645.553 317.487Z" fill="#076AAB"/>
<path d="M649.447 127.422C649.447 130.253 647.218 132.782 644.469 133.072C641.721 133.361 639.492 131.301 639.492 128.47C639.492 125.639 641.721 123.109 644.469 122.82C647.219 122.531 649.447 124.591 649.447 127.422Z" fill="#FF6259"/>
<path d="M664.289 125.862C664.289 128.693 662.06 131.223 659.311 131.512C656.563 131.802 654.334 129.741 654.334 126.91C654.334 124.08 656.563 121.55 659.311 121.261C662.06 120.971 664.289 123.031 664.289 125.862Z" fill="#076AAB"/>
<path d="M222.396 435.915L42.6252 454.844C37.3259 455.402 32.7109 451.246 32.7109 445.915V237.629L230.432 216.81V426.985C230.432 431.58 226.964 435.434 222.396 435.915Z" fill="#044976"/>
<path d="M210.748 436.287C207.04 436.678 203.331 437.068 199.622 437.459C190.23 438.448 180.838 439.437 171.445 440.426C159.041 441.732 146.636 443.038 134.232 444.345C121.27 445.709 108.308 447.074 95.3459 448.439C84.4881 449.582 73.6304 450.726 62.7726 451.869C56.6357 452.516 50.4985 453.161 44.3616 453.808C41.6052 454.098 38.9438 454.147 36.5993 452.256C34.5589 450.61 33.5735 448.196 33.5655 445.615C33.563 444.798 33.5655 443.981 33.5655 443.164C33.5655 433.815 33.5655 424.466 33.5655 415.117C33.5655 402.271 33.5655 389.424 33.5655 376.576C33.5655 368.237 33.5655 359.897 33.5655 351.557C33.5655 351.145 33.5655 350.733 33.5655 350.322C33.5655 349.219 31.8526 349.217 31.8526 350.322C31.8526 356.383 31.8526 362.444 31.8526 368.506C31.8526 381.147 31.8526 393.788 31.8526 406.429C31.8526 417.337 31.8526 428.244 31.8526 439.151C31.8526 441.353 31.8415 443.555 31.8526 445.757C31.8826 451.627 36.8637 456.277 42.7515 455.691C47.203 455.248 51.65 454.754 56.0991 454.286C65.9478 453.249 75.7962 452.212 85.6446 451.175C98.3675 449.835 111.09 448.495 123.813 447.155C136.726 445.795 149.64 444.436 162.554 443.076C173.015 441.975 183.477 440.873 193.939 439.771C199.305 439.206 204.672 438.641 210.039 438.076C210.275 438.051 210.512 438.026 210.748 438.001C211.833 437.887 211.845 436.172 210.748 436.287Z" fill="#08619A"/>
<path d="M220.517 191.531L40.7464 210.461C36.1785 210.942 32.7109 214.795 32.7109 219.39V237.632L230.432 216.812V200.46C230.432 195.13 225.816 190.973 220.517 191.531Z" fill="#05314D"/>
<path d="M202.377 204.821C202.377 208.12 199.781 211.068 196.577 211.405C193.374 211.742 190.777 209.342 190.777 206.043C190.777 202.744 193.374 199.796 196.577 199.459C199.78 199.122 202.377 201.523 202.377 204.821Z" fill="#BFFB4F"/>
<path d="M219.674 203.004C219.674 206.303 217.077 209.25 213.874 209.588C210.671 209.925 208.074 207.524 208.074 204.226C208.074 200.927 210.671 197.979 213.874 197.642C217.077 197.305 219.674 199.705 219.674 203.004Z" fill="#88D1FF"/>
<path d="M120.62 320.292C132.64 303.794 130.457 281.723 115.745 270.995C101.033 260.267 79.3629 264.945 67.3434 281.443C55.3238 297.941 57.5065 320.012 72.2185 330.74C86.9305 341.468 108.601 336.791 120.62 320.292Z" fill="#88D1FF"/>
<path d="M93.9946 300.89L120.25 275.058C113.769 267.901 104.253 264.385 94.2232 265.441C94.0601 265.458 93.8971 265.477 93.7344 265.496L93.9946 300.89Z" fill="#2A8FD2"/>
<path d="M93.9941 300.891L119.026 322.382C119.583 321.711 120.119 321.022 120.633 320.317C131.081 305.978 130.92 286.846 120.252 275.062L93.9941 300.891Z" fill="#0084DB"/>
<path d="M79.6234 302.399C79.5708 310.578 85.9617 316.53 93.8982 315.695C101.835 314.859 108.311 307.551 108.364 299.372C108.417 291.193 102.026 285.241 94.0891 286.076C86.1526 286.912 79.676 294.22 79.6234 302.399Z" fill="#00243B"/>
<path d="M53.0098 351.693C53.0098 368.931 53.0098 386.169 53.0098 403.407C53.0098 408.251 53.0098 413.095 53.0098 417.938C53.0098 419.041 54.7227 419.043 54.7227 417.938C54.7227 400.7 54.7227 383.462 54.7227 366.224C54.7227 361.381 54.7227 356.537 54.7227 351.693C54.7227 350.59 53.0098 350.588 53.0098 351.693Z" fill="#05314D"/>
<path d="M212.191 271.998C212.191 289.236 212.191 306.475 212.191 323.713C212.191 328.556 212.191 333.4 212.191 338.244C212.191 339.346 213.904 339.348 213.904 338.244C213.904 321.006 213.904 303.768 213.904 286.53C213.904 281.686 213.904 276.842 213.904 271.999C213.904 270.896 212.191 270.894 212.191 271.998Z" fill="#05314D"/>
<path d="M217.184 271.564C217.184 273.916 215.333 276.018 213.049 276.258C210.766 276.499 208.914 274.787 208.914 272.435C208.914 270.083 210.766 267.981 213.049 267.741C215.333 267.501 217.184 269.212 217.184 271.564Z" fill="#002F4D"/>
<path d="M58.0008 351.255C58.0008 353.607 56.1496 355.709 53.8656 355.949C51.582 356.19 49.7305 354.478 49.7305 352.126C49.7305 349.775 51.5817 347.673 53.8656 347.433C56.1496 347.192 58.0008 348.904 58.0008 351.255Z" fill="#05314D"/>
<path d="M202.289 406.908C189.934 408.211 177.579 409.514 165.224 410.817C140.639 413.408 116.055 415.999 91.4707 418.59C80.3495 419.763 69.2238 420.856 58.1009 422.087C55.3612 422.391 52.9546 420.259 52.9528 417.501C52.9528 417.484 52.9528 417.466 52.9528 417.449C52.9507 413.541 52.9469 409.632 52.9375 405.725C56.6326 401.861 61.2706 399.033 66.2482 397.662C69.3332 396.813 72.5018 396.523 75.5597 396.886C79.1405 397.311 82.4167 398.735 85.7519 399.882C88.9522 400.983 92.3424 401.886 95.887 401.356C99.2445 400.854 102.367 399.005 105.014 396.666C110.231 392.052 113.857 385.802 117.913 380.187C120.843 376.131 124.463 372.029 128.806 369.202C133.663 366.039 138.854 365.771 144.176 364.002C147.374 362.939 150.235 361.134 152.675 358.629C157.498 353.679 160.357 347.251 163.973 341.456C167.778 335.358 172.405 329.768 177.624 324.87C187.997 315.136 200.694 308.086 213.948 304.976C213.951 306.14 213.956 307.303 213.956 308.466C213.955 312.174 213.953 315.882 213.954 319.59C213.956 327.005 213.96 334.421 213.958 341.836C213.954 356.669 213.948 371.502 213.947 386.334C213.946 392.768 213.903 399.209 213.931 405.642C210.05 406.071 206.168 406.499 202.289 406.908Z" fill="#2A8FD2"/>
<path d="M54.0921 412.153C61.4081 410.581 68.6059 411.218 75.9208 412.402C83.5577 413.639 91.1615 414.475 98.8841 413.463C106.278 412.493 113.131 409.756 119.67 406.251C126.221 402.739 132.426 398.608 139.067 395.26C146.651 391.437 154.957 388.585 163.559 389.307C164.657 389.399 164.651 387.685 163.559 387.593C148.21 386.305 134.967 395.601 122.287 402.84C115.788 406.55 109.02 409.867 101.62 411.298C93.7301 412.823 85.71 412.273 77.833 410.987C73.9798 410.359 70.116 409.717 66.2126 409.502C61.9858 409.269 57.775 409.612 53.6367 410.501C52.5593 410.733 53.0154 412.385 54.0921 412.153Z" fill="#05314D"/>
<path d="M365.647 426.575L250.168 438.735C244.869 439.293 240.254 435.136 240.254 429.805V207.067C240.254 202.472 243.722 198.618 248.289 198.137L363.768 185.977C369.067 185.419 373.682 189.576 373.682 194.907V417.645C373.682 422.24 370.215 426.094 365.647 426.575Z" fill="#05314D"/>
<path d="M374.151 206.51L240.723 220.56V206.44C240.723 201.845 244.191 197.991 248.758 197.51L364.237 185.35C369.536 184.792 374.151 188.949 374.151 194.28V206.51Z" fill="#044976"/>
<path opacity="0.2" d="M307.857 249.173C307.857 260.953 298.307 270.503 286.527 270.503C274.747 270.503 265.197 260.953 265.197 249.173C265.197 237.393 274.747 227.844 286.527 227.844C298.307 227.844 307.857 237.393 307.857 249.173ZM273.322 249.173C273.322 256.466 279.234 262.379 286.527 262.379C293.82 262.379 299.732 256.466 299.732 249.173C299.732 241.88 293.82 235.968 286.527 235.968C279.234 235.968 273.322 241.88 273.322 249.173Z" fill="#88D1FF"/>
<path d="M302.658 243.014C304.754 242.213 305.835 239.837 304.653 237.93C303.161 235.525 301.198 233.429 298.868 231.776C295.427 229.336 291.34 227.97 287.123 227.852C282.906 227.734 278.749 228.869 275.177 231.114C271.605 233.359 268.779 236.613 267.057 240.464C265.334 244.314 264.792 248.59 265.499 252.748C266.206 256.907 268.131 260.763 271.029 263.828C273.928 266.894 277.67 269.03 281.783 269.969C284.568 270.604 287.439 270.671 290.226 270.18C292.435 269.791 293.487 267.401 292.687 265.305C291.886 263.209 289.521 262.229 287.281 262.357C286.049 262.428 284.806 262.325 283.59 262.048C281.043 261.467 278.727 260.144 276.932 258.246C275.138 256.349 273.946 253.962 273.508 251.387C273.071 248.812 273.406 246.165 274.473 243.781C275.539 241.397 277.289 239.383 279.5 237.993C281.711 236.603 284.285 235.9 286.896 235.973C289.507 236.046 292.037 236.892 294.167 238.403C295.185 239.125 296.089 239.983 296.858 240.949C298.255 242.704 300.562 243.814 302.658 243.014Z" fill="#88D1FF"/>
<path d="M320.834 235.172C329.262 234.284 337.69 233.397 346.119 232.509C347.204 232.395 347.216 230.68 346.119 230.796C337.691 231.683 329.262 232.571 320.834 233.458C319.749 233.573 319.737 235.288 320.834 235.172Z" fill="#076AAB"/>
<path d="M346.121 296.877C341.212 297.394 336.303 297.911 331.394 298.428C330.309 298.542 330.298 300.258 331.394 300.142C336.303 299.625 341.212 299.108 346.121 298.591C347.206 298.476 347.218 296.761 346.121 296.877Z" fill="#076AAB"/>
<path d="M316.903 299.956C300.543 301.678 284.184 303.401 267.824 305.124C266.739 305.238 266.727 306.953 267.824 306.837C284.184 305.115 300.543 303.392 316.903 301.669C317.988 301.555 317.999 299.84 316.903 299.956Z" fill="#076AAB"/>
<path d="M267.822 322.687C288.177 320.543 308.532 318.4 328.887 316.257C334.632 315.652 340.376 315.047 346.121 314.442C347.206 314.328 347.218 312.613 346.121 312.728C325.766 314.871 305.411 317.015 285.056 319.158C279.311 319.763 273.567 320.368 267.822 320.973C266.737 321.087 266.725 322.802 267.822 322.687Z" fill="#076AAB"/>
<path d="M346.119 328.564C329.198 330.346 312.278 332.128 295.357 333.909C294.272 334.024 294.26 335.738 295.357 335.623C312.278 333.841 329.198 332.06 346.119 330.278C347.204 330.164 347.215 328.449 346.119 328.564Z" fill="#076AAB"/>
<path d="M280.859 335.432C276.514 335.89 272.169 336.348 267.824 336.805C266.739 336.92 266.727 338.635 267.824 338.52C272.169 338.062 276.514 337.604 280.859 337.146C281.944 337.032 281.956 335.317 280.859 335.432Z" fill="#076AAB"/>
<path d="M346.117 344.416C339.918 345.069 333.719 345.721 327.519 346.374C326.434 346.488 326.423 348.203 327.519 348.088C333.719 347.435 339.918 346.782 346.117 346.129C347.202 346.015 347.214 344.3 346.117 344.416Z" fill="#076AAB"/>
<path d="M313.023 347.9C297.957 349.487 282.89 351.073 267.824 352.659C266.739 352.774 266.727 354.488 267.824 354.373C282.891 352.787 297.957 351.2 313.023 349.614C314.108 349.499 314.12 347.785 313.023 347.9Z" fill="#076AAB"/>
<path d="M267.822 370.22C288.177 368.076 308.532 365.933 328.887 363.79C334.632 363.185 340.376 362.58 346.121 361.975C347.206 361.861 347.218 360.146 346.121 360.261C325.766 362.405 305.411 364.548 285.056 366.691C279.311 367.296 273.567 367.901 267.822 368.506C266.737 368.621 266.725 370.335 267.822 370.22Z" fill="#076AAB"/>
<path d="M346.121 376.097C332.493 377.533 318.866 378.967 305.238 380.402C304.153 380.517 304.141 382.232 305.238 382.116C318.866 380.681 332.493 379.246 346.121 377.811C347.206 377.697 347.218 375.982 346.121 376.097Z" fill="#076AAB"/>
<path d="M290.746 381.928C283.105 382.733 275.464 383.537 267.824 384.342C266.739 384.456 266.727 386.171 267.824 386.056C275.465 385.251 283.105 384.447 290.746 383.642C291.831 383.528 291.842 381.813 290.746 381.928Z" fill="#076AAB"/>
<path d="M267.822 401.907C288.177 399.764 308.532 397.62 328.887 395.477C334.632 394.873 340.376 394.267 346.121 393.663C347.206 393.548 347.218 391.834 346.121 391.949C325.766 394.092 305.411 396.236 285.056 398.379C279.311 398.984 273.567 399.589 267.822 400.194C266.737 400.308 266.725 402.023 267.822 401.907Z" fill="#076AAB"/>
<path d="M320.834 247.739C325.775 247.219 330.715 246.698 335.656 246.178C336.741 246.063 336.753 244.348 335.656 244.464C330.715 244.984 325.775 245.504 320.834 246.025C319.749 246.139 319.737 247.854 320.834 247.739Z" fill="#076AAB"/>
<path d="M350.511 199.2C350.511 201.925 348.366 204.36 345.72 204.638C343.074 204.917 340.93 202.934 340.93 200.209C340.93 197.485 343.075 195.05 345.72 194.771C348.366 194.493 350.511 196.476 350.511 199.2Z" fill="#FF6259"/>
<path d="M364.788 197.696C364.788 200.421 362.643 202.856 359.998 203.134C357.352 203.413 355.207 201.43 355.207 198.705C355.207 195.98 357.352 193.546 359.998 193.267C362.644 192.989 364.788 194.972 364.788 197.696Z" fill="#076AAB"/>
</svg>
