<svg width="64" height="64" viewBox="0 0 64 64" fill="none" xmlns="http://www.w3.org/2000/svg">
<rect width="64" height="64" rx="24" fill="#2A8FD2" fill-opacity="0.24"/>
<g clip-path="url(#clip0_5447_9909)">
<path d="M48 32C48 40.8267 40.8267 48 32 48C23.1733 48 16 40.8267 16 32C16 23.1733 23.1733 16 32 16C32.2533 16 32.5067 16 32.76 16.0133C33.8667 16.0667 34.72 17 34.6667 18.1067C34.6133 19.2133 33.7067 20.04 32.5733 20.0133C32.3867 20.0133 32.1867 20 32 20C25.3867 20 20 25.3867 20 32C20 38.6133 25.3867 44 32 44C38.6133 44 44 38.6133 44 32C44 31.8133 44 31.6133 43.9867 31.4267C43.9333 30.32 44.7867 29.3867 45.8933 29.3333C47.0267 29.2933 47.9333 30.1333 47.9867 31.24C47.9867 31.4933 48 31.7467 48 32ZM30.5467 26.8667C31.6133 26.56 32.2267 25.4667 31.9333 24.4C31.64 23.3333 30.52 22.72 29.4667 23.0133C25.4667 24.1467 22.68 27.84 22.68 32C22.68 37.1467 26.8667 41.3333 32.0133 41.3333C36.1733 41.3333 39.8667 38.5467 41 34.5467C41.3067 33.48 40.68 32.3733 39.6133 32.08C38.5467 31.7733 37.44 32.4 37.1467 33.4667C36.5067 35.7467 34.3867 37.3467 32.0133 37.3467C29.0667 37.3467 26.68 34.96 26.68 32.0133C26.68 29.64 28.28 27.52 30.56 26.88L30.5467 26.8667Z" fill="#2A8FD2"/>
<path d="M30.5861 30.5867C29.7994 31.3734 29.7994 32.6401 30.5861 33.4134C30.9728 33.8001 31.4928 34.0001 31.9994 34.0001C32.5061 34.0001 33.0261 33.8001 33.4128 33.4134L40.1594 26.6667H43.3328C43.8661 26.6667 44.3728 26.4534 44.7461 26.0801L47.4128 23.4134C47.9861 22.8401 48.1594 21.9867 47.8528 21.2401C47.5461 20.4934 46.8128 20.0001 45.9994 20.0001H43.9994V18.0001C43.9994 17.1867 43.5061 16.4667 42.7594 16.1467C42.0128 15.8401 41.1461 16.0134 40.5861 16.5867L37.9194 19.2534C37.5461 19.6267 37.3328 20.1334 37.3328 20.6667V23.8401L30.5861 30.5867Z" fill="#BFFB4F"/>
</g>
<defs>
<clipPath id="clip0_5447_9909">
<rect width="32" height="32" fill="white" transform="translate(16 16)"/>
</clipPath>
</defs>
</svg>
