<svg width="328" height="148" viewBox="0 0 328 148" fill="none" xmlns="http://www.w3.org/2000/svg">
<rect width="328" height="148" rx="74" fill="url(#paint0_radial_5583_1816)"/>
<path fill-rule="evenodd" clip-rule="evenodd" d="M87.7574 121C86.4651 114.157 85.9852 106.315 93.4599 101.371C95.5614 99.9808 97.9612 99.0656 100.478 99.0074V99.007C104.582 98.8788 109.283 100.514 111.908 103.556C114.533 106.598 115.463 111.899 116 114.471C112.569 113.736 108.136 113.154 105.249 110.598C103.694 109.22 102.428 107.184 101.592 104.939C99.7415 104.651 98.0734 105.281 96.5395 106.296C91.7967 109.433 92.5071 115.635 93.582 121H87.7574V121Z" fill="#076AAB"/>
<path fill-rule="evenodd" clip-rule="evenodd" d="M217.598 53.6257C220.098 49.7085 222.602 45.2531 222.935 40.7518C223.368 34.8937 220.273 28.2405 215.991 24C211.709 28.2408 208.722 35.1057 209.047 40.7523C209.312 45.3514 211.944 49.7259 214.385 53.5642V67.8974C213.046 64.3519 211.102 60.2129 208.254 57.6284C203.954 53.7274 196.897 52.2132 191 53.1248C191.709 59.174 195.246 65.7606 199.841 68.917C203.96 71.747 209.606 72.08 214.385 72.44V89.4305C213.046 85.885 211.102 81.746 208.254 79.1618C203.954 75.2608 196.897 73.7466 191 74.6581C191.709 80.7074 195.246 87.294 199.841 90.4504C203.96 93.2804 209.606 93.6134 214.385 93.9734V121H217.598V93.9745C222.381 93.6141 228.035 93.2834 232.159 90.4502C236.754 87.294 240.291 80.7072 241 74.6579C235.103 73.7466 228.046 75.2606 223.746 79.1616C220.885 81.7568 218.938 85.9205 217.598 89.4758V72.4411C222.381 72.0807 228.035 71.7501 232.159 68.9168C236.754 65.7606 240.291 59.1738 241 53.1245C235.103 52.213 228.046 53.7272 223.746 57.6282C220.885 60.2234 218.937 64.3871 217.598 67.9424V53.6257H217.598Z" fill="#076AAB"/>
<rect x="51" y="121" width="226" height="3" fill="#076AAB"/>
<circle cx="164" cy="89" r="16" fill="#88D1FF"/>
<path d="M162.771 89L156 82.2288L157.229 81L164 87.7711L170.771 81L172 82.2288L165.229 89L172 95.7711L170.771 97L164 90.2288L157.229 97L156 95.7711L162.771 89Z" fill="#076AAB"/>
<defs>
<radialGradient id="paint0_radial_5583_1816" cx="0" cy="0" r="1" gradientUnits="userSpaceOnUse" gradientTransform="translate(164 74) rotate(90) scale(74 164)">
<stop stop-color="white"/>
<stop offset="0.5" stop-color="#F4FBFF"/>
<stop offset="1" stop-color="#EDF8FF"/>
</radialGradient>
</defs>
</svg>
