<svg width="328" height="148" viewBox="0 0 328 148" fill="none" xmlns="http://www.w3.org/2000/svg">
<g clip-path="url(#clip0_5257_1492)">
<rect width="328" height="148" rx="74" fill="url(#paint0_radial_5257_1492)"/>
<path d="M102.412 113.957C103.246 115.293 113.707 109.259 125.778 100.482C137.85 91.7031 146.96 83.5049 146.128 82.169L140.677 73.4277L96.9609 105.214L102.412 113.956" fill="#63BAF2"/>
<path d="M118.987 105.253C116.446 106.972 114.069 108.501 111.952 109.786L105.76 99.8543L112.545 94.9203L118.988 105.252L118.987 105.253Z" fill="#4AA7E3"/>
<path d="M111.082 110.309C109.948 110.985 108.898 111.582 107.948 112.093L101.789 102.216L104.71 100.092L111.082 110.31V110.309Z" fill="#4AA7E3"/>
<path d="M125.779 100.482L118.82 89.3204L140.678 73.4266L146.129 82.1679C146.962 83.5038 137.851 91.7031 125.779 100.481V100.482Z" fill="#88D1FF"/>
<path d="M120.334 91.7334C132.405 82.9541 141.515 74.7543 140.682 73.4185C139.849 72.0828 129.388 78.117 117.317 86.8962C105.246 95.6755 96.1363 103.875 96.9693 105.211C97.8024 106.547 108.263 100.513 120.334 91.7334Z" fill="#ACDFFF"/>
<path d="M119.249 89.9928C129.615 82.4534 137.703 75.8344 137.313 75.2089C136.922 74.5834 128.203 80.1883 117.836 87.7277C107.47 95.2672 99.3826 101.886 99.7727 102.512C100.163 103.137 108.883 97.5323 119.249 89.9928Z" fill="#D5EFFF"/>
<path d="M100.495 102.387C102.222 100.414 109.377 94.6815 118.173 88.2857C126.97 81.8898 134.578 76.8868 136.922 75.8991C137.23 75.5465 137.367 75.3133 137.308 75.2191C136.918 74.5939 128.198 80.1981 117.831 87.7371C107.464 95.2761 99.3751 101.894 99.7655 102.519C99.8243 102.615 100.076 102.565 100.495 102.389V102.387Z" fill="#4AA7E3"/>
<path d="M182.715 3.28145C186.335 8.48812 178.703 21.2743 165.669 31.841C152.635 42.4076 139.135 46.7526 135.515 41.5459L129.969 33.5678L177.169 -4.69666L182.716 3.28145" fill="#005A96"/>
<path d="M172.61 25.5043C175.053 22.9825 177.156 20.4432 178.851 18.0047L170.082 5.39148L162.756 11.3307L172.61 25.5054V25.5043Z" fill="#1A76B3"/>
<path d="M179.535 16.9907C180.412 15.6527 181.159 14.3507 181.765 13.1046L173.143 0.70166L169.988 3.25846L179.534 16.9896L179.535 16.9907Z" fill="#1A76B3"/>
<path d="M165.669 31.841L153.569 14.4351L129.969 33.5678L135.515 41.5459C139.135 46.7526 152.635 42.4077 165.669 31.841Z" fill="#004877"/>
<path d="M160.211 23.9884C173.245 13.421 180.875 0.633751 177.255 -4.57276C173.636 -9.77926 160.136 -5.43343 147.102 5.13393C134.069 15.7013 126.438 28.4885 130.058 33.695C133.678 38.9015 147.178 34.5557 160.211 23.9884Z" fill="#076AAB"/>
<path d="M147.106 5.1375C134.072 15.7042 126.44 28.4904 130.06 33.697L177.259 -4.5674C173.639 -9.77408 160.139 -5.42915 147.106 5.1375Z" fill="#399BDB"/>
<path d="M157.981 20.7815C169.174 11.7061 176.059 1.1998 173.358 -2.68501C170.657 -6.56982 159.393 -2.36204 148.2 6.71334C137.007 15.7887 130.123 26.295 132.824 30.1798C135.525 34.0646 146.788 29.8569 157.981 20.7815Z" fill="#005A96"/>
<path d="M148.202 6.71758C137.009 15.7918 130.124 26.2982 132.825 30.1832C133.016 30.4581 133.251 30.6924 133.524 30.8884L173.792 -1.75655C173.694 -2.0949 173.551 -2.40369 173.361 -2.67853C170.659 -6.56356 159.396 -2.3566 148.203 6.71758H148.202Z" fill="#F7C908"/>
<path d="M148.202 6.71758C137.009 15.7918 130.124 26.2982 132.825 30.1832C133.016 30.4581 133.251 30.6924 133.524 30.8884L173.792 -1.75655C173.694 -2.0949 173.551 -2.40369 173.361 -2.67853C170.659 -6.56356 159.396 -2.3566 148.203 6.71758H148.202Z" fill="#1A76B3"/>
<path d="M148.939 7.77753C159.618 -0.879462 170.36 -5.10612 173.671 -2.10257C173.587 -2.30842 173.483 -2.50005 173.36 -2.67853C170.658 -6.56356 159.395 -2.3566 148.202 6.71758C137.009 15.7918 130.124 26.2982 132.825 30.1832C132.949 30.3617 133.091 30.5227 133.25 30.6672C131.503 26.3967 138.26 16.4356 148.939 7.77863V7.77753Z" fill="#004877"/>
<path d="M150.565 13.8153C150.724 13.5361 150.985 13.2076 151.346 12.8309C151.708 12.4542 152.134 12.0666 152.624 11.6691C153.335 11.0921 154.066 10.5862 154.815 10.1493C155.564 9.71348 156.362 9.32585 157.209 8.9875L158.993 5.26125L158.334 4.31299L152.413 8.60754L151.947 7.9385L148.631 10.6278L149.009 11.1731L147.196 13.9599C146.585 14.7285 146.123 15.4403 145.808 16.0929L144.932 17.4397L145.591 18.388C145.994 18.9683 146.843 19.0483 148.138 18.6289C149.433 18.2095 151.107 17.3149 153.16 15.944L154.128 15.2936C154.888 14.7855 155.488 14.4066 155.929 14.1537C156.37 13.9018 156.702 13.7518 156.924 13.7036C157.107 13.6642 157.242 13.6817 157.331 13.7562L156.284 15.1096L151.725 18.9486C151.134 19.2541 150.545 19.5191 149.957 19.7392L149.361 20.9393L147.419 22.5752L148.078 23.5235C149.393 23.0154 150.789 22.3146 152.266 21.4211C153.176 20.8703 154.057 20.2845 154.911 19.6637L155.581 20.6283L158.898 17.939L158.214 16.9547C158.923 16.2966 159.557 15.6439 160.113 14.999C161.09 13.8646 161.764 12.8441 162.134 11.9374C162.504 11.0308 162.519 10.3343 162.179 9.84597L161.314 8.60207L160.744 9.34118C160.744 9.34118 160.739 9.34118 160.736 9.34118C160.055 9.41236 159.166 9.71677 158.068 10.2566C156.97 10.7953 155.644 11.5717 154.093 12.5824L153.131 13.2098C152.537 13.5887 152.06 13.8799 151.697 14.0836C151.335 14.2873 151.053 14.4165 150.851 14.4723C150.649 14.5282 150.517 14.5095 150.453 14.4176C150.368 14.2949 150.404 14.0934 150.563 13.8142L150.565 13.8153Z" fill="#004877"/>
<path d="M157.323 9.18235C156.225 9.72109 154.899 10.4974 153.348 11.5081L152.386 12.1355C151.792 12.5144 151.315 12.8057 150.952 13.0093C150.59 13.213 150.308 13.3422 150.106 13.3981C149.904 13.4539 149.772 13.4353 149.708 13.3433C149.623 13.2207 149.659 13.0192 149.818 12.74C149.977 12.4608 150.238 12.1323 150.599 11.7556C150.961 11.3789 151.387 10.9913 151.877 10.5938C152.588 10.0167 153.318 9.51085 154.068 9.07395C154.817 8.63814 155.615 8.25052 156.462 7.91217L158.246 4.18591C157.007 4.67428 155.736 5.31047 154.432 6.09448C153.561 6.61789 152.704 7.19276 151.862 7.81471L151.201 6.86316L147.885 9.55246L148.586 10.562C148.014 11.1095 147.491 11.6548 147.019 12.2001C146.034 13.3346 145.345 14.3551 144.951 15.2596C144.558 16.164 144.522 16.8484 144.846 17.3138C145.249 17.8941 146.098 17.974 147.393 17.5547C148.688 17.1353 150.362 16.2407 152.415 14.8697L153.383 14.2193C154.143 13.7112 154.743 13.3324 155.184 13.0794C155.625 12.8276 155.957 12.6776 156.179 12.6294C156.401 12.5812 156.554 12.6173 156.636 12.7356C156.735 12.8779 156.714 13.086 156.575 13.3619C156.435 13.6368 156.188 13.962 155.833 14.3376C155.477 14.7132 155.021 15.1271 154.463 15.5782C153.627 16.256 152.763 16.8571 151.873 17.3816C150.981 17.9061 150.095 18.3332 149.213 18.6639L147.334 22.4482C148.649 21.9401 150.045 21.2393 151.522 20.3458C152.432 19.795 153.313 19.2092 154.167 18.5883L154.837 19.553L158.154 16.8637L157.47 15.8793C158.178 15.2212 158.813 14.5686 159.369 13.9237C160.346 12.7893 161.02 11.7687 161.39 10.8621C161.76 9.95542 161.775 9.259 161.435 8.77064C161.152 8.3633 160.671 8.19577 159.991 8.26585C159.311 8.33702 158.422 8.64143 157.324 9.18126L157.323 9.18235Z" fill="#7DCCFF"/>
<path d="M157.411 9.30943C156.312 9.84817 154.987 10.6245 153.436 11.6352L152.473 12.2626C151.88 12.6415 151.403 12.9328 151.04 13.1364C150.678 13.3401 150.396 13.4693 150.194 13.5251C149.992 13.581 149.859 13.5624 149.796 13.4704C149.71 13.3478 149.747 13.1463 149.906 12.8671C150.065 12.5878 150.326 12.2593 150.687 11.8827C151.049 11.506 151.475 11.1184 151.964 10.7209C152.676 10.1438 153.406 9.63793 154.156 9.20103C154.905 8.76522 155.703 8.37759 156.55 8.03924L158.334 4.31299C157.095 4.80135 155.824 5.43754 154.52 6.22156C153.649 6.74496 152.792 7.31983 151.95 7.94179L151.289 6.99024L147.972 9.67954L148.674 10.6891C148.102 11.2366 147.579 11.7819 147.107 12.3272C146.122 13.4616 145.432 14.4822 145.039 15.3866C144.646 16.2911 144.61 16.9755 144.934 17.4408C145.337 18.0212 146.186 18.1011 147.481 17.6817C148.776 17.2623 150.45 16.3677 152.503 14.9968L153.471 14.3464C154.231 13.8383 154.831 13.4594 155.272 13.2065C155.713 12.9547 156.045 12.8046 156.267 12.7565C156.489 12.7083 156.642 12.7444 156.724 12.8627C156.822 13.005 156.802 13.2131 156.663 13.489C156.523 13.7639 156.276 14.0891 155.921 14.4646C155.565 14.8402 155.109 15.2541 154.551 15.7053C153.715 16.3831 152.851 16.9842 151.96 17.5087C151.069 18.0332 150.183 18.4603 149.301 18.791L147.422 22.5752C148.737 22.0672 150.133 21.3664 151.61 20.4729C152.52 19.9221 153.401 19.3363 154.255 18.7154L154.925 19.6801L158.242 16.9908L157.558 16.0064C158.266 15.3483 158.901 14.6957 159.457 14.0507C160.434 12.9163 161.108 11.8958 161.478 10.9891C161.847 10.0825 161.863 9.38608 161.523 8.89771C161.24 8.49038 160.759 8.32284 160.079 8.39292C159.399 8.4641 158.51 8.76851 157.412 9.30834L157.411 9.30943Z" fill="#FFDD15"/>
<path d="M157.411 9.30943C156.312 9.84817 154.987 10.6245 153.436 11.6352L152.473 12.2626C151.88 12.6415 151.403 12.9328 151.04 13.1364C150.678 13.3401 150.396 13.4693 150.194 13.5251C149.992 13.581 149.859 13.5624 149.796 13.4704C149.71 13.3478 149.747 13.1463 149.906 12.8671C150.065 12.5878 150.326 12.2593 150.687 11.8827C151.049 11.506 151.475 11.1184 151.964 10.7209C152.676 10.1438 153.406 9.63793 154.156 9.20103C154.905 8.76522 155.703 8.37759 156.55 8.03924L158.334 4.31299C157.095 4.80135 155.824 5.43754 154.52 6.22156C153.649 6.74496 152.792 7.31983 151.95 7.94179L151.289 6.99024L147.972 9.67954L148.674 10.6891C148.102 11.2366 147.579 11.7819 147.107 12.3272C146.122 13.4616 145.432 14.4822 145.039 15.3866C144.646 16.2911 144.61 16.9755 144.934 17.4408C145.337 18.0212 146.186 18.1011 147.481 17.6817C148.776 17.2623 150.45 16.3677 152.503 14.9968L153.471 14.3464C154.231 13.8383 154.831 13.4594 155.272 13.2065C155.713 12.9547 156.045 12.8046 156.267 12.7565C156.489 12.7083 156.642 12.7444 156.724 12.8627C156.822 13.005 156.802 13.2131 156.663 13.489C156.523 13.7639 156.276 14.0891 155.921 14.4646C155.565 14.8402 155.109 15.2541 154.551 15.7053C153.715 16.3831 152.851 16.9842 151.96 17.5087C151.069 18.0332 150.183 18.4603 149.301 18.791L147.422 22.5752C148.737 22.0672 150.133 21.3664 151.61 20.4729C152.52 19.9221 153.401 19.3363 154.255 18.7154L154.925 19.6801L158.242 16.9908L157.558 16.0064C158.266 15.3483 158.901 14.6957 159.457 14.0507C160.434 12.9163 161.108 11.8958 161.478 10.9891C161.847 10.0825 161.863 9.38608 161.523 8.89771C161.24 8.49038 160.759 8.32284 160.079 8.39292C159.399 8.4641 158.51 8.76851 157.412 9.30834L157.411 9.30943Z" fill="#076AAB"/>
<path d="M149.906 12.8671C150.065 12.5878 150.326 12.2593 150.687 11.8827C151.049 11.506 151.475 11.1184 151.964 10.7209C152.676 10.1438 153.406 9.63793 154.156 9.20103C154.905 8.76522 155.703 8.37759 156.55 8.03924L158.334 4.31299C157.095 4.80135 155.824 5.43754 154.52 6.22156C153.649 6.74496 152.792 7.31983 151.95 7.94179L151.289 6.99024L147.972 9.67954L148.674 10.6891C148.102 11.2366 147.579 11.7819 147.107 12.3272C146.122 13.4616 145.432 14.4822 145.039 15.3866C144.646 16.2911 144.61 16.9755 144.934 17.4408C145.337 18.0212 146.186 18.1011 147.481 17.6817C148.776 17.2623 150.45 16.3677 152.503 14.9968L153.471 14.3464C154.231 13.8383 154.831 13.4594 155.272 13.2065C155.342 13.166 155.408 13.1298 155.473 13.0948L161.1 8.53308C160.834 8.3984 160.493 8.35241 160.079 8.39511C159.399 8.46629 158.51 8.77069 157.412 9.31052C156.313 9.84926 154.988 10.6256 153.437 11.6363L152.475 12.2637C151.881 12.6426 151.404 12.9338 151.041 13.1375C150.679 13.3412 150.397 13.4704 150.195 13.5262C149.993 13.5821 149.86 13.5635 149.797 13.4715C149.711 13.3488 149.748 13.1474 149.907 12.8681L149.906 12.8671Z" fill="#399BDB"/>
<path d="M219.346 158.953C210.459 166.157 194.768 159.786 184.297 144.724C173.825 129.663 172.541 111.612 181.427 104.408L188.29 98.8442L226.208 153.389L219.346 158.953Z" fill="#005A96"/>
<path d="M194 136.858L184.297 144.724C182.023 141.453 180.182 138.041 178.785 134.629L187.525 127.543L194 136.858Z" fill="#1A76B3"/>
<path d="M176.283 126.492L184.038 120.205L187.276 124.862L177.945 132.427C177.237 130.428 176.683 128.44 176.283 126.492Z" fill="#1A76B3"/>
<path d="M226.773 152.932L219.346 158.954C210.46 166.158 194.768 159.787 184.297 144.726L207.814 125.661L226.773 152.934V152.932Z" fill="#004877"/>
<path d="M226.408 153.219C235.042 146.218 233.553 128.333 223.081 113.271C212.609 98.2097 197.12 91.6754 188.486 98.6764C179.851 105.677 181.341 123.562 191.812 138.624C202.284 153.685 217.773 160.22 226.408 153.219Z" fill="#076AAB"/>
<path d="M188.487 98.6844C197.122 91.6841 212.611 98.2201 223.081 113.282L191.811 138.632C181.34 123.569 179.852 105.685 188.487 98.6844Z" fill="#399BDB"/>
<path d="M224.048 147.987C230.69 142.601 229.007 128.071 220.29 115.533C211.572 102.995 199.121 97.1957 192.479 102.581C185.837 107.966 187.52 122.496 196.238 135.034C204.955 147.573 217.407 153.372 224.048 147.987Z" fill="#005A96"/>
<path d="M192.483 102.59C199.124 97.205 211.576 103.005 220.292 115.544L196.239 135.044C187.522 122.505 185.841 107.974 192.483 102.59Z" fill="#1A76B3"/>
<path d="M209.248 122.925C208.214 122.733 207.096 122.763 205.893 123.016L205.147 123.172C204.678 123.252 204.287 123.287 203.973 123.278C203.658 123.268 203.383 123.2 203.148 123.074C202.913 122.947 202.702 122.749 202.513 122.479C202.263 122.118 202.109 121.742 202.051 121.347C201.993 120.954 202.032 120.58 202.166 120.224C202.299 119.868 202.516 119.569 202.817 119.326C203.252 118.974 203.786 118.791 204.421 118.779C205.055 118.767 205.812 118.916 206.689 119.225L205.427 113.562C204.136 113.093 202.95 112.896 201.872 112.969C201.151 113.018 200.503 113.19 199.926 113.481L197.985 110.689L195.957 112.332L198.016 115.294C197.754 115.753 197.559 116.268 197.437 116.84C197.183 118.034 197.237 119.341 197.601 120.764C197.965 122.186 198.621 123.58 199.569 124.942C200.752 126.644 202.064 127.835 203.507 128.515C204.95 129.195 206.451 129.335 208.01 128.935L208.742 128.738C209.318 128.588 209.795 128.514 210.173 128.515C210.551 128.517 210.877 128.602 211.148 128.768C211.421 128.936 211.679 129.193 211.921 129.542C212.211 129.96 212.397 130.372 212.479 130.781C212.561 131.19 212.539 131.574 212.411 131.933C212.283 132.292 212.049 132.609 211.708 132.885C211.197 133.3 210.566 133.52 209.817 133.546C209.068 133.572 208.225 133.4 207.289 133.032L208.476 138.704C209.857 139.223 211.155 139.435 212.37 139.339C213.12 139.28 213.792 139.114 214.388 138.841L216.356 141.672L218.384 140.028L216.377 137.141C216.723 136.613 216.97 136.01 217.109 135.327C217.353 134.125 217.275 132.797 216.874 131.341C216.474 129.886 215.776 128.444 214.782 127.013C213.951 125.818 213.08 124.886 212.169 124.216C211.257 123.546 210.284 123.115 209.249 122.922L209.248 122.925Z" fill="#004877"/>
<path d="M210.565 121.859C209.53 121.666 208.412 121.697 207.209 121.95L206.463 122.105C205.995 122.185 205.603 122.22 205.289 122.211C204.975 122.202 204.7 122.134 204.465 122.008C204.229 121.881 204.018 121.683 203.83 121.412C203.579 121.052 203.425 120.675 203.367 120.281C203.31 119.888 203.348 119.513 203.482 119.157C203.616 118.803 203.833 118.503 204.133 118.26C204.568 117.907 205.102 117.724 205.737 117.712C206.372 117.7 207.128 117.849 208.005 118.159L206.743 112.496C205.452 112.027 204.267 111.83 203.188 111.903C202.467 111.952 201.819 112.124 201.242 112.416L199.301 109.623L197.273 111.267L199.333 114.229C199.07 114.688 198.876 115.202 198.754 115.775C198.499 116.969 198.553 118.276 198.917 119.698C199.281 121.121 199.937 122.515 200.885 123.877C202.069 125.579 203.381 126.77 204.824 127.45C206.266 128.13 207.767 128.27 209.327 127.869L210.059 127.672C210.635 127.522 211.111 127.449 211.489 127.45C211.868 127.452 212.193 127.536 212.465 127.703C212.738 127.869 212.995 128.128 213.238 128.477C213.528 128.894 213.713 129.307 213.795 129.715C213.877 130.125 213.855 130.508 213.727 130.867C213.6 131.226 213.365 131.544 213.025 131.82C212.514 132.235 211.883 132.455 211.134 132.48C210.384 132.507 209.542 132.335 208.606 131.967L209.792 137.639C211.173 138.158 212.471 138.369 213.687 138.274C214.436 138.215 215.108 138.048 215.705 137.776L217.673 140.606L219.701 138.963L217.693 136.075C218.04 135.547 218.286 134.945 218.425 134.262C218.669 133.059 218.591 131.731 218.191 130.276C217.79 128.821 217.093 127.379 216.098 125.948C215.267 124.753 214.396 123.821 213.485 123.151C212.573 122.481 211.6 122.049 210.566 121.857L210.565 121.859Z" fill="#7DCCFF"/>
<path d="M210.252 122.112C209.218 121.919 208.099 121.95 206.897 122.203L206.151 122.358C205.682 122.438 205.291 122.473 204.976 122.464C204.662 122.454 204.387 122.387 204.152 122.261C203.917 122.134 203.706 121.935 203.517 121.665C203.267 121.305 203.113 120.928 203.055 120.534C202.997 120.141 203.036 119.766 203.17 119.41C203.303 119.055 203.52 118.756 203.821 118.513C204.255 118.16 204.79 117.977 205.425 117.965C206.059 117.953 206.816 118.102 207.693 118.412L206.43 112.749C205.14 112.28 203.954 112.083 202.875 112.156C202.155 112.205 201.507 112.377 200.93 112.669L198.989 109.876L196.961 111.52L199.02 114.482C198.758 114.941 198.563 115.455 198.441 116.028C198.187 117.222 198.241 118.529 198.605 119.951C198.969 121.374 199.625 122.768 200.573 124.13C201.756 125.831 203.068 127.023 204.511 127.703C205.954 128.383 207.455 128.523 209.014 128.122L209.746 127.925C210.322 127.775 210.799 127.702 211.177 127.703C211.555 127.705 211.881 127.789 212.152 127.956C212.425 128.123 212.683 128.381 212.925 128.73C213.215 129.147 213.401 129.56 213.483 129.968C213.565 130.378 213.543 130.761 213.415 131.12C213.287 131.479 213.053 131.797 212.712 132.073C212.201 132.488 211.57 132.708 210.821 132.733C210.072 132.759 209.229 132.588 208.293 132.22L209.48 137.892C210.861 138.411 212.158 138.622 213.374 138.527C214.124 138.468 214.796 138.301 215.392 138.029L217.36 140.859L219.388 139.216L217.38 136.328C217.727 135.8 217.974 135.198 218.113 134.515C218.357 133.312 218.279 131.984 217.878 130.529C217.478 129.074 216.78 127.631 215.785 126.2C214.955 125.006 214.084 124.074 213.172 123.404C212.261 122.734 211.287 122.302 210.253 122.11L210.252 122.112Z" fill="#076AAB"/>
<path d="M210.252 122.112C209.218 121.919 208.099 121.95 206.897 122.203L206.151 122.358C205.682 122.438 205.291 122.473 204.976 122.464C204.662 122.454 204.387 122.387 204.152 122.261C203.917 122.134 203.706 121.935 203.517 121.665C203.267 121.305 203.113 120.928 203.055 120.534C202.997 120.141 203.036 119.766 203.17 119.41C203.303 119.056 203.52 118.756 203.821 118.513C204.256 118.16 204.79 117.977 205.425 117.965C206.059 117.953 206.816 118.102 207.693 118.412L206.43 112.749C205.14 112.28 203.954 112.083 202.875 112.156C202.155 112.205 201.507 112.377 200.93 112.669L198.989 109.876L196.961 111.52L199.02 114.482C198.758 114.941 198.563 115.455 198.441 116.028C198.187 117.222 198.241 118.529 198.605 119.951C198.969 121.374 199.625 122.768 200.573 124.13C201.756 125.831 203.068 127.023 204.511 127.703C204.681 127.783 204.853 127.855 205.025 127.921L211.664 122.539C211.206 122.344 210.737 122.199 210.253 122.11L210.252 122.112Z" fill="#399BDB"/>
<path d="M219.275 116.367C210.782 104.149 198.744 98.3318 191.988 103.023C192.147 102.873 192.311 102.727 192.481 102.589C199.123 97.2039 211.574 103.004 220.29 115.543C229.008 128.082 230.689 142.612 224.047 147.996C223.877 148.134 223.702 148.263 223.524 148.386C229.581 142.69 227.768 128.583 219.274 116.365L219.275 116.367Z" fill="#004877"/>
</g>
<defs>
<radialGradient id="paint0_radial_5257_1492" cx="0" cy="0" r="1" gradientUnits="userSpaceOnUse" gradientTransform="translate(164 74) rotate(90) scale(74 164)">
<stop stop-color="white"/>
<stop offset="0.5" stop-color="#F4FBFF"/>
<stop offset="1" stop-color="#EDF8FF"/>
</radialGradient>
<clipPath id="clip0_5257_1492">
<rect width="328" height="148" rx="74" fill="white"/>
</clipPath>
</defs>
</svg>
