<svg width="328" height="148" viewBox="0 0 328 148" fill="none" xmlns="http://www.w3.org/2000/svg">
<rect width="328" height="148" rx="74" fill="url(#paint0_radial_5522_821)"/>
<path d="M162.443 115.991C185.331 115.991 203.886 97.4362 203.886 74.548C203.886 51.6598 185.331 33.1052 162.443 33.1052C139.555 33.1052 121 51.6598 121 74.548C121 97.4362 139.555 115.991 162.443 115.991Z" fill="#005A96"/>
<path d="M164.654 114.886C187.542 114.886 206.096 96.331 206.096 73.4428C206.096 50.5546 187.542 32 164.654 32C141.765 32 123.211 50.5546 123.211 73.4428C123.211 96.331 141.765 114.886 164.654 114.886Z" fill="#076AAB"/>
<path d="M164.653 107.978C183.726 107.978 199.188 92.5164 199.188 73.4429C199.188 54.3694 183.726 38.9072 164.653 38.9072C145.579 38.9072 130.117 54.3694 130.117 73.4429C130.117 92.5164 145.579 107.978 164.653 107.978Z" fill="#88D1FF"/>
<path d="M164.654 101.071C179.913 101.071 192.282 88.7016 192.282 73.4428C192.282 58.184 179.913 45.8143 164.654 45.8143C149.395 45.8143 137.025 58.184 137.025 73.4428C137.025 88.7016 149.395 101.071 164.654 101.071Z" fill="#076AAB"/>
<path d="M164.653 94.1642C176.097 94.1642 185.374 84.8869 185.374 73.4428C185.374 61.9987 176.097 52.7214 164.653 52.7214C153.209 52.7214 143.932 61.9987 143.932 73.4428C143.932 84.8869 153.209 94.1642 164.653 94.1642Z" fill="#88D1FF"/>
<path d="M164.652 87.257C172.282 87.257 178.466 81.0722 178.466 73.4428C178.466 65.8134 172.282 59.6285 164.652 59.6285C157.023 59.6285 150.838 65.8134 150.838 73.4428C150.838 81.0722 157.023 87.257 164.652 87.257Z" fill="#076AAB"/>
<path d="M164.653 80.3499C168.468 80.3499 171.56 77.2575 171.56 73.4428C171.56 69.6281 168.468 66.5356 164.653 66.5356C160.839 66.5356 157.746 69.6281 157.746 73.4428C157.746 77.2575 160.839 80.3499 164.653 80.3499Z" fill="#88D1FF"/>
<path d="M95.9961 43.3448L56.793 104.499L58.6461 105.687L97.8492 44.5328L95.9961 43.3448Z" fill="#076AAB"/>
<path d="M58.3748 93.135L51 104.64L56.779 104.504L64.1542 92.9991L58.3748 93.135Z" fill="#88D1FF"/>
<path d="M68.2974 99.4952L60.9225 111L58.6328 105.692L66.0077 94.1873L68.2974 99.4952Z" fill="#88D1FF"/>
<path d="M91.6875 42.6689L100.719 38L100.247 48.1559L91.6875 42.6689Z" fill="#076AAB"/>
<defs>
<radialGradient id="paint0_radial_5522_821" cx="0" cy="0" r="1" gradientUnits="userSpaceOnUse" gradientTransform="translate(164 74) rotate(90) scale(74 164)">
<stop stop-color="white"/>
<stop offset="0.5" stop-color="#F4FBFF"/>
<stop offset="1" stop-color="#EDF8FF"/>
</radialGradient>
</defs>
</svg>
