<svg width="328" height="148" viewBox="0 0 328 148" fill="none" xmlns="http://www.w3.org/2000/svg">
<g clip-path="url(#clip0_5522_844)">
<rect width="328" height="148" rx="74" fill="url(#paint0_radial_5522_844)"/>
<path d="M110.1 213.527C110.302 213.527 110.507 213.52 110.713 213.508C116.421 213.174 120.779 208.274 120.446 202.566C119.939 193.957 119.71 186.118 119.71 178.98C119.667 147.638 124.235 130.031 128.725 120.841V314.997C128.725 323.837 135.892 330.999 144.727 330.999C153.565 330.999 160.732 323.837 160.732 314.997V198.153H166.731V314.997C166.731 323.837 173.898 330.999 182.733 330.999C191.571 330.999 198.738 323.837 198.738 314.997V120.896C199.504 122.47 200.277 124.275 201.041 126.383C204.691 136.493 207.76 153.085 207.747 178.983C207.747 186.12 207.518 193.961 207.017 202.57C206.683 208.278 211.042 213.176 216.752 213.51C216.956 213.521 217.158 213.528 217.361 213.528C222.804 213.528 227.372 209.281 227.693 203.776C228.213 194.804 228.459 186.562 228.459 178.983C228.406 139.916 222.167 118.293 213.658 105.292C209.406 98.8373 204.431 94.6992 199.836 92.4056C195.425 90.1832 191.549 89.6784 189.214 89.6447C189.054 89.6369 188.897 89.6201 188.735 89.6201H138.728C138.556 89.6201 138.386 89.6369 138.216 89.646C135.878 89.6784 132.015 90.1896 127.622 92.4056C120.657 95.8563 113.155 103.409 107.901 116.791C102.588 130.228 99.0168 149.652 99 178.98C99 186.56 99.2433 194.802 99.7714 203.776C100.092 209.278 104.655 213.527 110.1 213.527Z" fill="#076AAB"/>
<path d="M163.731 24C147.644 24 134.607 37.0381 134.607 53.1244C134.607 69.2107 147.644 82.2449 163.731 82.2449C179.818 82.2449 192.854 69.2107 192.854 53.1244C192.854 37.0381 179.817 24 163.731 24ZM163.731 76.0203C151.085 76.0203 140.835 65.769 140.835 53.1244C140.835 40.4811 151.086 30.231 163.731 30.231C176.375 30.231 186.625 40.4811 186.625 53.1244C186.624 65.7703 176.374 76.0203 163.731 76.0203Z" fill="#076AAB"/>
<path d="M173.216 46.4506C173.212 41.356 169.087 37.2283 163.994 37.2231C158.899 37.2283 154.772 41.356 154.768 46.4506V51.9542H153.053V67.8076H174.41V51.9542H173.216V46.4506ZM158.655 46.4506C158.657 43.4982 161.044 41.114 163.994 41.1088C166.939 41.114 169.325 43.4982 169.328 46.4506V51.9542H158.655V46.4506Z" fill="#076AAB"/>
</g>
<defs>
<radialGradient id="paint0_radial_5522_844" cx="0" cy="0" r="1" gradientUnits="userSpaceOnUse" gradientTransform="translate(164 74) rotate(90) scale(74 164)">
<stop stop-color="white"/>
<stop offset="0.5" stop-color="#F4FBFF"/>
<stop offset="1" stop-color="#EDF8FF"/>
</radialGradient>
<clipPath id="clip0_5522_844">
<rect width="328" height="148" rx="74" fill="white"/>
</clipPath>
</defs>
</svg>
