<svg width="328" height="148" viewBox="0 0 328 148" fill="none" xmlns="http://www.w3.org/2000/svg">
<g clip-path="url(#clip0_5522_850)">
<rect width="328" height="148" rx="74" fill="url(#paint0_radial_5522_850)"/>
<rect x="82" y="56" width="165" height="40" rx="20" fill="#076AAB"/>
<path d="M225 114L197 96H214.111L225 114Z" fill="#076AAB"/>
<path d="M112.5 65L115.215 73.4033H124L116.893 78.5967L119.607 87L112.5 81.8065L105.393 87L108.107 78.5967L101 73.4033H109.785L112.5 65Z" fill="#88D1FF"/>
<path d="M137.5 65L140.215 73.4033H149L141.893 78.5967L144.607 87L137.5 81.8065L130.393 87L133.107 78.5967L126 73.4033H134.785L137.5 65Z" fill="#2A8FD2"/>
<path d="M162.5 65L165.215 73.4033H174L166.893 78.5967L169.607 87L162.5 81.8065L155.393 87L158.107 78.5967L151 73.4033H159.785L162.5 65Z" fill="#2A8FD2"/>
<path d="M187.5 65L190.215 73.4033H199L191.893 78.5967L194.607 87L187.5 81.8065L180.393 87L183.107 78.5967L176 73.4033H184.785L187.5 65Z" fill="#2A8FD2"/>
<path d="M212.5 65L215.215 73.4033H224L216.893 78.5967L219.607 87L212.5 81.8065L205.393 87L208.107 78.5967L201 73.4033H209.785L212.5 65Z" fill="#2A8FD2"/>
<path d="M278.359 51.5031C294.021 51.5031 306.717 38.8545 306.717 23.2516C306.717 7.64865 294.021 -5 278.359 -5C262.697 -5 250 7.64865 250 23.2516C250 38.8545 262.697 51.5031 278.359 51.5031Z" fill="#88D1FF"/>
<path d="M272.021 16.5536C271.597 20.4909 269.341 23.4817 266.981 23.2335C264.621 22.9852 263.053 19.5923 263.478 15.6541C263.902 11.7169 266.158 8.72602 268.518 8.97431C270.877 9.22209 272.445 12.6159 272.021 16.5536Z" fill="#076AAB"/>
<path d="M293.498 18.8133C293.074 22.7506 290.817 25.741 288.458 25.4932C286.099 25.2454 284.53 21.8511 284.954 17.9139C285.379 13.9766 287.634 10.9857 289.994 11.234C292.353 11.4827 293.923 14.8761 293.498 18.8133Z" fill="#076AAB"/>
<path d="M289.372 41.8679C289.451 35.4991 285.165 29.9418 279.242 28.4895C272.783 26.9047 265.865 30.5674 263.445 37.1138C264.012 36.5586 269.447 31.415 277.297 32.6774C285.58 34.0078 289.095 41.2707 289.372 41.8679Z" fill="#076AAB"/>
</g>
<defs>
<radialGradient id="paint0_radial_5522_850" cx="0" cy="0" r="1" gradientUnits="userSpaceOnUse" gradientTransform="translate(164 74) rotate(90) scale(74 164)">
<stop stop-color="white"/>
<stop offset="0.5" stop-color="#F4FBFF"/>
<stop offset="1" stop-color="#EDF8FF"/>
</radialGradient>
<clipPath id="clip0_5522_850">
<rect width="328" height="148" rx="74" fill="white"/>
</clipPath>
</defs>
</svg>
