<svg width="328" height="148" viewBox="0 0 328 148" fill="none" xmlns="http://www.w3.org/2000/svg">
<g clip-path="url(#clip0_5583_1642)">
<rect width="328" height="148" rx="74" fill="url(#paint0_radial_5583_1642)"/>
<rect x="116" y="73" width="95" height="81" rx="4" fill="#076AAB"/>
<rect x="128" y="86" width="71" height="10" rx="5" fill="white"/>
<rect opacity="0.1" x="128" y="133" width="36" height="4" rx="2" fill="white"/>
<rect opacity="0.1" x="128" y="125" width="71" height="4" rx="2" fill="white"/>
<rect opacity="0.2" x="128" y="103" width="41" height="10" rx="5" fill="white"/>
<rect x="121.559" y="21.252" width="84.3182" height="42" rx="21" fill="#88D1FF"/>
<rect x="121.559" y="21.252" width="42.1591" height="42" rx="21" fill="#88D1FF"/>
<path d="M133.266 42.7151V49.219C133.266 50.2948 134.141 51.1702 135.217 51.1702H137.168V40.7639H135.217C134.141 40.7639 133.266 41.6393 133.266 42.7151ZM150.919 40.5232C150.678 40.1929 150.363 39.9244 149.998 39.7401C149.634 39.5558 149.23 39.4608 148.822 39.4631H144.356L144.96 36.4452C145.044 36.0224 145.034 35.5861 144.93 35.1677C144.825 34.7493 144.63 34.3593 144.356 34.0258C144.084 33.6917 143.74 33.4226 143.35 33.2381C142.96 33.0536 142.534 32.9583 142.103 32.9591C141.526 32.9591 141.012 33.3467 140.866 33.8606L140.263 35.5334C139.791 36.837 139.191 38.0902 138.47 39.2745V51.1702H146.791C147.346 51.1722 147.887 50.9958 148.334 50.667C148.781 50.3381 149.111 49.8743 149.274 49.3439L151.306 42.8399C151.43 42.4507 151.459 42.0376 151.392 41.6348C151.325 41.232 151.162 40.851 150.919 40.5232Z" fill="#076AAB"/>
<rect x="163.717" y="21.252" width="42.1591" height="42" rx="21" fill="#88D1FF"/>
<path d="M193.635 41.4143L193.635 34.9104C193.635 33.8346 192.759 32.9592 191.684 32.9592L189.732 32.9592L189.732 43.3655L191.684 43.3655C192.759 43.3655 193.635 42.4901 193.635 41.4143ZM175.982 43.6062C176.222 43.9365 176.538 44.205 176.902 44.3893C177.267 44.5736 177.67 44.6686 178.079 44.6663L182.544 44.6663L181.941 47.6842C181.856 48.107 181.866 48.5433 181.971 48.9617C182.075 49.3801 182.271 49.7701 182.544 50.1036C182.817 50.4377 183.161 50.7068 183.55 50.8913C183.94 51.0758 184.366 51.1711 184.797 51.1703C185.375 51.1703 185.889 50.7826 186.034 50.2688L186.638 48.596C187.109 47.2924 187.71 46.0392 188.43 44.8549L188.43 32.9592L180.109 32.9592C179.554 32.9572 179.013 33.1336 178.566 33.4624C178.119 33.7913 177.789 34.2551 177.626 34.7855L175.594 41.2895C175.47 41.6787 175.441 42.0918 175.508 42.4946C175.576 42.8974 175.738 43.2784 175.982 43.6062Z" fill="#076AAB"/>
</g>
<defs>
<radialGradient id="paint0_radial_5583_1642" cx="0" cy="0" r="1" gradientUnits="userSpaceOnUse" gradientTransform="translate(164 74) rotate(90) scale(74 164)">
<stop stop-color="white"/>
<stop offset="0.5" stop-color="#F4FBFF"/>
<stop offset="1" stop-color="#EDF8FF"/>
</radialGradient>
<clipPath id="clip0_5583_1642">
<rect width="328" height="148" rx="74" fill="white"/>
</clipPath>
</defs>
</svg>
