<svg width="328" height="148" viewBox="0 0 328 148" fill="none" xmlns="http://www.w3.org/2000/svg">
<g clip-path="url(#clip0_5522_797)">
<rect width="328" height="148" rx="74" fill="url(#paint0_radial_5522_797)"/>
<path d="M158.564 216.684C158.564 216.684 159.202 30.0899 158.564 16.7004C158.564 16.7004 168.766 12.8746 175.78 16.7004C175.78 16.7004 168.129 199.879 167.172 216.684C167.172 216.684 164.941 219.645 158.564 216.684Z" fill="#88D1FF"/>
<path d="M174.528 46.5518C174.528 46.5518 163.979 49.5468 158.152 53.9646L158.729 34.751C158.729 34.751 171.826 35.581 174.528 46.5518Z" fill="#004877"/>
<path d="M158.152 78.6507C158.152 78.6507 168.727 81.1152 172.878 85.7469L173.435 76.4997C173.435 76.4997 163.506 74.3974 158.152 78.6507Z" fill="#004877"/>
<path d="M157.086 112.295C157.086 112.295 168.756 115.114 171.452 119.408L173.436 105.119C173.436 105.119 160.897 108.952 157.086 112.295Z" fill="#004877"/>
<path d="M220.92 51.6191L117.404 40.3893L106.254 28.9918L104.969 26.4994L119.589 20.25L221.819 28.9877L223.105 31.4798L213.888 40.0948L219.634 49.1271L220.92 51.6191Z" fill="#005A96"/>
<path d="M219.634 49.1271L116.119 37.8973L104.969 26.4993L118.304 17.7579L221.819 28.9877L212.603 37.6027L219.634 49.1271Z" fill="#076AAB"/>
<path d="M105.533 59.4993L104.288 57.6696L211.468 61.073L222.608 69.1331L223.852 70.9628L211.18 80.4804L105.244 78.9067L104 77.0766L113.757 69.8734L105.533 59.4993Z" fill="#005A96"/>
<path d="M104.288 57.6696L210.224 59.2432L222.608 69.133L209.935 78.6507L104 77.0766L112.513 68.0436L104.288 57.6696Z" fill="#076AAB"/>
<path d="M202.797 100.861L131.632 121.238L121.141 116.405L119.896 114.575L127.484 106.751L197.405 84.5443L198.649 86.3741L194.979 94.8213L201.553 99.031L202.797 100.861Z" fill="#005A96"/>
<path d="M201.553 99.031L130.387 119.408L119.896 114.575L126.239 104.921L197.405 84.5443L193.735 92.9916L201.553 99.031Z" fill="#076AAB"/>
</g>
<defs>
<radialGradient id="paint0_radial_5522_797" cx="0" cy="0" r="1" gradientUnits="userSpaceOnUse" gradientTransform="translate(164 74) rotate(90) scale(74 164)">
<stop stop-color="white"/>
<stop offset="0.5" stop-color="#F4FBFF"/>
<stop offset="1" stop-color="#EDF8FF"/>
</radialGradient>
<clipPath id="clip0_5522_797">
<rect width="328" height="148" rx="74" fill="white"/>
</clipPath>
</defs>
</svg>
