<svg width="328" height="148" viewBox="0 0 328 148" fill="none" xmlns="http://www.w3.org/2000/svg">
<rect width="328" height="148" rx="74" fill="url(#paint0_radial_5522_837)"/>
<path d="M162.771 77L156 70.2288L157.229 69L164 75.7711L170.771 69L172 70.2288L165.229 77L172 83.7711L170.771 85L164 78.2288L157.229 85L156 83.7711L162.771 77Z" fill="white"/>
<path d="M213.984 107.897C213.987 110.082 212.211 111.856 210.017 111.86L120.202 112C117.38 112.004 115.09 109.73 115.086 106.922L115 52H213.896L213.984 107.897Z" fill="#076AAB"/>
<path d="M135.973 37C137.562 36.997 139.114 37.5774 140.423 38.6602L144.059 41.6699C145.369 42.7546 147.02 43.3476 148.724 43.3447L209.928 43.25C212.122 43.247 213.904 45.0156 213.907 47.2002L213.912 50H115.016L115 39.9795C114.997 38.3519 116.32 37.0315 117.955 37.0283L135.973 37Z" fill="#88D1FF"/>
<path d="M163.771 81L157 74.2288L158.229 73L165 79.7711L171.771 73L173 74.2288L166.229 81L173 87.7711L171.771 89L165 82.2288L158.229 89L157 87.7711L163.771 81Z" fill="white"/>
<defs>
<radialGradient id="paint0_radial_5522_837" cx="0" cy="0" r="1" gradientUnits="userSpaceOnUse" gradientTransform="translate(164 74) rotate(90) scale(74 164)">
<stop stop-color="white"/>
<stop offset="0.5" stop-color="#F4FBFF"/>
<stop offset="1" stop-color="#EDF8FF"/>
</radialGradient>
</defs>
</svg>
