<svg width="328" height="148" viewBox="0 0 328 148" fill="none" xmlns="http://www.w3.org/2000/svg">
<g clip-path="url(#clip0_5583_1736)">
<rect width="328" height="148" rx="74" fill="url(#paint0_radial_5583_1736)"/>
<g opacity="0.5">
<path d="M83.3625 168.559C83.4601 168.559 83.5589 168.556 83.6583 168.55C86.4158 168.389 88.5212 166.022 88.3605 163.264C88.1154 159.105 88.0047 155.318 88.0047 151.87C87.9841 136.729 90.1908 128.223 92.3599 123.783V217.578C92.3599 221.849 95.8222 225.309 100.09 225.309C104.36 225.309 107.822 221.849 107.822 217.578V161.132H110.72V217.578C110.72 221.849 114.183 225.309 118.451 225.309C122.72 225.309 126.183 221.849 126.183 217.578V123.81C126.553 124.57 126.926 125.442 127.295 126.46C129.058 131.345 130.541 139.36 130.535 151.871C130.535 155.319 130.424 159.107 130.182 163.266C130.021 166.023 132.127 168.39 134.885 168.551C134.984 168.556 135.081 168.56 135.18 168.56C137.809 168.56 140.016 166.508 140.171 163.849C140.422 159.514 140.541 155.533 140.541 151.871C140.515 132.998 137.501 122.552 133.391 116.272C131.336 113.153 128.933 111.154 126.713 110.046C124.582 108.973 122.71 108.729 121.582 108.713C121.504 108.709 121.429 108.701 121.35 108.701H97.1922C97.109 108.701 97.0271 108.709 96.9452 108.713C95.8153 108.729 93.9494 108.976 91.8272 110.046C88.4624 111.713 84.8382 115.362 82.3002 121.827C79.7333 128.318 78.0081 137.702 78 151.87C78 155.532 78.1176 159.513 78.3727 163.849C78.5277 166.507 80.7319 168.559 83.3625 168.559Z" fill="#88D1FF"/>
<path d="M109.268 77C101.497 77 95.1992 83.2986 95.1992 91.0698C95.1992 98.8409 101.497 105.138 109.268 105.138C117.04 105.138 123.338 98.8409 123.338 91.0698C123.338 83.2986 117.04 77 109.268 77ZM109.268 102.131C103.159 102.131 98.2075 97.1783 98.2075 91.0698C98.2075 84.9619 103.16 80.0102 109.268 80.0102C115.377 80.0102 120.329 84.9619 120.329 91.0698C120.328 97.1789 115.376 102.131 109.268 102.131Z" fill="#88D1FF"/>
</g>
<g opacity="0.5">
<path d="M192.363 168.559C192.46 168.559 192.559 168.556 192.658 168.55C195.416 168.389 197.521 166.022 197.361 163.264C197.115 159.105 197.005 155.318 197.005 151.87C196.984 136.729 199.191 128.223 201.36 123.783V217.578C201.36 221.849 204.822 225.309 209.09 225.309C213.36 225.309 216.822 221.849 216.822 217.578V161.132H219.72V217.578C219.72 221.849 223.183 225.309 227.451 225.309C231.72 225.309 235.183 221.849 235.183 217.578V123.81C235.553 124.57 235.926 125.442 236.295 126.46C238.058 131.345 239.541 139.36 239.535 151.871C239.535 155.319 239.424 159.107 239.182 163.266C239.021 166.023 241.127 168.39 243.885 168.551C243.984 168.556 244.081 168.56 244.18 168.56C246.809 168.56 249.016 166.508 249.171 163.849C249.422 159.514 249.541 155.533 249.541 151.871C249.515 132.998 246.501 122.552 242.391 116.272C240.336 113.153 237.933 111.154 235.713 110.046C233.582 108.973 231.71 108.729 230.582 108.713C230.504 108.709 230.429 108.701 230.35 108.701H206.192C206.109 108.701 206.027 108.709 205.945 108.713C204.815 108.729 202.949 108.976 200.827 110.046C197.462 111.713 193.838 115.362 191.3 121.827C188.733 128.318 187.008 137.702 187 151.87C187 155.532 187.118 159.513 187.373 163.849C187.528 166.507 189.732 168.559 192.363 168.559Z" fill="#88D1FF"/>
<path d="M218.268 77C210.497 77 204.199 83.2986 204.199 91.0698C204.199 98.8409 210.497 105.138 218.268 105.138C226.04 105.138 232.338 98.8409 232.338 91.0698C232.338 83.2986 226.04 77 218.268 77ZM218.268 102.131C212.159 102.131 207.208 97.1783 207.208 91.0698C207.208 84.9619 212.16 80.0102 218.268 80.0102C224.377 80.0102 229.329 84.9619 229.329 91.0698C229.328 97.1789 224.376 102.131 218.268 102.131Z" fill="#88D1FF"/>
</g>
<circle cx="163.27" cy="82.0688" r="16" fill="#88D1FF"/>
<path d="M162.041 82.0689L155.27 75.2976L156.498 74.0688L163.27 80.84L170.041 74.0688L171.27 75.2976L164.498 82.0689L171.27 88.84L170.041 90.0688L163.27 83.2977L156.498 90.0688L155.27 88.84L162.041 82.0689Z" fill="#076AAB"/>
<path d="M137.363 159.559C137.46 159.559 137.559 159.556 137.658 159.55C140.416 159.389 142.521 157.022 142.361 154.264C142.115 150.105 142.005 146.318 142.005 142.87C141.984 127.729 144.191 119.223 146.36 114.783V208.578C146.36 212.849 149.822 216.309 154.09 216.309C158.36 216.309 161.822 212.849 161.822 208.578V152.132H164.72V208.578C164.72 212.849 168.183 216.309 172.451 216.309C176.72 216.309 180.183 212.849 180.183 208.578V114.81C180.553 115.57 180.926 116.442 181.295 117.46C183.058 122.345 184.541 130.36 184.535 142.871C184.535 146.319 184.424 150.107 184.182 154.266C184.021 157.023 186.127 159.39 188.885 159.551C188.984 159.556 189.081 159.56 189.18 159.56C191.809 159.56 194.016 157.508 194.171 154.849C194.422 150.514 194.541 146.533 194.541 142.871C194.515 123.998 191.501 113.552 187.391 107.272C185.336 104.153 182.933 102.154 180.713 101.046C178.582 99.9727 176.71 99.7288 175.582 99.7126C175.504 99.7088 175.429 99.7007 175.35 99.7007H151.192C151.109 99.7007 151.027 99.7088 150.945 99.7132C149.815 99.7288 147.949 99.9758 145.827 101.046C142.462 102.713 138.838 106.362 136.3 112.827C133.733 119.318 132.008 128.702 132 142.87C132 146.532 132.118 150.513 132.373 154.849C132.528 157.507 134.732 159.559 137.363 159.559Z" fill="#076AAB"/>
<rect x="113" y="15" width="103" height="24" rx="12" fill="#076AAB"/>
<path d="M206.707 27.7071C207.098 27.3166 207.098 26.6834 206.707 26.2929L200.343 19.9289C199.953 19.5384 199.319 19.5384 198.929 19.9289C198.538 20.3195 198.538 20.9526 198.929 21.3431L204.586 27L198.929 32.6569C198.538 33.0474 198.538 33.6805 198.929 34.0711C199.319 34.4616 199.953 34.4616 200.343 34.0711L206.707 27.7071ZM193 27V28H206V27V26H193V27Z" fill="white"/>
<path d="M134.768 20H137.056V32H134.768V20ZM137.056 27.616L136.8 25.776C136.8 25.4987 136.837 25.1893 136.912 24.848C136.997 24.5067 137.147 24.1813 137.36 23.872C137.584 23.552 137.899 23.2907 138.304 23.088C138.709 22.8853 139.237 22.784 139.888 22.784C140.464 22.784 140.976 22.9013 141.424 23.136C141.872 23.3707 142.224 23.76 142.48 24.304C142.736 24.8373 142.864 25.5627 142.864 26.48V32H140.576V26.688C140.576 26.336 140.549 26.016 140.496 25.728C140.443 25.4293 140.32 25.1947 140.128 25.024C139.947 24.8533 139.653 24.768 139.248 24.768C138.928 24.768 138.597 24.8587 138.256 25.04C137.915 25.2213 137.627 25.52 137.392 25.936C137.168 26.3413 137.056 26.9013 137.056 27.616ZM143.82 23.04H148.54V24.992H143.82V23.04ZM144.844 20.8H147.132V29.248C147.132 29.5147 147.202 29.7173 147.34 29.856C147.49 29.984 147.708 30.048 147.996 30.048H148.796V32H147.98C146.935 32 146.151 31.7707 145.628 31.312C145.106 30.8533 144.844 30.1653 144.844 29.248V20.8ZM149.617 23.04H154.337V24.992H149.617V23.04ZM150.641 20.8H152.929V29.248C152.929 29.5147 152.999 29.7173 153.137 29.856C153.287 29.984 153.505 30.048 153.793 30.048H154.593V32H153.777C152.732 32 151.948 31.7707 151.425 31.312C150.903 30.8533 150.641 30.1653 150.641 29.248V20.8ZM160.694 32.256C160.075 32.256 159.558 32.1493 159.142 31.936C158.726 31.712 158.39 31.408 158.134 31.024V24.048C158.411 23.6427 158.758 23.3333 159.174 23.12C159.59 22.896 160.097 22.784 160.694 22.784C161.547 22.784 162.273 22.9867 162.87 23.392C163.467 23.7973 163.926 24.3573 164.246 25.072C164.566 25.7867 164.726 26.608 164.726 27.536C164.726 28.4533 164.566 29.2693 164.246 29.984C163.926 30.6987 163.467 31.2587 162.87 31.664C162.273 32.0587 161.547 32.256 160.694 32.256ZM155.846 35.2V23.04H158.134V35.2H155.846ZM160.294 30.208C160.763 30.208 161.153 30.0907 161.462 29.856C161.771 29.6107 162.001 29.2853 162.15 28.88C162.31 28.4747 162.39 28.0267 162.39 27.536C162.39 27.0347 162.31 26.5813 162.15 26.176C162.001 25.76 161.771 25.4347 161.462 25.2C161.153 24.9547 160.763 24.832 160.294 24.832C159.803 24.832 159.398 24.9547 159.078 25.2C158.758 25.4347 158.518 25.76 158.358 26.176C158.209 26.5813 158.134 27.0347 158.134 27.536C158.134 28.0267 158.209 28.4747 158.358 28.88C158.518 29.2853 158.758 29.6107 159.078 29.856C159.398 30.0907 159.803 30.208 160.294 30.208ZM167.97 29.168C168.023 29.5947 168.21 29.8933 168.53 30.064C168.85 30.224 169.218 30.304 169.634 30.304C170.039 30.304 170.375 30.2347 170.642 30.096C170.908 29.9467 171.042 29.7067 171.042 29.376C171.042 29.1627 170.946 29.0027 170.754 28.896C170.562 28.7787 170.311 28.688 170.002 28.624C169.692 28.5493 169.351 28.48 168.978 28.416C168.604 28.352 168.226 28.2667 167.842 28.16C167.468 28.0533 167.127 27.904 166.818 27.712C166.508 27.52 166.258 27.2587 166.066 26.928C165.874 26.5973 165.778 26.176 165.778 25.664C165.778 25.184 165.932 24.7253 166.242 24.288C166.562 23.84 167.004 23.4773 167.57 23.2C168.135 22.9227 168.78 22.784 169.506 22.784C170.156 22.784 170.759 22.9173 171.314 23.184C171.868 23.44 172.316 23.7973 172.658 24.256C172.999 24.7147 173.17 25.248 173.17 25.856H170.882C170.839 25.4293 170.679 25.136 170.402 24.976C170.135 24.816 169.815 24.736 169.442 24.736C168.983 24.736 168.636 24.8267 168.402 25.008C168.167 25.1787 168.05 25.3973 168.05 25.664C168.05 25.8987 168.146 26.08 168.338 26.208C168.53 26.336 168.78 26.4373 169.09 26.512C169.399 26.5867 169.74 26.656 170.114 26.72C170.498 26.7733 170.876 26.8533 171.25 26.96C171.623 27.056 171.964 27.2 172.274 27.392C172.583 27.5733 172.834 27.824 173.026 28.144C173.218 28.464 173.314 28.8747 173.314 29.376C173.314 29.9413 173.154 30.4427 172.834 30.88C172.524 31.3067 172.087 31.6427 171.522 31.888C170.967 32.1333 170.311 32.256 169.554 32.256C168.85 32.256 168.204 32.1227 167.618 31.856C167.042 31.5787 166.578 31.2107 166.226 30.752C165.874 30.2827 165.687 29.7547 165.666 29.168H167.97ZM174.201 29.552H176.649V32H174.201V29.552ZM174.201 23.04H176.649V25.488H174.201V23.04ZM180.723 20.8H182.995L179.795 32H177.523L180.723 20.8ZM185.317 20.8H187.589L184.389 32H182.117L185.317 20.8Z" fill="white"/>
</g>
<defs>
<radialGradient id="paint0_radial_5583_1736" cx="0" cy="0" r="1" gradientUnits="userSpaceOnUse" gradientTransform="translate(164 74) rotate(90) scale(74 164)">
<stop stop-color="white"/>
<stop offset="0.5" stop-color="#F4FBFF"/>
<stop offset="1" stop-color="#EDF8FF"/>
</radialGradient>
<clipPath id="clip0_5583_1736">
<rect width="328" height="148" rx="74" fill="white"/>
</clipPath>
</defs>
</svg>
