<svg width="328" height="148" viewBox="0 0 328 148" fill="none" xmlns="http://www.w3.org/2000/svg">
<g clip-path="url(#clip0_5583_4116)">
<rect width="328" height="148" rx="74" fill="url(#paint0_radial_5583_4116)"/>
<rect x="54" y="48" width="167" height="52" rx="4" fill="#076AAB"/>
<rect x="115" y="61" width="79" height="10" rx="4" fill="#88D1FF"/>
<rect opacity="0.5" x="115" y="76" width="37" height="10" rx="4" fill="#88D1FF"/>
<path d="M104.665 64.5966L92.9987 60.5133L81.332 64.5966V74C81.332 78.8148 84.2884 82.1806 87.044 84.2701C88.7078 85.519 90.5326 86.5374 92.469 87.2976C92.6013 87.3474 92.7343 87.3949 92.868 87.44L92.9987 87.4866L93.1317 87.44C93.3868 87.3514 93.6396 87.2564 93.89 87.1553C95.6934 86.4123 97.3948 85.4428 98.9534 84.2701C101.71 82.1806 104.665 78.8148 104.665 74V64.5966ZM91.8332 77.9841L86.8854 73.034L88.535 71.3831L91.8344 74.6836L98.4342 68.0838L100.085 69.7335L91.8332 77.9841Z" fill="white"/>
<rect x="232" y="48" width="167" height="52" rx="4" fill="#88D1FF"/>
<rect x="284" y="61" width="79" height="10" rx="4" fill="white"/>
<rect opacity="0.5" x="284" y="76" width="37" height="10" rx="4" fill="white"/>
<path d="M273.665 67.4346C273.665 65.7348 272.591 64.2207 270.987 63.6591L263.32 60.9758C262.465 60.6764 261.533 60.6764 260.677 60.9758L253.011 63.6591C251.406 64.2207 250.332 65.7348 250.332 67.4346V74C250.332 78.8148 253.288 82.1806 256.044 84.2701C257.708 85.519 259.533 86.5374 261.469 87.2976C261.601 87.3474 261.734 87.3949 261.868 87.44C261.953 87.4702 262.045 87.4704 262.13 87.4407L262.132 87.44C262.387 87.3514 262.64 87.2564 262.89 87.1553C264.693 86.4123 266.395 85.4428 267.953 84.2701C270.71 82.1806 273.665 78.8148 273.665 74V67.4346ZM263.309 75.5089C261.942 76.8759 259.725 76.8755 258.358 75.5081L256.71 73.8588C256.254 73.4032 256.254 72.6647 256.71 72.209C257.165 71.753 257.905 71.7529 258.36 72.2089L259.185 73.0337C260.096 73.9449 261.573 73.945 262.484 73.034L266.609 68.9086C267.065 68.453 267.804 68.4529 268.259 68.9083C268.715 69.364 268.715 70.1031 268.26 70.5589L263.309 75.5089Z" fill="white"/>
</g>
<defs>
<radialGradient id="paint0_radial_5583_4116" cx="0" cy="0" r="1" gradientUnits="userSpaceOnUse" gradientTransform="translate(164 74) rotate(90) scale(74 164)">
<stop stop-color="white"/>
<stop offset="0.5" stop-color="#F4FBFF"/>
<stop offset="1" stop-color="#EDF8FF"/>
</radialGradient>
<clipPath id="clip0_5583_4116">
<rect width="328" height="148" rx="74" fill="white"/>
</clipPath>
</defs>
</svg>
