<svg width="328" height="148" viewBox="0 0 328 148" fill="none" xmlns="http://www.w3.org/2000/svg">
<g clip-path="url(#clip0_5583_1780)">
<rect width="328" height="148" rx="74" fill="url(#paint0_radial_5583_1780)"/>
<path d="M223.025 92.955C224.176 95.0387 258.487 111.569 260.922 110.635C263.169 109.774 256.036 102.125 256.529 101.961C257.022 101.796 366.339 102.456 366.339 101.307V95.0806C366.339 89.8957 366.339 83.3892 366.339 83.3892C366.339 83.3892 255.664 85.7113 256.816 84.9217C257.966 84.1321 264.089 77.678 262.333 77.0217C260.699 76.4112 227.089 88.9232 223.339 92.3481C223.059 92.604 222.945 92.8099 223.025 92.955Z" fill="#88D1FF"/>
<path d="M123.422 53.9211C122.129 56.2617 83.5901 74.8296 80.8541 73.7803C78.331 72.8132 86.343 64.2209 85.7886 64.0365C85.2347 63.852 -26 65.5998 -26 64.3092V57.3157C-26 51.4917 -26 44.1834 -26 44.1834C-26 44.1834 86.7601 45.7847 85.4671 44.8978C84.1747 44.0109 77.2971 36.7614 79.2697 36.0243C81.1045 35.3385 118.857 49.3925 123.069 53.2395C123.384 53.5268 123.512 53.758 123.422 53.9211Z" fill="#88D1FF"/>
<path d="M164.5 39C153.177 39 144 48.1778 144 59.5014C144 70.8249 153.177 80 164.5 80C175.824 80 185 70.8249 185 59.5014C185 48.1778 175.823 39 164.5 39ZM164.5 75.6184C155.598 75.6184 148.383 68.4022 148.383 59.5014C148.383 50.6014 155.599 43.3862 164.5 43.3862C173.401 43.3862 180.616 50.6014 180.616 59.5014C180.615 68.4031 173.4 75.6184 164.5 75.6184Z" fill="#076AAB"/>
<g clip-path="url(#clip1_5583_1780)">
<path d="M166.663 65.5811H162.268C162.073 65.5811 161.901 65.6548 161.755 65.801C161.608 65.9477 161.535 66.1184 161.535 66.3138V70.7095C161.535 70.9048 161.609 71.0759 161.755 71.2222C161.901 71.3684 162.072 71.442 162.268 71.442H166.663C166.858 71.442 167.03 71.3686 167.176 71.2222C167.323 71.0759 167.396 70.9048 167.396 70.7095V66.3138C167.396 66.1184 167.323 65.9477 167.176 65.801C167.03 65.6544 166.858 65.5811 166.663 65.5811Z" fill="#076AAB"/>
<path d="M172.431 52.423C171.93 51.5007 171.284 50.7227 170.49 50.0877C169.696 49.4529 168.805 48.9459 167.816 48.5676C166.827 48.1894 165.844 48 164.867 48C161.156 48 158.323 49.6239 156.369 52.8717C156.272 53.0303 156.238 53.2012 156.269 53.3844C156.299 53.5674 156.394 53.72 156.553 53.8421L159.556 56.1316C159.715 56.2291 159.868 56.2779 160.014 56.2779C160.234 56.2779 160.423 56.18 160.582 55.9847C161.461 54.886 162.114 54.184 162.542 53.8786C163.067 53.5246 163.726 53.3477 164.519 53.3477C165.264 53.3477 165.92 53.5431 166.488 53.9335C167.056 54.3243 167.339 54.7761 167.339 55.2889C167.339 55.8625 167.187 56.3266 166.882 56.6807C166.577 57.0347 166.064 57.3764 165.343 57.7062C164.391 58.1334 163.518 58.7959 162.725 59.6933C161.931 60.5908 161.534 61.5462 161.534 62.5595V63.3836C161.534 63.6158 161.598 63.8446 161.726 64.0705C161.855 64.2965 162.01 64.4094 162.193 64.4094H166.589C166.784 64.4094 166.955 64.3149 167.102 64.1251C167.248 63.9363 167.321 63.7379 167.321 63.5306C167.321 63.2255 167.489 62.816 167.825 62.3035C168.161 61.7907 168.579 61.3935 169.08 61.1126C169.555 60.8441 169.927 60.6277 170.196 60.4626C170.466 60.298 170.816 60.0319 171.25 59.6658C171.683 59.2994 172.019 58.9362 172.257 58.5761C172.495 58.216 172.709 57.7489 172.898 57.1749C173.088 56.6011 173.182 55.9845 173.182 55.3252C173.182 54.3118 172.931 53.3443 172.431 52.423Z" fill="#076AAB"/>
</g>
<path d="M138.363 141.49C138.46 141.49 138.559 141.487 138.658 141.481C141.416 141.32 143.521 138.953 143.361 136.195C143.115 132.036 143.005 128.249 143.005 124.801C142.984 109.66 145.191 101.154 147.36 96.7146V190.51C147.36 194.78 150.822 198.24 155.09 198.24C159.36 198.24 162.822 194.78 162.822 190.51V134.063H165.72V190.51C165.72 194.78 169.183 198.24 173.451 198.24C177.72 198.24 181.183 194.78 181.183 190.51V96.7408C181.553 97.5012 181.926 98.3735 182.295 99.3915C184.058 104.276 185.541 112.291 185.535 124.802C185.535 128.25 185.424 132.038 185.182 136.197C185.021 138.955 187.127 141.321 189.885 141.482C189.984 141.488 190.081 141.491 190.18 141.491C192.809 141.491 195.016 139.439 195.171 136.78C195.422 132.445 195.541 128.464 195.541 124.802C195.515 105.93 192.501 95.4834 188.391 89.2029C186.336 86.0846 183.933 84.0855 181.713 82.9775C179.582 81.9038 177.71 81.66 176.582 81.6437C176.504 81.64 176.429 81.6318 176.35 81.6318H152.192C152.109 81.6318 152.027 81.64 151.945 81.6443C150.815 81.66 148.949 81.907 146.827 82.9775C143.462 84.6445 139.838 88.2931 137.3 94.758C134.733 101.249 133.008 110.633 133 124.801C133 128.463 133.118 132.445 133.373 136.78C133.528 139.438 135.732 141.49 138.363 141.49Z" fill="#076AAB"/>
</g>
<defs>
<radialGradient id="paint0_radial_5583_1780" cx="0" cy="0" r="1" gradientUnits="userSpaceOnUse" gradientTransform="translate(164 74) rotate(90) scale(74 164)">
<stop stop-color="white"/>
<stop offset="0.5" stop-color="#F4FBFF"/>
<stop offset="1" stop-color="#EDF8FF"/>
</radialGradient>
<clipPath id="clip0_5583_1780">
<rect width="328" height="148" rx="74" fill="white"/>
</clipPath>
<clipPath id="clip1_5583_1780">
<rect width="23.4419" height="23.4419" fill="white" transform="translate(153 48)"/>
</clipPath>
</defs>
</svg>
