<svg width="328" height="148" viewBox="0 0 328 148" fill="none" xmlns="http://www.w3.org/2000/svg">
<g clip-path="url(#clip0_5583_4160)">
<rect width="328" height="148" rx="74" fill="url(#paint0_radial_5583_4160)"/>
<g opacity="0.5">
<path d="M31.8936 146.553C31.9826 146.553 32.0728 146.55 32.1635 146.545C34.6799 146.397 36.6012 144.237 36.4545 141.721C36.2309 137.925 36.1299 134.47 36.1299 131.323C36.111 117.506 38.1247 109.744 40.1042 105.692V191.285C40.1042 195.183 43.2637 198.34 47.1587 198.34C51.0549 198.34 54.2144 195.183 54.2144 191.285V139.775H56.8592V191.285C56.8592 195.183 60.0187 198.34 63.9137 198.34C67.8099 198.34 70.9694 195.183 70.9694 191.285V105.716C71.3072 106.41 71.6478 107.206 71.9845 108.135C73.5936 112.592 74.9466 119.907 74.9409 131.324C74.9409 134.47 74.8399 137.927 74.619 141.722C74.4718 144.239 76.3937 146.398 78.9106 146.545C79.0008 146.55 79.0898 146.553 79.1794 146.553C81.5788 146.553 83.5925 144.681 83.7341 142.254C83.9634 138.299 84.0719 134.665 84.0719 131.324C84.0485 114.102 81.2981 104.569 77.5469 98.8376C75.6724 95.9919 73.4789 94.1677 71.4533 93.1566C69.5086 92.1768 67.8002 91.9543 66.7708 91.9394C66.7 91.936 66.631 91.9286 66.5597 91.9286H44.5139C44.438 91.9286 44.3633 91.936 44.2885 91.94C43.2574 91.9543 41.5547 92.1797 39.618 93.1566C36.5475 94.6778 33.2403 98.0074 30.9241 103.907C28.5817 109.831 27.0074 118.394 27 131.323C27 134.664 27.1073 138.298 27.3401 142.254C27.4816 144.68 29.493 146.553 31.8936 146.553Z" fill="#88D1FF"/>
<path d="M55.5342 66C48.4426 66 42.6953 71.7478 42.6953 78.8394C42.6953 85.931 48.4426 91.6771 55.5342 91.6771C62.6264 91.6771 68.373 85.931 68.373 78.8394C68.373 71.7478 62.6258 66 55.5342 66ZM55.5342 88.9331C49.9593 88.9331 45.4405 84.4138 45.4405 78.8394C45.4405 73.2657 49.9598 68.7469 55.5342 68.7469C61.1085 68.7469 65.6272 73.2657 65.6272 78.8394C65.6267 84.4143 61.1079 88.9331 55.5342 88.9331Z" fill="#88D1FF"/>
</g>
<g opacity="0.5">
<path d="M72.8936 133.553C72.9826 133.553 73.0728 133.55 73.1635 133.545C75.6799 133.397 77.6012 131.237 77.4545 128.721C77.2309 124.925 77.1299 121.47 77.1299 118.323C77.111 104.506 79.1247 96.7438 81.1042 92.6924V178.285C81.1042 182.183 84.2637 185.34 88.1587 185.34C92.0549 185.34 95.2144 182.183 95.2144 178.285V126.775H97.8592V178.285C97.8592 182.183 101.019 185.34 104.914 185.34C108.81 185.34 111.969 182.183 111.969 178.285V92.7164C112.307 93.4103 112.648 94.2063 112.985 95.1352C114.594 99.5923 115.947 106.907 115.941 118.324C115.941 121.47 115.84 124.927 115.619 128.722C115.472 131.239 117.394 133.398 119.911 133.545C120.001 133.55 120.09 133.553 120.179 133.553C122.579 133.553 124.593 131.681 124.734 129.254C124.963 125.299 125.072 121.665 125.072 118.324C125.048 101.102 122.298 91.5689 118.547 85.8376C116.672 82.9919 114.479 81.1677 112.453 80.1566C110.509 79.1768 108.8 78.9543 107.771 78.9394C107.7 78.936 107.631 78.9286 107.56 78.9286H85.5139C85.438 78.9286 85.3633 78.936 85.2885 78.94C84.2574 78.9543 82.5547 79.1797 80.618 80.1566C77.5475 81.6778 74.2403 85.0074 71.9241 90.907C69.5817 96.8305 68.0074 105.394 68 118.323C68 121.664 68.1073 125.298 68.3401 129.254C68.4816 131.68 70.493 133.553 72.8936 133.553Z" fill="#88D1FF"/>
<path d="M96.5342 53C89.4426 53 83.6953 58.7478 83.6953 65.8394C83.6953 72.931 89.4426 78.6771 96.5342 78.6771C103.626 78.6771 109.373 72.931 109.373 65.8394C109.373 58.7478 103.626 53 96.5342 53ZM96.5342 75.9331C90.9593 75.9331 86.4405 71.4138 86.4405 65.8394C86.4405 60.2657 90.9598 55.7469 96.5342 55.7469C102.109 55.7469 106.627 60.2657 106.627 65.8394C106.627 71.4143 102.108 75.9331 96.5342 75.9331Z" fill="#88D1FF"/>
</g>
<path d="M228 42.9683L231.814 46H234.096L241 38.1176L239.859 37L232.955 44.8823L229.141 41.8507L228 42.9683Z" fill="#076AAB"/>
<path d="M208.363 119.559C208.46 119.559 208.559 119.556 208.658 119.55C211.416 119.389 213.521 117.022 213.361 114.264C213.115 110.105 213.005 106.318 213.005 102.87C212.984 87.7289 215.191 79.223 217.36 74.7834V168.578C217.36 172.849 220.822 176.309 225.09 176.309C229.36 176.309 232.822 172.849 232.822 168.578V112.132H235.72V168.578C235.72 172.849 239.183 176.309 243.451 176.309C247.72 176.309 251.183 172.849 251.183 168.578V74.8097C251.553 75.5701 251.926 76.4423 252.295 77.4603C254.058 82.3445 255.541 90.3602 255.535 102.871C255.535 106.319 255.424 110.107 255.182 114.266C255.021 117.023 257.127 119.39 259.885 119.551C259.984 119.556 260.081 119.56 260.18 119.56C262.809 119.56 265.016 117.508 265.171 114.849C265.422 110.514 265.541 106.533 265.541 102.871C265.515 83.9984 262.501 73.5522 258.391 67.2718C256.336 64.1534 253.933 62.1543 251.713 61.0463C249.582 59.9727 247.71 59.7288 246.582 59.7126C246.504 59.7088 246.429 59.7007 246.35 59.7007H222.192C222.109 59.7007 222.027 59.7088 221.945 59.7132C220.815 59.7288 218.949 59.9758 216.827 61.0463C213.462 62.7134 209.838 66.362 207.3 72.8269C204.733 79.3181 203.008 88.7019 203 102.87C203 106.532 203.118 110.513 203.373 114.849C203.528 117.507 205.732 119.559 208.363 119.559Z" fill="#076AAB"/>
<path d="M234.268 28C226.497 28 220.199 34.2986 220.199 42.0698C220.199 49.8409 226.497 56.1377 234.268 56.1377C242.04 56.1377 248.338 49.8409 248.338 42.0698C248.338 34.2986 242.04 28 234.268 28ZM234.268 53.1306C228.159 53.1306 223.208 48.1783 223.208 42.0698C223.208 35.9619 228.16 31.0102 234.268 31.0102C240.377 31.0102 245.329 35.9619 245.329 42.0698C245.328 48.1789 240.376 53.1306 234.268 53.1306Z" fill="#076AAB"/>
<path d="M134 59L133 59L133 61L134 61L134 60L134 59ZM193.707 60.7071C194.098 60.3166 194.098 59.6834 193.707 59.2929L187.343 52.9289C186.953 52.5384 186.319 52.5384 185.929 52.9289C185.538 53.3195 185.538 53.9526 185.929 54.3432L191.586 60L185.929 65.6569C185.538 66.0474 185.538 66.6805 185.929 67.0711C186.319 67.4616 186.953 67.4616 187.343 67.0711L193.707 60.7071ZM134 60L134 61L193 61L193 60L193 59L134 59L134 60Z" fill="#076AAB"/>
</g>
<defs>
<radialGradient id="paint0_radial_5583_4160" cx="0" cy="0" r="1" gradientUnits="userSpaceOnUse" gradientTransform="translate(164 74) rotate(90) scale(74 164)">
<stop stop-color="white"/>
<stop offset="0.5" stop-color="#F4FBFF"/>
<stop offset="1" stop-color="#EDF8FF"/>
</radialGradient>
<clipPath id="clip0_5583_4160">
<rect width="328" height="148" rx="74" fill="white"/>
</clipPath>
</defs>
</svg>
